<?xml version="1.0" encoding="UTF-8"?>
<svg id="Layer_2" data-name="Layer 2" xmlns="http://www.w3.org/2000/svg" xmlns:xlink="http://www.w3.org/1999/xlink" viewBox="0 0 191.52 249.51">
  <defs>
    <style>
      .cls-1 {
        fill: #8acc9c;
      }

      .cls-2 {
        fill: #f5835b;
      }

      .cls-3 {
        fill: #58595b;
      }

      .cls-4 {
        fill: #f5dfc0;
      }

      .cls-5 {
        fill: #2da98c;
      }

      .cls-6 {
        fill: #c5b4d2;
      }

      .cls-7 {
        fill: #faaf88;
      }

      .cls-8 {
        fill: #6094ba;
      }

      .cls-9 {
        fill: #9fc4d0;
      }

      .cls-10 {
        fill: #f0bbb9;
      }

      .cls-11 {
        font-family: UtopiaStd-Regular, 'Utopia Std';
        font-size: 18.78px;
      }

      .cls-12 {
        fill: #c4dec2;
      }

      .cls-13 {
        fill: #abc4e6;
      }

      .cls-14 {
        fill: #c3cd9d;
      }

      .cls-15 {
        fill: #d8b195;
      }

      .cls-16 {
        fill: #adc1cd;
      }

      .cls-17 {
        fill: #f1f2f2;
      }

      .cls-18 {
        fill: #008ad0;
      }

      .cls-19 {
        fill: #ffe7a5;
      }

      .cls-20 {
        fill: #6fb59e;
      }

      .cls-21 {
        fill: #db7cb0;
      }

      .cls-22 {
        stroke: #fff;
      }

      .cls-22, .cls-23 {
        fill: none;
        stroke-miterlimit: 10;
        stroke-width: .5px;
      }

      .cls-24 {
        fill: #c0e1ea;
      }

      .cls-25 {
        fill: #5e4f2f;
      }

      .cls-26 {
        fill: #fff;
      }

      .cls-27 {
        fill: #bd7ca0;
      }

      .cls-28 {
        font-family: HiraMaruPro-W4-83pv-RKSJ-H, 'Hiragino Maru Gothic Pro';
        font-size: 11.88px;
        letter-spacing: -.07em;
      }

      .cls-23 {
        stroke: #231f20;
      }

      .cls-29 {
        fill: #6a8261;
      }

      .cls-30 {
        fill: #96588f;
      }

      .cls-31 {
        fill: #fee5d6;
      }

      .cls-32 {
        fill: #5da2c8;
      }

      .cls-33 {
        fill: #2f4c70;
      }

      .cls-34 {
        fill: #9099c4;
      }

      .cls-35 {
        fill: #2e3192;
        filter: url(#drop-shadow-1);
      }

      .cls-36 {
        fill: #edc4d7;
      }

      .cls-37 {
        fill: #e6e7e8;
      }

      .cls-38 {
        fill: #f99e49;
      }

      .cls-39 {
        clip-path: url(#clippath);
      }

      .cls-40 {
        fill: #c15f8d;
      }
    </style>
    <filter id="drop-shadow-1" x="0" y="5.67" width="191.52" height="243.84" filterUnits="userSpaceOnUse">
      <feOffset dx="7" dy="7"/>
      <feGaussianBlur result="blur" stdDeviation="5"/>
      <feFlood flood-color="#231f20" flood-opacity=".75"/>
      <feComposite in2="blur" operator="in"/>
      <feComposite in="SourceGraphic"/>
    </filter>
    <clipPath id="clippath">
      <polygon class="cls-22" points="81.44 130.75 71.21 113.03 81.44 95.31 101.9 95.31 112.13 113.03 101.9 130.75 81.44 130.75"/>
    </clipPath>
  </defs>
  <g id="_レイヤー_1" data-name="レイヤー 1">
    <rect class="cls-35" x="8.09" y="13.73" width="161.37" height="213.57"/>
    <text class="cls-26" transform="translate(29.9 49.6)"><tspan class="cls-11"><tspan x="0" y="0">RaJA GLOBAL</tspan></tspan><tspan class="cls-11"><tspan x="12.66" y="18">ACADEMY</tspan></tspan><tspan class="cls-28"><tspan x="6.81" y="30.87">３～５歳児幼保教育</tspan></tspan></text>
    <g>
      <g>
        <g>
          <g>
            <g class="cls-39">
              <polygon class="cls-22" points="81.44 130.75 71.21 113.03 81.44 95.31 101.9 95.31 112.13 113.03 101.9 130.75 81.44 130.75"/>
              <g>
                <g>
                  <path class="cls-22" d="M107.2,130.75c-2.92,0-5.29-7.93-5.29-17.72s2.37-17.72,5.29-17.72"/>
                  <path class="cls-22" d="M76.43,130.75c2.92,0,5.29-7.93,5.29-17.72,0-9.79-2.37-17.72-5.29-17.72"/>
                  <path class="cls-22" d="M74.94,128.41c0-2.92,7.93-5.29,17.72-5.29,9.79,0,17.72,2.37,17.72,5.29"/>
                  <path class="cls-22" d="M74.94,97.65c0,2.92,7.93,5.29,17.72,5.29s17.72-2.37,17.72-5.29"/>
                </g>
                <g>
                  <path class="cls-22" d="M114.78,114.98c-2.07,2.07-9.35-1.87-16.27-8.79-6.92-6.92-10.85-14.21-8.79-16.27"/>
                  <path class="cls-22" d="M93.03,136.74c2.07-2.07-1.87-9.35-8.79-16.27-6.92-6.92-14.21-10.85-16.27-8.79"/>
                  <path class="cls-22" d="M90.32,136.14c-2.07-2.07,1.87-9.35,8.79-16.27,6.92-6.92,14.21-10.85,16.27-8.79"/>
                  <path class="cls-22" d="M68.56,114.38c2.07,2.07,9.35-1.87,16.27-8.79s10.85-14.21,8.79-16.27"/>
                </g>
              </g>
            </g>
            <polygon class="cls-22" points="81.44 130.75 71.21 113.03 81.44 95.31 101.9 95.31 112.13 113.03 101.9 130.75 81.44 130.75"/>
          </g>
          <polygon class="cls-22" points="83.52 127.15 75.36 113.03 83.52 98.9 99.83 98.9 107.98 113.03 99.83 127.15 83.52 127.15"/>
        </g>
        <polygon class="cls-22" points="81.44 130.75 71.21 113.03 81.44 95.31 101.9 95.31 112.13 113.03 101.9 130.75 81.44 130.75"/>
      </g>
      <g>
        <line class="cls-22" x1="81.44" y1="130.75" x2="101.91" y2="130.75"/>
        <line class="cls-22" x1="101.91" y1="130.75" x2="91.67" y2="137.59"/>
        <line class="cls-22" x1="81.44" y1="130.75" x2="91.67" y2="137.59"/>
        <line class="cls-22" x1="101.91" y1="157.25" x2="81.44" y2="157.25"/>
        <line class="cls-22" x1="81.44" y1="157.25" x2="91.67" y2="137.59"/>
        <line class="cls-22" x1="101.91" y1="157.25" x2="91.67" y2="137.59"/>
      </g>
    </g>
    <g>
      <g>
        <polygon class="cls-19" points="64.84 215.52 64.4 216.65 62.65 213.42 64.84 215.52"/>
        <path class="cls-37" d="M62.65,213.42l1.75,3.23-3.76,1.14,1.14-2.01-5.33-1.57h-15.03l-1.92.87-1.57,1.4.08-.88.18-1.91s1.01-3.96.72-4.1l16.91,3.38,6.84.46Z"/>
        <path class="cls-4" d="M62.65,213.42l-6.84-.46-16.91-3.38s-.01,0-.02,0c-.35,0-6.64-4.37-6.64-4.37l-1.4,2.01-1.05-3.06-3.84-1.31-4.89,2.18-1.05,1.05v-1.84l-3.32-6.64,2.45,2.18,7.95,1.57,5.77,2.18,3.5,1.22,3.76,3.06,4.98.74,17.56,4.85Z"/>
        <path class="cls-31" d="M38.96,223.99v3.41l-2.96.7-1.92-1.14,1.49-2.18.53-2.53-1.22-2.36-.96-2.18-1.75-1.83-1.31-8.65,1.4-2.01s6.29,4.37,6.64,4.37h.02c.29.14-.72,4.11-.72,4.11l-.18,1.91-.08.88,1.03,5.68v1.84Z"/>
        <polygon class="cls-4" points="33.9 217.7 35.21 223.99 31.02 223.2 32.94 221.37 32.94 219.01 31.98 216.87 32.16 215.87 33.9 217.7"/>
        <path class="cls-19" d="M30.84,207.21l1.31,8.65-.17,1-8.48-1.7-4.11-5.68s-.67-.67-1.14-.87l.09-.05,1.66-2.48,1.05-1.05,4.89-2.18,3.84,1.31,1.05,3.06Z"/>
        <path class="cls-4" d="M23.51,215.17s.09,7.25,0,7.52-.96,5.42-.96,5.42l-4.02-.61,1.49-2.71.52-4.37-.52-3.15-2.27-4.89s.09-2.53.09-3.5l.43-.26c.46.2,1.14.87,1.14.87l4.11,5.68Z"/>
        <polygon class="cls-37" points="20.64 168.33 20.64 169.11 20.01 169.11 19.05 169.46 20.01 169.9 20.64 170.69 19.14 170.69 18.09 170.69 17.24 169.89 16.6 169.29 17.24 168.4 17.74 167.72 18.35 167.72 20.01 167.72 20.64 168.33"/>
        <path class="cls-37" d="M20.01,204.24v1.84l-1.66,2.48-.09.05c-.25-.1-.43-.07-.43.26,0,.96-.09,3.5-.09,3.5l-1.57-.7-2.53-2.45-1.92-4.98v-4.46l3.41-12.5,1.57,10.31,3.32,6.64Z"/>
        <polygon class="cls-31" points="20.01 167.19 20.01 167.72 18.35 167.72 18.35 167.45 20.01 165.36 20.01 167.19"/>
        <polygon class="cls-4" points="20.01 165.36 18.35 167.45 17.74 166.49 17.24 167.28 17.24 168.4 16.6 169.29 17.24 169.89 14.9 172.84 14.9 174.61 14.06 186.54 11.71 196.61 11.71 189.91 11.71 175.49 12.23 173.05 13.19 170.69 15.12 167.89 18.61 165.36 20.01 165.36"/>
        <path class="cls-31" d="M17.74,212.37l2.27,4.89-.61,2.27-.79,5.24h-4.28c1.14-.96,2.01-3.23,2.01-3.23l-.18-9.87,1.57.7Z"/>
        <polygon class="cls-24" points="18.35 167.45 18.35 167.72 17.74 167.72 17.24 168.4 17.24 167.28 17.74 166.49 18.35 167.45"/>
        <polygon class="cls-19" points="18.09 170.69 16.34 172.61 15.86 174.62 15.12 187.29 11.71 199.79 11.71 196.61 14.06 186.54 14.9 174.61 14.9 172.84 17.24 169.89 18.09 170.69"/>
      </g>
      <g>
        <path class="cls-23" d="M16.16,211.67l.18,9.87s-.87,2.27-2.01,3.23h4.28l.79-5.24.61-2.27-2.27-4.89-1.57-.7-2.53-2.45-1.92-4.98v-28.75l.52-2.45.96-2.36,1.92-2.8,3.5-2.53h1.4v2.36"/>
        <path class="cls-23" d="M20.01,217.26l.52,3.15-.52,4.37-1.49,2.71,4.02.61s.87-5.16.96-5.42,0-7.52,0-7.52l-4.11-5.68s-.67-.67-1.14-.87c-.25-.1-.43-.07-.43.26,0,.96-.09,3.5-.09,3.5"/>
        <polyline class="cls-23" points="18.09 170.69 17.24 169.89 16.6 169.29 17.24 168.4 17.74 167.72 18.35 167.72 20.01 167.72 20.64 168.33 20.64 169.11 20.01 169.11 19.05 169.46 20.01 169.9 20.64 170.69 19.14 170.69 18.09 170.69 16.34 172.61 15.86 174.62 15.12 187.29 16.69 197.6 19.14 199.79 27.09 201.36 32.86 203.54 36.35 204.77 40.11 207.83 45.09 208.56 62.65 213.42 64.84 215.52 64.4 216.65 60.64 217.79 61.78 215.78 56.45 214.2 41.42 214.2 39.5 215.08 37.92 216.48"/>
        <line class="cls-23" x1="15.12" y1="187.29" x2="11.71" y2="199.79"/>
        <polyline class="cls-23" points="17.83 208.87 18.26 208.62 18.35 208.56 20.01 206.08 20.01 204.24 16.69 197.6"/>
        <polyline class="cls-23" points="30.84 207.21 29.8 204.16 25.95 202.84 21.06 205.03 20.01 206.08"/>
        <line class="cls-23" x1="31.98" y1="216.87" x2="32.16" y2="215.87"/>
        <polyline class="cls-23" points="20.01 165.36 18.35 167.45 17.74 166.49 17.24 167.28 17.24 168.4"/>
        <polyline class="cls-23" points="17.24 169.89 14.9 172.84 14.9 174.61 14.06 186.54 11.71 196.61"/>
        <line class="cls-23" x1="18.35" y1="167.72" x2="18.35" y2="167.45"/>
        <path class="cls-23" d="M33.9,217.7l.96,2.18,1.22,2.36-.53,2.53-1.49,2.18,1.92,1.14,2.96-.7v-5.24l-1.03-5.68.08-.88.18-1.91s1.01-3.96.72-4.1c0,0-.01,0-.02,0-.35,0-6.64-4.37-6.64-4.37l-1.4,2.01,1.31,8.65,1.75,1.83,1.31,6.29-4.19-.79,1.92-1.84v-2.36l-.96-2.14-8.48-1.7"/>
        <polyline class="cls-23" points="64.4 216.65 62.65 213.42 55.81 212.96 38.9 209.58 38.89 209.57"/>
      </g>
    </g>
    <g>
      <g>
        <polygon class="cls-40" points="148.16 37.79 148.04 38.71 147.28 38.24 144 33.49 140.94 29.05 134.05 20.28 127.8 14.23 127.8 14.23 125.69 12.18 120.32 8.98 120.32 8.98 114.77 5.67 113.69 5.9 111.45 8.35 108.58 11.5 107.23 13.2 106.47 13.29 105.31 13.03 100.44 14.16 97.62 14.24 97.08 13.5 97.76 12.53 100.65 12.55 105.64 10.78 109.25 8.02 111.4 5.08 111.58 4.84 112.13 4.08 115.15 3.88 125.92 11.05 136.87 21.64 143.06 29.17 148.16 37.79"/>
        <polygon class="cls-36" points="140.94 29.05 144 33.49 137.5 26.32 137.5 26.32 134.05 20.28 140.94 29.05"/>
        <path class="cls-36" d="M134.05,20.28l3.45,6.03c-.08-.07-5.45-4.77-5.49-5.05,0,0,0-.02-.02-.03l-4.19-7.01,6.25,6.05Z"/>
        <path class="cls-27" d="M127.8,14.23l4.19,7.01c-.38-.44-5.8-3.51-5.88-3.56h0c-.07-.05-5.69-8.56-5.78-8.7l5.37,3.2,2.11,2.04h0Z"/>
        <path class="cls-21" d="M126.11,17.68s-1.76-.6-1.76-.6l-3.18-.04-7.48-11.13,1.08-.24,5.55,3.31h0c.09.13,5.71,8.65,5.78,8.7h0Z"/>
        <polygon class="cls-36" points="113.69 5.9 121.17 17.03 119.11 17.54 118.05 17.9 111.45 8.35 113.69 5.9"/>
        <polygon class="cls-10" points="111.45 8.35 118.05 17.9 114.73 19.02 107.23 13.2 108.58 11.5 111.45 8.35"/>
        <polygon class="cls-40" points="114.73 19.02 111.71 21.17 110.08 23.44 103.89 17.49 104.87 17.02 107.23 13.2 114.73 19.02"/>
        <polygon class="cls-30" points="115.15 3.88 112.13 4.08 111.58 4.84 111.4 5.08 111.58 3.68 111.76 3.14 112.37 3.37 112.97 3.07 113.44 3.5 114.03 3.28 114.19 3.75 114.74 3.56 115.15 3.88"/>
        <polygon class="cls-10" points="114.82 2.97 114.74 3.56 114.19 3.75 114.03 3.28 114.09 2.8 114.49 2.59 114.82 2.97"/>
        <polygon class="cls-10" points="114.09 2.8 114.03 3.28 113.44 3.5 112.97 3.07 113.57 2.21 114.09 2.8"/>
        <polygon class="cls-40" points="110.68 27.26 110.44 27.79 109.53 27.9 108.77 27.39 108.82 27.02 109.56 26.48 110.68 27.26"/>
        <polygon class="cls-10" points="112.72 2.1 112.97 3.07 112.37 3.37 111.76 3.14 112.01 2.38 112.72 2.1"/>
        <polygon class="cls-27" points="110.08 23.44 109.29 24.53 109.02 25.48 108.83 25.15 107.94 23.64 103.57 19.93 103.21 18.94 101.64 17.32 103.89 17.49 110.08 23.44"/>
        <polygon class="cls-6" points="109.02 25.48 109.56 26.48 108.82 27.02 105.51 24.23 103.02 21.69 102.65 21.66 102.06 21.61 100.15 20.13 100.81 18.78 100.16 17.21 101.64 17.32 103.21 18.94 103.57 19.93 107.94 23.64 108.83 25.15 109.02 25.48"/>
        <polygon class="cls-36" points="106.68 25.58 107.36 26.94 105.48 26.7 105.12 25.98 104.55 25.26 106.68 25.58"/>
        <polygon class="cls-10" points="106.68 25.58 104.55 25.26 104.35 25.02 102.76 24.02 100.85 22 99.9 20.65 100.15 20.13 102.06 21.61 102.65 21.66 103.76 22.8 106.68 25.58"/>
        <polygon class="cls-21" points="107.23 13.2 104.87 17.02 103.89 17.49 101.64 17.32 100.16 17.21 97.62 14.24 100.44 14.16 105.31 13.03 106.47 13.29 107.23 13.2"/>
        <polygon class="cls-40" points="100.16 17.21 100.81 18.78 100.15 20.13 99.9 20.65 99.09 20.54 96.69 20.23 95.75 19.4 94.71 17.88 94.8 15.71 96.23 15.37 97.62 14.24 100.16 17.21"/>
        <polygon class="cls-36" points="100.01 11.36 100.65 12.55 97.76 12.53 97.08 13.5 97.62 14.24 96.23 15.37 94.8 15.71 94.3 13.81 94.8 11.79 96.13 10.37 97.73 11.07 100.01 11.36"/>
        <path class="cls-27" d="M99.25,3.05l-.21,1.59-.6,1.14-2.63,1.78-.5.69.23.85-.75.84-1.79,1.68-.85.19-3.1-1.56.79-1.74.71-.28.95-.14,3.12-2.67,3.22-1.42,1.04-1.63.36.68ZM93.11,10.24c.04-.25-.12-.45-.26-.63-.14-.18-.29-.38-.55-.41-.27-.03-.48.16-.55.23-.14.13-.23.4-.25.67-.02.23.01.45.09.55.24.29.69.29.99.17.07-.03.47-.2.52-.57Z"/>
        <polygon class="cls-21" points="95.55 9.1 96.13 10.37 94.8 11.79 87.56 19.5 87.55 19.5 85.13 22.07 92.9 11.9 92.16 11.81 93.01 11.62 94.8 9.94 95.55 9.1"/>
        <polygon class="cls-21" points="94.3 13.81 94.8 15.71 93.84 15.11 94.3 13.81"/>
        <path class="cls-6" d="M87.56,19.5l7.24-7.7-.5,2.02-.46,1.3-.19.53s-.54.42-.61.31-1.44.13-1.44.13c0,0-3.84,3.22-4.05,3.41Z"/>
        <path class="cls-36" d="M92.86,9.61c.14.18.29.38.26.63-.05.37-.46.54-.52.57-.3.12-.75.12-.99-.17-.08-.1-.11-.32-.09-.55l.25.26.17.17s.33-.03.37-.03.28-.15.28-.15l.24-.39.05-.35Z"/>
        <polygon class="cls-36" points="92.9 11.9 85.13 22.07 84.73 22.02 88.03 15.3 88.85 14.18 89.16 13.95 92.16 11.81 92.9 11.9"/>
        <polygon class="cls-36" points="92.86 9.61 92.81 9.96 92.57 10.35 92.62 10.1 92.56 9.89 92.47 9.68 92.86 9.61"/>
        <path class="cls-36" d="M92.86,9.61l-.39.07-.54.09-.16.13-.1.07-.17.12c.02-.26.11-.54.25-.67.08-.07.28-.26.55-.23.26.03.41.23.55.41Z"/>
        <polygon class="cls-17" points="92.56 9.89 92.62 10.1 92.57 10.35 92 10.39 91.88 10.24 92.29 10.29 92.42 10.07 92.45 9.86 91.92 9.88 92.37 9.72 92.47 9.68 92.56 9.89"/>
        <path class="cls-36" d="M92,10.39l.57-.04s-.24.16-.28.15-.37.03-.37.03l-.17-.17-.25-.26.17-.12.21.26.12.15Z"/>
        <polygon class="cls-36" points="92.47 9.68 92.37 9.72 91.92 9.88 91.67 9.98 91.78 9.9 91.93 9.77 92.47 9.68"/>
        <polygon class="cls-9" points="92.45 9.86 92.42 10.07 92.29 10.29 91.88 10.24 91.92 9.88 92.45 9.86"/>
        <path class="cls-40" d="M92.16,11.81l-3,2.14-.32.23-7.22,5.15-.44-.36,1.43-2.37,6.12-6.14.33-.22,3.1,1.56ZM90.32,11.83l-.19-.29-.48-.06-.9,1.2,1.57-.85Z"/>
        <polygon class="cls-17" points="91.92 9.88 91.88 10.24 91.67 9.98 91.92 9.88"/>
        <polygon class="cls-3" points="90.13 11.54 90.32 11.83 88.75 12.68 89.65 11.48 90.13 11.54"/>
        <polygon class="cls-10" points="90.56 8.23 89.85 8.51 89.34 8.7 89.1 9.12 89.1 9.65 89.06 10.24 88.74 10.46 86.09 7.76 83.92 5.15 82.49 3.99 80.56 2.99 77.85 .46 79.79 .53 84.83 3.84 90.56 8.23"/>
        <polygon class="cls-6" points="89.85 8.51 89.06 10.24 89.1 9.65 89.1 9.12 89.34 8.7 89.85 8.51"/>
        <polygon class="cls-27" points="88.74 10.46 86.71 10.2 78.18 1.4 78.05 1.04 77.85 .46 80.56 2.99 82.49 3.99 83.92 5.15 86.09 7.76 88.74 10.46"/>
        <polygon class="cls-36" points="86.71 10.2 81.35 11.94 76.17 5.94 77.57 2.6 78.18 1.4 86.71 10.2"/>
        <polygon class="cls-6" points="81.35 11.94 76.76 15.16 74.45 11.24 75.02 8.68 76.17 5.94 81.35 11.94"/>
        <polygon class="cls-10" points="76.76 15.16 75.66 15.93 74.95 17.08 73.95 13.48 74.45 11.24 76.76 15.16"/>
        <polygon class="cls-36" points="78.05 1.04 78.18 1.4 78.01 1.38 77.95 1.13 77.78 1.03 77.81 .81 77.64 .67 77.85 .46 78.05 1.04"/>
      </g>
      <g>
        <polygon class="cls-23" points="77.85 .46 79.79 .53 84.83 3.84 90.56 8.23 89.85 8.51 89.34 8.7 89.1 9.12 89.1 9.65 89.06 10.24 88.74 10.46 86.09 7.76 83.92 5.15 82.49 3.99 80.56 2.99 77.85 .46"/>
        <polyline class="cls-23" points="90.56 8.23 91.52 8.09 94.64 5.42 97.86 4 98.89 2.37 99.25 3.05 99.05 4.64 98.45 5.78 95.82 7.56 95.32 8.24 95.55 9.1 94.8 9.94 93.01 11.62 92.16 11.81 89.06 10.24 89.85 8.51"/>
        <polyline class="cls-23" points="88.85 14.18 88.03 15.3 84.73 22.02 85.13 22.07 92.9 11.9 92.16 11.81 89.16 13.95 88.85 14.18 81.63 19.33 81.19 18.97 82.62 16.61 88.74 10.46 86.71 10.2 81.35 11.94 76.76 15.16 75.66 15.93 74.95 17.08 73.95 13.48 74.45 11.24 75.02 8.68 76.17 5.94 77.57 2.6 78.18 1.4 78.05 1.04 77.85 .46 77.64 .67 77.81 .81 77.78 1.03 77.95 1.13 78.01 1.38 78.18 1.4 86.71 10.2"/>
        <line class="cls-23" x1="87.55" y1="19.5" x2="85.13" y2="22.07"/>
        <polyline class="cls-23" points="95.55 9.1 96.13 10.37 94.8 11.79 87.56 19.5"/>
        <path class="cls-23" d="M87.55,19.5s0,0,0,0c.21-.19,4.05-3.41,4.05-3.41,0,0,1.37-.23,1.44-.13s.61-.31.61-.31l.19-.53.46-1.3.5-2.02"/>
        <polyline class="cls-23" points="93.84 15.11 94.8 15.71 94.3 13.81"/>
        <polyline class="cls-23" points="127.8 14.23 134.05 20.28 140.94 29.05 144 33.49 147.28 38.24 148.04 38.71 148.16 37.79 143.06 29.17 136.87 21.64 125.92 11.05 115.15 3.88 112.13 4.08 111.58 4.84 111.4 5.08 109.25 8.02 105.64 10.78 100.65 12.55"/>
        <polyline class="cls-23" points="120.32 8.98 125.69 12.18 127.8 14.23"/>
        <polyline class="cls-23" points="96.13 10.37 97.73 11.07 100.01 11.36 100.65 12.55 97.76 12.53 97.08 13.5 97.62 14.24 96.23 15.37 94.8 15.71 94.71 17.88 95.75 19.4 96.69 20.23 99.09 20.54 99.9 20.65 100.15 20.13 100.81 18.78 100.16 17.21 97.62 14.24 100.44 14.16 105.31 13.03 106.47 13.29 107.23 13.2 108.58 11.5 111.45 8.35 113.69 5.9 114.77 5.67 120.32 8.98"/>
        <polyline class="cls-23" points="101.64 17.32 103.21 18.94 103.57 19.93 107.94 23.64 108.83 25.15 109.02 25.48 109.56 26.48 110.68 27.26 110.44 27.79 109.53 27.9 108.77 27.39 108.82 27.02 105.51 24.23 103.02 21.69 102.65 21.66 102.06 21.61 100.15 20.13"/>
        <polyline class="cls-23" points="99.9 20.65 100.85 22 102.76 24.02 104.35 25.02 104.55 25.26 105.12 25.98 105.48 26.7 107.36 26.94 106.68 25.58 103.76 22.8 102.65 21.66"/>
        <line class="cls-23" x1="104.55" y1="25.26" x2="106.68" y2="25.58"/>
        <line class="cls-23" x1="108.82" y1="27.02" x2="109.56" y2="26.48"/>
        <polyline class="cls-23" points="109.02 25.48 109.29 24.53 110.08 23.44 111.71 21.17 114.73 19.02 107.23 13.2 104.87 17.02 103.89 17.49 101.64 17.32 100.16 17.21"/>
        <polyline class="cls-23" points="114.73 19.02 118.05 17.9 119.11 17.54 121.17 17.03 113.69 5.9"/>
        <path class="cls-23" d="M126.11,17.67c-.07-.05-5.69-8.56-5.78-8.69h0"/>
        <path class="cls-23" d="M121.17,17.03l3.18.04s1.79.64,1.76.6"/>
        <path class="cls-23" d="M137.5,26.32c-.08-.07-5.45-4.77-5.49-5.05,0,0,0-.02-.02-.03-.38-.44-5.8-3.51-5.88-3.56h0"/>
        <line class="cls-23" x1="144" y1="33.49" x2="137.5" y2="26.32"/>
        <polyline class="cls-23" points="114.09 2.8 114.49 2.59 114.82 2.97 114.74 3.56 115.15 3.88"/>
        <polyline class="cls-23" points="111.4 5.08 111.58 3.68 111.76 3.14 112.01 2.38 112.72 2.1 112.97 3.07"/>
        <polygon class="cls-23" points="114.09 2.8 113.57 2.21 112.97 3.07 113.44 3.5 114.03 3.28 114.09 2.8"/>
        <polyline class="cls-23" points="111.76 3.14 112.37 3.37 112.97 3.07"/>
        <polyline class="cls-23" points="114.74 3.56 114.19 3.75 114.03 3.28"/>
        <line class="cls-23" x1="81.35" y1="11.94" x2="76.17" y2="5.94"/>
        <polyline class="cls-23" points="76.76 15.16 74.45 11.24 74.45 11.24"/>
        <line class="cls-23" x1="118.05" y1="17.9" x2="111.45" y2="8.35"/>
        <line class="cls-23" x1="110.08" y1="23.44" x2="103.89" y2="17.49"/>
        <polyline class="cls-23" points="132.01 21.27 131.99 21.23 127.8 14.23 127.8 14.23"/>
        <polyline class="cls-23" points="137.5 26.32 137.5 26.32 134.05 20.28"/>
        <polygon class="cls-23" points="88.75 12.68 89.65 11.48 90.13 11.54 90.32 11.83 88.75 12.68"/>
        <path class="cls-23" d="M91.5,10.1c.02-.26.11-.54.25-.67.08-.07.28-.26.55-.23.26.03.41.23.55.41.14.18.29.38.26.63-.05.37-.46.54-.52.57-.3.12-.75.12-.99-.17-.08-.1-.11-.32-.09-.55Z"/>
        <path class="cls-23" d="M91.67,9.98l.1-.07.16-.13.54-.09.39-.07-.05.35-.24.39s-.24.16-.28.15-.37.03-.37.03l-.17-.17-.25-.26.17-.12Z"/>
        <polygon class="cls-23" points="92.47 9.68 92.56 9.89 92.62 10.1 92.57 10.35 92 10.39 91.88 10.24 91.67 9.98 91.92 9.88 92.37 9.72 92.47 9.68"/>
        <polygon class="cls-23" points="91.92 9.88 92.45 9.86 92.42 10.07 92.29 10.29 91.88 10.24 91.92 9.88"/>
      </g>
    </g>
    <g>
      <g>
        <polygon class="cls-2" points="86.69 213.33 86.69 214.28 85.96 214.59 85.12 214.33 83.07 213.49 82.86 212.75 84.59 211.07 85.64 210.6 86.33 211.39 85.38 211.39 84.06 212.44 85.2 213.33 86.01 212.36 86.69 213.33"/>
        <polygon class="cls-15" points="86.69 213.02 86.69 213.33 86.01 212.36 85.2 213.33 85.38 211.39 86.33 211.39 86.69 213.02"/>
        <polygon class="cls-38" points="86.69 211.81 86.69 213.02 86.33 211.39 86.69 211.81"/>
        <polygon class="cls-38" points="86.69 214.28 86.12 215.96 85.12 216.64 83.75 215.46 83.12 214.28 81.96 213.33 81.25 212.36 83.07 213.49 83.64 214.5 85.64 215.59 85.96 214.59 86.69 214.28"/>
        <polygon class="cls-7" points="85.96 214.59 85.64 215.59 83.64 214.5 83.07 213.49 85.12 214.33 85.96 214.59"/>
        <polygon class="cls-2" points="85.9 207.92 85.9 209.65 85.64 210.6 83.01 207.92 85.9 207.92"/>
        <path class="cls-15" d="M83.01,207.92l2.63,2.68-1.05.47-2.58-2.26-1.52-.95-.95.32v2.21l-1.13.45v2.5h-4.6l-5.31-.26-3,1.43-.77.44-.23-4.34,1.63-4.42s-2.94-4.73-3.05-4.89l-.53-1.05h1.68l-1.52-3.57-.3-.39,1.82.71,1.31.84,1.76,1.16.92,1.26.53.89.77,1.21h1.07l.37.83-.74,1.9v1.68l-1.05,1.74,1.1,2.93.69-1.72,2.2-2.58-.14-.5.4-.75.37.75v1.55l-.63,1.64.84,1.81v-1.25l1.31-2.21h1.05l-.63,2.21.89,1.04.21-1.3.94-2,.33-.31-.33-.29.62-.24.13.9.89-.63.79-.03,1.52.03,1.26.37ZM68.77,205.39l-.32-2.26-1.68-3.47-.89-.37v3.1l.74,1.79,2.16,1.21Z"/>
        <polygon class="cls-38" points="85.38 211.39 85.2 213.33 84.06 212.44 85.38 211.39"/>
        <polygon class="cls-7" points="85.12 216.64 82.28 214.59 78.42 213.33 78.42 210.83 79.54 210.39 80.23 211.07 81.96 209.91 82.01 208.81 84.59 211.07 82.86 212.75 83.07 213.49 81.25 212.36 81.96 213.33 83.12 214.28 83.75 215.46 85.12 216.64"/>
        <polygon class="cls-2" points="82.28 205.71 81.75 207.55 80.23 207.52 82.28 205.71"/>
        <polygon class="cls-38" points="82.28 214.59 78.42 215.33 74.92 215.33 71.39 216.99 70.29 216.33 68.55 217.33 65.08 217.33 63.3 217.01 63.3 215.75 64.73 214.94 65.51 214.5 68.5 213.07 73.81 213.33 78.42 213.33 82.28 214.59"/>
        <path class="cls-38" d="M82.01,208.81l-.05,1.1-1.74,1.16-.68-.68v-2.21l.95-.32,1.52.95ZM80.7,210.12l1.07-.79-.95-.62-.41-.27-.54,1.26.84.42Z"/>
        <polygon class="cls-15" points="81.77 209.34 80.7 210.12 81.25 209.28 80.81 208.71 81.77 209.34"/>
        <polygon class="cls-25" points="80.81 208.71 81.25 209.28 80.7 210.12 80.4 209.34 80.81 208.71"/>
        <polygon class="cls-2" points="80.23 226.32 81.25 227.79 79.86 227.79 79.54 226.53 80.23 226.32"/>
        <polygon class="cls-15" points="80.4 208.44 80.81 208.71 80.4 209.34 80.7 210.12 79.86 209.7 80.4 208.44"/>
        <polygon class="cls-2" points="78.12 205.22 80.23 207.52 79.44 207.55 78.54 208.18 78.42 207.28 78.12 205.22"/>
        <polygon class="cls-7" points="77.65 223.27 80.23 226.32 79.54 226.53 77.65 226.11 76.94 226.32 76.07 227.05 75.34 226.58 75.1 228.16 74.92 224.79 77.65 223.27"/>
        <polygon class="cls-38" points="79.54 226.53 79.86 227.79 76.9 228.16 76.86 227.05 76.94 226.32 77.65 226.11 79.54 226.53"/>
        <polygon class="cls-2" points="78.12 207.81 77.8 208.12 77.07 208.81 76.39 208.18 75.87 206.15 75.76 205.71 76.07 205.98 77.26 207.05 77.8 207.52 78.12 207.81"/>
        <polygon class="cls-7" points="77.07 208.81 77.8 208.12 76.86 210.12 76.65 211.43 75.76 210.39 76.39 208.18 77.07 208.81"/>
        <polygon class="cls-15" points="77.65 204.71 77.26 207.05 76.07 205.98 77.65 204.71"/>
        <polygon class="cls-38" points="77.48 220.53 77.65 223.27 74.92 224.79 73.81 223.27 72.34 220.27 75.1 219.75 77.48 220.53"/>
        <polygon class="cls-2" points="76.07 218.64 77.48 220.53 75.1 219.75 76.07 218.64"/>
        <polygon class="cls-2" points="76.94 226.32 76.86 227.05 76.9 228.16 76.07 228.16 76.07 227.05 76.94 226.32"/>
        <polygon class="cls-15" points="75.87 206.15 76.39 208.18 75.34 206.79 75.76 206.18 75.87 206.15"/>
        <polygon class="cls-2" points="75.34 206.79 76.39 208.18 75.34 208.18 73.81 208.18 73.81 206.63 73.81 205.39 75.34 206.79"/>
        <polygon class="cls-38" points="76.07 227.05 76.07 228.16 75.1 228.16 75.34 226.58 76.07 227.05"/>
        <polygon class="cls-7" points="75.1 216.33 76.07 218.64 75.1 219.75 72.34 220.27 71.39 216.99 74.92 215.33 75.1 216.33"/>
        <polygon class="cls-7" points="75.34 208.18 74.02 210.39 74.02 211.63 73.18 209.82 73.81 208.18 75.34 208.18"/>
        <polygon class="cls-15" points="74.92 202.34 74.71 203.5 73.72 205.34 73.44 205.88 73.04 206.63 72.5 204.76 71.71 203.74 74.92 202.34"/>
        <polygon class="cls-2" points="70.98 203.17 71.08 202.92 71.71 203.74 72.5 204.76 73.04 206.63 73.18 207.13 71.55 207.52 70.24 206.76 70.24 205.08 70.98 203.17"/>
        <polygon class="cls-7" points="73.18 207.13 70.98 209.7 70.29 211.43 69.19 208.5 70.24 206.76 71.55 207.52 73.18 207.13"/>
        <polygon class="cls-2" points="72.03 196.67 72.34 198.98 70.61 201.61 70.61 202.34 69.54 202.34 68.77 201.13 68.24 200.24 72.03 196.67"/>
        <polygon class="cls-2" points="69.19 192.65 68.77 195.61 67.32 198.98 65.56 197.82 64.24 196.98 64.93 195.88 69.19 192.65"/>
        <polygon class="cls-2" points="68.45 203.13 68.77 205.39 66.61 204.18 65.87 202.4 65.87 199.29 66.77 199.66 68.45 203.13"/>
        <path class="cls-7" d="M66.14,206.18l-1.63,4.42-2.55-3.2-3.5-2.69-.3-1.79,1.51-2s3.31.21,3.42.37c.11.16,3.05,4.89,3.05,4.89Z"/>
        <polygon class="cls-2" points="64.51 210.6 64.73 214.94 63.3 215.75 62.38 212.75 58.69 211.39 58.95 209.91 58.46 204.71 61.96 207.4 64.51 210.6"/>
        <polygon class="cls-2" points="62.72 196.67 64.24 200.24 62.56 200.24 60.46 198.61 59.67 196.35 59.67 194.86 59.67 192.65 60.52 193.77 62.42 196.27 62.72 196.67"/>
        <polygon class="cls-15" points="63.51 190.18 62.42 196.27 60.52 193.77 63.51 190.18"/>
        <polygon class="cls-7" points="63.3 215.75 63.3 217.01 60.14 218.96 56.78 218.64 55.2 217.01 56.41 216.07 57.57 214.28 57.57 212.75 58.69 211.39 62.38 212.75 63.3 215.75"/>
        <path class="cls-38" d="M62.56,200.24l.53,1.05c-.11-.16-3.42-.37-3.42-.37l-1.51,2,.3,1.79.49,5.21-.26,1.47-1.12,1.37v1.52l-2.16-1.21s-.24-.26-.58-.64c-.92-1.03-2.59-2.94-2.47-3.09.16-.21-.47-5.44-.47-5.44l1.37-2.71,1.95-4,3.94.63-.92-1.55.92-.24.53.32.79,2.26,2.1,1.63Z"/>
        <polygon class="cls-7" points="61.51 227.05 62.38 227.97 61.96 227.97 61.51 227.05"/>
        <polygon class="cls-38" points="62.38 223.06 61.51 223.27 60.52 222.53 60.52 222.06 61.25 222.06 62.38 223.06"/>
        <polygon class="cls-38" points="61.51 227.05 61.96 227.97 60.14 228.16 59.98 227.79 59.67 226.69 60.52 226.11 61.51 227.05"/>
        <polygon class="cls-2" points="61.51 223.27 60.14 223.85 59.91 222.73 60.14 221.72 60.52 222.53 61.51 223.27"/>
        <polygon class="cls-7" points="60.52 221.11 61.25 222.06 60.52 222.06 60.52 222.53 60.14 221.72 60.14 220.27 60.14 218.96 60.52 221.11"/>
        <polygon class="cls-7" points="59.67 224.32 60.52 226.11 59.67 226.69 59.25 226.53 58.23 227.37 58.23 228.16 58.22 228.22 57.78 228.16 55.2 227.97 55.41 225.71 55.41 223.85 57.46 224.32 59.67 224.32"/>
        <polygon class="cls-38" points="60.14 220.27 60.14 221.72 59.91 222.73 59.67 223.74 59.67 224.32 57.46 224.32 55.41 223.85 54.83 220.59 54.83 217.8 55.2 217.01 56.78 218.64 60.14 220.27"/>
        <polygon class="cls-2" points="60.14 218.96 60.14 220.27 56.78 218.64 60.14 218.96"/>
        <polygon class="cls-7" points="59.91 222.73 60.14 223.85 59.67 224.32 59.67 223.74 59.91 222.73"/>
        <polygon class="cls-2" points="59.98 227.79 60.14 228.16 59.41 228.37 58.22 228.22 58.23 228.16 58.23 227.37 59.25 226.53 59.67 226.69 59.98 227.79"/>
        <polygon class="cls-15" points="59.67 194.86 59.67 196.35 59.14 196.03 59.67 194.86"/>
        <polygon class="cls-2" points="58.23 196.27 59.14 197.82 55.2 197.19 53.73 194.3 52.36 188.74 56.46 193.29 58.23 196.27"/>
        <polygon class="cls-7" points="55.2 197.19 53.26 201.19 51.89 203.89 49.68 202.92 48.63 203.5 49.05 201.13 49.68 200.32 50.84 198.98 51.94 198.98 52.89 197.61 54.46 197.45 55.2 197.19"/>
        <polygon class="cls-2" points="54.15 224.79 54.83 225.73 53.52 225.73 53.52 225.16 53.52 224.32 54.15 224.79"/>
        <path class="cls-15" d="M54.83,212.43l-.37.64-.32,2.26-.84,2.68.11.63.42,1.05-.11,2.84.42,2.26-.63-1.53-.63-1.21-1-.95-1.05.6-.37.34-.79,1.5v-3.76l.37-.34v-.82l-.37-1.66-.63-3.92-.47-2.94-.32-5.68.37-.95,1.05-.58,2.21.97s.63,5.23.47,5.44c-.11.15,1.56,2.06,2.47,3.09Z"/>
        <polygon class="cls-2" points="53.62 194.86 54.46 197.45 52.89 197.61 51.94 198.98 50.84 198.98 49.31 190.74 53.62 194.86"/>
        <polygon class="cls-7" points="53.52 223.27 54.15 224.79 53.52 224.32 53.52 225.16 52.89 224.11 51.77 225.02 50.84 223.85 50.26 224.78 50.26 223.85 49.05 224.79 49.68 223.56 50.47 222.06 50.84 221.72 51.89 221.11 52.89 222.06 53.52 223.27"/>
        <polygon class="cls-38" points="53.52 225.16 53.52 225.73 51.8 225.71 50.26 225.71 50.26 224.78 50.84 223.85 51.77 225.02 52.89 224.11 53.52 225.16"/>
        <polygon class="cls-2" points="50.26 224.78 50.26 225.71 49.05 225.71 49.05 224.79 50.26 223.85 50.26 224.78"/>
        <polygon class="cls-2" points="46.84 197.14 49.68 200.32 49.05 201.13 48.63 203.5 47.05 199.29 46.84 197.14"/>
        <polygon class="cls-7" points="48.26 204.45 48.58 210.12 46.37 210.6 44.74 210.6 44.74 208.81 45.95 207.52 47.21 206.18 48.26 204.45"/>
        <polygon class="cls-2" points="45.95 201.61 48.26 204.45 47.21 206.18 46.26 204.29 45.95 201.61"/>
        <polygon class="cls-2" points="45.37 204.71 45.95 207.52 44.74 208.81 45.37 204.71"/>
        <polygon class="cls-38" points="44.74 208.81 44.74 210.6 43.95 209.34 44.21 208.81 44.74 208.81"/>
        <polygon class="cls-2" points="42.42 205.22 44.74 208.81 44.21 208.81 43.95 209.34 43.11 208.18 42.42 205.22"/>
      </g>
      <g>
        <polygon class="cls-23" points="50.84 198.98 49.31 190.74 53.62 194.86 54.46 197.45 52.89 197.61 51.94 198.98 50.84 198.98"/>
        <polygon class="cls-23" points="58.23 196.27 56.46 193.29 52.36 188.74 53.73 194.3 55.2 197.19 59.14 197.82 58.23 196.27"/>
        <polygon class="cls-23" points="60.52 193.77 59.67 192.65 59.67 194.86 59.67 196.35 60.46 198.61 62.56 200.24 64.24 200.24 62.72 196.67 62.42 196.27 60.52 193.77"/>
        <polygon class="cls-23" points="65.87 199.29 65.87 202.4 66.61 204.18 68.77 205.39 68.45 203.13 66.77 199.66 65.87 199.29"/>
        <polygon class="cls-23" points="71.71 203.74 71.08 202.92 70.98 203.17 70.24 205.08 70.24 206.76 71.55 207.52 73.18 207.13 73.04 206.63 72.5 204.76 71.71 203.74"/>
        <polygon class="cls-23" points="73.81 205.39 73.81 206.63 73.81 208.18 75.34 208.18 76.39 208.18 75.34 206.79 73.81 205.39"/>
        <polygon class="cls-23" points="76.07 205.98 75.76 205.71 75.87 206.15 76.39 208.18 77.07 208.81 77.8 208.12 78.12 207.81 77.8 207.52 77.26 207.05 76.07 205.98"/>
        <polygon class="cls-23" points="80.23 207.52 78.12 205.22 78.42 207.28 78.54 208.18 79.44 207.55 80.23 207.52"/>
        <polygon class="cls-23" points="81.75 207.55 82.28 205.71 80.23 207.52 81.75 207.55"/>
        <polygon class="cls-23" points="49.68 200.32 46.84 197.14 47.05 199.29 48.63 203.5 49.05 201.13 49.68 200.32"/>
        <polygon class="cls-23" points="48.26 204.45 45.95 201.61 46.26 204.29 47.21 206.18 48.26 204.45"/>
        <polygon class="cls-23" points="45.95 207.52 45.37 204.71 44.74 208.81 45.95 207.52"/>
        <polygon class="cls-23" points="44.74 208.81 42.42 205.22 43.11 208.18 43.95 209.34 44.21 208.81 44.74 208.81"/>
        <polyline class="cls-23" points="64.24 196.98 62.42 196.27 63.51 190.18 60.52 193.77"/>
        <polyline class="cls-23" points="59.67 194.86 59.14 196.03 59.67 196.35"/>
        <polygon class="cls-23" points="64.24 196.98 65.56 197.82 67.32 198.98 68.77 195.61 69.19 192.65 64.93 195.88 64.24 196.98"/>
        <polygon class="cls-23" points="70.61 202.34 70.61 201.61 72.34 198.98 72.03 196.67 68.24 200.24 68.77 201.13 69.54 202.34 70.61 202.34"/>
        <polyline class="cls-23" points="73.04 206.63 73.44 205.88 73.72 205.34 74.71 203.5 74.92 202.34 71.71 203.74"/>
        <line class="cls-23" x1="75.34" y1="206.79" x2="75.76" y2="206.18"/>
        <polyline class="cls-23" points="77.26 207.05 77.65 204.71 76.07 205.98"/>
        <polyline class="cls-23" points="43.95 209.34 44.74 210.6 46.37 210.6 48.58 210.12 48.26 204.45 48.63 203.5 49.68 202.92 51.89 203.89"/>
        <line class="cls-23" x1="47.21" y1="206.18" x2="45.95" y2="207.52"/>
        <line class="cls-23" x1="49.68" y1="200.32" x2="50.84" y2="198.98"/>
        <line class="cls-23" x1="58.23" y1="196.27" x2="59.14" y2="196.03"/>
        <line class="cls-23" x1="67.32" y1="198.98" x2="68.24" y2="200.24"/>
        <polyline class="cls-23" points="70.61 202.34 70.98 203.17 70.98 203.18"/>
        <line class="cls-23" x1="73.44" y1="205.88" x2="73.81" y2="206.63"/>
        <line class="cls-23" x1="77.8" y1="207.52" x2="78.42" y2="207.28"/>
        <polyline class="cls-23" points="82.01 208.81 81.96 209.91 80.23 211.07 79.54 210.39 79.54 208.18 80.49 207.86 82.01 208.81 84.59 211.07 82.86 212.75 83.07 213.49 85.12 214.33 85.96 214.59 86.69 214.28 86.69 213.33 86.69 213.02 86.69 211.81 86.33 211.39 85.64 210.6 85.9 209.65 85.9 207.92 83.01 207.92 81.75 207.55"/>
        <polyline class="cls-23" points="86.69 213.02 86.33 211.39 85.38 211.39 84.06 212.44 85.2 213.33 86.01 212.36 86.69 213.33"/>
        <polyline class="cls-23" points="85.96 214.59 85.64 215.59 83.64 214.5 83.07 213.49 81.25 212.36 81.96 213.33 83.12 214.28 83.75 215.46 85.12 216.64 86.12 215.96 86.69 214.28"/>
        <line class="cls-23" x1="85.38" y1="211.39" x2="85.2" y2="213.33"/>
        <polyline class="cls-23" points="79.54 210.39 78.42 210.83 78.42 213.33 82.28 214.59 85.12 216.64"/>
        <polyline class="cls-23" points="79.86 227.79 81.25 227.79 80.23 226.32 79.54 226.53"/>
        <polyline class="cls-23" points="76.07 227.05 75.34 226.58 75.1 228.16 76.07 228.16"/>
        <polyline class="cls-23" points="76.9 228.16 79.86 227.79 79.54 226.53 77.65 226.11 76.94 226.32"/>
        <polygon class="cls-23" points="76.07 228.16 76.07 227.05 76.94 226.32 76.86 227.05 76.9 228.16 76.07 228.16"/>
        <polyline class="cls-23" points="80.23 226.32 77.65 223.27 74.92 224.79 75.1 228.16"/>
        <polyline class="cls-23" points="70.29 216.33 71.39 216.99 72.34 220.27"/>
        <polyline class="cls-23" points="77.65 223.27 77.48 220.53 76.07 218.64 75.1 219.75 72.34 220.27 73.81 223.27 74.92 224.79"/>
        <polyline class="cls-23" points="56.41 216.07 55.2 217.01 56.78 218.64 60.14 218.96 63.3 217.01"/>
        <polyline class="cls-23" points="55.41 223.85 57.46 224.32 59.67 224.32 59.67 223.74 59.91 222.73 60.14 221.72 60.14 220.27 60.14 218.96 60.52 221.11 61.25 222.06"/>
        <line class="cls-23" x1="60.52" y1="226.11" x2="59.67" y2="224.32"/>
        <polyline class="cls-23" points="59.67 226.69 59.25 226.53 58.23 227.37 58.23 228.16"/>
        <polyline class="cls-23" points="55.2 217.01 54.83 217.8 54.83 220.59 55.41 223.85 55.41 225.71 55.2 227.97 57.78 228.16 58.22 228.22 59.41 228.37 60.14 228.16 59.98 227.79 59.67 226.69 60.52 226.11 61.51 227.05 61.96 227.97 60.14 228.16"/>
        <polyline class="cls-23" points="61.96 227.97 62.38 227.97 61.51 227.05"/>
        <line class="cls-23" x1="60.14" y1="220.27" x2="56.78" y2="218.64"/>
        <polyline class="cls-23" points="59.67 224.32 60.14 223.85 59.91 222.73"/>
        <polygon class="cls-23" points="61.51 223.27 62.38 223.06 61.25 222.06 60.52 222.06 60.52 222.53 61.51 223.27"/>
        <line class="cls-23" x1="60.14" y1="223.85" x2="61.51" y2="223.27"/>
        <line class="cls-23" x1="60.14" y1="221.72" x2="60.52" y2="222.53"/>
        <line class="cls-23" x1="57.57" y1="214.28" x2="56.41" y2="216.07"/>
        <path class="cls-23" d="M54.46,197.45l.74-.26-1.95,4-1.37,2.71s.63,5.23.47,5.44c-.11.15,1.56,2.06,2.47,3.09.34.38.58.64.58.64l2.16,1.21v-1.52l1.12-1.37,3.7,1.37.92,3"/>
        <polyline class="cls-23" points="64.73 214.94 64.51 210.6 61.96 207.4 58.46 204.71 58.95 209.91 58.69 211.39"/>
        <path class="cls-23" d="M64.51,210.6l1.63-4.42s-2.94-4.73-3.05-4.89c-.11-.16-3.42-.37-3.42-.37l-1.51,2,.3,1.79"/>
        <line class="cls-23" x1="63.09" y1="201.29" x2="62.56" y2="200.24"/>
        <polyline class="cls-23" points="48.58 210.12 49.05 213.07 49.68 216.99 50.05 218.64 50.05 219.46 49.68 219.8 49.68 223.56 50.47 222.06 50.84 221.72 51.89 221.11 52.89 222.06 53.52 223.27 54.15 224.79 53.73 222.53 53.83 219.69 53.41 218.64 53.31 218.01 54.15 215.33 54.46 213.07 54.83 212.43"/>
        <polygon class="cls-23" points="50.26 224.78 50.26 223.85 49.05 224.79 49.05 225.71 50.26 225.71 50.26 224.78"/>
        <polygon class="cls-23" points="54.15 224.79 53.52 224.32 53.52 225.16 53.52 225.73 54.83 225.73 54.15 224.79"/>
        <line class="cls-23" x1="50.26" y1="225.71" x2="51.8" y2="225.71"/>
        <line class="cls-23" x1="52.89" y1="224.11" x2="53.52" y2="225.16"/>
        <line class="cls-23" x1="51.8" y1="225.71" x2="53.52" y2="225.73"/>
        <polyline class="cls-23" points="50.26 224.78 50.84 223.85 51.77 225.02 52.89 224.11"/>
        <line class="cls-23" x1="49.05" y1="224.79" x2="49.68" y2="223.56"/>
        <line class="cls-23" x1="77.48" y1="220.53" x2="75.1" y2="219.75"/>
        <polyline class="cls-23" points="76.07 218.64 75.1 216.33 74.92 215.33 71.39 216.99"/>
        <line class="cls-23" x1="44.74" y1="208.81" x2="44.74" y2="210.6"/>
        <polyline class="cls-23" points="74.92 215.33 78.42 215.33 82.28 214.59"/>
        <polyline class="cls-23" points="78.42 213.33 73.81 213.33 68.5 213.07 65.51 214.5 64.73 214.94 63.3 215.75 63.3 217.01 65.08 217.33 68.55 217.33 70.29 216.33"/>
        <polyline class="cls-23" points="70.24 206.76 69.19 208.5 70.29 211.43 70.98 209.7 73.18 207.13"/>
        <polyline class="cls-23" points="73.81 208.18 73.18 209.82 74.02 211.63 74.02 210.39 75.34 208.18"/>
        <polyline class="cls-23" points="76.39 208.18 75.76 210.39 76.65 211.43 76.86 210.12 77.8 208.12"/>
        <polygon class="cls-23" points="80.81 208.71 80.4 208.44 79.86 209.7 80.7 210.12 81.77 209.34 80.81 208.71"/>
        <polygon class="cls-23" points="80.81 208.71 80.4 209.34 80.7 210.12 81.25 209.28 80.81 208.71"/>
        <polyline class="cls-23" points="84.59 211.07 85.64 210.6 83.01 207.92"/>
      </g>
    </g>
    <g>
      <g>
        <polygon class="cls-5" points="85.71 218.74 86.44 219.73 91.06 221.37 93.94 222.41 96.35 222.15 96.35 222.15 100.03 221.74 101.32 219.81 100.44 219.7 100.17 219.59 96.1 219.01 89.79 219.07 85.71 218.74"/>
        <polygon class="cls-20" points="85.89 216.09 86.45 216.72 86.69 216.77 87.66 216.96 88.63 217.15 88.63 217.15 90 217.42 91.08 217.63 91.41 217.7 93.2 215.99 94.72 215.42 94.72 215.42 95.72 215.05 97.3 214.46 96.92 214.19 93.07 214.32 87.45 215 85.89 216.09"/>
        <polygon class="cls-1" points="85.71 218.74 89.79 219.07 96.1 219.01 100.17 219.59 96.3 218.69 91.36 218.35 85.71 218.74"/>
        <polygon class="cls-14" points="86.69 216.77 87.14 217.41 87.66 216.96 86.69 216.77"/>
        <polygon class="cls-12" points="87.66 216.96 88.31 217.64 88.63 217.15 87.66 216.96"/>
        <polygon class="cls-29" points="88.63 217.15 89.78 217.74 90 217.42 88.63 217.15"/>
        <polygon class="cls-14" points="90 217.42 91.36 218.35 96.3 218.69 96.32 218.51 92.96 218.01 91.41 217.7 91.08 217.63 90 217.42"/>
        <polygon class="cls-14" points="91.06 221.37 97.62 224.88 102.67 226.71 108.21 226.45 106.26 225.33 105.93 224.42 105.47 223.15 96.35 222.15 96.35 222.15 93.94 222.41 91.06 221.37"/>
        <path class="cls-29" d="M93.2,215.99l-1.79,1.71,1.56.31,3.36.51,2.15.32,1.7.75.26.12.88.11-.68-3-.89-.63s-3.33,1.13-3.73,1.1-2.82-1.29-2.82-1.29Z"/>
        <path class="cls-1" d="M94.72,215.42l-1.52.57s2.43,1.27,2.82,1.29,3.73-1.1,3.73-1.1l-4.03-1.13-1,.37.88.14.36.5-.67.47-.56-1.12Z"/>
        <polygon class="cls-3" points="94.72 215.42 95.28 216.54 95.96 216.07 95.6 215.56 94.72 215.42 94.72 215.42"/>
        <polygon class="cls-29" points="95.72 215.05 99.75 216.18 97.3 214.46 95.72 215.05"/>
        <polygon class="cls-14" points="96.32 218.51 96.3 218.69 100.17 219.59 98.48 218.84 96.32 218.51"/>
        <polygon class="cls-12" points="96.35 222.15 105.47 223.15 107.08 221.29 106.61 218.06 106.63 217.79 101.78 214.52 97.86 214.25 97.3 214.46 99.75 216.18 100.64 216.81 101.32 219.81 100.03 221.74 96.35 222.15"/>
        <polygon class="cls-29" points="96.92 214.19 97.3 214.46 97.86 214.25 96.92 214.19"/>
        <path class="cls-14" d="M101.78,214.52l4.85,3.27-.02.27,9.28-3.11.64-1.48-1.68-1.08c-2.31.31-7.93.97-7.93.97l-5.16,1.17Z"/>
        <polygon class="cls-29" points="107.08 221.29 105.47 223.15 105.93 224.42 106.25 223.4 115.27 231.91 116.65 232.01 116.77 230.19 116.47 228.84 115.18 227.57 111.37 224.79 109.73 222.95 109.51 221.81 107.08 221.29"/>
        <polygon class="cls-5" points="105.93 224.42 106.26 225.33 108.21 226.45 110.76 229.43 114.93 231.89 115.27 231.91 106.25 223.4 105.93 224.42"/>
        <polygon class="cls-20" points="106.61 218.06 107.08 221.29 109.51 221.81 109.73 222.95 111.37 224.79 113.93 222.7 117.46 219.49 118.97 217.63 118.02 216.38 115.9 214.95 106.61 218.06"/>
        <path class="cls-12" d="M114.86,212.38l1.68,1.08,2.24.4,6.97.48,3.56,1.28,3.57,2.5,3.11,4.96,1.52.1-1.13-2.89-2.26-3.75-3.63-2.42-4.94-2.02s-9.56.03-9.72.12c-.03.02-.4.07-.97.15Z"/>
        <polygon class="cls-5" points="116.54 213.47 115.9 214.95 118.02 216.38 118.97 217.63 119.67 216.7 122.83 218.02 127.21 221.59 127.21 221.59 128.31 222.26 127.56 220.29 122.95 217.01 120.76 215.83 119.82 215.22 119.19 214.4 118.78 213.87 116.54 213.47"/>
        <polygon class="cls-29" points="118.78 213.87 119.19 214.4 119.82 215.22 120.76 215.83 125.73 216.02 131.79 220.28 134.81 223 135.99 223.08 132.88 218.13 129.3 215.63 125.75 214.35 118.78 213.87"/>
        <polygon class="cls-12" points="119.67 216.7 118.97 217.63 123.2 219.15 127.21 221.59 122.83 218.02 119.67 216.7"/>
      </g>
      <g>
        <polyline class="cls-23" points="127.21 221.59 128.31 222.26 127.56 220.29 122.95 217.01 120.76 215.83"/>
        <polyline class="cls-23" points="118.97 217.63 123.2 219.15 127.21 221.59"/>
        <polyline class="cls-23" points="108.21 226.45 110.76 229.43 114.93 231.89 115.27 231.91 116.65 232.01 116.77 230.19 116.47 228.84 115.18 227.57 111.37 224.79"/>
        <line class="cls-23" x1="105.47" y1="223.15" x2="96.35" y2="222.15"/>
        <line class="cls-23" x1="116.54" y1="213.47" x2="114.86" y2="212.38"/>
        <polyline class="cls-23" points="115.9 214.95 106.61 218.06 107.08 221.29"/>
        <polyline class="cls-23" points="85.71 218.74 91.36 218.35 90 217.42"/>
        <polyline class="cls-23" points="94.72 215.42 93.2 215.99 91.41 217.7"/>
        <polyline class="cls-23" points="101.78 214.52 97.86 214.25 97.3 214.46 95.72 215.05 94.72 215.42"/>
        <path class="cls-23" d="M88.63,217.15l-.98-.19-.96-.19-.25-.05-.56-.63,1.56-1.09,5.62-.69,3.85-.13.38.27,2.44,1.72.89.63.68,3-1.29,1.93-3.67.4h0s-2.41.26-2.41.26l-2.89-1.04,6.56,3.51,5.05,1.83,5.54-.26-1.94-1.12-.33-.91-.46-1.26,1.61-1.86,2.43.51.22,1.15,1.65,1.84,2.56-2.09,3.52-3.21,1.51-1.87-.95-1.25-2.12-1.43.64-1.48,2.24.4.41.53.63.82.94.61,4.97.19,6.06,4.26,3.02,2.72,1.18.08,1.52.1-1.13-2.89-2.26-3.75-3.63-2.42-4.94-2.02s-9.56.03-9.72.12c-.03.02-.4.07-.97.15-2.31.31-7.93.97-7.93.97l-5.16,1.17,4.85,3.27-.02.27"/>
        <polyline class="cls-23" points="91.06 221.37 86.44 219.73 85.71 218.74 89.79 219.07 96.1 219.01 100.17 219.59 98.48 218.84 96.32 218.51 92.96 218.01 91.41 217.7 91.08 217.63 90 217.42 88.63 217.15"/>
        <polyline class="cls-23" points="118.78 213.87 125.75 214.35 129.3 215.63 132.88 218.13 135.99 223.08"/>
        <line class="cls-23" x1="97.86" y1="214.25" x2="96.92" y2="214.19"/>
        <path class="cls-23" d="M93.2,215.99s2.43,1.27,2.82,1.29,3.73-1.1,3.73-1.1l-4.03-1.13"/>
        <polygon class="cls-23" points="94.72 215.42 95.28 216.54 95.96 216.07 95.6 215.56 94.72 215.42 94.72 215.42"/>
        <polyline class="cls-23" points="91.36 218.35 96.3 218.69 100.17 219.59 100.44 219.7 101.32 219.81"/>
        <polyline class="cls-23" points="86.69 216.77 87.14 217.41 87.66 216.96 88.31 217.64 88.63 217.15 88.63 217.15 89.78 217.74 90 217.42"/>
        <polyline class="cls-23" points="127.21 221.59 127.21 221.59 122.83 218.02 119.67 216.7 118.97 217.63"/>
        <polyline class="cls-23" points="105.93 224.42 106.25 223.4 115.27 231.91"/>
      </g>
    </g>
    <g>
      <g>
        <polygon class="cls-34" points="143.19 221.48 144.01 222.79 139.43 222.79 140.59 220.23 141.45 220.62 142.37 220.57 143 219.6 143.19 221.48"/>
        <path class="cls-32" d="M142.56,203.69l.92,4.29-1.06,4.72.53.55-1.83,2.27s-1.01-2.32-.96-2.49c.02-.09-.31-.48-.65-.83-.33-.34-.65-.66-.65-.66l-.81-1.11,2.11-3.9.44-6.4,1.97,3.56Z"/>
        <polygon class="cls-24" points="142.95 218.13 143 219.6 142.37 220.57 141.45 220.62 140.59 220.23 141.12 218.13 141.12 215.52 142.95 213.25 142.95 218.13"/>
        <polygon class="cls-24" points="140.59 200.13 140.15 206.53 137.79 210.26 136.13 210.75 134.56 209.33 132.05 206.84 128 203.5 127.66 201.48 129.45 200.08 127.66 198.15 129.45 196.22 131.67 195.35 137.21 197.43 140.59 200.13"/>
        <polygon class="cls-13" points="140.15 206.53 138.04 210.43 136.63 213.03 136.13 210.75 137.79 210.26 140.15 206.53"/>
        <path class="cls-34" d="M139.5,212.2l-.07.08-.53.97-3.13,1.13.86-1.35,1.41-2.6.81,1.11s.33.32.65.66Z"/>
        <polygon class="cls-8" points="136.13 210.75 136.63 213.03 132.05 213.25 130.82 212.7 128.24 211.54 124.53 208.39 124.36 205.21 124.47 204.83 126.03 205.21 125.98 203.6 128 203.5 132.05 206.84 134.56 209.33 136.13 210.75"/>
        <polygon class="cls-24" points="136.63 213.03 135.77 214.39 135.02 215.56 133.74 217.56 132.72 218.26 128.85 220.89 128.39 218.8 128.92 216.64 129.54 215.34 130.66 213.03 130.82 212.7 132.05 213.25 136.63 213.03"/>
        <path class="cls-13" d="M135.48,217.87l.67.93s-1.87,3.36-1.85,2.97c.02-.39-.8-.7-.8-.7l-.76.36c.03-.34.37-2.17.37-2.17l-.39-1.01,1.02-.69,1.28-2,.46,2.31Z"/>
        <path class="cls-32" d="M132.72,218.26l.39,1.01s-.34,1.83-.37,2.17-1.92,2.12-1.92,2.12h-1.38l-.59-2.67,3.87-2.63Z"/>
        <polygon class="cls-24" points="130.82 212.7 130.66 213.03 128.58 213.03 123.42 213.03 121.35 212.37 120.72 212.17 123.9 206.84 124.36 205.21 124.53 208.39 128.24 211.54 130.82 212.7"/>
        <polygon class="cls-34" points="130.66 213.03 129.54 215.34 126.48 216.43 128.58 213.03 130.66 213.03"/>
        <polygon class="cls-16" points="129.45 196.22 127.66 198.15 127.66 195.98 129.45 196.22"/>
        <polygon class="cls-33" points="127.66 198.15 129.45 200.08 127.66 201.48 127.66 198.15"/>
        <polygon class="cls-32" points="128.58 213.03 126.48 216.43 125.69 217.31 126.48 219.99 126.99 222.16 126.07 223.17 124.36 223.17 123.66 222.26 123.9 220.89 122.94 218.68 121.35 212.38 121.35 212.37 123.42 213.03 128.58 213.03"/>
        <polygon class="cls-33" points="128.48 192.99 127.66 195.98 127.13 194.97 126.22 192.75 128.48 192.99"/>
        <polygon class="cls-13" points="127.66 201.48 128 203.5 125.98 203.6 127.66 201.48"/>
        <path class="cls-24" d="M113.68,205.53l.48.45h1.11l.39-.71-.39-.71h-.92l-.67.97ZM127.66,198.15v3.33l-1.69,2.12-1.51,1.23-.47.38-1.74,1.03-1.54,1.07-.96-.47-.58-.82-.77.11.43,1.18-1.01.77-2.41-.77-1.98.77-1.25,1.93-1.74-1.36-3.62.64-.67-.64-.58-1.09v-.71h2.07l.58-.31-.14-1.97,1.69-.14,2.36-1.64,1.16-1.03-.05.93s.77.67,1.06.82c.29.15,2.02-.24,2.02-.24l1.3-1.88,4.19-2.36,2.99-3.33,1.4-2.94.92,2.22.53,1.01v2.17ZM108.09,208.39l.55-.55-.87-.29s-.41.24-.94.58l1.25.26Z"/>
        <polygon class="cls-24" points="126.99 222.16 127.33 223.56 126.48 224.23 126.03 223.99 126.03 224.47 124.97 224.47 124.58 224.04 124.36 224.47 123.47 224.28 123.37 223.85 122.99 224.28 122.31 223.99 123.66 222.26 124.36 223.17 126.07 223.17 126.99 222.16"/>
        <polygon class="cls-33" points="126.48 190.39 126.22 192.75 124.23 191.25 126.48 190.39"/>
        <polygon class="cls-32" points="126.22 192.75 124.82 195.69 121.83 199.02 117.64 201.38 116.62 200.54 120.96 195.93 124.23 191.25 126.22 192.75"/>
        <polygon class="cls-16" points="125.98 203.6 126.03 205.21 124.47 204.83 125.98 203.6"/>
        <polygon class="cls-33" points="124 205.21 124.47 204.83 124.36 205.21 123.9 206.84 122.26 206.24 124 205.21"/>
        <polygon class="cls-33" points="124 188.6 124.23 191.25 123.9 191.01 122.46 190.15 124 188.6"/>
        <polygon class="cls-34" points="124.23 191.25 120.96 195.93 116.62 200.54 116.24 200.22 118.74 197.38 120.72 193.57 122.46 190.15 123.9 191.01 124.23 191.25"/>
        <polygon class="cls-34" points="123.9 206.84 120.72 212.17 115.95 212.17 111.61 211.54 113.15 210.26 114.7 209.33 116.62 210.32 119.18 210.01 120.72 207.31 122.22 207.6 122.26 206.24 123.9 206.84"/>
        <polygon class="cls-16" points="122.17 188.41 122.46 190.15 121.11 190.53 122.17 188.41"/>
        <polygon class="cls-24" points="122.46 190.15 120.72 193.57 118.74 197.38 119.32 195.74 120.19 191.25 121.11 190.53 122.46 190.15"/>
        <polygon class="cls-33" points="122.26 206.24 122.22 207.6 120.72 207.31 122.26 206.24"/>
        <polygon class="cls-33" points="120.48 189.57 121.11 190.53 120.19 191.25 120.48 189.57"/>
        <polygon class="cls-13" points="120.72 207.31 119.18 210.01 116.62 210.32 114.7 209.33 113.15 210.26 111.61 211.54 109.82 211.86 110.45 209.33 110.45 208.65 112.19 210.01 113.44 208.08 115.42 207.31 117.83 208.08 118.84 207.31 118.41 206.13 119.18 206.02 119.76 206.84 120.72 207.31"/>
        <path class="cls-16" d="M117.64,201.38l-1.3,1.88s-1.74.39-2.02.24c-.29-.14-1.06-.82-1.06-.82l2.41-.34.96-.96v-.84l1.01.84Z"/>
        <path class="cls-13" d="M116.62,200.54v.84l-.96.96-2.41.34.05-.93-2.27-.57-2.6-.43-.96-.29-.55-1.05-.53-1.02,1.42.92s2.36.14,2.7.1,2.8-.1,2.8-.1l2.94.92.39.32Z"/>
        <polygon class="cls-33" points="115.27 204.56 115.66 205.27 115.27 205.98 114.16 205.98 113.68 205.53 114.67 205.27 115.27 204.56"/>
        <polygon class="cls-17" points="115.27 204.56 114.67 205.27 113.68 205.53 114.36 204.56 115.27 204.56"/>
        <polygon class="cls-18" points="113.3 201.75 112.14 202.78 111.71 201.75 107.66 200.99 104.67 199.74 102.83 198.2 102.83 197.67 104.67 198.92 106.91 199.41 107.46 200.46 108.43 200.75 111.03 201.19 113.3 201.75"/>
        <polygon class="cls-18" points="110.45 209.33 109.82 211.86 107.78 211.86 106.84 211.54 107.78 211.54 110.45 209.33"/>
        <polygon class="cls-16" points="110.45 208.65 108.09 210.32 106.84 210.01 106.38 211.86 105.58 210.67 105.1 208.65 105.58 207.55 106.16 208.65 106.84 209.29 110.45 208.65"/>
        <path class="cls-33" d="M108.64,207.84l-.55.55-1.25-.26c.53-.34.94-.58.94-.58l.87.29Z"/>
        <polygon class="cls-34" points="108.09 204.56 108.23 206.53 107.66 206.84 105.92 206.84 104.67 205.21 108.09 204.56"/>
      </g>
      <g>
        <path class="cls-23" d="M116.24,200.22l2.51-2.84.58-1.64.87-4.48.92-.72,1.35-.39,1.45.87.32.24,1.99,1.5.92,2.22.53,1.01v5.5l-1.69,2.12-1.51,1.23-.47.38-1.74,1.03-1.54,1.07-.96-.47-.58-.82-.77.11.43,1.18-1.01.77-2.41-.77-1.98.77-1.25,1.93-1.74-1.36-3.62.64-.67-.64-.58-1.09v-.71h2.07l.58-.31-.14-1.97,1.69-.14,2.36-1.64,1.16-1.03-.05.93s.77.67,1.06.82c.29.15,2.02-.24,2.02-.24l1.3-1.88-1.01-.84-.39-.32Z"/>
        <polyline class="cls-23" points="108.09 204.56 104.67 205.21 105.92 206.84"/>
        <path class="cls-23" d="M113.3,201.75l-2.27-.57-2.6-.43-.96-.29-.55-1.05-.53-1.02,1.42.92s2.36.14,2.7.1,2.8-.1,2.8-.1l2.94.92"/>
        <polyline class="cls-23" points="112.14 202.78 111.71 201.75 107.66 200.99 104.67 199.74 102.83 198.2 102.83 197.67 104.67 198.92 106.91 199.41"/>
        <polyline class="cls-23" points="105.58 207.55 105.1 208.65 105.58 210.67 106.38 211.86 106.84 210.01 108.09 210.32 110.45 208.65 110.45 209.33"/>
        <polygon class="cls-23" points="109.82 211.86 107.78 211.86 106.84 211.54 107.78 211.54 110.45 209.33 109.82 211.86"/>
        <polyline class="cls-23" points="109.82 211.86 111.61 211.54 113.15 210.26 114.7 209.33 116.62 210.32 119.18 210.01 120.72 207.31 122.22 207.6 122.26 206.24 123.9 206.84 124.36 205.21 124.47 204.83 126.03 205.21 125.98 203.6 128 203.5 127.66 201.48 129.45 200.08 127.66 198.15 129.45 196.22 127.66 195.98 128.48 192.99 126.22 192.75 126.48 190.39 124.23 191.25 124 188.6 122.46 190.15 122.17 188.41 121.11 190.53 120.48 189.57 120.19 191.25"/>
        <polyline class="cls-23" points="129.45 196.22 131.67 195.35 137.21 197.43 140.59 200.13 140.15 206.53 137.79 210.26 136.13 210.75 134.56 209.33 132.05 206.84 128 203.5"/>
        <polyline class="cls-23" points="124.36 205.21 124.53 208.39 128.24 211.54 130.82 212.7 132.05 213.25 136.63 213.03 136.13 210.75"/>
        <path class="cls-23" d="M130.82,212.7l-.16.33-1.12,2.31-.63,1.29-.53,2.16.47,2.09.59,2.67h1.38s1.89-1.78,1.92-2.12.37-2.17.37-2.17l-.39-1.01"/>
        <polyline class="cls-23" points="128.85 220.89 132.72 218.26 133.74 217.56 135.02 215.56 135.77 214.39 136.63 213.03 138.04 210.43 140.15 206.53"/>
        <path class="cls-23" d="M135.02,215.56l.46,2.31.67.93s-1.87,3.36-1.85,2.97c.02-.39-.8-.7-.8-.7l-.76.36"/>
        <polyline class="cls-23" points="111.61 211.54 115.95 212.17 120.72 212.17 123.9 206.84"/>
        <polyline class="cls-23" points="130.66 213.03 128.58 213.03 123.42 213.03 121.35 212.37 120.72 212.17"/>
        <path class="cls-23" d="M140.59,200.13l1.97,3.56.92,4.29-1.06,4.72.53.55-1.83,2.27s-1.01-2.32-.96-2.49c.02-.09-.31-.48-.65-.83-.33-.34-.65-.66-.65-.66l-.81-1.11"/>
        <polygon class="cls-23" points="143 219.6 143.19 221.48 144.01 222.79 139.43 222.79 140.59 220.23 141.45 220.62 142.37 220.57 143 219.6"/>
        <polyline class="cls-23" points="142.95 213.25 142.95 218.13 143 219.6"/>
        <polyline class="cls-23" points="141.12 215.52 141.12 218.13 140.59 220.23"/>
        <polyline class="cls-23" points="139.43 212.28 138.9 213.25 135.77 214.39"/>
        <polyline class="cls-23" points="121.35 212.38 122.94 218.68 123.9 220.89 123.66 222.26 124.36 223.17 126.07 223.17 126.99 222.16 126.48 219.99 125.69 217.31 126.48 216.43 128.58 213.03"/>
        <line class="cls-23" x1="129.54" y1="215.34" x2="126.48" y2="216.43"/>
        <polyline class="cls-23" points="123.66 222.26 122.31 223.99 122.99 224.28 123.37 223.85 123.47 224.28 124.36 224.47 124.58 224.04 124.97 224.47 126.03 224.47 126.03 223.99 126.48 224.23 127.33 223.56 126.99 222.16"/>
        <polyline class="cls-23" points="117.64 201.38 121.83 199.02 124.82 195.69 126.22 192.75"/>
        <polyline class="cls-23" points="122.46 190.15 120.72 193.57 118.74 197.38"/>
        <path class="cls-23" d="M106.84,208.13c.53-.34.94-.58.94-.58l.87.29-.55.55-1.25-.26Z"/>
        <polygon class="cls-23" points="115.27 204.56 114.36 204.56 113.68 205.53 114.16 205.98 115.27 205.98 115.66 205.27 115.27 204.56"/>
        <polyline class="cls-23" points="115.27 204.56 114.67 205.27 113.68 205.53 111.61 205.98 108.18 205.85"/>
        <polyline class="cls-23" points="113.25 202.68 115.66 202.34 116.62 201.38 116.62 200.54 120.96 195.93 124.23 191.25"/>
      </g>
    </g>
    <g>
      <g>
        <polygon class="cls-12" points="166.03 219.51 166.03 220.55 165.48 221.13 164.22 221.63 162.19 221.97 160.44 222.2 160.24 221.02 160.82 219.4 163.08 218.99 163.27 218.82 162.97 218.66 162.41 218.18 162.19 217.76 162.97 217.76 164.72 218.32 165.22 218.4 165.73 218.87 166.03 219.51"/>
        <polygon class="cls-36" points="165.34 226.34 165.48 227.21 164 227.09 163.97 225.95 164.22 225.09 165.34 226.34"/>
        <polygon class="cls-4" points="164.72 191.22 164.72 192.32 163.79 192.04 164.26 193.14 163.79 192.81 163.79 193.79 163.03 193.08 162.76 193.79 162.76 193.08 162.37 193.79 162.05 193.3 161.66 194.12 161.34 193.3 161.12 194.12 160.79 193.52 159.7 193.52 159.21 192.92 159.21 192.59 159.81 192.59 161.72 191.83 162.65 190.94 164.06 190.19 164.72 191.22"/>
        <path class="cls-10" d="M164.72,190.68v.54l-.66-1.04-1.42.75-.93.89-1.91.76h-3.28l-1.75,1.2h-4.53v-.98l.66-1.64.22-1.64,1.42-.76.02-.29.03-.36,1.36-.87,1.42.49,1.75.44,2.73-.93h2.84l1.36,1.2-.05.6.27.82.44.82ZM155.56,190.06l-.11-1.03-.98-.55-1.25.16-.5,1.14.7,1.16h1.28l.45-.46.41-.42Z"/>
        <polygon class="cls-24" points="164.22 225.09 163.97 225.95 164 227.09 162.8 226.98 162.05 226.62 161.94 226.17 160.96 225.59 160.35 225.95 160.24 227.54 159.23 226.51 159.09 225 159.09 224.42 158.98 226.26 158.17 227.04 157.78 225.95 157.17 225.67 156.53 226.09 156.67 225.31 157.39 224.95 157.39 223.75 156.92 223.28 156.53 222.77 156.58 222.3 156.67 221.55 157.14 219.37 158.82 220.71 160.24 221.02 160.44 222.2 160.57 223 161.3 224.34 162.77 224.95 164.22 225.09"/>
        <polygon class="cls-6" points="163.46 198.65 164.01 200.01 163.68 201.38 162.81 202.3 160.85 202.3 159.32 201.32 156.86 201.21 154.08 200.94 152.2 199.85 150.59 196.96 149.11 194.66 150.26 193.79 154.08 196.63 155.39 196.63 156.37 196.63 158.44 197.12 158.77 196.87 159.04 197.83 159.92 197.83 159.92 198.7 160.52 197.66 160.79 199.03 161.34 198.43 161.72 199.3 162.1 198.65 162.48 199.3 162.81 198.65 163.19 199.3 163.46 198.65"/>
        <polygon class="cls-10" points="162.74 212.83 162.97 214.16 162.44 216.98 162 217.63 160.82 219.4 160.24 221.02 158.82 220.71 157.14 219.37 157.23 218.66 157.28 218.29 157.95 217.76 157.51 216.62 157.84 215.05 156.92 214.94 155.73 214.7 155.73 214.7 155.36 214.62 154.52 214.39 156.08 213.24 156.39 212.24 156.39 210.29 156.65 210.1 156.92 209.54 156.92 209.04 156.39 208.81 156.39 207.62 156.39 206.39 158.93 208 160.85 209.76 161.57 211.15 162.74 212.83"/>
        <polygon class="cls-4" points="162.37 197.99 162.81 198.65 162.48 199.3 162.1 198.65 161.72 199.3 161.34 198.43 160.79 199.03 160.52 197.66 161.28 197.45 161.28 197.99 162.37 197.99"/>
        <polygon class="cls-4" points="162.05 226.62 162.05 227.54 161.66 228.01 160.24 227.54 160.35 225.95 160.96 225.59 161.94 226.17 162.05 226.62"/>
        <polygon class="cls-4" points="160.52 196.76 160.52 197.66 159.92 198.7 159.92 197.83 159.04 197.83 158.77 196.87 159.15 196.25 159.92 196.76 160.52 196.76"/>
        <polygon class="cls-12" points="159.21 192.92 159.7 193.52 159.15 196.25 158.77 196.87 158.44 197.12 156.37 196.63 155.39 196.63 156.53 192.59 156.97 193.08 157.49 192.86 157.9 193.14 158.44 192.86 158.44 193.35 159.21 192.92"/>
        <polygon class="cls-4" points="159.21 192.59 159.21 192.92 158.44 193.35 158.44 192.86 158.44 192.59 159.21 192.59"/>
        <polygon class="cls-4" points="158.44 192.59 158.44 192.86 157.9 193.14 157.49 192.86 157.49 192.59 158.44 192.59"/>
        <polygon class="cls-36" points="157.78 225.95 158.17 227.04 156.67 227.54 156.53 226.09 157.17 225.67 157.78 225.95"/>
        <polygon class="cls-4" points="157.49 192.59 157.49 192.86 156.97 193.08 156.53 192.59 157.49 192.59"/>
        <polygon class="cls-12" points="157.23 218.66 157.14 219.37 156.67 221.55 156.58 222.3 155.47 221.99 152.88 220.71 151.02 218.46 150.23 217.01 149.93 215.55 149.18 215.05 149.45 215.19 151.02 215.7 153.1 215.59 154.52 214.39 155.36 214.62 155.73 214.7 155.05 214.92 154.94 215.84 154.94 216.73 156.03 217.87 157.23 218.66"/>
        <polygon class="cls-4" points="156.92 209.04 156.92 209.54 156.65 210.1 156.39 210.29 156.39 212.24 156.08 213.24 154.52 214.39 154.05 213.58 153.85 212.27 154.16 211.28 154.47 210.07 155.05 209.43 155.25 208.53 154.66 207.49 155.08 207.62 155.39 208 155.72 208 155.75 207.62 155.22 207.35 154.89 207.18 154.5 206.89 156.39 207.62 156.39 208.81 156.92 209.04"/>
        <polygon class="cls-36" points="156.53 192.59 155.39 196.63 154.08 196.63 150.26 193.79 154.79 193.79 156.53 192.59"/>
        <polygon class="cls-6" points="156.39 206.39 156.39 207.62 154.5 206.89 154.89 207.18 155.22 207.35 155.08 207.62 154.66 207.49 155.25 208.53 155.05 209.43 154.47 210.07 154.16 211.28 153.85 212.27 153.24 212.77 150.79 213.44 147.59 212.83 146.45 211.85 146.47 211.6 146.75 211.29 147.11 210.76 147.45 210.79 148.03 210.32 148.14 209.82 147.28 210.04 147.5 209.59 147.84 209.51 148.42 208.87 148.84 208 147.45 208.56 147.25 208.92 146.28 209.54 145.8 210.54 145.77 208.7 145.49 207.49 145.13 206.08 145.13 204.91 145.8 204.1 145.8 202.79 146 201.96 146.92 201.4 147.2 199.7 148.34 201.32 149.42 202.89 150.87 203.1 152.6 202.57 154.08 200.94 154.08 201.71 154.44 201.9 154.72 202.77 154.86 203.38 155.53 204.49 156.08 205.91 156.39 206.39"/>
        <polygon class="cls-6" points="155.75 207.62 155.72 208 155.39 208 155.08 207.62 155.22 207.35 155.75 207.62"/>
        <polygon class="cls-4" points="155.44 189.03 155.56 190.06 155.17 189.39 154.64 189.28 154.13 189.36 154.58 189.11 155.44 189.03"/>
        <polygon class="cls-24" points="155.17 189.39 155.56 190.06 155.14 190.48 154.52 190.52 154.13 189.98 154.13 189.36 154.64 189.28 155.17 189.39"/>
        <polygon class="cls-12" points="155.44 189.03 154.58 189.11 154.13 189.36 153.83 190.14 154.13 190.94 153.41 190.94 152.71 189.78 153.21 188.64 154.47 188.47 155.44 189.03"/>
        <polygon class="cls-4" points="155.14 190.48 154.69 190.94 154.13 190.94 153.83 190.14 154.13 189.36 154.13 189.98 154.52 190.52 155.14 190.48"/>
        <polygon class="cls-36" points="154.05 213.58 154.52 214.39 153.1 215.59 151.02 215.7 149.45 215.19 149.18 215.05 146.33 213.55 146.45 211.85 147.59 212.83 150.79 213.44 153.24 212.77 153.85 212.27 154.05 213.58"/>
        <polygon class="cls-24" points="154.08 200.94 152.6 202.57 150.87 203.1 149.42 202.89 148.34 201.32 147.2 199.7 147.42 197.64 148.14 193.4 149.31 190.52 151.21 189.03 152.57 188.47 152.55 188.77 151.13 189.53 150.91 191.17 150.26 192.81 150.26 193.79 149.11 194.66 150.59 196.96 152.2 199.85 154.08 200.94"/>
        <polygon class="cls-10" points="149.18 215.05 147.08 215.86 146.4 216.04 145.29 214.39 146.33 213.55 149.18 215.05"/>
        <polygon class="cls-4" points="146.45 211.85 146.33 213.55 145.29 214.39 145.08 214.55 144.58 214.55 144.1 214.02 144.1 213.44 144.1 213.19 144.3 212.1 145.38 210.99 145.8 210.54 146.28 209.54 147.25 208.92 147.45 208.56 148.84 208 148.42 208.87 147.84 209.51 147.5 209.59 147.28 210.04 148.14 209.82 148.03 210.32 147.45 210.79 147.11 210.76 146.75 211.29 146.47 211.6 146.45 211.85"/>
        <polygon class="cls-24" points="140.9 225.95 140.39 225.31 139.11 225.31 139.81 224.78 140.9 224.59 142.18 224.22 143.38 222.58 144.11 219.96 145.02 220.17 146.22 219.4 146.75 217.98 147.22 218.4 147.33 219.88 147.06 221.05 147.14 222.91 146.31 224.14 145.91 224.14 145.8 225.37 145.69 225.95 145.13 225.37 144.21 225.48 144.1 225.95 144.1 224.84 144.94 223.42 143.8 225 143.8 225.78 142.85 225.78 142.32 225.12 141.15 225.34 140.9 225.95"/>
        <polygon class="cls-10" points="146.75 216.56 146.75 217.98 146.22 219.4 145.02 220.17 144.11 219.96 142.37 219.04 141.2 217.65 140.9 215.5 141.93 213.02 143.84 210.15 143.84 210.15 144.1 213.44 144.1 214.02 144.58 214.55 145.08 214.55 145.29 214.39 146.4 216.04 146.75 216.56"/>
        <polygon class="cls-4" points="145.77 208.7 145.8 210.54 145.38 210.99 144.3 212.1 144.1 213.19 144.1 213.44 143.84 210.15 143.66 207.87 144.3 206.61 145.13 206.08 145.49 207.49 145.77 208.7"/>
        <polygon class="cls-4" points="145.69 225.95 145.8 226.73 144.55 227.32 143.96 226.87 144.1 225.95 144.21 225.48 145.13 225.37 145.69 225.95"/>
        <polygon class="cls-36" points="144.94 223.42 144.1 224.84 144.1 225.95 143.88 226.62 142.79 226.84 140.7 227.32 140.9 226.62 140.9 225.95 141.15 225.34 142.32 225.12 142.85 225.78 143.8 225.78 143.8 225 144.94 223.42"/>
        <polygon class="cls-4" points="140.9 225.95 140.9 226.62 138.39 226.51 139.11 225.31 140.39 225.31 140.9 225.95"/>
      </g>
      <g>
        <polygon class="cls-23" points="150.26 193.79 150.26 192.81 150.91 191.17 151.13 189.53 152.55 188.77 152.57 188.47 152.6 188.12 153.97 187.24 155.39 187.73 157.13 188.17 159.86 187.24 162.7 187.24 164.06 188.44 164.01 189.04 164.28 189.86 164.72 190.68 164.72 191.22 164.06 190.19 162.65 190.94 161.72 191.83 159.81 192.59 159.21 192.59 158.44 192.59 157.49 192.59 156.53 192.59 154.79 193.79 150.26 193.79"/>
        <polyline class="cls-23" points="164.72 191.22 164.72 192.32 163.79 192.04 164.26 193.14 163.79 192.81 163.79 193.79 163.03 193.08 162.76 193.79 162.76 193.08 162.37 193.79 162.05 193.3 161.66 194.12 161.34 193.3 161.12 194.12 160.79 193.52 159.7 193.52 159.21 192.92 158.44 193.35 158.44 192.86 157.9 193.14 157.49 192.86 156.97 193.08 156.53 192.59 155.39 196.63 154.08 196.63 150.26 193.79 149.11 194.66 150.59 196.96 152.2 199.85 154.08 200.94 156.86 201.21 159.32 201.32 160.85 202.3 162.81 202.3 163.68 201.38 164.01 200.01 163.46 198.65 163.19 199.3 162.81 198.65 162.48 199.3 162.1 198.65 161.72 199.3 161.34 198.43 160.79 199.03 160.52 197.66 159.92 198.7 159.92 197.83 159.04 197.83 158.77 196.87 158.44 197.12 156.37 196.63 155.39 196.63"/>
        <polyline class="cls-23" points="162.81 198.65 162.37 197.99 161.28 197.99 161.28 197.45 160.52 197.66 160.52 196.76 159.92 196.76 159.15 196.25 158.77 196.87"/>
        <line class="cls-23" x1="159.15" y1="196.25" x2="159.7" y2="193.52"/>
        <polygon class="cls-23" points="144.1 213.44 144.1 214.02 144.58 214.55 145.08 214.55 145.29 214.39 146.33 213.55 146.45 211.85 146.47 211.6 146.75 211.29 147.11 210.76 147.45 210.79 148.03 210.32 148.14 209.82 147.28 210.04 147.5 209.59 147.84 209.51 148.42 208.87 148.84 208 147.45 208.56 147.25 208.92 146.28 209.54 145.8 210.54 145.38 210.99 144.3 212.1 144.1 213.19 144.1 213.44"/>
        <polyline class="cls-23" points="145.8 210.54 145.77 208.7 145.49 207.49 145.13 206.08 144.3 206.61 143.66 207.87 143.84 210.15 144.1 213.44"/>
        <polyline class="cls-23" points="156.39 207.62 156.39 208.81 156.92 209.04 156.92 209.54 156.65 210.1 156.39 210.29 156.39 212.24 156.08 213.24 154.52 214.39 154.05 213.58 153.85 212.27 154.16 211.28 154.47 210.07 155.05 209.43 155.25 208.53 154.66 207.49 155.08 207.62 155.39 208 155.72 208 155.75 207.62 155.22 207.35 154.89 207.18 154.5 206.89 156.39 207.62 156.39 206.39 156.08 205.91 155.53 204.49 154.86 203.38 154.72 202.77 154.44 201.9 154.08 201.71 154.08 200.94 152.6 202.57 150.87 203.1 149.42 202.89 148.34 201.32 147.2 199.7 146.92 201.4 146 201.96 145.8 202.79 145.8 204.1 145.13 204.91 145.13 206.08"/>
        <polyline class="cls-23" points="152.57 188.47 151.21 189.03 149.31 190.52 148.14 193.4 147.42 197.64 147.2 199.7"/>
        <polyline class="cls-23" points="143.52 223.3 143.13 223.95 142.76 224.39 141.98 224.78 141.04 225.06 140.9 225.95 141.15 225.34 142.32 225.12 142.85 225.78 143.8 225.78 143.8 225 144.94 223.42 144.1 224.84 144.1 225.95 144.21 225.48 145.13 225.37 145.69 225.95 145.8 225.37 145.91 224.14 146.31 224.14 147.14 222.91 147.06 221.05 147.33 219.88 147.22 218.4 146.75 217.98 146.75 216.56 146.4 216.04 145.29 214.39"/>
        <polyline class="cls-23" points="143.84 210.15 141.93 213.02 140.9 215.5 141.2 217.65 142.37 219.04 144.11 219.96"/>
        <polyline class="cls-23" points="139.11 225.31 138.39 226.51 140.9 226.62 140.9 225.95 140.39 225.31 139.11 225.31 139.81 224.78 140.9 224.59 142.18 224.22 143.38 222.58 144.11 219.96 145.02 220.17 146.22 219.4 146.75 217.98"/>
        <polyline class="cls-23" points="140.9 226.62 140.7 227.32 142.79 226.84 143.88 226.62 144.1 225.95 143.96 226.87 144.55 227.32 145.8 226.73 145.69 225.95"/>
        <polyline class="cls-23" points="155.73 214.7 156.92 214.94 157.84 215.05 157.51 216.62 157.95 217.76 157.28 218.29 157.23 218.66 157.14 219.37 158.82 220.71 160.24 221.02 160.82 219.4 162 217.63 162.44 216.98 162.97 214.16 162.74 212.83 161.57 211.15 160.85 209.76 158.93 208 156.39 206.39"/>
        <polyline class="cls-23" points="146.33 213.55 149.18 215.05 149.45 215.19 151.02 215.7 153.1 215.59 154.52 214.39 155.36 214.62 155.73 214.7"/>
        <polyline class="cls-23" points="157.14 219.37 156.67 221.55 156.58 222.3 156.53 222.77 156.92 223.28 157.39 223.75 157.39 224.95 156.67 225.31 156.53 226.09 157.17 225.67 157.78 225.95 158.17 227.04 158.98 226.26 159.09 224.42 159.09 225 159.23 226.51 160.24 227.54 160.35 225.95 160.96 225.59 161.94 226.17 162.05 226.62 162.8 226.98 164 227.09 163.97 225.95 164.22 225.09 162.77 224.95 161.3 224.34 160.57 223 160.44 222.2 160.24 221.02"/>
        <polyline class="cls-23" points="156.53 226.09 156.67 227.54 158.17 227.04 159.07 226.62 160.24 227.54 161.66 228.01 162.05 227.54 162.05 226.62 162.24 227.05 164 227.09 165.48 227.21 165.34 226.34 164.22 225.09"/>
        <polyline class="cls-23" points="155.73 214.7 155.73 214.7 155.05 214.92 154.94 215.84 154.94 216.73 156.03 217.87 157.23 218.66"/>
        <polyline class="cls-23" points="156.58 222.3 155.47 221.99 152.88 220.71 151.02 218.46 150.23 217.01 149.93 215.55 149.18 215.05 147.08 215.86 146.4 216.04"/>
        <polyline class="cls-23" points="160.44 222.2 162.19 221.97 164.22 221.63 165.48 221.13 166.03 220.55 166.03 219.51 165.73 218.87 165.22 218.4 164.72 218.32 162.97 217.76 162.19 217.76 162.41 218.18 162.97 218.66 163.27 218.82 163.08 218.99 160.82 219.4"/>
        <polyline class="cls-23" points="146.45 211.85 146.45 211.85 147.59 212.83 150.79 213.44 153.24 212.77 153.85 212.27"/>
        <polygon class="cls-23" points="155.44 189.03 154.47 188.47 153.21 188.64 152.71 189.78 153.41 190.94 154.13 190.94 154.69 190.94 155.14 190.48 155.56 190.06 155.44 189.03"/>
        <polyline class="cls-23" points="155.44 189.03 154.58 189.11 154.13 189.36 153.83 190.14 154.13 190.94"/>
        <polyline class="cls-23" points="155.56 190.06 155.17 189.39 154.64 189.28 154.13 189.36 154.13 189.98 154.52 190.52 155.14 190.48"/>
      </g>
    </g>
  </g>
</svg>