<svg xmlns="http://www.w3.org/2000/svg" id="Layer_2" data-name="Layer 2" viewBox="0 0 191.52 249.51"><defs><clipPath id="clippath"><path d="m81.44 130.75-10.23-17.72 10.23-17.72h20.46l10.23 17.72-10.23 17.72z" class="cls-22"/></clipPath><filter id="drop-shadow-1" width="191.52" height="243.84" x="0" y="5.67" filterUnits="userSpaceOnUse"><feOffset dx="7" dy="7"/><feGaussianBlur result="blur" stdDeviation="5"/><feFlood flood-color="#231f20" flood-opacity=".75"/><feComposite in2="blur" operator="in"/><feComposite in="SourceGraphic"/></filter><style>.cls-1{fill:#8acc9c}.cls-2{fill:#f5835b}.cls-3{fill:#58595b}.cls-4{fill:#f5dfc0}.cls-5{fill:#2da98c}.cls-6{fill:#c5b4d2}.cls-7{fill:#faaf88}.cls-10{fill:#f0bbb9}.cls-11{font-family:UtopiaStd-Regular,&quot;Utopia Std&quot;;font-size:18.78px}.cls-12{fill:#c4dec2}.cls-13{fill:#abc4e6}.cls-14{fill:#c3cd9d}.cls-15{fill:#d8b195}.cls-16{fill:#adc1cd}.cls-17{fill:#f1f2f2}.cls-19{fill:#ffe7a5}.cls-20{fill:#6fb59e}.cls-21{fill:#db7cb0}.cls-22{stroke:#fff}.cls-22,.cls-23{fill:none;stroke-miterlimit:10;stroke-width:.5px}.cls-24{fill:#c0e1ea}.cls-27{fill:#bd7ca0}.cls-23{stroke:#231f20}.cls-29{fill:#6a8261}.cls-31{fill:#fee5d6}.cls-32{fill:#5da2c8}.cls-33{fill:#2f4c70}.cls-34{fill:#9099c4}.cls-36{fill:#edc4d7}.cls-37{fill:#e6e7e8}.cls-38{fill:#f99e49}.cls-40{fill:#c15f8d}</style></defs><g id="_レイヤー_1" data-name="レイヤー 1"><path d="M8.09 13.73h161.37V227.3H8.09z" style="fill:#2e3192;filter:url(#drop-shadow-1)"/><text style="fill:#fff" transform="translate(29.9 49.6)"><tspan class="cls-11"><tspan x="0" y="0">RaJA GLOBAL</tspan></tspan><tspan class="cls-11"><tspan x="12.66" y="18">ACADEMY</tspan></tspan><tspan style="font-family:HiraMaruPro-W4-83pv-RKSJ-H,&quot;Hiragino Maru Gothic Pro&quot;;font-size:11.88px;letter-spacing:-.07em"><tspan x="6.81" y="30.87">３～５歳児幼保教育</tspan></tspan></text><g style="clip-path:url(#clippath)"><path d="m81.44 130.75-10.23-17.72 10.23-17.72h20.46l10.23 17.72-10.23 17.72z" class="cls-22"/><path d="M107.2 130.75c-2.92 0-5.29-7.93-5.29-17.72s2.37-17.72 5.29-17.72m-30.77 35.44c2.92 0 5.29-7.93 5.29-17.72s-2.37-17.72-5.29-17.72" class="cls-22"/><path d="M74.94 128.41c0-2.92 7.93-5.29 17.72-5.29s17.72 2.37 17.72 5.29M74.94 97.65c0 2.92 7.93 5.29 17.72 5.29s17.72-2.37 17.72-5.29" class="cls-22"/><path d="M114.78 114.98c-2.07 2.07-9.35-1.87-16.27-8.79s-10.85-14.21-8.79-16.27m3.31 46.82c2.07-2.07-1.87-9.35-8.79-16.27s-14.21-10.85-16.27-8.79" class="cls-22"/><path d="M90.32 136.14c-2.07-2.07 1.87-9.35 8.79-16.27s14.21-10.85 16.27-8.79m-46.82 3.3c2.07 2.07 9.35-1.87 16.27-8.79s10.85-14.21 8.79-16.27" class="cls-22"/></g><path d="m81.44 130.75-10.23-17.72 10.23-17.72h20.46l10.23 17.72-10.23 17.72z" class="cls-22"/><path d="m83.52 127.15-8.16-14.12 8.16-14.13h16.31l8.15 14.13-8.15 14.12z" class="cls-22"/><path d="m81.44 130.75-10.23-17.72 10.23-17.72h20.46l10.23 17.72-10.23 17.72zm0 0h20.47m0 0-10.24 6.84m-10.23-6.84 10.23 6.84m10.24 19.66H81.44m0 0 10.23-19.66m10.24 19.66-10.24-19.66" class="cls-22"/><path d="m64.84 215.52-.44 1.13-1.75-3.23z" class="cls-19"/><path d="m62.65 213.42 1.75 3.23-3.76 1.14 1.14-2.01-5.33-1.57H41.42l-1.92.87-1.57 1.4.08-.88.18-1.91s1.01-3.96.72-4.1l16.91 3.38 6.84.46Z" class="cls-37"/><path d="m62.65 213.42-6.84-.46-16.91-3.38h-.02c-.35 0-6.64-4.37-6.64-4.37l-1.4 2.01-1.05-3.06-3.84-1.31-4.89 2.18-1.05 1.05v-1.84l-3.32-6.64 2.45 2.18 7.95 1.57 5.77 2.18 3.5 1.22 3.76 3.06 4.98.74 17.56 4.85Z" class="cls-4"/><path d="M38.96 223.99v3.41l-2.96.7-1.92-1.14 1.49-2.18.53-2.53-1.22-2.36-.96-2.18-1.75-1.83-1.31-8.65 1.4-2.01s6.29 4.37 6.64 4.37h.02c.29.14-.72 4.11-.72 4.11l-.18 1.91-.08.88 1.03 5.68v1.84Z" class="cls-31"/><path d="m33.9 217.7 1.31 6.29-4.19-.79 1.92-1.83v-2.36l-.96-2.14.18-1z" class="cls-4"/><path d="m30.84 207.21 1.31 8.65-.17 1-8.48-1.7-4.11-5.68s-.67-.67-1.14-.87l.09-.05 1.66-2.48 1.05-1.05 4.89-2.18 3.84 1.31 1.05 3.06Z" class="cls-19"/><path d="M23.51 215.17s.09 7.25 0 7.52-.96 5.42-.96 5.42l-4.02-.61 1.49-2.71.52-4.37-.52-3.15-2.27-4.89s.09-2.53.09-3.5l.43-.26c.46.2 1.14.87 1.14.87l4.11 5.68Z" class="cls-4"/><path d="M20.64 168.33v.78h-.63l-.96.35.96.44.63.79h-2.55l-.85-.8-.64-.6.64-.89.5-.68h2.27zm-.63 35.91v1.84l-1.66 2.48-.09.05c-.25-.1-.43-.07-.43.26 0 .96-.09 3.5-.09 3.5l-1.57-.7-2.53-2.45-1.92-4.98v-4.46l3.41-12.5 1.57 10.31 3.32 6.64Z" class="cls-37"/><path d="M20.01 167.19v.53h-1.66v-.27l1.66-2.09z" class="cls-31"/><path d="m20.01 165.36-1.66 2.09-.61-.96-.5.79v1.12l-.64.89.64.6-2.34 2.95v1.77l-.84 11.93-2.35 10.07v-21.12l.52-2.44.96-2.36 1.93-2.8 3.49-2.53z" class="cls-4"/><path d="m17.74 212.37 2.27 4.89-.61 2.27-.79 5.24h-4.28c1.14-.96 2.01-3.23 2.01-3.23l-.18-9.87 1.57.7Z" class="cls-31"/><path d="M18.35 167.45v.27h-.61l-.5.68v-1.12l.5-.79z" class="cls-24"/><path d="m18.09 170.69-1.75 1.92-.48 2.01-.74 12.67-3.41 12.5v-3.18l2.35-10.07.84-11.93v-1.77l2.34-2.95z" class="cls-19"/><path d="m16.16 211.67.18 9.87s-.87 2.27-2.01 3.23h4.28l.79-5.24.61-2.27-2.27-4.89-1.57-.7-2.53-2.45-1.92-4.98v-28.75l.52-2.45.96-2.36 1.92-2.8 3.5-2.53h1.4v2.36" class="cls-23"/><path d="m20.01 217.26.52 3.15-.52 4.37-1.49 2.71 4.02.61s.87-5.16.96-5.42 0-7.52 0-7.52l-4.11-5.68s-.67-.67-1.14-.87c-.25-.1-.43-.07-.43.26 0 .96-.09 3.5-.09 3.5m.36-41.68-.85-.8-.64-.6.64-.89.5-.68h2.27l.63.61v.78h-.63l-.96.35.96.44.63.79h-2.55l-1.75 1.92-.48 2.01-.74 12.67 1.57 10.31 2.45 2.19 7.95 1.57 5.77 2.18 3.49 1.23 3.76 3.06 4.98.73 17.56 4.86 2.19 2.1-.44 1.13-3.76 1.14 1.14-2.01-5.33-1.58H41.42l-1.92.88-1.58 1.4m-22.8-29.19-3.41 12.5" class="cls-23"/><path d="m17.83 208.87.43-.25.09-.06 1.66-2.48v-1.84l-3.32-6.64m14.15 9.61-1.04-3.05-3.85-1.32-4.89 2.19-1.05 1.05m11.97 10.79.18-1m-12.15-50.51-1.66 2.09-.61-.96-.5.79v1.12m0 1.49-2.34 2.95v1.77l-.84 11.93-2.35 10.07m6.64-28.89v-.27" class="cls-23"/><path d="m33.9 217.7.96 2.18 1.22 2.36-.53 2.53-1.49 2.18 1.92 1.14 2.96-.7v-5.24l-1.03-5.68.08-.88.18-1.91s1.01-3.96.72-4.1h-.02c-.35 0-6.64-4.37-6.64-4.37l-1.4 2.01 1.31 8.65 1.75 1.83 1.31 6.29-4.19-.79 1.92-1.84V219l-.96-2.14-8.48-1.7" class="cls-23"/><path d="m64.4 216.65-1.75-3.23-6.84-.46-16.91-3.38-.01-.01" class="cls-23"/><path d="m148.16 37.79-.12.92-.76-.47-3.28-4.75-3.06-4.44-6.89-8.77-6.25-6.05-2.11-2.05-5.37-3.2-5.55-3.31-1.08.23-2.24 2.45-2.87 3.15-1.35 1.7-.76.09-1.16-.26-4.87 1.13-2.82.08-.54-.74.68-.97 2.89.02 4.99-1.77 3.61-2.76 2.15-2.94.18-.24.55-.76 3.02-.2 10.77 7.17 10.95 10.59 6.19 7.53z" class="cls-40"/><path d="m140.94 29.05 3.06 4.44-6.5-7.17-3.45-6.04z" class="cls-36"/><path d="m134.05 20.28 3.45 6.03c-.08-.07-5.45-4.77-5.49-5.05 0 0 0-.02-.02-.03l-4.19-7.01 6.25 6.05Z" class="cls-36"/><path d="m127.8 14.23 4.19 7.01c-.38-.44-5.8-3.51-5.88-3.56-.07-.05-5.69-8.56-5.78-8.7l5.37 3.2 2.11 2.04Z" class="cls-27"/><path d="m126.11 17.68-1.76-.6-3.18-.04-7.48-11.13 1.08-.24 5.55 3.31c.09.13 5.71 8.65 5.78 8.7Z" class="cls-21"/><path d="m113.69 5.9 7.48 11.13-2.06.51-1.06.36-6.6-9.55z" class="cls-36"/><path d="m111.45 8.35 6.6 9.55-3.32 1.12-7.5-5.82 1.35-1.7z" class="cls-10"/><path d="m114.73 19.02-3.02 2.15-1.63 2.27-6.19-5.95.98-.47 2.36-3.82z" class="cls-40"/><path d="m115.15 3.88-3.02.2-.55.76-.18.24.18-1.4.18-.54.61.23.6-.3.47.43.59-.22.16.47.55-.19z" style="fill:#96588f"/><path d="m114.82 2.97-.08.59-.55.19-.16-.47.06-.48.4-.21zm-.73-.17-.06.48-.59.22-.47-.43.6-.86z" class="cls-10"/><path d="m110.68 27.26-.24.53-.91.11-.76-.51.05-.37.74-.54z" class="cls-40"/><path d="m112.72 2.1.25.97-.6.3-.61-.23.25-.76z" class="cls-10"/><path d="m110.08 23.44-.79 1.09-.27.95-.19-.33-.89-1.51-4.37-3.71-.36-.99-1.57-1.62 2.25.17z" class="cls-27"/><path d="m109.02 25.48.54 1-.74.54-3.31-2.79-2.49-2.54-.37-.03-.59-.05-1.91-1.48.66-1.35-.65-1.57 1.48.11 1.57 1.62.36.99 4.37 3.71.89 1.51z" class="cls-6"/><path d="m106.68 25.58.68 1.36-1.88-.24-.36-.72-.57-.72z" class="cls-36"/><path d="m106.68 25.58-2.13-.32-.2-.24-1.59-1-1.91-2.02-.95-1.35.25-.52 1.91 1.48.59.05 1.11 1.14z" class="cls-10"/><path d="m107.23 13.2-2.36 3.82-.98.47-2.25-.17-1.48-.11-2.54-2.97 2.82-.08 4.87-1.13 1.16.26z" class="cls-21"/><path d="m100.16 17.21.65 1.57-.66 1.35-.25.52-.81-.11-2.4-.31-.94-.83-1.04-1.52.09-2.17 1.43-.34 1.39-1.13z" class="cls-40"/><path d="m100.01 11.36.64 1.19-2.89-.02-.68.97.54.74-1.39 1.13-1.43.34-.5-1.9.5-2.02 1.33-1.42 1.6.7z" class="cls-36"/><path d="m99.25 3.05-.21 1.59-.6 1.14-2.63 1.78-.5.69.23.85-.75.84L93 11.62l-.85.19-3.1-1.56.79-1.74.71-.28.95-.14 3.12-2.67L97.84 4l1.04-1.63.36.68Zm-6.14 7.19c.04-.25-.12-.45-.26-.63s-.29-.38-.55-.41c-.27-.03-.48.16-.55.23-.14.13-.23.4-.25.67-.02.23.01.45.09.55.24.29.69.29.99.17.07-.03.47-.2.52-.57Z" class="cls-27"/><path d="m95.55 9.1.58 1.27-1.33 1.42-7.24 7.71h-.01l-2.42 2.57L92.9 11.9l-.74-.09.85-.19 1.79-1.68zm-1.25 4.71.5 1.9-.96-.6z" class="cls-21"/><path d="m87.56 19.5 7.24-7.7-.5 2.02-.46 1.3-.19.53s-.54.42-.61.31-1.44.13-1.44.13-3.84 3.22-4.05 3.41Z" class="cls-6"/><path d="M92.86 9.61c.14.18.29.38.26.63-.05.37-.46.54-.52.57-.3.12-.75.12-.99-.17-.08-.1-.11-.32-.09-.55l.25.26.17.17s.33-.03.37-.03.28-.15.28-.15l.24-.39.05-.35Zm.04 2.29-7.77 10.17-.4-.05 3.3-6.72.82-1.12.31-.23 3-2.14z" class="cls-36"/><path d="m92.86 9.61-.05.35-.24.39.05-.25-.06-.21-.09-.21z" class="cls-36"/><path d="m92.86 9.61-.39.07-.54.09-.16.13-.1.07-.17.12c.02-.26.11-.54.25-.67.08-.07.28-.26.55-.23.26.03.41.23.55.41Z" class="cls-36"/><path d="m92.56 9.89.06.21-.05.25-.57.04-.12-.15.41.05.13-.22.03-.21-.53.02.45-.16.1-.04z" class="cls-17"/><path d="m92 10.39.57-.04s-.24.16-.28.15-.37.03-.37.03l-.17-.17-.25-.26.17-.12.21.26zm.47-.71-.1.04-.45.16-.25.1.11-.08.15-.13z" class="cls-36"/><path d="m92.45 9.86-.03.21-.13.22-.41-.05.04-.36z" style="fill:#9fc4d0"/><path d="m92.16 11.81-3 2.14-.32.23-7.22 5.15-.44-.36 1.43-2.37 6.12-6.14.33-.22 3.1 1.56Zm-1.84.02-.19-.29-.48-.06-.9 1.2z" class="cls-40"/><path d="m91.92 9.88-.04.36-.21-.26z" class="cls-17"/><path d="m90.13 11.54.19.29-1.57.85.9-1.2z" class="cls-3"/><path d="m90.56 8.23-.71.28-.51.19-.24.42v.53l-.04.59-.32.22-2.65-2.7-2.17-2.61-1.43-1.16-1.93-1L77.85.46l1.94.07 5.04 3.31z" class="cls-10"/><path d="m89.85 8.51-.79 1.73.04-.59v-.53l.24-.42z" class="cls-6"/><path d="m88.74 10.46-2.03-.26-8.53-8.8-.13-.36-.2-.58 2.71 2.53 1.93 1 1.43 1.16 2.17 2.61z" class="cls-27"/><path d="m86.71 10.2-5.36 1.74-5.18-6 1.4-3.34.61-1.2z" class="cls-36"/><path d="m81.35 11.94-4.59 3.22-2.31-3.92.57-2.56 1.15-2.74z" class="cls-6"/><path d="m76.76 15.16-1.1.77-.71 1.15-1-3.6.5-2.24z" class="cls-10"/><path d="m78.05 1.04.13.36-.17-.02-.06-.25-.17-.1.03-.22-.17-.14.21-.21z" class="cls-36"/><path d="m77.85.46 1.94.07 5.04 3.31 5.73 4.39-.71.28-.51.19-.24.42v.53l-.04.59-.32.22-2.65-2.7-2.17-2.61-1.43-1.16-1.93-1z" class="cls-23"/><path d="m90.56 8.23.96-.14 3.12-2.67L97.86 4l1.03-1.63.36.68-.2 1.59-.6 1.14-2.63 1.78-.5.68.23.86-.75.84-1.79 1.68-.85.19-3.1-1.57.79-1.73" class="cls-23"/><path d="m88.85 14.18-.82 1.12-3.3 6.72.4.05L92.9 11.9l-.74-.09-3 2.14-.31.23-7.22 5.15-.44-.36 1.43-2.36 6.12-6.15-2.03-.26-5.36 1.74-4.59 3.22-1.1.77-.71 1.15-1-3.6.5-2.24.57-2.56 1.15-2.74 1.4-3.34.61-1.2-.13-.36-.2-.58-.21.21.17.14-.03.22.17.1.06.25.17.02 8.53 8.8m.84 9.3-2.42 2.57M95.55 9.1l.58 1.27-1.33 1.42-7.24 7.71" class="cls-23"/><path d="M87.55 19.5c.21-.19 4.05-3.41 4.05-3.41s1.37-.23 1.44-.13.61-.31.61-.31l.19-.53.46-1.3.5-2.02" class="cls-23"/><path d="m93.84 15.11.96.6-.5-1.9m33.5.42 6.25 6.05 6.89 8.77 3.06 4.44 3.28 4.75.76.47.12-.92-5.1-8.62-6.19-7.53-10.95-10.59-10.77-7.17-3.02.2-.55.76-.18.24-2.15 2.94-3.61 2.76-4.99 1.77" class="cls-23"/><path d="m120.32 8.98 5.37 3.2 2.11 2.05m-31.67-3.86 1.6.7 2.28.29.64 1.19-2.89-.02-.68.97.54.74-1.39 1.13-1.43.34-.09 2.17 1.04 1.52.94.83 2.4.31.81.11.25-.52.66-1.35-.65-1.57-2.54-2.97 2.82-.08 4.87-1.13 1.16.26.76-.09 1.35-1.7 2.87-3.15 2.24-2.45 1.08-.23 5.55 3.31" class="cls-23"/><path d="m101.64 17.32 1.57 1.62.36.99 4.37 3.71.89 1.51.19.33.54 1 1.12.78-.24.53-.91.11-.76-.51.05-.37-3.31-2.79-2.49-2.54-.37-.03-.59-.05-1.91-1.48" class="cls-23"/><path d="m99.9 20.65.95 1.35 1.91 2.02 1.59 1 .2.24.57.72.36.72 1.88.24-.68-1.36-2.92-2.78-1.11-1.14m1.9 3.6 2.13.32m2.14 1.44.74-.54m-.54-1 .27-.95.79-1.09 1.63-2.27 3.02-2.15-7.5-5.82-2.36 3.82-.98.47-2.25-.17-1.48-.11m14.57 1.81 3.32-1.12 1.06-.36 2.06-.51-7.48-11.13m12.42 11.77c-.07-.05-5.69-8.56-5.78-8.69" class="cls-23"/><path d="m121.17 17.03 3.18.04s1.79.64 1.76.6" class="cls-23"/><path d="M137.5 26.32c-.08-.07-5.45-4.77-5.49-5.05 0 0 0-.02-.02-.03-.38-.44-5.8-3.51-5.88-3.56M144 33.49l-6.5-7.17M114.09 2.8l.4-.21.33.38-.08.59.41.32m-3.75 1.2.18-1.4.18-.54.25-.76.71-.28.25.97m1.12-.27-.52-.59-.6.86.47.43.59-.22z" class="cls-23"/><path d="m111.76 3.14.61.23.6-.3m1.77.49-.55.19-.16-.47m-32.68 8.66-5.18-6m.59 9.22-2.31-3.92m43.6 6.66-6.6-9.55m-1.37 15.09-6.19-5.95m28.12 3.78-.02-.04-4.19-7m9.7 12.09-3.45-6.04m-45.3-7.6.9-1.2.48.06.19.29zm2.75-2.58c.02-.26.11-.54.25-.67.08-.07.28-.26.55-.23.26.03.41.23.55.41s.29.38.26.63c-.05.37-.46.54-.52.57-.3.12-.75.12-.99-.17-.08-.1-.11-.32-.09-.55Z" class="cls-23"/><path d="m91.67 9.98.1-.07.16-.13.54-.09.39-.07-.05.35-.24.39s-.24.16-.28.15-.37.03-.37.03l-.17-.17-.25-.26.17-.12Z" class="cls-23"/><path d="m92.47 9.68.09.21.06.21-.05.25-.57.04-.12-.15-.21-.26.25-.1.45-.16z" class="cls-23"/><path d="m91.92 9.88.53-.02-.03.21-.13.22-.41-.05z" class="cls-23"/><path d="M86.69 213.33v.95l-.73.31-.84-.26-2.05-.84-.21-.74 1.73-1.68 1.05-.47.69.79h-.95l-1.32 1.05 1.14.89.81-.97z" class="cls-2"/><path d="M86.69 213.02v.31l-.68-.97-.81.97.18-1.94h.95z" class="cls-15"/><path d="M86.69 211.81v1.21l-.36-1.63zm0 2.47-.57 1.68-1 .68-1.37-1.18-.63-1.18-1.16-.95-.71-.97 1.82 1.13.57 1.01 2 1.09.32-1z" class="cls-38"/><path d="m85.96 214.59-.32 1-2-1.09-.57-1.01 2.05.84z" class="cls-7"/><path d="M85.9 207.92v1.73l-.26.95-2.63-2.68z" class="cls-2"/><path d="m83.01 207.92 2.63 2.68-1.05.47-2.58-2.26-1.52-.95-.95.32v2.21l-1.13.45v2.5h-4.6l-5.31-.26-3 1.43-.77.44-.23-4.34 1.63-4.42s-2.94-4.73-3.05-4.89l-.53-1.05h1.68l-1.52-3.57-.3-.39 1.82.71 1.31.84L67.3 199l.92 1.26.53.89.77 1.21h1.07l.37.83-.74 1.9v1.68l-1.05 1.74 1.1 2.93.69-1.72 2.2-2.58-.14-.5.4-.75.37.75v1.55l-.63 1.64.84 1.81v-1.25l1.31-2.21h1.05l-.63 2.21.89 1.04.21-1.3.94-2 .33-.31-.33-.29.62-.24.13.9.89-.63.79-.03 1.52.03 1.26.37Zm-14.24-2.53-.32-2.26-1.68-3.47-.89-.37v3.1l.74 1.79 2.16 1.21Z" class="cls-15"/><path d="m85.38 211.39-.18 1.94-1.14-.89z" class="cls-38"/><path d="m85.12 216.64-2.84-2.05-3.86-1.26v-2.5l1.12-.44.69.68 1.73-1.16.05-1.1 2.58 2.26-1.73 1.68.21.74-1.82-1.13.71.97 1.16.95.63 1.18z" class="cls-7"/><path d="m82.28 205.71-.53 1.84-1.52-.03z" class="cls-2"/><path d="m82.28 214.59-3.86.74h-3.5l-3.53 1.66-1.1-.66-1.74 1h-3.47l-1.78-.32v-1.26l1.43-.81.78-.44 2.99-1.43 5.31.26h4.61zm-.27-5.78-.05 1.1-1.74 1.16-.68-.68v-2.21l.95-.32zm-1.31 1.31 1.07-.79-.95-.62-.41-.27-.54 1.26.84.42Z" class="cls-38"/><path d="m81.77 209.34-1.07.78.55-.84-.44-.57z" class="cls-15"/><path d="m80.81 208.71.44.57-.55.84-.3-.78z" style="fill:#5e4f2f"/><path d="m80.23 226.32 1.02 1.47h-1.39l-.32-1.26z" class="cls-2"/><path d="m80.4 208.44.41.27-.41.63.3.78-.84-.42z" class="cls-15"/><path d="m78.12 205.22 2.11 2.3-.79.03-.9.63-.12-.9z" class="cls-2"/><path d="m77.65 223.27 2.58 3.05-.69.21-1.89-.42-.71.21-.87.73-.73-.47-.24 1.58-.18-3.37z" class="cls-7"/><path d="m79.54 226.53.32 1.26-2.96.37-.04-1.11.08-.73.71-.21z" class="cls-38"/><path d="m78.12 207.81-.32.31-.73.69-.68-.63-.52-2.03-.11-.44.31.27 1.19 1.07.54.47z" class="cls-2"/><path d="m77.07 208.81.73-.69-.94 2-.21 1.31-.89-1.04.63-2.21z" class="cls-7"/><path d="m77.65 204.71-.39 2.34-1.19-1.07z" class="cls-15"/><path d="m77.48 220.53.17 2.74-2.73 1.52-1.11-1.52-1.47-3 2.76-.52z" class="cls-38"/><path d="m76.07 218.64 1.41 1.89-2.38-.78zm.87 7.68-.08.73.04 1.11h-.83v-1.11z" class="cls-2"/><path d="m75.87 206.15.52 2.03-1.05-1.39.42-.61z" class="cls-15"/><path d="m75.34 206.79 1.05 1.39h-2.58v-2.79z" class="cls-2"/><path d="M76.07 227.05v1.11h-.97l.24-1.58z" class="cls-38"/><path d="m75.1 216.33.97 2.31-.97 1.11-2.76.52-.95-3.28 3.53-1.66zm.24-8.15-1.32 2.21v1.24l-.84-1.81.63-1.64z" class="cls-7"/><path d="m74.92 202.34-.21 1.16-.99 1.84-.28.54-.4.75-.54-1.87-.79-1.02z" class="cls-15"/><path d="m70.98 203.17.1-.25.63.82.79 1.02.54 1.87.14.5-1.63.39-1.31-.76v-1.68z" class="cls-2"/><path d="m73.18 207.13-2.2 2.57-.69 1.73-1.1-2.93 1.05-1.74 1.31.76z" class="cls-7"/><path d="m72.03 196.67.31 2.31-1.73 2.63v.73h-1.07l-.77-1.21-.53-.89zm-2.84-4.02-.42 2.96-1.45 3.37-1.76-1.16-1.32-.84.69-1.1zm-.74 10.48.32 2.26-2.16-1.21-.74-1.78v-3.11l.9.37z" class="cls-2"/><path d="m66.14 206.18-1.63 4.42-2.55-3.2-3.5-2.69-.3-1.79 1.51-2s3.31.21 3.42.37 3.05 4.89 3.05 4.89" class="cls-7"/><path d="m64.51 210.6.22 4.34-1.43.81-.92-3-3.69-1.36.26-1.48-.49-5.2 3.5 2.69zm-1.79-13.93 1.52 3.57h-1.68l-2.1-1.63-.79-2.26v-3.7l.85 1.12 1.9 2.5z" class="cls-2"/><path d="m63.51 190.18-1.09 6.09-1.9-2.5z" class="cls-15"/><path d="M63.3 215.75v1.26l-3.16 1.95-3.36-.32-1.58-1.63 1.21-.94 1.16-1.79v-1.53l1.12-1.36 3.69 1.36z" class="cls-7"/><path d="m62.56 200.24.53 1.05c-.11-.16-3.42-.37-3.42-.37l-1.51 2 .3 1.79.49 5.21-.26 1.47-1.12 1.37v1.52l-2.16-1.21s-.24-.26-.58-.64c-.92-1.03-2.59-2.94-2.47-3.09.16-.21-.47-5.44-.47-5.44l1.37-2.71 1.95-4 3.94.63-.92-1.55.92-.24.53.32.79 2.26 2.1 1.63Z" class="cls-38"/><path d="m61.51 227.05.87.92h-.42z" class="cls-7"/><path d="m62.38 223.06-.87.21-.99-.74v-.47h.73zm-.87 3.99.45.92-1.82.19-.16-.37-.31-1.1.85-.58z" class="cls-38"/><path d="m61.51 223.27-1.37.58-.23-1.12.23-1.01.38.81z" class="cls-2"/><path d="m60.52 221.11.73.95h-.73v.47l-.38-.81v-2.76zm-.85 3.21.85 1.79-.85.58-.42-.16-1.02.84v.79l-.01.06-.44-.06-2.58-.19.21-2.26v-1.86l2.05.47z" class="cls-7"/><path d="M60.14 220.27v1.45l-.23 1.01-.24 1.01v.58h-2.21l-2.05-.47-.58-3.26v-2.79l.37-.79 1.58 1.63z" class="cls-38"/><path d="M60.14 218.96v1.31l-3.36-1.63z" class="cls-2"/><path d="m59.91 222.73.23 1.12-.47.47v-.58z" class="cls-7"/><path d="m59.98 227.79.16.37-.73.21-1.19-.15.01-.06v-.79l1.02-.84.42.16z" class="cls-2"/><path d="M59.67 194.86v1.49l-.53-.32z" class="cls-15"/><path d="m58.23 196.27.91 1.55-3.94-.63-1.47-2.89-1.37-5.56 4.1 4.55z" class="cls-2"/><path d="m55.2 197.19-1.94 4-1.37 2.7-2.21-.97-1.05.58.42-2.37.63-.81 1.16-1.34h1.1l.95-1.37 1.57-.16z" class="cls-7"/><path d="m54.15 224.79.68.94h-1.31v-1.41z" class="cls-2"/><path d="m54.83 212.43-.37.64-.32 2.26-.84 2.68.11.63.42 1.05-.11 2.84.42 2.26-.63-1.53-.63-1.21-1-.95-1.05.6-.37.34-.79 1.5v-3.76l.37-.34v-.82l-.37-1.66-.63-3.92-.47-2.94-.32-5.68.37-.95 1.05-.58 2.21.97s.63 5.23.47 5.44c-.11.15 1.56 2.06 2.47 3.09Z" class="cls-15"/><path d="m53.62 194.86.84 2.59-1.57.16-.95 1.37h-1.1l-1.53-8.24z" class="cls-2"/><path d="m53.52 223.27.63 1.52-.63-.47v.84l-.63-1.05-1.12.91-.93-1.17-.58.93v-.93l-1.21.94.63-1.23.79-1.5.37-.34 1.05-.61 1 .95z" class="cls-7"/><path d="M53.52 225.16v.57l-1.72-.02h-1.54v-.93l.58-.93.93 1.17 1.12-.91z" class="cls-38"/><path d="M50.26 224.78v.93h-1.21v-.92l1.21-.94zm-3.42-27.64 2.84 3.18-.63.81-.42 2.37-1.58-4.21z" class="cls-2"/><path d="m48.26 204.45.32 5.67-2.21.48h-1.63v-1.79l1.21-1.29 1.26-1.34z" class="cls-7"/><path d="m45.95 201.61 2.31 2.84-1.05 1.73-.95-1.89zm-.58 3.1.58 2.81-1.21 1.29z" class="cls-2"/><path d="M44.74 208.81v1.79l-.79-1.26.26-.53z" class="cls-38"/><path d="m42.42 205.22 2.32 3.59h-.53l-.26.53-.84-1.16z" class="cls-2"/><path d="m50.84 198.98-1.53-8.24 4.31 4.12.84 2.59-1.57.16-.95 1.37zm7.39-2.71-1.77-2.98-4.1-4.55 1.37 5.56 1.47 2.89 3.94.63zm2.29-2.5-.85-1.12v3.7l.79 2.26 2.1 1.63h1.68l-1.52-3.57-.3-.4zm5.35 5.52v3.11l.74 1.78 2.16 1.21-.32-2.26-1.68-3.47zm5.84 4.45-.63-.82-.1.25-.74 1.91v1.68l1.31.76 1.63-.39-.14-.5-.54-1.87zm2.1 1.65v2.79h2.58l-1.05-1.39z" class="cls-23"/><path d="m76.07 205.98-.31-.27.11.44.52 2.03.68.63.73-.69.32-.31-.32-.29-.54-.47zm4.16 1.54-2.11-2.3.3 2.06.12.9.9-.63zm1.52.03.53-1.84-2.05 1.81zm-32.07-7.23-2.84-3.18.21 2.15 1.58 4.21.42-2.37zm-1.42 4.13-2.31-2.84.31 2.68.95 1.89zm-2.31 3.07-.58-2.81-.63 4.1zm-1.21 1.29-2.32-3.59.69 2.96.84 1.16.26-.53zm19.5-11.83-1.82-.71 1.09-6.09-2.99 3.59m-.85 1.09-.53 1.17.53.32m4.57.63 1.32.84 1.76 1.16 1.45-3.37.42-2.96-4.26 3.23zm6.37 5.36v-.73l1.73-2.63-.31-2.31-3.79 3.57.53.89.77 1.21zm2.43 4.29.4-.75.28-.54.99-1.84.21-1.16-3.21 1.4m3.63 3.05.42-.61" class="cls-23"/><path d="m77.26 207.05.39-2.34-1.58 1.27m-32.12 3.36.79 1.26h1.63l2.21-.48-.32-5.67.37-.95 1.05-.58 2.21.97m-4.68 2.29-1.26 1.34m3.73-7.2 1.16-1.34m7.39-2.71.91-.24m8.18 2.95.92 1.26m2.37 2.1.37.83v.01m2.46 2.7.37.75m3.99.89.62-.24m3.59 1.53-.05 1.1-1.73 1.16-.69-.68v-2.21l.95-.32 1.52.95 2.58 2.26-1.73 1.68.21.74 2.05.84.84.26.73-.31v-2.47l-.36-.42-.69-.79.26-.95v-1.73h-2.89l-1.26-.37" class="cls-23"/><path d="m86.69 213.02-.36-1.63h-.95l-1.32 1.05 1.14.89.81-.97.68.97m-.73 1.26-.32 1-2-1.09-.57-1.01-1.82-1.13.71.97 1.16.95.63 1.18 1.37 1.18 1-.68.57-1.68m-1.31-2.89-.18 1.94" class="cls-23"/><path d="m79.54 210.39-1.12.44v2.5l3.86 1.26 2.84 2.05m-5.26 11.15h1.39l-1.02-1.47-.69.21m-3.47.52-.73-.47-.24 1.58h.97" class="cls-23"/><path d="m76.9 228.16 2.96-.37-.32-1.26-1.89-.42-.71.21m-.87 1.84v-1.11l.87-.73-.08.73.04 1.11z" class="cls-23"/><path d="m80.23 226.32-2.58-3.05-2.73 1.52.18 3.37m-4.81-11.83 1.1.66.95 3.28" class="cls-23"/><path d="m77.65 223.27-.17-2.74-1.41-1.89-.97 1.11-2.76.52 1.47 3 1.11 1.52m-18.51-8.72-1.21.94 1.58 1.63 3.36.32 3.16-1.95m-7.89 6.84 2.05.47h2.21v-.58l.24-1.01.23-1.01v-2.76l.38 2.15.73.95m-.73 4.05-.85-1.79m0 2.37-.42-.16-1.02.84v.79" class="cls-23"/><path d="m55.2 217.01-.37.79v2.79l.58 3.26v1.86l-.21 2.26 2.58.19.44.06 1.19.15.73-.21-.16-.37-.31-1.1.85-.58.99.94.45.92-1.82.19" class="cls-23"/><path d="M61.96 227.97h.42l-.87-.92m-1.37-6.78-3.36-1.63m2.89 5.68.47-.47-.23-1.12m1.6.54.87-.21-1.13-1h-.73v.47zm-1.37.58 1.37-.58m-1.37-1.55.38.81m-2.95-8.25-1.16 1.79m-1.95-18.62.74-.26-1.95 4-1.37 2.71s.63 5.23.47 5.44c-.11.15 1.56 2.06 2.47 3.09.34.38.58.64.58.64l2.16 1.21v-1.52l1.12-1.37 3.7 1.37.92 3" class="cls-23"/><path d="m64.73 214.94-.22-4.34-2.55-3.2-3.5-2.69.49 5.2-.26 1.48" class="cls-23"/><path d="m64.51 210.6 1.63-4.42s-2.94-4.73-3.05-4.89-3.42-.37-3.42-.37l-1.51 2 .3 1.79m4.63-3.42-.53-1.05m-13.98 9.88.47 2.95.63 3.92.37 1.65v.82l-.37.34v3.76l.79-1.5.37-.34 1.05-.61 1 .95.63 1.21.63 1.52-.42-2.26.1-2.84-.42-1.05-.1-.63.84-2.68.31-2.26.37-.64m-4.57 12.35v-.93l-1.21.94v.92h1.21z" class="cls-23"/><path d="m54.15 224.79-.63-.47v1.41h1.31zm-3.89.92h1.54m1.09-1.6.63 1.05m-1.72.55 1.72.02m-3.26-.95.58-.93.93 1.17 1.12-.91m-3.84.68.63-1.23m27.8-3.03-2.38-.78m.97-1.11-.97-2.31-.18-1-3.53 1.66m-26.65-8.18v1.79m30.18 4.73h3.5l3.86-.74m-3.86-1.26h-4.61l-5.31-.26-2.99 1.43-.78.44-1.43.81v1.26l1.78.32h3.47l1.74-1m-.05-9.57-1.05 1.74 1.1 2.93.69-1.73 2.2-2.57m.63 1.05-.63 1.64.84 1.81v-1.24l1.32-2.21m1.05 0-.63 2.21.89 1.04.21-1.31.94-2m3.01.59-.41-.27-.54 1.26.84.42 1.07-.78z" class="cls-23"/><path d="m80.81 208.71-.41.63.3.78.55-.84zm3.78 2.36 1.05-.47-2.63-2.68" class="cls-23"/><path d="m85.71 218.74.73.99 4.62 1.64 2.88 1.04 2.41-.26 3.68-.41 1.29-1.93-.88-.11-.27-.11-4.07-.58-6.31.06z" class="cls-5"/><path d="m85.89 216.09.56.63.24.05.97.19.97.19 1.37.27 1.08.21.33.07 1.79-1.71 1.52-.57 1-.37 1.58-.59-.38-.27-3.85.13-5.62.68z" class="cls-20"/><path d="m85.71 218.74 4.08.33 6.31-.06 4.07.58-3.87-.9-4.94-.34z" class="cls-1"/><path d="m86.69 216.77.45.64.52-.45z" class="cls-14"/><path d="m87.66 216.96.65.68.32-.49z" class="cls-12"/><path d="m88.63 217.15 1.15.59.22-.32z" class="cls-29"/><path d="m90 217.42 1.36.93 4.94.34.02-.18-3.36-.5-1.55-.31-.33-.07zm1.06 3.95 6.56 3.51 5.05 1.83 5.54-.26-1.95-1.12-.33-.91-.46-1.27-9.12-1-2.41.26z" class="cls-14"/><path d="m93.2 215.99-1.79 1.71 1.56.31 3.36.51 2.15.32 1.7.75.26.12.88.11-.68-3-.89-.63s-3.33 1.13-3.73 1.1S93.2 216 93.2 216Z" class="cls-29"/><path d="m94.72 215.42-1.52.57s2.43 1.27 2.82 1.29 3.73-1.1 3.73-1.1l-4.03-1.13zl.88.14.36.5-.67.47-.56-1.12Z" class="cls-1"/><path d="m94.72 215.42.56 1.12.68-.47-.36-.51z" class="cls-3"/><path d="m95.72 215.05 4.03 1.13-2.45-1.72z" class="cls-29"/><path d="m96.32 218.51-.02.18 3.87.9-1.69-.75z" class="cls-14"/><path d="m96.35 222.15 9.12 1 1.61-1.86-.47-3.23.02-.27-4.85-3.27-3.92-.27-.56.21 2.45 1.72.89.63.68 3-1.29 1.93z" class="cls-12"/><path d="m96.92 214.19.38.27.56-.21z" class="cls-29"/><path d="m101.78 214.52 4.85 3.27-.02.27 9.28-3.11.64-1.48-1.68-1.08c-2.31.31-7.93.97-7.93.97l-5.16 1.17Z" class="cls-14"/><path d="m107.08 221.29-1.61 1.86.46 1.27.32-1.02 9.02 8.51 1.38.1.12-1.82-.3-1.35-1.29-1.27-3.81-2.78-1.64-1.84-.22-1.14z" class="cls-29"/><path d="m105.93 224.42.33.91 1.95 1.12 2.55 2.98 4.17 2.46.34.02-9.02-8.51z" class="cls-5"/><path d="m106.61 218.06.47 3.23 2.43.52.22 1.14 1.64 1.84 2.56-2.09 3.53-3.21 1.51-1.86-.95-1.25-2.12-1.43z" class="cls-20"/><path d="m114.86 212.38 1.68 1.08 2.24.4 6.97.48 3.56 1.28 3.57 2.5 3.11 4.96 1.52.1-1.13-2.89-2.26-3.75-3.63-2.42-4.94-2.02s-9.56.03-9.72.12c-.03.02-.4.07-.97.15Z" class="cls-12"/><path d="m116.54 213.47-.64 1.48 2.12 1.43.95 1.25.7-.93 3.16 1.32 4.38 3.57 1.1.67-.75-1.97-4.61-3.28-2.19-1.18-.94-.61-.63-.82-.41-.53z" class="cls-5"/><path d="m118.78 213.87.41.53.63.82.94.61 4.97.19 6.06 4.26 3.02 2.72 1.18.08-3.11-4.95-3.58-2.5-3.55-1.28z" class="cls-29"/><path d="m119.67 216.7-.7.93 4.23 1.52 4.01 2.44-4.38-3.57z" class="cls-12"/><path d="m127.21 221.59 1.1.67-.75-1.97-4.61-3.28-2.19-1.18" class="cls-23"/><path d="m118.97 217.63 4.23 1.52 4.01 2.44m-19 4.86 2.55 2.98 4.17 2.46.34.02 1.38.1.12-1.82-.3-1.35-1.29-1.27-3.81-2.78m-5.9-1.64-9.12-1m20.19-8.68-1.68-1.09m1.04 2.57-9.29 3.11.47 3.23m-21.37-2.55 5.65-.39-1.36-.93m4.72-2-1.52.57-1.79 1.71m10.37-3.18-3.92-.27-.56.21-1.58.59-1 .37" class="cls-23"/><path d="m88.63 217.15-.98-.19-.96-.19-.25-.05-.56-.63 1.56-1.09 5.62-.69 3.85-.13.38.27 2.44 1.72.89.63.68 3-1.29 1.93-3.67.4-2.41.26-2.89-1.04 6.56 3.51 5.05 1.83 5.54-.26-1.94-1.12-.33-.91-.46-1.26 1.61-1.86 2.43.51.22 1.15 1.65 1.84 2.56-2.09 3.52-3.21 1.51-1.87-.95-1.25-2.12-1.43.64-1.48 2.24.4.41.53.63.82.94.61 4.97.19 6.06 4.26 3.02 2.72 1.18.08 1.52.1-1.13-2.89-2.26-3.75-3.63-2.42-4.94-2.02s-9.56.03-9.72.12c-.03.02-.4.07-.97.15-2.31.31-7.93.97-7.93.97l-5.16 1.17 4.85 3.27-.02.27" class="cls-23"/><path d="m91.06 221.37-4.62-1.64-.73-.99 4.08.33 6.31-.06 4.07.58-1.69-.75-2.16-.33-3.36-.5-1.55-.31-.33-.07-1.08-.21-1.37-.27m30.15-3.28 6.97.48 3.55 1.28 3.58 2.5 3.11 4.95m-38.13-8.83-.94-.06m-3.72 1.8s2.43 1.27 2.82 1.29 3.73-1.1 3.73-1.1l-4.03-1.13" class="cls-23"/><path d="m94.72 215.42.56 1.12.68-.47-.36-.51zm-3.36 2.93 4.94.34 3.87.9.27.11.88.11m-14.63-3.04.45.64.52-.45.65.68.32-.49 1.15.59.22-.32m37.21 4.17-4.38-3.57-3.16-1.32-.7.93m-13.04 6.79.32-1.02 9.02 8.51" class="cls-23"/><path d="m143.19 221.48.82 1.31h-4.58l1.16-2.56.86.39.92-.05.63-.97z" class="cls-34"/><path d="m142.56 203.69.92 4.29-1.06 4.72.53.55-1.83 2.27s-1.01-2.32-.96-2.49c.02-.09-.31-.48-.65-.83-.33-.34-.65-.66-.65-.66l-.81-1.11 2.11-3.9.44-6.4 1.97 3.56Z" class="cls-32"/><path d="m142.95 218.13.05 1.47-.63.97-.92.05-.86-.39.53-2.1v-2.61l1.83-2.27zm-2.36-18-.44 6.4-2.36 3.73-1.66.49-1.57-1.42-2.51-2.49-4.05-3.34-.34-2.02 1.79-1.4-1.79-1.93 1.79-1.93 2.22-.87 5.54 2.08z" class="cls-24"/><path d="m140.15 206.53-2.11 3.9-1.41 2.6-.5-2.28 1.66-.49z" class="cls-13"/><path d="m139.5 212.2-.07.08-.53.97-3.13 1.13.86-1.35 1.41-2.6.81 1.11s.33.32.65.66" class="cls-34"/><path d="m136.13 210.75.5 2.28-4.58.22-1.23-.55-2.58-1.16-3.71-3.15-.17-3.18.11-.38 1.56.38-.05-1.61 2.02-.1 4.05 3.34 2.51 2.49z" style="fill:#6094ba"/><path d="m136.63 213.03-.86 1.36-.75 1.17-1.28 2-1.02.7-3.87 2.63-.46-2.09.53-2.16.62-1.3 1.12-2.31.16-.33 1.23.55z" class="cls-24"/><path d="m135.48 217.87.67.93s-1.87 3.36-1.85 2.97-.8-.7-.8-.7l-.76.36c.03-.34.37-2.17.37-2.17l-.39-1.01 1.02-.69 1.28-2z" class="cls-13"/><path d="m132.72 218.26.39 1.01s-.34 1.83-.37 2.17-1.92 2.12-1.92 2.12h-1.38l-.59-2.67z" class="cls-32"/><path d="m130.82 212.7-.16.33h-7.24l-2.07-.66-.63-.2 3.18-5.33.46-1.63.17 3.18 3.71 3.15z" class="cls-24"/><path d="m130.66 213.03-1.12 2.31-3.06 1.09 2.1-3.4z" class="cls-34"/><path d="m129.45 196.22-1.79 1.93v-2.17z" class="cls-16"/><path d="m127.66 198.15 1.79 1.93-1.79 1.4z" class="cls-33"/><path d="m128.58 213.03-2.1 3.4-.79.88.79 2.68.51 2.17-.92 1.01h-1.71l-.7-.91.24-1.37-.96-2.21-1.59-6.3v-.01l2.07.66z" class="cls-32"/><path d="m128.48 192.99-.82 2.99-.53-1.01-.91-2.22z" class="cls-33"/><path d="m127.66 201.48.34 2.02-2.02.1z" class="cls-13"/><path d="m113.68 205.53.48.45h1.11l.39-.71-.39-.71h-.92zm13.98-7.38v3.33l-1.69 2.12-1.51 1.23-.47.38-1.74 1.03-1.54 1.07-.96-.47-.58-.82-.77.11.43 1.18-1.01.77-2.41-.77-1.98.77-1.25 1.93-1.74-1.36-3.62.64-.67-.64-.58-1.09v-.71h2.07l.58-.31-.14-1.97 1.69-.14 2.36-1.64 1.16-1.03-.05.93s.77.67 1.06.82 2.02-.24 2.02-.24l1.3-1.88 4.19-2.36 2.99-3.33 1.4-2.94.92 2.22.53 1.01v2.17Zm-19.57 10.24.55-.55-.87-.29s-.41.24-.94.58l1.25.26Zm18.9 13.77.34 1.4-.85.67-.45-.24v.48h-1.06l-.39-.43-.22.43-.89-.19-.1-.43-.38.43-.68-.29 1.35-1.73.7.91h1.71z" class="cls-24"/><path d="m126.48 190.39-.26 2.36-1.99-1.5z" class="cls-33"/><path d="m126.22 192.75-1.4 2.94-2.99 3.33-4.19 2.36-1.02-.84 4.34-4.61 3.27-4.68z" class="cls-32"/><path d="m125.98 203.6.05 1.61-1.56-.38z" class="cls-16"/><path d="m124 205.21.47-.38-.11.38-.46 1.63-1.64-.6zm0-16.61.23 2.65-.33-.24-1.44-.86z" class="cls-33"/><path d="m124.23 191.25-3.27 4.68-4.34 4.61-.38-.32 2.5-2.84 1.98-3.81 1.74-3.42 1.44.86zm-.33 15.59-3.18 5.33h-4.77l-4.34-.63 1.54-1.28 1.55-.93 1.92.99 2.56-.31 1.54-2.7 1.5.29.04-1.36z" class="cls-34"/><path d="m122.17 188.41.29 1.74-1.35.38z" class="cls-16"/><path d="m122.46 190.15-1.74 3.42-1.98 3.81.58-1.64.87-4.49.92-.72z" class="cls-24"/><path d="m122.26 206.24-.04 1.36-1.5-.29zm-1.78-16.67.63.96-.92.72z" class="cls-33"/><path d="m120.72 207.31-1.54 2.7-2.56.31-1.92-.99-1.55.93-1.54 1.28-1.79.32.63-2.53v-.68l1.74 1.36 1.25-1.93 1.98-.77 2.41.77 1.01-.77-.43-1.18.77-.11.58.82z" class="cls-13"/><path d="m117.64 201.38-1.3 1.88s-1.74.39-2.02.24c-.29-.14-1.06-.82-1.06-.82l2.41-.34.96-.96v-.84z" class="cls-16"/><path d="M116.62 200.54v.84l-.96.96-2.41.34.05-.93-2.27-.57-2.6-.43-.96-.29-.55-1.05-.53-1.02 1.42.92s2.36.14 2.7.1 2.8-.1 2.8-.1l2.94.92.39.32Z" class="cls-13"/><path d="m115.27 204.56.39.71-.39.71h-1.11l-.48-.45.99-.26z" class="cls-33"/><path d="m115.27 204.56-.6.71-.99.26.68-.97z" class="cls-17"/><path d="m113.3 201.75-1.16 1.03-.43-1.03-4.05-.76-2.99-1.25-1.84-1.54v-.53l1.84 1.25 2.24.49.55 1.05.97.29 2.6.44zm-2.85 7.58-.63 2.53h-2.04l-.94-.32h.94z" style="fill:#008ad0"/><path d="m110.45 208.65-2.36 1.67-1.25-.31-.46 1.85-.8-1.19-.48-2.02.48-1.1.58 1.1.68.64z" class="cls-16"/><path d="m108.64 207.84-.55.55-1.25-.26c.53-.34.94-.58.94-.58l.87.29Z" class="cls-33"/><path d="m108.09 204.56.14 1.97-.57.31h-1.74l-1.25-1.63z" class="cls-34"/><path d="m116.24 200.22 2.51-2.84.58-1.64.87-4.48.92-.72 1.35-.39 1.45.87.32.24 1.99 1.5.92 2.22.53 1.01v5.5l-1.69 2.12-1.51 1.23-.47.38-1.74 1.03-1.54 1.07-.96-.47-.58-.82-.77.11.43 1.18-1.01.77-2.41-.77-1.98.77-1.25 1.93-1.74-1.36-3.62.64-.67-.64-.58-1.09v-.71h2.07l.58-.31-.14-1.97 1.69-.14 2.36-1.64 1.16-1.03-.05.93s.77.67 1.06.82 2.02-.24 2.02-.24l1.3-1.88-1.01-.84-.39-.32Z" class="cls-23"/><path d="m108.09 204.56-3.42.65 1.25 1.63m7.38-5.09-2.27-.57-2.6-.43-.96-.29-.55-1.05-.53-1.02 1.42.92s2.36.14 2.7.1 2.8-.1 2.8-.1l2.94.92" class="cls-23"/><path d="m112.14 202.78-.43-1.03-4.05-.76-2.99-1.25-1.84-1.54v-.53l1.84 1.25 2.24.49m-1.33 8.14-.48 1.1.48 2.02.8 1.19.46-1.85 1.25.31 2.36-1.67v.68" class="cls-23"/><path d="M109.82 211.86h-2.04l-.94-.32h.94l2.67-2.21zm0 0 1.79-.32 1.54-1.28 1.55-.93 1.92.99 2.56-.31 1.54-2.7 1.5.29.04-1.36 1.64.6.46-1.63.11-.38 1.56.38-.05-1.61 2.02-.1-.34-2.02 1.79-1.4-1.79-1.93 1.79-1.93-1.79-.24.82-2.99-2.26-.24.26-2.36-2.25.86-.23-2.65-1.54 1.55-.29-1.74-1.06 2.12-.63-.96-.29 1.68" class="cls-23"/><path d="m129.45 196.22 2.22-.87 5.54 2.08 3.38 2.7-.44 6.4-2.36 3.73-1.66.49-1.57-1.42-2.51-2.49-4.05-3.34m-3.64 1.71.17 3.18 3.71 3.15 2.58 1.16 1.23.55 4.58-.22-.5-2.28" class="cls-23"/><path d="m130.82 212.7-.16.33-1.12 2.31-.63 1.29-.53 2.16.47 2.09.59 2.67h1.38s1.89-1.78 1.92-2.12.37-2.17.37-2.17l-.39-1.01" class="cls-23"/><path d="m128.85 220.89 3.87-2.63 1.02-.7 1.28-2 .75-1.17.86-1.36 1.41-2.6 2.11-3.9" class="cls-23"/><path d="m135.02 215.56.46 2.31.67.93s-1.87 3.36-1.85 2.97-.8-.7-.8-.7l-.76.36m-21.13-9.89 4.34.63h4.77l3.18-5.33m6.76 6.19h-7.24l-2.07-.66-.63-.2m19.87-12.04 1.97 3.56.92 4.29-1.06 4.72.53.55-1.83 2.27s-1.01-2.32-.96-2.49c.02-.09-.31-.48-.65-.83-.33-.34-.65-.66-.65-.66l-.81-1.11m4.95 9.17.19 1.88.82 1.31h-4.58l1.16-2.56.86.39.92-.05zm-.05-6.35v4.88l.05 1.47" class="cls-23"/><path d="M141.12 215.52v2.61l-.53 2.1m-1.16-7.95-.53.97-3.13 1.14m-14.42-2.01 1.59 6.3.96 2.21-.24 1.37.7.91h1.71l.92-1.01-.51-2.17-.79-2.68.79-.88 2.1-3.4m.96 2.31-3.06 1.09" class="cls-23"/><path d="m123.66 222.26-1.35 1.73.68.29.38-.43.1.43.89.19.22-.43.39.43h1.06v-.48l.45.24.85-.67-.34-1.4m-9.35-20.78 4.19-2.36 2.99-3.33 1.4-2.94m-3.76-2.6-1.74 3.42-1.98 3.81m-11.9 10.75c.53-.34.94-.58.94-.58l.87.29-.55.55-1.25-.26Zm8.43-3.57h-.91l-.68.97.48.45h1.11l.39-.71z" class="cls-23"/><path d="m115.27 204.56-.6.71-.99.26-2.07.45-3.43-.13m5.07-3.17 2.41-.34.96-.96v-.84l4.34-4.61 3.27-4.68" class="cls-23"/><path d="M166.03 219.51v1.04l-.55.58-1.26.5-2.03.34-1.75.23-.2-1.18.58-1.62 2.26-.41.19-.17-.3-.16-.56-.48-.22-.42h.78l1.75.56.5.08.51.47z" class="cls-12"/><path d="m165.34 226.34.14.87-1.48-.12-.03-1.14.25-.86z" class="cls-36"/><path d="M164.72 191.22v1.1l-.93-.28.47 1.1-.47-.33v.98l-.76-.71-.27.71v-.71l-.39.71-.32-.49-.39.82-.32-.82-.22.82-.33-.6h-1.09l-.49-.6v-.33h.6l1.91-.76.93-.89 1.41-.75z" class="cls-4"/><path d="M164.72 190.68v.54l-.66-1.04-1.42.75-.93.89-1.91.76h-3.28l-1.75 1.2h-4.53v-.98l.66-1.64.22-1.64 1.42-.76.02-.29.03-.36 1.36-.87 1.42.49 1.75.44 2.73-.93h2.84l1.36 1.2-.05.6.27.82.44.82Zm-9.16-.62-.11-1.03-.98-.55-1.25.16-.5 1.14.7 1.16h1.28l.45-.46z" class="cls-10"/><path d="m164.22 225.09-.25.86.03 1.14-1.2-.11-.75-.36-.11-.45-.98-.58-.61.36-.11 1.59-1.01-1.03-.14-1.51v-.58l-.11 1.84-.81.78-.39-1.09-.61-.28-.64.42.14-.78.72-.36v-1.2l-.47-.47-.39-.51.05-.47.09-.75.47-2.18 1.68 1.34 1.42.31.2 1.18.13.8.73 1.34 1.47.61z" class="cls-24"/><path d="m163.46 198.65.55 1.36-.33 1.37-.87.92h-1.96l-1.53-.98-2.46-.11-2.78-.27-1.88-1.09-1.61-2.89-1.48-2.3 1.15-.87 3.82 2.84h2.29l2.07.49.33-.25.27.96h.88v.87l.6-1.04.27 1.37.55-.6.38.87.38-.65.38.65.33-.65.38.65z" class="cls-6"/><path d="m162.74 212.83.23 1.33-.53 2.82-.44.65-1.18 1.77-.58 1.62-1.42-.31-1.68-1.34.09-.71.05-.37.67-.53-.44-1.14.33-1.57-.92-.11-1.19-.24-.37-.08-.84-.23 1.56-1.15.31-1v-1.95l.26-.19.27-.56v-.5l-.53-.23v-2.42l2.54 1.61 1.92 1.76.72 1.39z" class="cls-10"/><path d="m162.37 197.99.44.66-.33.65-.38-.65-.38.65-.38-.87-.55.6-.27-1.37.76-.21v.54zm-.32 28.63v.92l-.39.47-1.42-.47.11-1.59.61-.36.98.58z" class="cls-4"/><path d="M160.52 196.76v.9l-.6 1.04v-.87h-.88l-.27-.96.38-.62.77.51z" class="cls-4"/><path d="m159.21 192.92.49.6-.55 2.73-.38.62-.33.25-2.07-.49h-.98l1.14-4.04.44.49.52-.22.41.28.54-.28v.49z" class="cls-12"/><path d="M159.21 192.59v.33l-.77.43v-.76zm-.77 0v.27l-.54.28-.41-.28v-.27z" class="cls-4"/><path d="m157.78 225.95.39 1.09-1.5.5-.14-1.45.64-.42z" class="cls-36"/><path d="M157.49 192.59v.27l-.52.22-.44-.49z" class="cls-4"/><path d="m157.23 218.66-.09.71-.47 2.18-.09.75-1.11-.31-2.59-1.28-1.86-2.25-.79-1.45-.3-1.46-.75-.5.27.14 1.57.51 2.08-.11 1.42-1.2.84.23.37.08-.68.22-.11.92v.89l1.09 1.14z" class="cls-12"/><path d="M156.92 209.04v.5l-.27.56-.26.19v1.95l-.31 1-1.56 1.15-.47-.81-.2-1.31.31-.99.31-1.21.58-.64.2-.9-.59-1.04.42.13.31.38h.33l.03-.38-.53-.27-.33-.17-.39-.29 1.89.73v1.19z" class="cls-4"/><path d="m156.53 192.59-1.14 4.04h-1.31l-3.82-2.84h4.53z" class="cls-36"/><path d="M156.39 206.39v1.23l-1.89-.73.39.29.33.17-.14.27-.42-.13.59 1.04-.2.9-.58.64-.31 1.21-.31.99-.61.5-2.45.67-3.2-.61-1.14-.98.02-.25.28-.31.36-.53.34.03.58-.47.11-.5-.86.22.22-.45.34-.08.58-.64.42-.87-1.39.56-.2.36-.97.62-.48 1-.03-1.84-.28-1.21-.36-1.41v-1.17l.67-.81v-1.31l.2-.83.92-.56.28-1.7 1.14 1.62 1.08 1.57 1.45.21 1.73-.53 1.48-1.63v.77l.36.19.28.87.14.61.67 1.11.55 1.42z" class="cls-6"/><path d="m155.75 207.62-.03.38h-.33l-.31-.38.14-.27z" class="cls-6"/><path d="m155.44 189.03.12 1.03-.39-.67-.53-.11-.51.08.45-.25z" class="cls-4"/><path d="m155.17 189.39.39.67-.42.42-.62.04-.39-.54v-.62l.51-.08z" class="cls-24"/><path d="m155.44 189.03-.86.08-.45.25-.3.78.3.8h-.72l-.7-1.16.5-1.14 1.26-.17z" class="cls-12"/><path d="m155.14 190.48-.45.46h-.56l-.3-.8.3-.78v.62l.39.54z" class="cls-4"/><path d="m154.05 213.58.47.81-1.42 1.2-2.08.11-1.57-.51-.27-.14-2.85-1.5.12-1.7 1.14.98 3.2.61 2.45-.67.61-.5z" class="cls-36"/><path d="m154.08 200.94-1.48 1.63-1.73.53-1.45-.21-1.08-1.57-1.14-1.62.22-2.06.72-4.24 1.17-2.88 1.9-1.49 1.36-.56-.02.3-1.42.76-.22 1.64-.65 1.64v.98l-1.15.87 1.48 2.3 1.61 2.89z" class="cls-24"/><path d="m149.18 215.05-2.1.81-.68.18-1.11-1.65 1.04-.84z" class="cls-10"/><path d="m146.45 211.85-.12 1.7-1.04.84-.21.16h-.5l-.48-.53v-.83l.2-1.09 1.08-1.11.42-.45.48-1 .97-.62.2-.36 1.39-.56-.42.87-.58.64-.34.08-.22.45.86-.22-.11.5-.58.47-.34-.03-.36.53-.28.31z" class="cls-4"/><path d="m140.9 225.95-.51-.64h-1.28l.7-.53 1.09-.19 1.28-.37 1.2-1.64.73-2.62.91.21 1.2-.77.53-1.42.47.42.11 1.48-.27 1.17.08 1.86-.83 1.23h-.4l-.11 1.23-.11.58-.56-.58-.92.11-.11.47v-1.11l.84-1.42-1.14 1.58v.78h-.95l-.53-.66-1.17.22z" class="cls-24"/><path d="M146.75 216.56v1.42l-.53 1.42-1.2.77-.91-.21-1.74-.92-1.17-1.39-.3-2.15 1.03-2.48 1.91-2.87.26 3.29v.58l.48.53h.5l.21-.16 1.11 1.65z" class="cls-10"/><path d="m145.77 208.7.03 1.84-.42.45-1.08 1.11-.2 1.09v.25l-.26-3.29-.18-2.28.64-1.26.83-.53.36 1.41zm-.08 17.25.11.78-1.25.59-.59-.45.14-.92.11-.47.92-.11z" class="cls-4"/><path d="m144.94 223.42-.84 1.42v1.11l-.22.67-1.09.22-2.09.48.2-.7v-.67l.25-.61 1.17-.22.53.66h.95V225z" class="cls-36"/><path d="M140.9 225.95v.67l-2.51-.11.72-1.2h1.28z" class="cls-4"/><path d="M150.26 193.79v-.98l.65-1.64.22-1.64 1.42-.76.02-.3.03-.35 1.37-.88 1.42.49 1.74.44 2.73-.93h2.84l1.36 1.2-.05.6.27.82.44.82v.54l-.66-1.03-1.41.75-.93.89-1.91.76h-3.28l-1.74 1.2z" class="cls-23"/><path d="M164.72 191.22v1.1l-.93-.28.47 1.1-.47-.33v.98l-.76-.71-.27.71v-.71l-.39.71-.32-.49-.39.82-.32-.82-.22.82-.33-.6h-1.09l-.49-.6-.77.43v-.49l-.54.28-.41-.28-.52.22-.44-.49-1.14 4.04h-1.31l-3.82-2.84-1.15.87 1.48 2.3 1.61 2.89 1.88 1.09 2.78.27 2.46.11 1.53.98h1.96l.87-.92.33-1.37-.55-1.36-.27.65-.38-.65-.33.65-.38-.65-.38.65-.38-.87-.55.6-.27-1.37-.6 1.04v-.87h-.88l-.27-.96-.33.25-2.07-.49h-.98" class="cls-23"/><path d="m162.81 198.65-.44-.66h-1.09v-.54l-.76.21v-.9h-.6l-.77-.51-.38.62m.38-.62.55-2.73m-15.6 19.92v.58l.48.53h.5l.21-.16 1.04-.84.12-1.7.02-.25.28-.31.36-.53.34.03.58-.47.11-.5-.86.22.22-.45.34-.08.58-.64.42-.87-1.39.56-.2.36-.97.62-.48 1-.42.45-1.08 1.11-.2 1.09z" class="cls-23"/><path d="m145.8 210.54-.03-1.84-.28-1.21-.36-1.41-.83.53-.64 1.26.18 2.28.26 3.29m12.29-5.82v1.19l.53.23v.5l-.27.56-.26.19v1.95l-.31 1-1.56 1.15-.47-.81-.2-1.31.31-.99.31-1.21.58-.64.2-.9-.59-1.04.42.13.31.38h.33l.03-.38-.53-.27-.33-.17-.39-.29 1.89.73v-1.23l-.31-.48-.55-1.42-.67-1.11-.14-.61-.28-.87-.36-.19v-.77l-1.48 1.63-1.73.53-1.45-.21-1.08-1.57-1.14-1.62-.28 1.7-.92.56-.2.83v1.31l-.67.81v1.17" class="cls-23"/><path d="m152.57 188.47-1.36.56-1.9 1.49-1.17 2.88-.72 4.24-.22 2.06m-3.68 23.6-.39.65-.37.44-.78.39-.94.28-.14.89.25-.61 1.17-.22.53.66h.95V225l1.14-1.58-.84 1.42v1.11l.11-.47.92-.11.56.58.11-.58.11-1.23h.4l.83-1.23-.08-1.86.27-1.17-.11-1.48-.47-.42v-1.42l-.35-.52-1.11-1.65" class="cls-23"/><path d="m143.84 210.15-1.91 2.87-1.03 2.48.3 2.15 1.17 1.39 1.74.92m-5 5.35-.72 1.2 2.51.11v-.67l-.51-.64h-1.28l.7-.53 1.09-.19 1.28-.37 1.2-1.64.73-2.62.91.21 1.2-.77.53-1.42m-5.85 8.64-.2.7 2.09-.48 1.09-.22.22-.67-.14.92.59.45 1.25-.59-.11-.78m10.04-11.25 1.19.24.92.11-.33 1.57.44 1.14-.67.53-.05.37-.09.71 1.68 1.34 1.42.31.58-1.62 1.18-1.77.44-.65.53-2.82-.23-1.33-1.17-1.68-.72-1.39-1.92-1.76-2.54-1.61" class="cls-23"/><path d="m146.33 213.55 2.85 1.5.27.14 1.57.51 2.08-.11 1.42-1.2.84.23.37.08m1.41 4.67-.47 2.18-.09.75-.05.47.39.51.47.47v1.2l-.72.36-.14.78.64-.42.61.28.39 1.09.81-.78.11-1.84v.58l.14 1.51 1.01 1.03.11-1.59.61-.36.98.58.11.45.75.36 1.2.11-.03-1.14.25-.86-1.45-.14-1.47-.61-.73-1.34-.13-.8-.2-1.18" class="cls-23"/><path d="m156.53 226.09.14 1.45 1.5-.5.9-.42 1.17.92 1.42.47.39-.47v-.92l.19.43 1.76.04 1.48.12-.14-.87-1.12-1.25m-8.49-10.39-.68.22-.11.92v.89l1.09 1.14 1.2.79m-.65 3.64-1.11-.31-2.59-1.28-1.86-2.25-.79-1.45-.3-1.46-.75-.5-2.1.81-.68.18m14.04 6.16 1.75-.23 2.03-.34 1.26-.5.55-.58v-1.04l-.3-.64-.51-.47-.5-.08-1.75-.56h-.78l.22.42.56.48.3.16-.19.17-2.26.41m-14.37-7.55 1.14.98 3.2.61 2.45-.67.61-.5m1.59-23.24-.97-.56-1.26.17-.5 1.14.7 1.16h1.28l.45-.46.42-.42z" class="cls-23"/><path d="m155.44 189.03-.86.08-.45.25-.3.78.3.8" class="cls-23"/><path d="m155.56 190.06-.39-.67-.53-.11-.51.08v.62l.39.54.62-.04" class="cls-23"/></g></svg>