<svg xmlns="http://www.w3.org/2000/svg" id="Layer_2" data-name="Layer 2" viewBox="0 0 191.52 243.84"><defs><filter id="drop-shadow-1" width="191.52" height="243.84" x="0" y="0" filterUnits="userSpaceOnUse"><feOffset dx="7" dy="7"/><feGaussianBlur result="blur" stdDeviation="5"/><feFlood flood-color="#231f20" flood-opacity=".75"/><feComposite in2="blur" operator="in"/><feComposite in="SourceGraphic"/></filter><style>.cls-1{fill:#231f20}.cls-2{fill:#643996}.cls-3{fill:#f3733b}.cls-4{fill:#f1f2f2}.cls-5{fill:#bc5ba3}.cls-6{fill:#80c350}.cls-7{fill:#f3c43d}.cls-8{fill:#3d60ac}.cls-11{fill:#53a6dc}.cls-12{fill:#2bb673}</style></defs><g id="_レイヤー_1" data-name="レイヤー 1"><path d="M8.03 8.06H169.4v213.57H8.03z" style="fill:#fff;filter:url(#drop-shadow-1)"/><g style="opacity:.1"><path d="M99.27 70.45c-8.37-5.5-19.21-6.48-28.51-2.99-3.47-.48-6.06 1.53-7.19 4.02-2.93 3.11-2.8 9.45 2.47 10.22 2.69.39 5.35.67 8.01.85 6.3 5.72 15.42 8 24 5.36 3.66-1.12 5.09-4.53 4.19-7.52 1.77-2.66 1.07-7.08-1.78-9.16-.23-.17-.48-.31-.71-.48-.15-.11-.3-.21-.46-.31Z" class="cls-7"/><path d="M85.44 138.3c-3.59 2.19-3.94 6.51-1.26 9.51 6.16 6.92 16.9 8.7 25.93 8.29 4.99-.22 9.68-2.61 10.94-7.59 1.2-4.79-1.88-8.68-6.36-10.28-.2-.07-.41-.14-.61-.21-8.67-5.2-19.97-5.01-28.63.28Z" class="cls-5"/><path d="M153 35.4c-5.57-2.98-12.37-3.08-18.06-.62-5.68-4.56-13.77 3.41-8.6 8.73-.25 2.67 1.36 5.25 4.46 6.36 2.05.74 4.19 1.42 6.36 1.98 3.95 4.7 12.62 3.13 18.79 0 2.73-1.04 5.27-2.7 7.52-5.17 3.09-3.41 1.95-8.78-2.76-10.13-1.17-.33-2.59-.6-4.16-.78a5.35 5.35 0 0 0-3.54-.39Z" class="cls-6"/><path d="M46.16 11.09c-.83.67-1.54 1.46-2.09 2.32-3.51 1.79-5.43 6.19-1.53 9.17.55.42 1.11.81 1.68 1.18.73 1.56 2.15 2.89 4.02 3.63.32.13.64.25.96.37 1.88.96 3.94 1.67 5.95 2.26 8.12 2.41 20.62 4.9 26.03-3.69 4.46-7.09-.12-16.57-8.72-16.98-1.58-.08-2.84.34-3.8 1.04-7.41-2.21-16.46-4.18-22.5.7" class="cls-11"/><path d="M19.58 136.68c1.21 3.53 5.16 6.4 9.15 7.87 4.86 3.37 11.39 2.54 15.68-1.31 2.35-2.11 2.36-4.72 1.16-6.78.25-2.4-.45-4.78-1.82-6.74-.5-1.74-1.54-3.35-3.17-4.58-7.66-5.79-24.62 1.06-21.01 11.55Z" class="cls-3"/><path d="M134.16 180.29c-.56.36-1.05.76-1.49 1.17-6.34-.82-8.79 8.94-2.51 11.78 1.25 2.49 3.66 4.18 6.2 5.66 4.34 2.53 9.67 4.36 14.52 3.69 2.87.34 5.88.35 8.32-1.05 5.1-2.92 5.09-8.46 2.39-12.54-.29-1.91-1.1-3.74-2.44-5.31-.13-.16-.25-.32-.4-.46-.6-.64-1.3-1.23-2.08-1.76-1.24-.83-2.47-1.14-3.6-1.06-6.08-2.24-13.55-3.56-18.9-.11Z" class="cls-2"/><path d="M92.75 205.02c-2.92.93-5.14 3.52-4.22 6.45.12 1.89 1.08 3.69 3.03 4.61.38.18.77.33 1.16.51 4.12 3.38 9.3 4.84 14.53 4.37 3.71.58 7.5.8 11.36.59 6.3-.36 8.35-7.88 3.15-11.29a37 37 0 0 0-6.07-3.2c-6.68-4.83-15.38-5.7-22.94-2.04" class="cls-8"/></g><path d="M53.65 82.49c.2-.39 1.2-2.44 1.77-4.03-.26.03-1.2.23-2.14.65l-.02-3.31 2.97-.03c.46-1.36.87-2.96 1.29-4.77l2.18 1.72-1.11 3.22c1.68.45 2.75 1.92 2.75 4.06 0 1.56-.68 3.77-1.88 6.14-1.05 2.05-2.03 3.67-3.16 5.13 0 0-.78-1.46-1.55-2.86.31-.16.92-.71 1.48-1.1.74-.78 1.11-1.72 1.68-2.83.7-1.36 1.29-3.41 1.29-4.48 0-.91-.57-1.17-1.7-1.33-.98 2.4-1.64 4.09-1.9 4.58-.59 1.27-1.4 2.47-2.4 3.67l-1.02-2.73c.81-.71 1.09-.97 1.48-1.69Zm9.83-7.11c.48 1.14 1.46 4.12 2.97 8.96l-2.27 2.08-1.2-7.02c-.04-.16-.55-1.07-1.48-2.73l1.98-1.3Zm6.28 8.78c.24-.25 1.2-1.48 2.53-3.13l-1.98.11c-.09 0-.78.22-2.09.64l-.07-3.71c1.07.14 2.44.22 4.16.22.37 0 .87-.08 1.48-.25.96-.28 1.44-.39 1.48-.39l1 2.57c-.87.73-1.53 1.7-2.49 2.93l.35.73c-.02 1.79-.02 3.15-.02 3.8.94.08 1.66.14 2.16.14.44 0 .78-.06 1.07-.2.04 0 .39-.2 1.05-.56l.17 3.52c-2.73 0-4.51-.08-5.91 0l-.81-3.46.09-1.59c-1.26 1.42-2.79 2.87-4.05 3.99-.35-1.12-.74-2.2-1.13-3.24.89-.39 2.05-1.09 3.01-2.12m1.14-7.95c-.17 0-.61.06-1.31.17l.22-3.18c2.14.64 3.9 1.06 5.32 1.26l.02 2.6c-.72-.17-1.42-.33-2.14-.5-.92-.22-1.61-.33-2.12-.33Zm20.07 12.62c-.07 3.7-2.33 6.07-7.39 5.96-.37-.99-.63-1.57-.63-1.57 0-.08.11-.63.33-1.66.24-1.02.37-1.55.39-1.57.15-.3.78-.58 1.92-.8.07.03.37.39.89 1.08.55.66.92 1.19 1.13 1.52.89-.36 1.31-2.15 1.31-2.87.02-.69-.17-1.27-.59-1.71-.39-.47-1.05-.66-1.61-.66-1.77-.03-3.6.75-5.56 2.01 0 0-.72-2.18-.89-2.82.65-.47 1.68-1.08 2.7-2.29.96-1.1 2.07-2.26 2.57-3.17-.5 0-1.57.17-3.23.47l-.33-3.34c1.37.08 2.83.14 4.38.14-.09 0 .72-.03 2.42-.11l.07 2.93h-.11c-1 .91-1.68 1.57-2.05 1.96-.63.69-1.2 1.49-1.74 2.37a8.2 8.2 0 0 1 1.98-.25c1.24.06 2.07.41 2.81 1.05.92.77 1.24 1.88 1.22 3.34Zm-4.91 3.53-1.02-1.3-.28 1.52 1.31-.22Zm9.27-.27c.37-1.13.53-2.66.47-4.66-.84.47-1.3.7-1.46.73-.03 0-.19-.67-.43-1.96-.09-.63-.19-1.26-.31-1.9.25.13.84.13 1.74-.03.47-.2.93-.47 1.43-.76 1.18-.73 2.36-1.66 3.54-2.76l1.86-2.19 1.99 3.79c-1.02.43-1.61.7-1.71.8-.81.57-2.08 1.4-3.82 2.49-.12 1.33-.31 3.33-.59 5.95 1.12-.2 2.2-.47 3.23-.73l-1.52-3.76 1.8-.43c.56 1.03 1.09 1.9 1.58 2.59 0 0 .25.13.68.47.47.3.68.47.65.5l-1.71 4.29-.59-1.43c-.78.3-1.8.67-3.04 1.16 2.05.3 3.07.43 3.14.4l-.03.33h4.87l3.04-.63 1.52 1.83c-.84 5.55-1.34 8.94-1.46 10.14 0 .07-.84.03-2.48-.17l.06-.57-6.15-.03c-.03.23-.06.5-.09.8l-2.55-.76c.28-1.73.4-3.56.4-5.42 0-1.7-.09-3.66-.34-5.89-2.58 1.03-3.85 1.6-3.88 1.7 0 0-.34-1.2-1.02-3.69.16 0 .53-.07 1.18-.2m6.49 11.1 1.92.03c.06-.47.09-1.06.09-1.8-.4 0-1.06.03-1.93.1-.03.53-.06 1.06-.09 1.66Zm.16-4.29c.62.03 1.27.07 1.93.1v-1.56c-.31 0-.93.07-1.86.17-.03.4-.06.83-.06 1.3Zm13.13-15.26c-.9 3.86-1.61 6.52-2.11 7.91-.25.6-.62 1.26-1.21 2-.56.73-.87 1.06-.96 1-.25-.23-.71-.73-1.4-1.46-.53-.63-.84-.93-.84-.93.59-.37 1.21-.76 1.83-1.2.59-1.63 1.02-3.33 1.24-5.12l-1.4-.07c-.65 1.7-1.43 3.59-2.3 5.69-.25.5-.81 1.23-1.71 2.23-.03-.03-.75-.7-2.08-2.03.47-.2.87-.53 1.24-.96.93-1.1 1.61-2.69 2.02-4.79-.4.07-1.34.23-2.79.5l-.31-3.29c.56 0 1.15.03 1.77.03 1.93 0 3.88-.13 5.93-.4h.03l3.04.9Zm-9.16 19.62h2.11l.22-1.93-2.24.07zm.19-4.19c1.46.03 2.27.03 2.39 0l.19-1.6-2.51-.03c-.03.47-.03 1.03-.06 1.63Zm22.78-.83-.78 1.9h2.11v-.37s1.24.23 3.63.7c-.53 3.36-1.3 6.55-1.93 9.98l-2.86-1.66c.22-.96.53-2.89.87-5.39-1.77-.13-3.97-.17-6.55-.1-2.2.03-4.38.07-6.58.13.03.2-.12 2.33-.5 6.08-1.61.93-2.45 1.4-2.55 1.4.03-.03.06-3.56.09-11.04l3.26.23-.03.23.9-.03c-.19-.53-.37-1.06-.53-1.63-.19-.53-.53-1.2-1.06-1.96l3.07-.73c.03.2.4 1.63 1.12 4.26l1.24-.03c-.09-.33-.25-.93-.43-1.86l-1.34-2.36 3.6-.47.65 4.66h.99c.19-.67.65-2.26 1.4-4.79l3.57.9-1.4 1.96Zm-10.53 23.24c-.71-1.26-1.06-1.9-1.06-1.96.56-.1 1.12-.2 1.68-.37.99-.7 1.68-1.33 2.08-1.9.4-.53.68-1.26.87-2.16h-3.85c-.19 0-.93.13-2.24.43l-.84-3.56 7.23.07c-.16-.57-.5-1.3-.99-2.26l2.67-.37.96-1.03c-1.55 0-3.14-.03-4.75-.03-.03.03-.84.2-2.39.5l-.47-3.23 8.54.1s.68-.07 2.05-.2l1.09 3.09c-.81.67-1.99 1.43-3.51 2.26l.09 1.2h3.01s.81-.13 2.33-.4l-.37 3.46-5.46-.03c-.53 2-1.27 3.72-2.3 5.25-.96 1.4-2.02 2.39-3.14 2.93-.09.03-.5-.57-1.24-1.8Zm-74.97 42.43c-.01.12.01.26 0 .38 0 .36-.08.77-.15 1.1s-.19.62-.25.95c-.03.11-.01.23-.04.35-.03.09-.09.15-.1.23-.03.09-.03.18-.05.27-.04.14-.14.3-.19.41-.05.14 0 .35-.05.48-.03.06-.06.09-.09.15-.03.05-.03.12-.05.18-.04.11-.09.21-.13.32-.04.12-.06.24-.1.36s-.05.35-.15.41c-.04.14-.12.24-.17.36-.04.07-.05.17-.08.23-.04.07-.09.12-.11.2-.06.15-.08.33-.12.48-.14.45-.31.87-.51 1.28v.03c0 .21-.3 1.16-.4 1.37-.03.05-.08.09-.09.14-.05.13-.03.33-.05.48-.03.15-.08.3-.1.45-.04.23-.06.72-.15.92-.12.25-.52.49-.76.49-.23 0-.51-.22-.6-.47-.12-.35-.22-.73-.37-1.06-.06-.14-.14-.24-.19-.36-.06-.18-.07-.36-.13-.54-.09-.26-.24-.47-.31-.73-.04-.12-.06-.26-.08-.38-.15-.54-.34-1.06-.5-1.6-.04-.11-.06-.21-.08-.33-.04-.12-.04-.26-.06-.38-.07-.27-.2-.51-.28-.77-.09-.24-.12-.56-.28-.74-.29.04-.29.44-.36.71-.07.29-.11.6-.18.87-.05.18-.14.35-.22.51-.03.04-.06.09-.09.13-.03.09 0 .21-.04.32-.03.08-.09.1-.11.18-.05.17-.02.38-.08.53-.01.04-.04.06-.06.1-.1.21-.23.77-.3 1.02-.01.04-.01.09-.03.14-.07.2-.19.36-.19.59 0 .14.04.27.03.41 0 .26-.18.35-.3.52-.1.15-.12.33-.29.39-.03.01-.05.01-.09.01-.13 0-.38-.11-.46-.23-.02-.05-.02-.09-.05-.12l-.06-.05c-.07-.15-.07-.44-.11-.62-.07-.39-.21-.74-.31-1.12-.02-.11-.02-.23-.06-.33-.11-.45-.28-.88-.4-1.31-.06-.2-.1-.39-.15-.59-.05-.18-.13-.35-.16-.53-.02-.14-.01-.26-.03-.39-.02-.12-.09-.24-.12-.36-.04-.14-.02-.29-.06-.42-.06-.26-.16-.48-.22-.74-.1-.41-.13-.85-.24-1.25-.04-.12-.1-.21-.12-.33-.04-.14 0-.29-.03-.42a6 6 0 0 0-.17-.66c-.04-.08-.09-.15-.11-.24-.05-.17.04-.14-.1-.33-.08-.36-.12-.76-.14-1.13.14-.15.23-.31.43-.31.28 0 .44.35.55.61.47 1.09.7 2.33 1.02 3.51.07.29.12.59.19.88.09.35.21.71.29 1.07.07.29.21 1.03.35 1.24.05.21.08.45.17.67.04.06.09.12.11.2.04.12.05.65.21.65.21 0 .31-.42.37-.62.04-.12.1-.22.13-.36s.01-.29.05-.44c.07-.21.21-.38.28-.6.05-.15.05-.32.09-.48.03-.14.09-.27.13-.41.05-.21.1-.42.17-.62.03-.08.03-.15.05-.23.04-.14.12-.24.17-.38.03-.1.01-.24.07-.35l.06-.04c.03-.15.11-.83.11-.97 0-.33-.12-.66-.12-1 0-.38.24-.54.53-.54.05 0 .1.02.15.03.28.12.56 1 .67 1.32.07.27.15.53.24.79.14.36.3.68.39 1.06.04.12.05.26.08.38.18.55.43 1.07.6 1.63.1.35.22.68.33 1.03.13.45.27.92.44 1.35.07.18.15.42.3.53.1-.01.18-.12.24-.21.05-.1.06-.21.1-.32.06-.21.14-.42.21-.63.06-.23.1-.45.17-.68.03-.07.06-.15.12-.23.04-.08.05-.29.09-.41.06-.15.19-.25.26-.42s.09-.36.16-.53c.03-.12.09-.23.13-.33.09-.23.17-.47.27-.68.05-.12.11-.21.17-.33.04-.1.05-.24.1-.36.04-.11.1-.2.13-.32.05-.17.05-.36.12-.53l.06-.06c.12-.48.31-.96.4-1.48 0-.06 0-.11.01-.17.03-.15.1-.27.13-.41.01-.12 0-.26 0-.36 0-.15.03-.29.03-.42.01-.11 0-.21 0-.32 0-.14.07-.24.08-.38.04-.33-.03-.72.19-.98.06-.07.14-.16.23-.16.24 0 .4.34.4.59 0 .29-.15.39-.21.63Zm5.99 8.9c0 .09.01.18.01.27 0 .33-.32.54-.56.54-.2 0-.33-.12-.46-.28-.29-.36-.18-.69-.18-1.13 0-.56-.08-1.12-.15-1.68-.05-.35-.11-.59-.26-.89-.09-.2-.16-.39-.37-.39-.24 0-.5.43-.66.61-.2.21-.28.33-.3.66-.17.19-.28.42-.37.66-.05.13-.04.42-.07.59-.03.12-.08.24-.1.38-.01.15-.02.3-.02.47 0 .38.03.75.03 1.13 0 .24-.04.38-.18.54-.11.12-.37.3-.53.3-.09 0-.26-.03-.29-.15h-.04c-.21 0-.21-.97-.2-1.12-.01-.2-.07-.36-.07-.56 0-.17.03-.35.03-.53 0-.24-.08-.45-.08-.62 0-.14.04-.27.04-.39 0-.6-.13-1.18-.12-1.78 0-.15.04-.29.04-.44 0-.18-.07-.36-.1-.54-.01-.21 0-.41 0-.62 0-.5.05-1.01.05-1.51 0-.17 0-.32-.02-.48 0-.14-.05-.26-.06-.38-.01-.17.01-.32.02-.48 0-.27-.13-.5-.13-.77 0-.2.07-.41.07-.62 0-.29-.07-.56-.07-.84 0-.08.01-.17.05-.24.08-.03.14-.12.23-.12.11 0 .23.02.31.12.29.33.29 1 .35 1.44.01.09.02.18.02.27 0 .14-.03.26-.03.39 0 .17.1.38.12.54l.03.32c.06.54.02 1.1.05 1.66.02.47.05.94.05 1.4 0 .2-.04.38-.04.57 0 .18.07.35.07.54 0 .14-.04.29-.04.44 0 .06.01.14.02.2.24-.03.23-.36.31-.54.14-.15.29-.27.42-.43.13-.15.2-.34.33-.49.28-.36.64-.73 1.08-.73.5 0 .98.48 1.19 1.02.05.14.05.32.1.47.04.14.12.24.16.39.04.14.02.3.06.45.05.29.12.57.16.86.01.15 0 .32.02.47.04.2.14.39.13.6 0 .15-.04.3-.04.45Zm4.78-2.49c-.12.29-.21.62-.34.89-.03.06-.08.1-.1.17-.03.06-.01.12-.03.18-.03.06-.08.1-.1.16-.03.06-.01.12-.04.2-.1.35-.3.66-.42 1.01-.1.23-.21.45-.3.69s-.14.5-.23.74-.21.47-.31.69c-.04.12-.08.24-.13.35-.03.06-.08.1-.1.16-.08.18-.08.39-.16.57-.03.06-.08.11-.1.17-.08.15-.12.33-.21.5-.03.06-.08.09-.09.15-.03.06-.01.14-.04.2-.06.18-.2.33-.27.51-.05.12-.07.26-.1.38-.09.29-.26.5-.33.78-.04.18-.09.54-.23.66-.09.07-.32.09-.43.09-.13 0-.37-.02-.46-.14a.7.7 0 0 1-.14-.38c0-.18.05-.36.1-.51.06-.16.18-.27.23-.42.06-.15.05-.33.1-.47.03-.06.08-.1.1-.17.05-.12.07-.26.13-.38.09-.18.33-.69.4-.86.04-.12.05-.27.1-.39.06-.16.22-.28.29-.47.06-.13.08-.29.13-.42.05-.12.12-.23.17-.35.1-.27.17-.54.27-.81.09-.27.18-.53.3-.78.09-.21.24-.51.23-.75v-.06c-.01-.2-.22-.44-.32-.58-.24-.35-.45-.68-.62-1.06-.19-.39-.41-.76-.71-1.02-.07-.5-.5-.77-.49-1.32 0-.07 0-.14.01-.21.1-.06.2-.12.32-.12.21 0 .38.18.5.37.09.14.14.29.22.42.04.08.09.14.13.2.14.24.26.51.42.74.01.03.04.04.06.08.04.08.05.17.09.24.12.21.68 1.18.9 1.21.23-.09.28-.56.38-.78.08-.15.19-.27.27-.42.06-.14.08-.29.13-.42.13-.32.27-.62.41-.92.06-.12.13-.24.19-.36.01-.04.01-.09.03-.12s.05-.01.06-.04c.03-.03.05-.14.06-.18.1-.24.26-.72.44-.86.04-.03.21-.12.27-.12.19 0 .37.15.36.39 0 .57-.78 2.39-1.01 2.98Zm11.11 3.73c-.14.21-.21.48-.47.48-.23 0-.63-.13-.73-.4-.04-.12-.04-.24-.04-.35 0-.36.04-.71.05-1.07 0-.26-.06-.5-.06-.68 0-.11.03-.18.03-.27 0-.21.02-.42-.02-.63-.05-.27-.26-.52-.26-.8 0-.09.01-.18.01-.27 0-.2-.07-.09-.07-.39 0-.12-.11-.47-.16-.59-.05-.17-.08-.36-.22-.47h-.06c-.57-.04-.78.43-1.14.88-.13.17-.22.33-.33.51-.14.21-.19.18-.32.49-.06.15-.05.35-.11.51-.04.09-.1.16-.14.27-.04.09-.06.2-.09.3-.08.3-.06.63-.07.93-.01.18-.08.36-.08.54 0 .33.15.63.14.98 0 .39-.25.8-.61.79-.18 0-.38-.14-.45-.35-.04-.14-.02-.27-.02-.42 0-.26-.1-.47-.1-.5 0-.11.04-.21.04-.32 0-.15-.11-.27-.14-.42-.01-.11.01-.24.01-.35 0-.18-.07-.35-.1-.51-.11-.65-.16-1.69-.16-2.37 0-.3 0-.87.35-.87.21 0 .38.23.51.41.08.38.05.92.22 1.24.42 0 .48-.52.65-.84.08-.14.19-.22.27-.34s.11-.27.19-.39l.56-.61c.1-.09.23-.07.33-.16.11-.09.23-.27.38-.27.04 0 .08.05.13.05.11 0 .24-.04.35-.04.28 0 .45.34.66.47.03.03.06.02.09.05.01.02.05.15.07.2.07.15.19.29.25.47s.07.39.13.57c.22.85.44 1.54.43 2.45 0 .18-.04.35-.04.51 0 .47.13.91.13 1.37 0 .08 0 .15-.01.21Zm4.47-.96c-.08.09-.14.21-.23.27-.11.09-.27.13-.39.19-.1.06-.25.16-.35.19s-.21 0-.32 0c-.13 0-.25.03-.38.03s-.24-.05-.35-.15a1.4 1.4 0 0 1-.93-.48c-.05-.05-.06-.11-.1-.15-.04-.03-.09-.05-.13-.08-.39-.35-.46-.71-.46-1.27 0-.53.24-.99.44-1.44.01-.04.01-.09.04-.12.04-.06.11-.09.17-.15.09-.12.14-.29.25-.39.04-.04.09-.04.13-.07.08-.06.13-.2.2-.24.24-.15.66-.18.92-.17.53 0 1.26.22 1.53.83.06.11.09.21.16.3.1.11.23.18.3.32.01.03.01.08.02.11.11.29.15.58.14.89 0 .71-.26 1.13-.68 1.59Zm-.33-2.32s-.08-.08-.1-.12c-.11-.15-.18-.44-.35-.5-.09-.05-.8-.25-.87-.25-.08 0-.28.18-.34.24-.05.04-.1.07-.17.1-.35.24-.43.45-.44.95 0 .36.11.62.29.88.11.15.41.56.55.62.21.11.54.06.78.1.18-.13.43-.36.52-.58l.06-.04c.04-.06.04-.15.07-.23.09-.24.15-.22.16-.57 0-.21-.07-.42-.17-.59Zm5.22-1.98c-.11 0-.23-.08-.34-.08-.42 0-.5.09-.73.46.02.27.03.54.06.82.02.24.07.48.09.74.02.41-.02.83.01 1.24.01.12.07.23.07.36 0 .12-.03.26-.03.38s.02.24.09.35c-.04.11-.05.21-.05.33 0 .2.04.38.07.56.02.12.06.79.06.94 0 .32-.35.78-.61.78-.19 0-.35-.2-.46-.37a.9.9 0 0 1-.15-.27c-.06-.17-.03-1.34-.02-1.61 0-.26 0-.5-.03-.75-.01-.21-.06-.35-.06-.59 0-.2.02-.39.02-.6 0-.44-.09-.86-.09-1.28 0-.1.03-.18.03-.27 0-.15-.05-.29-.06-.44s.02-.32-.03-.47c-.07-.29-.21-.35-.45-.38-.08-.02-.15-.05-.23-.05-.11 0-.23.07-.37.07-.15 0-.29-.05-.44-.05-.1 0-.19-.02-.23-.15.04-.66 1.35-.09 1.66-.48.01-.05.01-.09.01-.14 0-.24-.07-.48-.07-.72 0-.12.04-.24.04-.36s-.05-.21-.06-.33c-.04-.26 0-.53-.03-.78-.02-.21-.1-.44-.1-.65 0-.3.11-.63.4-.63.09 0 .2.02.23.12.04.02.01 0 .05 0h.01c.09.05.23.51.26.62.13.51.19 1.03.25 1.56.01.14.05.26.06.39 0 .12-.01.24-.02.36 0 .2.21.62.4.62.11 0 .23-.1.35-.12.09-.01.18 0 .26 0 .1 0 .2-.04.32-.04.19 0 .43.29.42.53 0 .26-.37.4-.56.4Zm7.92.4c-.28 0-.13-.66-.83-.67-.47 0-.56.25-.56.75 0 .45.12.65.26 1.03.05.14.07.29.12.44.09.21.2.38.26.62.04.18.07.36.12.54.07.24.17.45.26.7.03.09.02.18.06.27.02.07.07.12.1.2.02.14.02.29.02.42 0 .48-.04.8-.26 1.2-.06.09-.1.23-.17.32-.08.09-.18.12-.27.19-.14.09-.27.21-.39.34-.05-.03-.1-.03-.15-.03-.14 0-.25.07-.37.13-.18.01-.37.01-.54.01-.15 0-.33-.11-.44-.2l-.04-.08h-.06c-.09-.11-.12-.27-.2-.39-.05-.09-.2-.21-.22-.32-.01-.08-.02-.15-.02-.23 0-.18.09-.38.25-.38.11 0 .2.08.26.18.04.04.04.14.06.2.1.21.45.67.66.67.13 0 .33-.12.44-.19.3-.24.27-.74.3-1.13 0-.09.04-.2.04-.29v-.03c-.01-.07-.26-.88-.29-.92-.01-.03-.04-.03-.06-.05-.12-.33-.07-.71-.18-.97-.11-.23-.18-.47-.28-.71-.17-.38-.35-.67-.34-1.13 0-.53.29-1.13.65-1.43.03-.01.06-.04.09-.07.11-.09.46-.31.57-.34.13-.03.26-.04.39-.04.4 0 1 .52 1 1.03 0 .18-.07.35-.24.35Zm4.21-.3c-.11 0-.23-.08-.34-.08-.42 0-.5.09-.73.46.02.27.03.54.06.81.02.24.07.48.09.74.02.41-.02.83.01 1.24.01.12.07.23.07.36 0 .12-.03.26-.03.38s.02.24.09.35a.9.9 0 0 0-.05.33c0 .2.04.38.07.56.02.12.06.79.06.94 0 .32-.35.78-.61.78-.19 0-.35-.2-.46-.37-.04-.05-.14-.21-.15-.27-.06-.17-.03-1.34-.02-1.61 0-.26 0-.5-.03-.75-.01-.21-.06-.35-.06-.59 0-.2.02-.39.02-.6 0-.44-.09-.86-.09-1.28 0-.11.03-.18.03-.27 0-.15-.05-.29-.06-.44s.02-.32-.03-.47c-.07-.29-.21-.35-.45-.38-.08-.02-.15-.05-.23-.05-.11 0-.23.07-.37.07-.15 0-.29-.05-.44-.05-.1 0-.19-.02-.23-.15.04-.66 1.35-.09 1.65-.48.01-.04.01-.09.01-.14 0-.24-.07-.48-.07-.72 0-.12.04-.24.04-.36s-.05-.21-.06-.33c-.04-.26 0-.53-.03-.78-.02-.21-.1-.44-.1-.65 0-.3.11-.63.4-.63.09 0 .2.02.23.12.04.01.01 0 .05 0h.01c.09.05.23.52.26.62.13.51.19 1.03.25 1.56.01.14.05.26.06.39 0 .12-.01.24-.02.36 0 .2.21.62.4.62.11 0 .23-.1.35-.12.09-.01.18 0 .26 0 .1 0 .2-.04.32-.04.19 0 .43.29.42.53 0 .26-.37.4-.56.4Zm5.83 5.68c-.08.01-.14.01-.21.01-.38 0-.53-.17-.61-.59-.02-.11 0-.23-.02-.33-.01-.08-.07-.14-.09-.21-.01-.15 0-.33 0-.5 0-.23-.02-.63-.14-.82-.34.06-.28.51-.47.75-.11.13-.29.15-.41.28-.1.12-.13.33-.22.48-.14.24-.37.45-.55.66-.05.08-.1.18-.17.23-.06.06-.16.06-.23.1-.09.04-.15.15-.24.15-.11 0-.21-.05-.31-.06-.13 0-.25.01-.38.01-.11 0-.28-.05-.36-.15-.03-.03-.01-.09-.04-.12-.04-.06-.12-.09-.15-.15-.04-.11-.02-.32-.06-.45-.02-.1-.1-.21-.12-.32-.02-.18-.03-.36-.03-.53 0-.45.16-.75.16-1.14 0-.17-.02-.33-.02-.5s.08-.27.09-.42c.03-.11 0-.23.02-.33.04-.33.09-.65.12-.96.03-.3.15-.95.47-.95.47 0 .49.52.48.94 0 .29-.09.45-.09.63 0 .14.04.27.03.41 0 .14-.04.26-.05.39-.03.33-.03.66-.08.99 0 .05-.01.09-.01.14 0 .15.01.3 0 .45 0 .18-.03.38-.03.57 0 .23.1.61.34.61.18 0 .41-.33.55-.46.18-.18.34-.33.48-.54.06-.1.1-.27.19-.34.03-.03.06-.03.1-.06.19-.19.52-.72.64-1 .06-.18.22-.3.28-.48.01-.06 0-.18.01-.26.05-.23.18-.42.18-.66 0-.14-.01-.27 0-.41 0-.21.24-.39.41-.39.47 0 .71.97.71 1.42 0 .2-.05.45-.06.71 0 .51.12 1.01.11 1.51 0 .09-.01.2-.01.29 0 .24.11.47.11.71s-.14.57-.31.71Zm5.99-9.38c-.07.45-.02.92-.07 1.37-.01.11-.05.18-.08.29 0 .08.01.17.01.26 0 .21-.08.44-.08.66-.02.51-.1 1.02-.14 1.54-.01.15-.07.29-.07.44 0 .09.02.17.02.26 0 .11-.05.14-.07.23-.05.26-.02.54-.04.81-.03.26-.12.5-.13.77-.03.23-.02.45-.14.63-.02.29 0 .57-.05.86-.03.14-.08.26-.1.39-.07.36-.05.97-.21 1.25-.16.1-.39.12-.58.12-.14-.18-.3-.32-.3-.61 0-.26.12-.5.12-.77 0-.08-.01-.17-.04-.24-.04-.01-.08-.02-.1-.02-.13 0-.23.07-.34.1-.2.03-.4.03-.59.02-.18 0-.35 0-.52-.03-.09-.03-.16-.09-.24-.12-.08-.05-.16-.03-.24-.09-.08-.05-.13-.17-.2-.24-.16-.18-.4-.34-.54-.56-.17-.33-.31-.83-.3-1.21 0-.45.2-.72.36-1.1.04-.09.05-.2.1-.27.14-.24.5-.52.71-.64.08-.04.16-.04.24-.09.06-.01.1-.09.17-.12.1-.03.55-.07.66-.07.2 0 .36.2.58.2.06 0 .13-.01.19-.03.23.11.3.46.52.56.2-.24.22-.65.25-.96.08-.77.09-1.57.22-2.34.05-.27.18-.53.18-.8 0-.09-.04-.17-.04-.26 0-.14.08-.29.1-.44.05-.35.02-1.37.44-1.37.24 0 .44.55.43.79 0 .27-.07.56-.11.83Zm-1.9 5.31c-.09-.21-.21-.32-.32-.49-.04-.04-.04-.12-.07-.17-.06-.11-.4-.21-.51-.22-.04 0-.05 0-.09.01-.24.1-.66.13-.81.4-.04.06-.05.17-.07.24-.08.24-.12.5-.12.74 0 .35.12.47.23.76.02.06.04.14.07.2.07.18.3.53.46.61.11.05.25.05.37.05.48 0 .74-.13.95-.64.06-.13.12-.29.12-.44 0-.24-.11-.83-.21-1.06Zm6.36.24c-.12.29-.21.62-.34.89-.03.06-.08.1-.1.16-.03.06-.01.12-.03.18-.03.06-.08.1-.1.16-.03.06-.01.12-.04.2-.1.35-.3.66-.42 1.01-.1.23-.21.45-.3.69s-.14.5-.23.74-.21.47-.31.69c-.04.12-.08.24-.13.35-.03.06-.08.11-.1.17-.08.18-.08.39-.16.57-.03.06-.08.11-.1.17-.08.15-.12.33-.21.5-.03.06-.08.09-.09.15-.03.06-.01.14-.04.2-.06.18-.2.33-.27.51-.05.12-.07.26-.1.38-.09.29-.26.5-.33.78-.04.18-.09.54-.23.66-.09.07-.32.09-.43.09-.13 0-.37-.02-.46-.14a.7.7 0 0 1-.14-.38c0-.18.05-.36.1-.51.06-.17.18-.27.23-.42.06-.15.05-.33.1-.47.03-.06.08-.1.1-.17.05-.12.07-.26.13-.38.09-.18.33-.69.4-.86.04-.12.05-.27.1-.39.06-.17.22-.28.29-.47.06-.14.08-.29.13-.42.05-.12.11-.23.17-.35.1-.27.17-.54.27-.81.09-.27.18-.53.3-.78.09-.21.24-.51.23-.75v-.06c-.01-.2-.22-.44-.32-.58-.24-.35-.45-.68-.62-1.06-.19-.39-.41-.76-.71-1.02-.07-.5-.5-.77-.49-1.32 0-.08 0-.14.01-.21.1-.06.2-.12.32-.12.21 0 .38.18.5.37.09.14.14.29.22.42.04.08.09.14.13.2.14.24.26.51.42.74.01.03.04.05.06.08.04.08.05.17.09.24.12.21.68 1.18.9 1.21.23-.09.28-.56.38-.78.08-.15.19-.27.27-.42.06-.13.08-.29.13-.42.13-.31.27-.62.41-.92.06-.12.13-.24.19-.36.01-.04.01-.09.03-.12.01-.03.05-.01.06-.05.03-.03.05-.14.06-.18.1-.24.26-.72.44-.86.04-.03.21-.12.27-.12.19 0 .37.15.36.39 0 .57-.78 2.39-1.01 2.98Zm9.3-.31c-.01.27-.12.53-.12.78 0 .15.02.3.02.45 0 .21-.04.41-.09.6-.04.1-.09.19-.12.3-.03.13-.02.27-.04.39-.01.11-.06.2-.08.3-.01.15.01.3 0 .45 0 .21-.09.36-.12.56-.03.18-.02.65-.06.78-.08.23-.33.69-.56.69-.24 0-.55-.32-.55-.62 0-.2.09-.36.09-.54 0-.06-.01-.12-.02-.18.06-.21.11-.26.12-.5 0-.08-.01-.18-.04-.26a.45.45 0 0 0-.19-.05c-.21 0-.42.12-.63.12-.16 0-.33-.03-.48-.03-.1 0-.2.01-.3.01-.04 0-.08 0-.11-.02-.16-.05-.83-.79-.87-.96-.01-.08-.02-.17-.02-.24 0-.26.12-.47.22-.68.06-.14.13-.33.22-.44.04-.06.13-.07.18-.13.06-.04.09-.12.15-.16.27-.22.62-.33.94-.32.09 0 .19 0 .28.02.19.05.33.18.5.28.06.03.25.05.29.09.03.02.04.05.04.08.06.03.13.02.19.05.13-.12.07-.41.07-.59 0-.3.08-.6.08-.92 0-.39-.23-1.3-.61-1.38h-.09c-.31 0-.48.34-.86.34-.27.27-.42.51-.74.7-.06.03-.14.12-.21.12-.03 0-.05-.02-.08-.05a.4.4 0 0 1-.06-.21c0-.42.39-.59.5-.87.08-.03.14-.07.19-.13l.04-.08c.1-.06.23-.1.33-.18.04-.03.06-.09.1-.13.2-.13.57-.22.81-.22.15 0 .48.03.62.11.05.02.07.06.11.09.24.12.38.23.54.47.32.47.44 1.18.44 1.77 0 .11 0 .23-.02.33Zm-1.61 1.6c-.19-.23-.83-.37-1.09-.37-.24 0-.55.07-.56.43 0 .24.13.57.3.71.16.14.41.12.62.14.11.02.23.05.34.05.2 0 .45-.04.57-.25v-.09c.01-.21-.05-.47-.17-.62Zm7.14.77c-.04.26-.18.41-.28.63-.06.12-.14.39-.23.47-.1.11-.22.1-.33.15-.18.07-.23.3-.46.3-.08 0-.14-.02-.21-.02-.24 0-.41.22-.63.27-.13.01-.26 0-.39 0-.08 0-.15 0-.23.03-.11-.06-.25-.18-.39-.18-.08 0-.13.04-.2.07-.03.01-.06.01-.09.03-.15.15-.13.23-.37.22s-.59-.34-.59-.62c0-.33.07-.66.07-1 0-.21-.05-.42-.06-.63-.03-.5-.05-1.01-.05-1.51 0-.09.04-.18.04-.27 0-.21-.1-.41-.1-.62 0-.08.04-.17.04-.26s-.06-.17-.06-.26c0-.12.04-.23.04-.33 0-.54-.09-1.06-.09-1.6 0-.07.04-.17.04-.26 0-.17-.07-.35-.1-.51-.03-.38-.02-.77-.05-1.15-.01-.17-.06-.33-.06-.51 0-.11.04-.2.04-.3 0-.33-.08-.66-.08-1.01 0-.23.04-.78.31-.78.1 0 .25-.03.28.11h.06c.24.24.27 1.22.33 1.59.02.18.1.35.12.51.02.21 0 .42.02.63.02.41.06.82.08 1.22.02.18.05.36.06.54.01.17 0 .33 0 .5s.05.3.06.47c.03.36 0 .74.03 1.1 0 .24-.02.75.23.82.02.02.05.02.07.02.29 0 .42-.39.63-.52.05-.03.09-.01.13-.04.25-.09.52-.18.78-.17.31 0 .6.08.85.31.04.03.06.08.09.11.09.09.2.15.27.26.06.09.07.21.12.3.02.05.07.06.09.11.03.03.01.04.04.07.11.18.12.44.23.64-.03.36-.07.74-.12 1.1Zm-1.07-1.27c-.01-.07-.06-.15-.09-.23-.11-.32-.11-.42-.33-.67-.03.01-.05.01-.08.01-.09 0-.16-.03-.25-.03-.27 0-.34.19-.55.34-.15.13-.22.34-.34.51-.1.15-.32.33-.32.53 0 .08.01.17.01.24 0 .24-.17.38-.17.65 0 .3.1.6.09.92.18.14.38.11.58.11.1 0 .18.03.27.03.08 0 .16-.07.24-.1.09-.03.19 0 .28-.03.04-.03.08-.09.11-.12.37-.27.51-.37.56-.92.01-.07.01-.15.01-.23 0-.29.02-.77-.03-1.03Zm4.94-1.9c-.11 0-.23-.08-.35-.08-.33 0-.66.63-.83.93-.14.26-.33.49-.33.83 0 .14.04.26.03.38 0 .21-.1.39-.11.65 0 .33.1.59.13.89.02.24 0 .47.06.71.05.27.07.57.09.85-.08.15-.42.42-.55.42-.1 0-.29-.12-.36-.18-.17-.53-.18-1.09-.29-1.63-.01-.08-.05-.14-.06-.2 0-.06.01-.12.01-.18 0-.12-.06-.12-.07-.21-.01-.06 0-.12 0-.18 0-.14-.07-.3-.1-.44-.01-.14 0-.29-.02-.42-.02-.17-.1-.32-.13-.47-.04-.24 0-.47-.06-.71-.01-.11-.04-.21-.06-.3s-.07-.15-.1-.24c-.03-.12-.08-.83-.08-.98 0-.09.01-.2.03-.3.1-.09.22-.18.35-.18.15 0 .29.12.39.26.27.38.24 1.01.48 1.21.25-.01.34-.36.5-.54.06-.08.15-.15.23-.22.36-.39.57-.78 1.13-.78.24 0 .53.29.52.59 0 .29-.22.54-.46.54Zm4.52 3.95c-.08.09-.14.21-.23.27-.11.09-.27.13-.39.19-.1.06-.25.16-.35.19s-.21 0-.32 0c-.13 0-.25.03-.38.03s-.24-.05-.35-.15a1.4 1.4 0 0 1-.93-.48c-.05-.05-.06-.11-.1-.15-.04-.03-.09-.05-.13-.08-.39-.35-.46-.71-.46-1.27 0-.53.24-.99.44-1.44.01-.04.01-.09.04-.12.04-.06.11-.09.17-.15.09-.12.14-.28.25-.39.04-.04.09-.04.13-.07.08-.06.13-.19.2-.24.24-.15.66-.18.92-.17.53 0 1.26.22 1.53.83.06.11.09.21.16.3.1.11.23.18.3.32.01.03.01.08.02.11.11.29.15.57.14.89 0 .71-.26 1.13-.68 1.59Zm-.34-2.33s-.08-.08-.1-.12c-.11-.15-.18-.44-.35-.5-.09-.05-.8-.25-.87-.25-.08 0-.28.18-.34.24-.05.04-.1.07-.17.1-.35.24-.43.45-.44.95 0 .36.11.62.29.88.11.15.41.56.55.62.21.11.54.06.78.1.18-.13.43-.36.52-.58l.06-.04c.04-.06.04-.15.07-.23.09-.24.15-.22.16-.57 0-.21-.07-.42-.17-.59Zm5.73-.66c-.01.27-.12.53-.12.78 0 .15.02.3.02.45 0 .21-.04.41-.09.6-.04.11-.09.2-.12.3-.03.14-.02.27-.04.39-.01.11-.06.2-.08.3-.01.15.01.3 0 .45 0 .21-.09.36-.12.56-.03.18-.02.65-.06.78-.08.23-.33.69-.56.69-.24 0-.55-.32-.55-.62 0-.2.09-.36.09-.54 0-.06-.01-.12-.02-.18.06-.21.11-.26.12-.5 0-.07-.01-.18-.04-.26a.45.45 0 0 0-.19-.05c-.21 0-.42.12-.63.11-.16 0-.33-.03-.48-.03-.1 0-.2.01-.3.01-.04 0-.08 0-.11-.02-.16-.05-.83-.79-.87-.96-.01-.08-.02-.17-.02-.24 0-.26.12-.47.22-.68.06-.14.13-.33.22-.44.04-.06.13-.07.18-.13.06-.04.09-.12.15-.16.27-.22.62-.33.94-.32.09 0 .19 0 .28.02.19.05.33.18.5.28.06.03.25.05.29.09.03.01.04.04.04.07.06.03.13.02.19.05.13-.12.07-.41.07-.59 0-.3.08-.6.08-.92 0-.39-.23-1.3-.61-1.38h-.09c-.31 0-.48.34-.86.34-.27.27-.42.51-.74.7-.06.03-.14.12-.21.12-.03 0-.05-.02-.08-.05a.4.4 0 0 1-.06-.21c0-.42.39-.58.5-.87.08-.03.14-.07.19-.13l.04-.07c.1-.06.23-.1.33-.18.04-.03.06-.09.1-.13.2-.13.57-.22.81-.22.15 0 .48.03.62.11.05.01.07.06.11.09.24.12.38.23.54.47.32.47.44 1.18.44 1.77 0 .11 0 .23-.02.33Zm-1.62 1.6c-.19-.23-.83-.37-1.09-.37-.24 0-.55.07-.56.43 0 .24.13.57.3.71.16.14.41.12.62.14.11.02.23.05.34.05.2 0 .45-.04.57-.25v-.09c.01-.21-.05-.47-.17-.62Zm7.29-6.66c-.07.45-.02.92-.07 1.37-.01.11-.05.18-.08.29 0 .08.01.17.01.26 0 .21-.08.44-.08.66-.02.51-.1 1.02-.14 1.54-.01.15-.07.29-.07.44 0 .09.02.17.02.26 0 .11-.05.14-.07.23-.05.26-.02.54-.04.81-.03.26-.12.5-.13.77-.03.23-.02.45-.14.63-.02.29 0 .57-.05.86-.03.14-.08.26-.1.39-.07.36-.05.96-.21 1.25-.16.1-.39.12-.58.12-.14-.18-.3-.32-.3-.61 0-.26.12-.5.12-.77 0-.08-.01-.17-.04-.24-.04-.01-.08-.02-.1-.02-.13 0-.23.07-.34.1-.2.03-.4.03-.59.02-.18 0-.35 0-.52-.03-.09-.03-.16-.09-.24-.12-.08-.05-.16-.03-.24-.09-.08-.05-.13-.17-.2-.24-.16-.18-.4-.34-.54-.56-.17-.33-.31-.83-.3-1.21 0-.45.2-.72.36-1.1.04-.09.05-.2.1-.27.14-.24.5-.52.71-.64.08-.04.16-.04.24-.09.06-.01.1-.09.17-.12.1-.03.55-.07.66-.07.2 0 .36.2.58.2.06 0 .13-.01.19-.03.23.11.3.46.52.56.2-.24.22-.65.25-.96.08-.77.09-1.57.22-2.34.05-.27.18-.53.18-.8 0-.09-.04-.17-.04-.26 0-.14.08-.29.1-.44.05-.35.02-1.37.44-1.37.24 0 .44.55.43.79 0 .27-.07.56-.11.83Zm-1.9 5.3c-.09-.21-.21-.32-.32-.49-.04-.05-.04-.12-.07-.17-.06-.11-.4-.21-.51-.22-.04 0-.05 0-.09.01-.24.1-.66.13-.81.4-.04.06-.05.17-.07.24-.08.24-.12.5-.12.74 0 .35.12.47.23.76.02.06.04.14.07.2.07.18.3.53.46.61.11.05.25.05.37.05.48 0 .74-.13.95-.64.06-.13.12-.29.12-.44 0-.24-.11-.83-.21-1.06Zm10.78-3.64c-.01.06-.36 1.19-.38 1.2-.01.01-.04.03-.06.04-.03.06-.04.14-.07.2-.04.09-.09.18-.13.27-.08.14-.2.24-.27.37-.01.04-.01.09-.04.12-.01.03-.36.54-.36.54-.03.03-.06.01-.1.04l-.03.08c-.08.04-.15.01-.23.03-.21.07-.41.24-.58.36q-.435-.03-.78.27c-.05.33-.08.68-.08 1.03 0 .23.05.44.04.65 0 .29-.27.54-.5.54s-.43-.35-.42-.61c0-.18.07-.35.07-.53 0-.17-.05-.3-.05-.47 0-.33.09-.65.1-.98 0-.2-.06-.39-.06-.6 0-.26.1-.41.33-.4.49 0 .36.71.62.71.16 0 .35-.1.51-.19.2-.12.49-.25.65-.46.11-.15.22-.54.3-.74.05-.12.13-.21.17-.35.03-.07.01-.15.04-.23.12-.5.17-1.01.18-1.52 0-.42-.37-1.3-.71-1.44-.06-.03-.13-.03-.19-.03-.11 0-.21.01-.33.01-.06 0-.14 0-.2-.03-.15.13-.34.15-.48.27s-.22.32-.33.47c-.03.04-.08.07-.1.12-.04.06 0 .23-.07.27-.03.21-.23.21-.23.68 0 .44.39.3.39.56 0 .2-.17.32-.32.31-.2 0-.45-.32-.5-.55-.01-.07-.01-.15-.01-.23 0-.35.09-.68.16-1.01.08-.44.39-.95.65-1.25.2-.21 1.05-.38 1.33-.38.15 0 .31.03.47.09.21.08.69.38.8.63.03.03.01.08.04.12.06.11.17.2.25.3.09.12.16.26.22.39.26.45.22.42.26.97.01.11.04.21.03.3v.05Zm-3.03 7.86c-.18-.06-.38-.11-.54-.2-.06-.11-.14-.23-.13-.35 0-.29.22-.41.43-.4.25 0 .49.17.49.5 0 .2-.1.35-.24.45ZM43.82 155.6c0 .43-.35.77-.77.77s-.77-.35-.77-.77.35-.77.77-.77.77.36.77.77m6.6 2.53h-.9l-1.41-2.41-.43.53v1.87h-.77v-5.1h.77v2.39h.02c.12-.2.25-.39.37-.57l1.31-1.83h.94l-1.67 2.17 1.77 2.93Zm3.04-.87c0 .31 0 .63.05.87h-.7l-.05-.43h-.02c-.21.29-.57.5-1.03.5-.69 0-1.08-.51-1.08-1.07 0-.91.79-1.37 2.05-1.37 0-.27 0-.82-.74-.82-.33 0-.66.1-.89.25l-.16-.51c.26-.17.69-.31 1.19-.31 1.08 0 1.38.71 1.38 1.49v1.39Zm-.75-.97c-.61 0-1.31.11-1.31.77 0 .41.25.59.54.59.42 0 .77-.32.77-.75zm4.41 1.7c-.26.12-.67.22-1.17.22-1.11 0-1.75-.74-1.75-1.86s.61-1.97 1.65-1.97 1.45.86 1.45 1.77c0 .13 0 .23-.02.33h-2.33c.02.83.53 1.14 1.11 1.14.41 0 .69-.07.93-.17l.13.55Zm-.55-2.07c0-.44-.17-.99-.77-.99s-.81.56-.85.99h1.61Zm3.33-.78c-.07-.01-.14-.02-.23-.02-.52 0-.85.43-.85 1.07v1.95h-.77v-2.55c0-.43 0-.78-.03-1.12h.67l.03.67h.03c.17-.47.55-.75.95-.75.07 0 .13 0 .19.02v.74Zm3.59 1.94c0 .41.02.76.03 1.05h-.68l-.04-.53h-.02c-.15.25-.51.61-1.11.61-.63 0-1.19-.39-1.19-1.57v-2.19h.77v2.06c0 .63.18 1.05.69 1.05.35 0 .77-.28.77-.83v-2.27h.77v2.62Zm4.91-3.25c-.17-.09-.49-.23-.91-.23-.61 0-.86.35-.86.68 0 .43.29.65.93.93.82.36 1.21.81 1.21 1.51 0 .85-.63 1.49-1.78 1.49-.48 0-.99-.14-1.23-.31l.17-.65c.27.17.69.3 1.11.3.61 0 .95-.31.95-.77 0-.43-.26-.7-.87-.95-.76-.31-1.27-.77-1.27-1.46 0-.81.65-1.41 1.66-1.41.49 0 .85.12 1.07.23l-.19.64Zm1.33-.04.77-.24v.91h.87v.58h-.87v1.86c0 .45.14.67.47.67.15 0 .25-.02.34-.05l.03.59c-.13.05-.34.09-.6.09-.31 0-.57-.1-.73-.28-.19-.2-.27-.51-.27-.99v-1.9h-.52v-.58h.52v-.67Zm5.29 3.29c0 .41.02.76.03 1.05h-.68l-.04-.53h-.02c-.15.25-.51.61-1.11.61-.63 0-1.19-.39-1.19-1.57v-2.19h.77v2.06c0 .63.18 1.05.69 1.05.35 0 .77-.28.77-.83v-2.27h.77v2.62Zm4.06.07c0 .33.01.73.03.98h-.68l-.04-.57h-.02c-.19.37-.59.65-1.11.65-.83 0-1.47-.74-1.47-1.87 0-1.25.71-1.95 1.53-1.95.47 0 .81.21.97.49h.01v-2.09h.77v4.37Zm-.77-1.2c0-.6-.38-.95-.81-.95-.59 0-.92.59-.92 1.31s.32 1.27.91 1.27c.5 0 .83-.44.83-.95v-.68Zm4.67-1.49-.89 2.55c-.43 1.21-.74 1.89-1.18 2.31-.33.31-.67.43-.85.47l-.2-.65c.8-.29 1.09-1.03 1.09-1.13 0-.04 0-.09-.04-.16l-1.26-3.39h.85l.67 2.07c.07.24.15.52.2.73h.02c.05-.21.13-.49.19-.73l.59-2.07zm5.78 3.67h-.81l-.46-1.5h-1.56l-.44 1.5h-.79l1.56-5.1h.95l1.56 5.1Zm-1.4-2.09-.4-1.33c-.09-.33-.18-.69-.25-1.01h-.01c-.07.31-.15.69-.24 1l-.41 1.34zm2.85-1.07c.22-.37.6-.59 1.11-.59.84 0 1.42.74 1.42 1.86 0 1.34-.78 1.97-1.54 1.97-.47 0-.84-.19-1.09-.63h-.02l-.04.55h-.66c.01-.25.03-.65.03-.98v-4.37h.77v2.19h.01Zm-.01 1.71c0 .47.33.91.84.91.59 0 .92-.53.92-1.31 0-.69-.3-1.27-.91-1.27-.49 0-.85.47-.85.96v.72Zm5.15-1.54c-.07-.01-.14-.02-.23-.02-.52 0-.85.43-.85 1.07v1.95h-.77v-2.55c0-.43 0-.78-.03-1.12h.67l.03.67h.03c.17-.47.55-.75.95-.75.07 0 .13 0 .19.02v.74Zm3.77 1.13c0 1.37-.89 1.94-1.72 1.94-.95 0-1.68-.7-1.68-1.89s.76-1.94 1.73-1.94 1.67.76 1.67 1.89m-1.69-1.31c-.66 0-.91.71-.91 1.34 0 .72.34 1.33.91 1.33s.91-.61.91-1.34c0-.61-.25-1.33-.9-1.33Zm5.03 2.3c0 .31 0 .63.05.87h-.7l-.05-.43h-.02c-.21.29-.57.5-1.03.5-.69 0-1.08-.51-1.08-1.07 0-.91.79-1.37 2.05-1.37 0-.27 0-.82-.74-.82-.33 0-.66.1-.89.25l-.16-.51c.26-.17.69-.31 1.19-.31 1.08 0 1.38.71 1.38 1.49v1.39Zm-.75-.97c-.61 0-1.31.11-1.31.77 0 .41.25.59.54.59.42 0 .77-.32.77-.75zm4.79.86c0 .33.01.73.03.98h-.68l-.04-.57h-.02c-.19.37-.59.65-1.11.65-.83 0-1.47-.74-1.47-1.87 0-1.25.71-1.95 1.53-1.95.47 0 .81.21.97.49h.01v-2.09h.77v4.37Zm-.77-1.2c0-.6-.38-.95-.81-.95-.59 0-.92.59-.92 1.31s.32 1.27.91 1.27c.5 0 .83-.44.83-.95v-.68Zm7 2.18h-.81l-.46-1.5h-1.56l-.44 1.5h-.79l1.56-5.1h.95l1.56 5.1Zm-1.4-2.09-.4-1.33c-.09-.33-.18-.69-.25-1.01h-.01c-.07.31-.15.69-.24 1l-.41 1.34zm5.13-1.58c-.02.26-.03.57-.03 1.06v2.09c0 .73-.06 2.09-1.8 2.09-.43 0-.87-.09-1.16-.27l.17-.6c.23.13.58.26.99.26.6 0 1.03-.33 1.03-1.17v-.35h-.01c-.19.31-.55.54-1.02.54-.87 0-1.46-.77-1.46-1.79 0-1.25.75-1.94 1.55-1.94.55 0 .85.28 1.01.57h.01l.03-.49zm-.81 1.42c0-.49-.32-.89-.79-.89-.53 0-.91.51-.91 1.29 0 .72.33 1.23.9 1.23.4 0 .8-.31.8-.92v-.72Zm4.45 2.11c-.26.12-.67.22-1.17.22-1.11 0-1.75-.74-1.75-1.86s.61-1.97 1.65-1.97 1.45.86 1.45 1.77c0 .13 0 .23-.02.33h-2.33c.02.83.53 1.14 1.11 1.14.41 0 .69-.07.93-.17l.13.55Zm-.54-2.07c0-.44-.17-.99-.77-.99s-.81.56-.85.99h1.61Zm4.51 2.21h-.77v-2.15c0-.52-.17-.96-.7-.96-.38 0-.79.31-.79.9v2.21h-.77v-2.64c0-.41-.01-.72-.03-1.03h.67l.04.55h.02c.17-.31.56-.63 1.11-.63s1.21.37 1.21 1.51v2.25Zm3.45-.11c-.17.08-.52.19-.95.19-1.06 0-1.75-.73-1.75-1.87s.72-1.95 1.9-1.95c.35 0 .66.09.82.17l-.15.59a1.4 1.4 0 0 0-.66-.15c-.72 0-1.12.59-1.12 1.31 0 .81.47 1.29 1.11 1.29.31 0 .52-.07.69-.15l.11.58Zm3.6-3.56-.89 2.55c-.43 1.21-.74 1.89-1.18 2.31-.33.31-.67.43-.85.47l-.2-.65c.8-.29 1.09-1.03 1.09-1.13 0-.04 0-.09-.04-.16l-1.26-3.39h.85l.67 2.07c.07.24.15.52.2.73h.02c.05-.21.13-.49.19-.73l.59-2.07zm4.16 1.14c0 .43-.35.77-.77.77s-.77-.35-.77-.77.35-.77.77-.77.77.36.77.77" class="cls-1"/><path d="M118.64 133.11c1.05 2.77.49 5.03-1.23 7.75-2.11 3.34-5.12 3.72-8.21 4.71-2.75.88-5.37 2.12-8.09 3.11-.84.31-1.79.37-2.69.37-.15 0-.57-1.12-.41-1.27.63-.63 1.38-1.18 2.18-1.6.73-.39 1.57-.56 2.63-.93-1.31-1-2.23-.44-3.19-.08-1.8.67-3.61 1.31-5.43 1.9-.41.13-.95.16-1.35.01-.56-.21-1.51-.69-1.48-.95.08-.65.49-1.5 1.02-1.78.95-.51 2.09-.66 3.34-1-.41-.21-.66-.29-.84-.44-.46-.4-.88-.84-1.32-1.26.4-.2.8-.45 1.2-.64l.21.47c-.02.17-.05.34-.07.51.32.13.66.22.95.41.44.28.84.62 1.26.94-.47.33-.89.78-1.41.97-.86.3-1.8.37-2.66.66-.34.12-.55.59-.82.9.34.16.73.51 1.02.46 1.48-.31 2.95-.66 4.39-1.13 1.05-.34 2.02-.98 3.08-1.29 1.05-.31 2.4-.31 2.7.94.3 1.28-1.05 1.53-2 1.84-.67.22-1.39.34-2.03.61-.24.1-.32.54-.48.83.3.08.61.25.9.23s.57-.22.83-.37c3.26-1.85 6.73-3.08 10.42-3.76.98-.18 1.97-.56 2.86-1.02 2.5-1.28 2.91-2.99.93-4.93-1.95-1.91-4.17-3.57-6.38-5.18-1.89-1.37-3.98-2.46-5.89-3.8-.68-.47-1.1-1.31-1.64-1.98.95-.18 1.9-.42 2.85-.52.37-.04.82.15 1.15.37 1.32.85 2.68 1.67 3.91 2.63 1.6 1.26 3.05 2.71 4.65 3.96 1.39 1.09 2.66.56 2.75-1.2.05-1.05-.11-2.31-.67-3.14-1.27-1.86-2.73-3.36-4.35-4.56l.51-.69c3.11 2.32 5.49 5.27 6.89 8.97Z"/><path d="M115.6 129.4c.56.83.72 2.09.67 3.14-.09 1.76-1.36 2.29-2.75 1.2-1.6-1.25-3.05-2.7-4.65-3.96-1.24-.97-2.59-1.79-3.91-2.63-.33-.21-.78-.41-1.15-.37-.96.1-1.9.34-2.85.52.54.67.96 1.51 1.64 1.98 1.91 1.34 4 2.43 5.89 3.8 2.21 1.61 4.43 3.27 6.38 5.18 1.99 1.95 1.57 3.65-.93 4.93-.89.46-1.88.83-2.86 1.02-3.69.68-7.17 1.91-10.42 3.76-.27.15-.55.34-.83.37-.29.02-.6-.15-.9-.23.15-.28.24-.72.48-.83.64-.28 1.36-.39 2.03-.61.95-.32 2.3-.56 2-1.84-.29-1.25-1.65-1.24-2.7-.94-1.06.31-2.02.95-3.08 1.29-1.44.46-2.92.82-4.39 1.13-.29.06-.68-.29-1.02-.46.27-.31.48-.78.82-.9.86-.29 1.8-.36 2.66-.66.52-.19.94-.64 1.41-.97-.42-.32-.82-.66-1.26-.94-.29-.18-.63-.27-.95-.41.02-.17.05-.34.07-.51 3.13 0 6.27.11 9.4-.03 3.02-.14 6.1 1.34 9.53-.39-.84-.38-1.31-.56-1.75-.8-2.29-1.19-4.76-2.12-6.82-3.63-3.15-2.32-5.98-5.06-8.99-7.57-.19-.16-.36-.32-.52-.48-1.37-1.42-1.73-3.16-1.5-5.13.14-1.16.74-2.01 1.88-2.35.78-.23 1.6-.52 2.38-.46 4.73.39 9.07 1.57 12.64 4.22 1.62 1.2 3.08 2.7 4.35 4.56" class="cls-12"/><path d="M112.18 140.25c.44.23.91.42 1.75.8-3.44 1.73-6.51.24-9.53.39-3.13.15-6.27.03-9.4.03l-.21-.47c.23-.11.47-.21.71-.27.66-.16 1.39-.03 2.11-.27-.81-.13-1.62-.26-2.46-.39l.1-.64c.37.05.83.05 1.41.03 2.34-.07 4.66-.4 6.99-.61.76-.07 1.53-.1 2.71-.17-1.26-1.01-2.16-1.67-3-2.4-2.7-2.37-5.48-4.66-8.05-7.16l.55-.56c.16.17.33.32.52.48 3.01 2.51 5.84 5.25 8.99 7.57 2.05 1.51 4.53 2.45 6.82 3.63Z"/><path d="m111.76 124.14-.51.69c-3.57-2.65-7.91-3.83-12.64-4.22-.78-.06-1.6.23-2.38.46-1.14.34-1.74 1.19-1.88 2.35-.23 1.98.13 3.71 1.5 5.13l-.55.56c-.16-.15-.32-.3-.48-.46-1.84-1.83-2.16-5.05-.89-6.95 1.22-1.83 4.12-4.36 6.76-3.51.47.15 1.15-.33 1.73-.52-.18-.54-.21-1.22-.57-1.59-2.58-2.66-5.61-4.68-9.1-6-1.01-.38-1.71-.29-2.27.73l-.67-.11.15-.27c.42-.79.42-1.45-.28-2.04-1.16-.98-2.43-1.68-3.8-2.09l.02-.08c.15-.13.32-.29.5-.47.42.17.85.34 1.27.5l-.14.24c.07-.06.15-.13.22-.2.33.13.66.26.99.4l-.2.2c.1-.05.2-.1.3-.16.55.22 1.1.44 1.66.66.05-.58.02-1.16-.11-1.73.19-.16.38-.33.57-.52.19.8.27 1.64.32 2.49 7.9 2.73 13.63 7.88 18.07 14.66.26.4.73.69 1.14.96.43.28.84.57 1.24.87Z"/><path d="M106.35 138.69c-1.17.07-1.94.1-2.71.17-2.33.2-4.65.53-6.99.61q-.87.03-1.41-.03c-1.31-.17-1.49-.86-1.58-2.86-.13-2.54-.41-5.07-.66-7.61-.05-.46-.27-.91-.41-1.37l-.46.03c-.03.48-.12.96-.09 1.43.2 2.89.57 5.78.62 8.67.08 4.42-1.28 6-5.51 7.13-.47.13-.93.35-1.37.6l-.32-1.14.4-.11c-.73-.77-.79-.83-2.53-.39l-.08-1.05c.73-.05 1.41-.27 1.9-1.06.31.05.71.1 1.11.17 2.37.44 3.29-.17 3.58-2.62.42-3.54-.71-6.84-1.75-10.14-.04-.13-.18-.24-.3-.32-.07-.05-.19-.03-.45-.07.5 2.78 1 5.54 1.49 8.29-.2.11-.39.23-.59.34-.67-.46-1.48-1.02-2.38-1.68-.54-.39-1.12-.82-1.72-1.28a92 92 0 0 1-6.42-5.39c-2.44-2.26-3.98-3.95-4.66-4.66 1.54 1.27 7.3 5.61 8.49 5.63l1.68.23c.3-.17 2.48-1.56 3.04-2.3.12-.16.56-.76.8-1.73.25-.98.12-1.67.03-2.63-.28-2.97.16-4.22-.34-4.41-.47-.17-.92.86-2.27 1.48-.64.29-2.15.35-2.82.12-3.9-1.34-7.81-2.64-11.7-3.99-.91-.31-1.85-.64-2.64-1.17-.47-.31-1.04-.95-1.11-1.43 0-.06-.01-.11 0-.17.08-.61.74-1.39 1.33-1.62 1.17-.45 2.48-.51 3.7-.84 1.71-.44 3.4-.96 5.09-1.48.58-.18 1.12-.49 1.69-.7 2.16-.77 2.49-.69 3.46 1.14q.06.105.12.24c.93 1.78 2.31 3.02 4.41 3.06 2.03.03 3.51-1.07 4.38-2.82.02-.05.05-.1.07-.14.56-1.02 1.26-1.11 2.27-.73 3.49 1.32 6.52 3.34 9.1 6 .36.37.39 1.05.57 1.59-.58.19-1.26.67-1.73.52-2.64-.85-5.54 1.68-6.76 3.51-1.27 1.9-.95 5.12.89 6.95.16.16.32.31.48.46 2.57 2.5 5.35 4.79 8.05 7.16.83.73 1.73 1.39 3 2.4Z" class="cls-12"/><path d="m95.24 139.42-.1.64c-.54-.08-1.1-.17-1.67-.26-.47 3.74-2.96 5.35-6.44 5.97-.75.13-1.41.76-2.11 1.16-1.53.88-2.34.63-3.27-.8-.3-.47-.93-.71-1.32-1.14-.29-.33-.56-.68-.83-1.04l.4-.29c.87.98 1.92.54 2.9.28.2-.05.37-.1.54-.14 1.73-.44 1.8-.39 2.53.39l-.4.11c-1.03.28-2.01.55-3.1.85.34 1.53 1.12 1.51 2.08 1.03.45-.22.89-.49 1.34-.74s.9-.47 1.37-.6c4.22-1.13 5.58-2.71 5.51-7.13-.05-2.89-.41-5.78-.62-8.67-.03-.47.05-.95.09-1.43.15 0 .31-.02.46-.03.14.46.36.9.41 1.37.25 2.53.53 5.07.66 7.61.1 2 .27 2.7 1.58 2.86Zm-4.42-34.89 2.41-2.56c-.31.68-.79 1.56-1.56 2.46-.22.27-.46.51-.69.73-.05-.22-.11-.42-.17-.63Zm-1.02-1.93 1.14-1.98c-.13.66-.36 1.51-.8 2.45-.1-.16-.22-.32-.34-.46Z"/><path d="M90.82 104.53c.06.21.12.41.17.63-.19.19-.39.36-.57.52-.04-.19-.1-.37-.16-.56zm0 0-.56.59c-.14-.41-.32-.82-.56-1.21.1-.17.2-.35.29-.54.05-.1.1-.21.15-.31.29.45.51.94.68 1.46Z"/><path d="M90.41 105.68c.13.57.17 1.15.11 1.73-.56-.22-1.12-.44-1.66-.66.45-.25.99-.6 1.55-1.07" class="cls-6"/><path d="M90.49 110.82s-.05.09-.07.14c-.87 1.75-2.35 2.85-4.38 2.82-2.1-.04-3.48-1.28-4.41-3.06l-.12-.24h.59c.14-.04.27-.06.41-.09.3-3.32 1.07-3.46 2.97-2.17.12.55.21 1.21.23 1.95.03 1.14-.13 2.11-.31 2.83.43.05 1.53.11 2.67-.51.98-.54 1.49-1.31 1.76-1.78l.67.11Zm-.23-5.7c.06.19.12.37.16.56-.56.46-1.1.81-1.55 1.07-.03-.02-.07-.03-.1-.04l1.5-1.58Z"/><path d="m90.26 105.12-1.5 1.58c-.33-.14-.66-.27-.99-.4.57-.53 1.29-1.32 1.93-2.4.23.39.42.8.56 1.21Z" class="cls-6"/><path d="M90.14 103.07c-.05.1-.1.2-.15.31-.1.19-.19.37-.29.54-.11-.18-.22-.36-.35-.54l.44-.77c.12.15.24.3.34.46Z"/><path d="M89.69 108.4c.71.59.7 1.25.28 2.04-.04.07-.08.16-.15.27-.26.47-.77 1.24-1.76 1.78-1.14.63-2.24.56-2.67.51a10.65 10.65 0 0 0 .08-4.78c-1.9-1.29-2.67-1.15-2.97 2.17-.14.03-.27.05-.41.08-.2-1.23-.47-2.46-.53-3.71-.01-.29.71-.88 1.11-.89q1.68-.015 3.21.45c1.37.41 2.63 1.11 3.8 2.09Z" class="cls-4"/><path d="M88.11 129.1c1.04 3.3 2.17 6.61 1.75 10.14-.29 2.45-1.21 3.05-3.58 2.62-.4-.07-.8-.12-1.11-.17-.49.8-1.17 1.02-1.9 1.06-1.24.07-2.62-.35-3.53.7.06.08.11.15.17.22l-.4.29c-.21-.29-.42-.58-.64-.86.61-.33 1.23-.66 1.85-.98.21-.1.43-.17.65-.25l-.12-.52c-2.7.51-5.39 1.01-8.08 1.54-.39.07-.74.45-1.12.46-.64.02-1.28-.04-1.92-.09l.03-.46c2.31-.58 4.41-1.24 6.56-1.6 2.16-.37 4.36-.44 6.67-.64-1.27-.56-2.85-.76-3.32-1.58-.17-.31-.25-.67-.27-1.07l.77-.03c0 .41.68 1.22 1.04 1.23 1.33.04 2.51.05 3.19 1.49.11.23.85.28 1.28.23 1.46-.19 2.14-1.17 2.37-2.38-1.01-.73-2-1.45-3.01-2.18l.44-.61c.9.66 1.71 1.22 2.38 1.68.2-.11.39-.23.59-.34-.49-2.75-.99-5.51-1.49-8.29.26.04.38.02.45.07.12.09.27.2.3.32m1.69-26.5-.44.77c-.07-.1-.15-.2-.22-.29-.16-.2-.33-.39-.51-.55.11-.25.21-.49.29-.73.34.23.63.5.88.8m-.45.78c.12.17.24.35.35.54-.63 1.08-1.36 1.87-1.93 2.4-.03 0-.06-.02-.09-.04z"/><path d="m89.35 103.38-1.67 2.9c-.42-.17-.85-.34-1.27-.5.61-.61 1.35-1.49 1.95-2.66q.15-.3.27-.57c.18.17.35.35.51.55.07.1.15.2.22.29Z" class="cls-6"/><path d="m88.59 101.6.72-1.24c-.08.42-.2.91-.39 1.45a9 9 0 0 0-.32-.21Zm.17 5.11s.07.02.1.04c-.1.06-.2.11-.3.16z"/><path d="M88.91 101.8c-.08.24-.17.48-.29.73-.12-.12-.26-.23-.39-.32l.35-.61c.11.07.22.13.32.21Z"/><path d="m88.59 101.6-.35.61c-.81-.6-1.78-.83-2.87-.54-1.46.4-1.81 1.74-2.12 2.83 1 .4 1.99.79 2.97 1.19l-.31.54-.02.08q-1.53-.465-3.21-.45c-.39 0-1.12.6-1.11.89.05 1.24.33 2.48.53 3.71h-.59c-.97-1.82-1.3-1.9-3.46-1.12-.57.21-1.11.52-1.69.7-1.69.52-3.38 1.04-5.09 1.48-1.22.32-2.54.39-3.7.84-.59.23-1.25 1.01-1.33 1.62v.17l-.91.1c-.17-1.21.44-2.11 1.92-2.73.7-.29 1.46-.42 2.2-.61.68-.18 1.36-.34 1.8-.46-.18-1.83-.54-3.52-.46-5.19.06-1.1.59-2.29 1.22-3.22.14-.2.28-.38.43-.55.19.55.41 1.03.63 1.45l-.3.63c.23.02.46.04.7.05.07.12.15.23.22.33l-.09-.32c.35.03.7.05 1.05.08.04.13.09.25.13.36v-.35c.43.03.87.07 1.31.1.09.29.17.55.26.78l-.02-.76 3.45.27c-.77-2.05-2.03-3.27-3.56-3.41l-.02-.73c1.26.13 2.49.84 3.36 2.12.67.98 1.02 2.19 1.52 3.31 1.01-2.61 2.47-5.11 5.86-4.4.64.13 1.18.34 1.65.61Zm-8.16 4.51c-1.04-1.35-2.48-1.27-3.8-1.46-1-.14-4 1.27-3.86 2.27.12.79 0 1.97 3.2 1.19 1.45-.57 2.85-1.27 4.45-1.99Z"/><path d="M88.63 102.53q-.12.285-.27.57a10.2 10.2 0 0 1-1.95 2.66l-.19-.07 2.01-3.49c.13.1.27.2.39.32Z"/><path d="m88.24 102.21-2.01 3.49c-.98-.39-1.97-.78-2.97-1.19.31-1.1.66-2.43 2.12-2.83 1.08-.29 2.05-.07 2.87.54Z" class="cls-6"/><path d="M87.68 106.27s.06.03.09.04c-.08.07-.15.14-.22.2l.14-.24Zm-.56 17.27c.09.96.22 1.65-.03 2.63a4.9 4.9 0 0 1-.8 1.73c-.56.74-2.73 2.14-3.04 2.3l-1.68-.23c-1.19-.02-6.95-4.36-8.49-5.63-.23-.25-.36-.37-.38-.35 0 0 .02.04.08.1l-.97.21c-.57-1.12-1.86-2-2.93-2.83-1.02-.79-2.29-1.14-2.12-2.94.09-.97-.6-2.05-1.05-3.02-.21-.45-.34-.87-.4-1.26l.91-.1c.07.48.64 1.12 1.11 1.43.79.52 1.73.85 2.64 1.17 3.89 1.35 7.8 2.65 11.7 3.99.67.23 2.18.18 2.82-.12 1.36-.62 1.8-1.66 2.27-1.48.5.19.06 1.44.34 4.41Zm-.89-17.84.19.07c-.18.18-.34.34-.5.47zm-.35 29.96-.44.61c-1.21-.88-2.45-1.77-3.78-2.73-.41 1.52-.88 2.89-1.09 4.29v.05l-.77.03c-.05-.86.15-1.87.15-2.83-.64-.29-1.37-.61-2.24-1-.24 1.78-.41 3.02-.63 3.88l-.61-.06c.08-.27.13-.59.16-.97l.57-6.57.45.03c-.05-.08-.08-.22-.16-.25-.17-.06-.34-.12-.51-.19l.77-.96c1.7 1.57 3.84 3.41 6.42 5.39.61.46 1.18.89 1.72 1.28Z"/><path d="m85.48 144.31.32 1.14c-.44.24-.88.51-1.34.74-.96.48-1.75.5-2.08-1.03 1.1-.3 2.07-.57 3.1-.85m-2.22-1.55.08 1.05c-.16.04-.34.09-.54.14-.99.26-2.03.71-2.9-.28-.06-.07-.11-.14-.17-.22.91-1.05 2.29-.62 3.53-.7Zm-3.19-3.79c.46.83 2.05 1.02 3.32 1.58-2.3.21-4.51.28-6.67.64-2.15.36-4.25 1.02-6.56 1.6.52-1.41 1.66-1.07 2.49-1.32.86-.25 1.9-.31.92-1.64 2.32.07 3.02.09 3.51-1.88.22-.86.39-2.1.63-3.88.87.39 1.6.71 2.24 1 0 .96-.2 1.97-.15 2.83.02.4.1.76.27 1.07" class="cls-12"/><path d="M76.63 104.65c1.32.19 2.76.11 3.8 1.46-1.61.73-3 1.42-4.45 1.99-3.21.78-3.09-.39-3.2-1.19-.15-1 2.86-2.41 3.86-2.27Z" class="cls-4"/><path d="M79.78 104.11c-1.15-.09-2.3-.17-3.45-.27l-.11-3.15c1.53.15 2.79 1.37 3.56 3.41Z" class="cls-6"/><path d="m77.74 128.99-.77.96c-2.49-1-4-2.86-5.05-5.43-.03-.08-.07-.15-.1-.23l.97-.21c.07.06.17.15.29.25.67.7 2.21 2.39 4.66 4.66m-1.28 8.9.61.06c-.49 1.96-1.19 1.94-3.51 1.88.98 1.33-.06 1.39-.92 1.64-.83.25-1.97-.08-2.49 1.32l-.03.46c-.2-.02-.4-.04-.6-.05.1-.78.19-1.56.3-2.44-.12-.18-.79-.9-.67-1.07.39-.56 1.05-1.26 1.63-1.29 1.03-.06 2.09.32 3.13.53 1.52.31 2.24.06 2.54-1.03Zm-.14-34.05.02.76a9 9 0 0 1-.26-.78c.08 0 .16.01.24.02"/><path d="m76.22 100.69.11 3.15c-.08 0-.16-.01-.24-.02-.24-.81-.45-1.88-.43-3.14.19-.01.38-.01.56 0Z"/><path d="m76.19 99.96.02.73a2.6 2.6 0 0 0-.56 0c0-.26.02-.51.04-.75.17 0 .33 0 .49.02Z"/><path d="m76.12 97.81.07 2.15c-.17-.02-.33-.02-.49-.02.07-.85.25-1.57.42-2.13"/><path d="M76.09 103.82c-.44-.03-.88-.07-1.32-.1l-.09-2.79c.27-.13.59-.22.98-.25-.02 1.25.19 2.32.43 3.14" class="cls-6"/><path d="M75.7 99.94c-.02.24-.04.49-.04.75-.39.03-.71.12-.98.25l-.03-.85c.34-.1.7-.15 1.05-.15m-.93 3.78v.35q-.045-.165-.12-.36h.12Z"/><path d="m74.68 100.94.09 2.79h-.12c-.21-.62-.43-1.44-.51-2.41.16-.15.34-.27.54-.37Z"/><path d="m74.65 100.09.03.85c-.2.1-.38.22-.54.37-.03-.32-.05-.66-.05-1.02.18-.08.37-.15.56-.2"/><path d="m74.55 97.28.1 2.81c-.19.05-.37.12-.56.2v-.12c.02-1.18.24-2.16.46-2.88Z"/><path d="M74.65 103.72c-.35-.03-.7-.05-1.05-.08l-.31-1.13c.22-.45.48-.88.85-1.2.09.98.3 1.8.51 2.41" class="cls-6"/><path d="M74.09 100.28c0 .36.01.69.05 1.02-.37.32-.62.75-.85 1.2l-.4-1.45c.37-.33.78-.59 1.2-.77m-.49 3.35.09.32c-.07-.1-.14-.21-.22-.33h.13Z"/><path d="m73.29 102.5.31 1.13h-.13c-.13-.2-.26-.43-.39-.68.07-.15.14-.3.21-.44Z"/><path d="M73.47 103.62c-.23-.02-.46-.04-.7-.05q.15-.3.3-.63c.13.25.27.48.39.68Z" class="cls-6"/><path d="m72.89 101.05.4 1.45c-.07.15-.15.29-.21.44-.22-.42-.44-.9-.63-1.45.14-.16.29-.31.44-.44"/><path d="m71.88 97.4 1 3.65c-.15.13-.3.28-.44.44-.13-.37-.24-.76-.34-1.18-.25-1.15-.27-2.16-.22-2.91m1.21 26.93c-.13-.11-.23-.2-.29-.25-.06-.06-.09-.09-.08-.1.02-.02.15.1.38.35Z"/><path d="M74.57 123.26c-1.46-.09-3.62-.24-6.24-.51-7.48-.76-11.26-1.17-13.5-2.63-4.48-2.91-5.82-8.11-6.48-10.67-.82-3.19-1.87-7.23.4-10.83 2.35-3.73 6.71-4.53 8.08-4.78 2.08-.38 5.93-1.09 8.56 1.44 2.53 2.42 2.39 6.34 1.52 8.82-1.26 3.57-4.96 6.69-8.05 6.09-.91-.18-1.51-.63-2.55-1.42-1.31-.99-4.02-3.05-3.86-5.97.12-2.11 1.66-3.46 1.88-3.65.25-.21 2.42-1.99 4.56-1.09 1.24.52 1.78 1.65 1.98 2.06.5 1.04 1.14 3.35-.19 4.45-1.42 1.18-4.15.22-4.28-.55-.06-.38.47-.9 1.01-1.01.79-.15 1.28.67 1.76.45.5-.23.42-1.35.4-1.76-.04-.65-.11-1.72-.99-2.44s-1.98-.59-2.25-.55c-1.93.3-2.79 2.42-2.94 2.8-.1.27-.58 1.58-.14 3.12.77 2.77 4.08 4.84 7.04 4.37 1.7-.27 2.82-1.31 3.51-1.94.57-.53 2.31-2.14 2.62-4.82.05-.43.38-3.75-1.88-5.75-1.99-1.76-4.7-1.35-7.18-.98-2.15.32-4.67.7-6.49 2.72-2.14 2.37-1.97 5.51-1.82 8.46.11 2.18.3 5.77 2.78 8.84 2.01 2.49 4.53 3.4 7.32 4.36 7.96 2.76 15.4 1.31 15.64 2.8.02.11 0 .29-.21.55Z" class="cls-5"/><path d="M77.02 106.22c.13.14.18 1.1.25 1.47.07.39-.22.37-.29.55-.25.68-1.95.82-2.17.39-.09-.17-.17-.35-.02-.96.15-.62.47-1.24.65-1.45.3-.34 1.23-.38 1.57 0Z" class="cls-1"/><path d="M60.38 57.94c.92-1.35 1.08-3.1.5-4.6.08-.56-.25-.98-.67-1.16-.52-.47-1.57-.45-1.7.4-.07.43-.11.86-.14 1.29-.95 1.02-1.33 2.49-.89 3.87.19.59.75.82 1.25.68.44.29 1.18.17 1.52-.29.03-.04.05-.08.08-.12.02-.02.04-.05.05-.07" class="cls-7"/><path d="M49.1 55.71c-.36-.58-1.08-.64-1.58-.2-1.15.99-1.45 2.73-1.38 4.18.04.8.43 1.56 1.26 1.76.8.19 1.44-.3 1.71-1.03.01-.03.02-.07.04-.1.87-1.4.83-3.22-.05-4.62Z" class="cls-5"/><path d="M66.21 66.6c.5-.9.51-1.99.1-2.91.76-.92-.57-2.22-1.45-1.39-.44-.04-.87.22-1.06.72-.12.33-.24.68-.33 1.03-.78.64-.52 2.04 0 3.03.17.44.45.85.86 1.21.57.5 1.46.31 1.68-.44.06-.19.1-.42.13-.67.09-.19.11-.39.06-.57Z" class="cls-6"/><path d="M70.26 49.37c-.11-.13-.24-.25-.39-.34-.3-.57-1.03-.88-1.53-.25-.07.09-.13.18-.2.27a1.2 1.2 0 0 0-.6.65c-.02.05-.04.1-.06.16-.16.3-.28.64-.38.96-.4 1.31-.81 3.33.61 4.2 1.18.72 2.76-.02 2.82-1.41a.96.96 0 0 0-.17-.61c.37-1.2.69-2.65-.12-3.63Z" class="cls-11"/><path d="M49.37 45.09c-.59.2-1.07.83-1.31 1.48-.56.78-.42 1.84.22 2.53.35.38.79.38 1.13.19.4.04.79-.07 1.12-.29.29-.08.56-.25.76-.51.96-1.24-.18-3.97-1.92-3.39Z" class="cls-3"/><path d="M42.12 63.56c-.06-.09-.13-.17-.19-.24.14-1.02-1.49-1.42-1.96-.41-.41.2-.69.59-.94 1-.42.7-.73 1.56-.61 2.34-.06.46-.06.95.17 1.34.49.82 1.41.82 2.09.39.32-.05.62-.18.88-.39.03-.02.05-.04.08-.06.11-.1.2-.21.29-.34.14-.2.19-.4.18-.58.37-.98.59-2.18.02-3.05Z" class="cls-2"/><path d="M38 56.89c-.15-.47-.59-.83-1.07-.68-.31.02-.61.17-.77.49-.03.06-.06.12-.08.19-.56.66-.8 1.5-.73 2.34-.1.6-.13 1.21-.1 1.83.06 1.02 1.31 1.35 1.88.51.21-.32.39-.64.53-.98.8-1.08.95-2.48.34-3.7" class="cls-8"/></g></svg>