<svg xmlns="http://www.w3.org/2000/svg" id="Layer_2" data-name="Layer 2" viewBox="0 0 191.52 247.15"><defs><filter id="drop-shadow-1" width="191.52" height="243.84" x="0" y="3.31" filterUnits="userSpaceOnUse"><feOffset dx="7" dy="7"/><feGaussianBlur result="blur" stdDeviation="5"/><feFlood flood-color="#231f20" flood-opacity=".75"/><feComposite in2="blur" operator="in"/><feComposite in="SourceGraphic"/></filter><style>.cls-1,.cls-4,.cls-6{stroke:#231f20;stroke-miterlimit:10}.cls-1,.cls-4{fill:none}.cls-4{stroke-width:.5px}.cls-6{fill:#ed1c24}.cls-9{fill:#231f20}.cls-10{fill:#6f7dbd}.cls-12{fill:#fff}</style></defs><g id="_レイヤー_1" data-name="レイヤー 1"><path d="M8.11 11.44h161.37v213.57H8.11z" style="fill:#fff;filter:url(#drop-shadow-1)"/><path d="M34.86 54.9c3.59-3.65 10.23-4.85 13.88-2.22 3.81 2.76 3.76 9.31 4.63 9.2.88-.11-.67-6.63 2.43-9.2 2.48-2.05 7.37-1.11 10.38 1.49 3.14 2.71 3.5 6.59 3.56 7.48.23.02 4.01.4 5.7 3.81.17.34 1.77 3.7-.24 6.58-1.41 2.02-4.01 2.96-6.53 2.35.43.24 3.34 1.98 3.56 4.86.26 3.49-3.61 6.2-6.74 6.81-3.97.77-6.94-1.8-7.14-1.97-2.8-2.5-2.88-5.93-2.88-6.46-.82 1.28-2.61 3.62-5.58 4.57-6.55 2.09-12.6-4.55-13.24-5.29-5.04-5.71-7.26-16.44-1.78-22.02Zm57.56 6.43c-4.2.21-7.93-2.36-9.08-6.06-1.25-4.05 1.09-7.84 3.45-9.76 2.97-2.41 7.16-2.83 10.78-1.08.08-.66.63-4.88 4.27-7.26.83-.54 4.98-3.05 8.19-.73 2.91 2.1 2.51 6.33 2.49 6.52.8.13 4.33.82 6.41 3.97 2.92 4.44.33 9.71 0 10.39-2.14 4.36-7 7.03-12.46 7.04-.03 3.27-1.97 6.17-4.83 7.24-3.64 1.36-7.7-.64-9.23-3.9-1.36-2.92-.22-5.82 0-6.35Zm16.81 12.73c.84-3.16 3.72-3.56 5.57-2.56 2.02 1.09 3.01 3.95 3.28 4.79 1.75-3.49 4.17-4.7 5.78-3.29.32.28 1 1 1.49 2.82 3.34-1.06 5.87.67 6.22 2.97.33 2.18-1.26 5.1-2.92 6.2-2.4 1.59-4.59-.87-4.8-1.12-1.56 2.3-3.68 2.91-5.38 1.57-1.61-1.27-2.23-3.82-2.38-4.48-1.98 2.25-4.4 2.04-5.82-.2-1.01-1.6-1.65-4.45-1.06-6.68Z" style="fill:#00bfe3"/><text class="cls-9" transform="translate(19.94 182.4)"><tspan style="font-family:UtopiaStd-Regular,&quot;Utopia Std&quot;;font-size:20.05px"><tspan x="0" y="0">Let’s Go English</tspan></tspan><tspan style="font-family:Osaka,Osaka;font-size:12.69px;letter-spacing:-.07em"><tspan x="29.16" y="16.26">英会話スクール</tspan></tspan></text><path d="M16.67 0h11.56v22.28H16.67z" style="fill:#726658"/><path d="M105.86 134.12c.02.11-.52.17-.87.68-.21-.25-.43-.49-.64-.73.99-.02 1.49-.05 1.51.05m-.36 7.55c.16.05.19.66 0 1.17-.03.07-.06.14-.1.21-.05-.11-.13-.28-.28-.45-.14-.15-.28-.25-.39-.31.16-.12.27-.21.27-.21.32-.28.4-.44.49-.42Z" class="cls-9"/><path d="M105.12 142.61c.15.17.24.34.28.45-.26.5-.7.78-.89.89-.93.53-1.74.14-3.71-.11-1.8-.23-2.71-.35-3.83-.04-.2.06-.06.03-2.84 1.52-.98.52-1.65.88-2.27 1.63-.43.52-.6.96-.68 1.21-.2.64-.14 1.18-.11 1.44.5 4.44 1.14 8.3 1.14 8.3.11.63.18 1.14.23 1.44l-10.24-.66c.25-2.35.33-5.19 0-8.38-.18-1.77-.47-3.4-.81-4.85-.27-.02-.69-.07-1.17-.22-1.46-.45-1.63-1.21-2.89-1.8-1.06-.5-1 .01-3.29-.62-.48-.13-1.15-.34-2.17-.53-.97-.18-1.31-.17-1.43-.17-.93.03-1.06.34-1.84.31-.33-.01-1.1-.03-1.63-.58-.15-.15-.25-.31-.34-.52 0-.05-.04-.34.16-.59.19-.24.45-.29.51-.3.22.09.47.16.74.17.65.03 1.19-.3 2.1-.84.41-.25.73-.48.95-.65-.23-.18-.57-.44-.96-.77-.87-.75-1.3-1.13-1.67-1.67-.39-.58-.87-1.56-1.01-2.29-.02-.07-.03-.18-.09-.31 0-.05.05-.39.36-.59.24-.16.49-.13.56-.13l.02-.04s.06.04.09.05c.76.48.92.88 1.51 1.44.48.46.94.67 1.57.95.67.3 1.37.6 1.92.28a.95.95 0 0 0 .31-.27c-.09-.12-.23-.3-.38-.52-.24-.35-.39-.64-.47-.78-.8-1.49-.75-1.68-1.09-1.94-.03-.03-.07-.05-.1-.07a.97.97 0 0 0 .33-.54c.02-.12.01-.22 0-.3h.23c.28 0 1.23 0 2.22.58.87.51 1.51 1.6 2.74 3.77.69 1.21 1.12 2.1 2.06 2.34.36.1.69.06.91.02-.31-3.97-.61-7.94-.92-11.91 3.98 1.24 7.96 2.47 11.94 3.71-.08.32-.19.77-.3 1.32-.27 1.36-.35 2.41-.43 3.53-.09 1.34-.18 2.98-.24 4.87.2-.26.53-.64 1.02-.96.67-.45 1.4-.65 2.23-.87.46-.13.97-.24 1.62-.59.16-.09.26-.14.4-.24.62-.43.91-.89 1.43-1.6.05-.07.11-.14.16-.21.12-.05.34-.14.62-.11.55.04.87.46.92.54.18.94.19 1.23.12 1.54-.07.33-.18.56-.31.82-.19.38-.54.95-1.17 1.52.32-.22.81-.58 1.34-1.09 1.1-1.07 1.07-1.53 2.16-2.69.7-.75 1.63-1.72 2.75-1.79h.89c.21.25.43.49.64.73-.13.19-.13.29-.25.54-.25.53-.6.82-.76.99-.85.88-.06 2.11-.91 3.18-.66.84-1.74.83-1.82 1.59-.02.22.05.42.07.49.21.57.81.8 1.14.92.16.06 1.18.43 1.93 0 .12-.07.24-.15.33-.22.1.06.25.15.39.31Z" style="fill:#3a9984"/><path d="M98.59 135.75c-.05-.07-.37-.49-.92-.54-.28-.02-.5.06-.62.11.58-.79.89-1.17 1.09-1.12.06.02.16.07.43 1.4.01.05.02.1.03.14Zm-26.6-4.16c.01.08.02.18 0 .3-.05.3-.25.48-.33.54-.55-.36-1.14-.23-1.15-.38 0-.16.69-.41 1.47-.46Zm-3.69 1.7-.02.04c-.07 0-.32-.03-.56.13-.31.2-.35.54-.36.59-.02-.04-.04-.09-.07-.14-.28-.51-.79-.59-.76-.74.03-.16.6-.24 1.11-.13.28.06.5.17.65.26Zm-1.01 7.12c-.06 0-.32.06-.51.3-.2.26-.17.54-.16.59-.08-.19-.16-.42-.26-.71-.12-.35-.18-.53-.1-.61.14-.14.49.2 1.03.43" class="cls-9"/><path d="M105.41 143.06c-.26.5-.7.78-.89.89-.93.53-1.74.14-3.71-.11-1.8-.23-2.71-.35-3.83-.04-.2.06-.06.03-2.84 1.52-.98.52-1.65.88-2.27 1.63-.43.52-.6.96-.68 1.21-.2.64-.14 1.18-.11 1.44.5 4.44 1.14 8.3 1.14 8.3.11.63.18 1.14.23 1.44l-10.24-.66c.25-2.35.33-5.19 0-8.38-.18-1.77-.47-3.4-.81-4.85-.27-.02-.69-.07-1.17-.22-1.46-.45-1.63-1.21-2.89-1.8-1.06-.5-1 .01-3.29-.62-.48-.13-1.15-.34-2.17-.53-.97-.18-1.31-.17-1.43-.17-.93.03-1.06.34-1.84.31-.33-.01-1.1-.03-1.63-.58-.15-.15-.25-.31-.34-.52-.08-.19-.16-.42-.26-.71-.12-.35-.18-.53-.1-.61.14-.14.49.2 1.03.43.22.09.47.16.74.17.65.03 1.19-.3 2.1-.84.41-.25.73-.48.95-.65-.23-.18-.57-.44-.96-.77-.87-.75-1.3-1.13-1.67-1.67-.39-.58-.87-1.56-1.01-2.29-.02-.07-.03-.18-.09-.31-.02-.04-.04-.09-.07-.14-.28-.51-.79-.59-.76-.74.03-.16.6-.24 1.11-.13.28.06.5.17.65.26.03.02.06.04.09.05.76.48.92.88 1.51 1.44.48.46.94.67 1.57.95.67.3 1.37.6 1.92.28a.95.95 0 0 0 .31-.27c-.09-.12-.23-.3-.38-.52-.24-.35-.39-.64-.47-.78-.8-1.49-.75-1.68-1.09-1.94-.03-.03-.07-.05-.1-.07-.55-.36-1.14-.23-1.15-.38 0-.16.69-.41 1.47-.46h.23c.28 0 1.23 0 2.22.58.87.51 1.51 1.6 2.74 3.77.69 1.21 1.12 2.1 2.06 2.34.36.1.69.06.91.02-.31-3.97-.61-7.94-.92-11.91 3.98 1.24 7.96 2.47 11.94 3.71-.08.32-.19.77-.3 1.32-.27 1.36-.35 2.41-.43 3.53-.09 1.34-.18 2.98-.24 4.87.2-.26.53-.64 1.02-.96.67-.45 1.4-.65 2.23-.87.46-.13.97-.24 1.62-.59.16-.09.26-.14.4-.24.62-.43.91-.89 1.43-1.6.05-.07.11-.14.16-.21.58-.79.89-1.17 1.09-1.12.06.02.16.07.43 1.4.01.05.02.1.03.14.18.94.19 1.23.12 1.54-.07.33-.18.56-.31.82-.19.38-.54.95-1.17 1.52.32-.22.81-.58 1.34-1.09 1.1-1.07 1.07-1.53 2.16-2.69.7-.75 1.63-1.72 2.75-1.79h.89c.99-.02 1.49-.05 1.51.05.02.11-.52.17-.87.68-.13.19-.13.29-.25.54-.25.53-.6.82-.76.99-.85.88-.06 2.11-.91 3.18-.66.84-1.74.83-1.82 1.59-.02.22.05.42.07.49.21.57.81.8 1.14.92.16.06 1.18.43 1.93 0 .12-.07.24-.15.33-.22.16-.12.27-.21.27-.21.32-.28.4-.44.49-.42.16.05.19.66 0 1.17-.03.07-.06.14-.1.21Z" class="cls-1"/><path d="M98.58 135.75c-.05-.07-.37-.49-.92-.54-.28-.02-.5.06-.62.11m7.31-1.25c.21.25.43.49.64.73m.42 8.26c-.05-.12-.13-.28-.28-.45-.14-.15-.28-.25-.39-.31m-37.45-1.89c-.06 0-.32.06-.51.3-.2.26-.17.54-.16.59m1.66-7.97c-.07 0-.32-.03-.56.13-.31.2-.35.54-.36.59m4.3-1.62a.97.97 0 0 0 .33-.54c.02-.12.01-.22 0-.3" class="cls-1"/><path d="M111.91 107.81c.45 1.53.11 2.94 0 3.33-.28 1.02-.75 1.71-1.29 2.44l-1.71-9.34c1.2.72 2.5 1.85 3 3.56Z" class="cls-6"/><path d="M108.91 104.25c.57 3.11 1.14 6.22 1.71 9.34-.06.08-.11.16-.17.24-.52.7-1.31 1.76-2.63 2.62-1.71 1.13-3.37 1.31-5.25 1.52-1.1.12-2.7.2-4.65-.07.53.18 1.3.46 2.22.83.97.39 2.31.93 3.18 1.41.32.18 1.92 1.08 3.11 2.72l-.93 8.45c-.9.4-2.15.63-3.99.95-2.98.53-4.55.81-6.57.25-1.87-.51-3.2-1.49-3.99-2.17l-11.57-3.48c-.43.32-1.07.73-1.92 1.06-3.18 1.23-6.15.06-6.87-.26-.09-.04-.19-.08-.3-.13-1.45-3.22-2.89-6.44-4.33-9.66.54-1.34 1.45-2.23 2.62-3.39.81-.8 1.75-1.71 3.28-2.32 1.18-.47 2.23-.59 2.93-.61-1.21-.72-2.95-1.91-4.65-3.79-1.81-2.01-3.53-3.91-3.58-6.56l6.96-7.38c1.36-.14 2.47.03 2.88.1.67.1 2.78.5 4.7 2.02.8.63 1.09 1.09 3.13 3.18.88.91 1.63 1.64 2.12 2.12 0-.52.03-1.25.2-2.12.19-.97.81-3.93 3.48-6.21.46-.39 2.05-1.68 4.38-2.2l8.28 4.26c.13.55.16.98.17 1.12.14 2.44-1.28 4.34-2.37 5.81-.5.67-.97 1.17-1.31 1.52.42-.14 1-.32 1.72-.46.97-.18 3.23-.58 5.71.25.4.13 1.32.45 2.3 1.03Z" style="stroke:#231f20;stroke-miterlimit:10;fill:#f15a29"/><path d="M107.66 125.69c.09.5.54 3-.96 4.75-.32.37-.71.64-1.21.86l.93-8.45c.56.78 1.03 1.72 1.23 2.83Zm-4.96-30.71-8.28-4.26c.66-.15 1.37-.24 2.14-.22 1.04.02 2.64.04 4.09 1.16 1.29.99 1.83 2.36 2.05 3.33Zm-36.74 22.89c1.44 3.22 2.89 6.44 4.33 9.66-1.03-.46-2.88-1.43-3.99-3.6-.2-.39-1.37-2.77-.54-5.5.06-.19.12-.38.2-.55Zm7.56-24.04-6.96 7.38v-.26c.05-2.75 1.83-4.61 2.17-4.95 1.47-1.49 3.28-2.02 4.79-2.17Z" class="cls-6"/><path d="M85.93 124c-1.51-.06-4.5-.5-6.97-2.88-.26-.25-4.02-4-3.03-9.31 1.03-5.51 6.2-7.61 6.89-7.88.91-.35 4.27-1.51 8.03 0 .83.33 3.89 1.62 5.53 5.04 1.44 3 .92 5.82.61 7.01-.85 3.2-2.96 4.98-3.64 5.53-.71.58-3.44 2.66-7.42 2.5Z" style="stroke:#231f20;stroke-miterlimit:10;fill:#e8b020"/><path d="M94.83 109.83c.27 1.28-.71 2.23-.76 2.27-.89.83-2.31.9-3.29.23-.11-.08-1.06-.75-1.1-1.93-.04-1.11.74-2.07 1.7-2.43 1.22-.44 2.27.26 2.39.34.2.14.87.62 1.06 1.52m-1.36.91c.19-.63-.19-1.16-.23-1.21-.36-.49-1.04-.74-1.63-.52-.6.22-.81.83-.87 1.03-.07.21-.21.64 0 1.08.25.53.81.67.87.68.47.11.85-.1 1.06-.21.22-.12.64-.35.8-.85" class="cls-10"/><path d="M93.24 109.53c.04.05.42.59.23 1.21-.16.5-.58.73-.8.85-.21.12-.59.32-1.06.21-.06-.02-.62-.15-.87-.68-.21-.44-.07-.87 0-1.08.06-.19.27-.81.87-1.03.58-.22 1.27.03 1.63.52m-.64 1.75c.28-.34.15-.76.13-.8-.03-.07-.14-.39-.46-.52-.39-.16-.76.07-.83.12-.08.05-.26.17-.34.39-.12.31 0 .66.22.87.26.26.58.25.63.25.06 0 .41-.02.64-.31Z" class="cls-12"/><path d="M92.74 110.48s.14.46-.13.8c-.23.29-.58.31-.64.31-.05 0-.38 0-.63-.25-.21-.21-.33-.56-.22-.87.08-.22.26-.33.34-.39.07-.05.44-.28.83-.12.32.13.43.44.46.52Z" class="cls-9"/><path d="M82.33 107.79c.98.53 1.44 1.87 1.06 2.99-.3.9-1.14 1.68-2.24 1.74-1.01.05-1.92-.52-2.35-1.36-.04-.08-.57-1.17 0-2.23.41-.76 1.12-1.03 1.4-1.14.27-.1 1.24-.47 2.12 0Zm-.08 3.03c.08-.14.29-.53.15-.95-.19-.59-.93-.75-1.14-.8-.26-.06-.72-.16-1.1.11-.48.34-.59 1.14-.27 1.7.26.46.81.77 1.36.68.63-.1.93-.66.99-.76Z" class="cls-10"/><path d="M82.41 109.87c.13.41-.07.8-.15.95-.05.1-.35.66-.99.76-.56.09-1.1-.22-1.36-.68-.32-.57-.21-1.36.27-1.7.37-.27.84-.17 1.1-.11.21.04.94.2 1.14.8Zm-.42.83c.11-.4-.16-.71-.19-.74a.81.81 0 0 0-.81-.25c-.31.09-.51.37-.55.66-.04.31.1.61.37.78.37.23.77.04.79.03.05-.03.31-.17.4-.48Z" class="cls-12"/><path d="M81.8 109.97s.3.34.19.74c-.09.32-.35.46-.4.48-.02.01-.41.2-.79-.03a.79.79 0 0 1-.37-.78c.04-.3.24-.57.55-.66.32-.1.64.05.81.25Z" class="cls-9"/><path d="M81.15 112.52c-1.01.05-1.92-.52-2.35-1.36-.04-.08-.57-1.17 0-2.23.41-.76 1.12-1.03 1.4-1.14.27-.1 1.24-.47 2.12 0 .98.53 1.44 1.87 1.06 2.99-.3.9-1.14 1.68-2.24 1.74Zm12.92-.41s1.02-.99.76-2.27c-.19-.9-.86-1.38-1.06-1.52-.12-.08-1.17-.78-2.39-.34-.97.35-1.74 1.32-1.7 2.43.04 1.18.99 1.85 1.1 1.93.98.67 2.41.6 3.29-.23Z" class="cls-4"/><path d="M82.25 110.82c.08-.14.29-.53.15-.95-.19-.59-.93-.75-1.14-.8-.26-.06-.72-.16-1.1.11-.48.34-.59 1.14-.27 1.7.26.46.81.77 1.36.68.63-.1.93-.66.99-.76Zm10.42.77c.22-.12.64-.35.8-.85.19-.63-.19-1.16-.23-1.21-.36-.49-1.04-.74-1.63-.52-.6.22-.81.83-.87 1.03-.07.21-.21.64 0 1.08.25.53.81.67.87.68.47.11.85-.1 1.06-.21Z" class="cls-4"/><path d="M81.99 110.7c.11-.4-.16-.71-.19-.74a.81.81 0 0 0-.81-.25c-.31.09-.51.37-.55.66-.04.31.1.61.37.78.37.23.77.04.79.03.05-.03.31-.17.4-.48Zm9.46-.62c-.08.05-.26.17-.34.39-.12.31 0 .66.22.87.26.26.58.25.63.25.06 0 .41-.02.64-.31.28-.34.15-.76.13-.8-.03-.07-.14-.39-.46-.52-.39-.16-.76.07-.83.12Z" class="cls-4"/><path d="M78.71 116.41c-.2.01-.37-.11-.43-.28-.05-.15 0-.31.1-.4.16-.16.45-.15.58 0 .14.16.11.48-.15.64.09.16.22.4.4.67.96 1.44 2.87 3.29 5.71 3.76 3.31.55 5.77-1.12 6.44-1.59 1.99-1.39 2.88-3.21 3.23-4.04-.01 0-.27-.09-.33-.33-.05-.23.11-.46.33-.53.16-.05.36 0 .48.13.16.18.15.46 0 .63-.14.16-.35.15-.38.15-.12.42-.32 1.03-.68 1.69-1.08 1.99-3.21 3.87-6.06 4.39-2.47.45-5.59-.09-7.25-1.97-.94-.96-1.47-1.86-1.47-1.86-.14-.24-.33-.59-.52-1.07Z" style="stroke:#231f20;stroke-miterlimit:10;stroke-width:.5px;fill:#ed1c24"/></g></svg>