<svg xmlns="http://www.w3.org/2000/svg" data-name="Layer 2" viewBox="0 0 200.98 104.45"><path fill="#fff" d="M20.947 50.003h5.888c5.6 0 10.136 1.737 11.777 8.301.676 2.607 1.738 9.75 2.703 13.9 1.351 5.889 4.923 7.916 10.522 7.916h7.625v-2.992c-7.046-.773-8.494-5.503-9.363-11.68-1.062-8.11-3.765-14.77-13.514-17.086v-.193c8.591-1.641 14.769-6.854 14.769-15.542 0-8.59-4.344-15.541-20.078-15.541H3.186v2.992c7.915.483 8.108.676 8.108 5.792v45.466c0 5.02-.193 5.212-8.109 5.792v2.992h25.87v-2.992c-7.818-.58-8.108-.773-8.108-5.792Zm0-25.002c0-3.86 0-4.537 5.888-4.537 6.66 0 14.19.966 14.19 13.032 0 9.46-4.44 13.128-13.32 13.128h-6.758Zm77.996 21.913c0-5.406-1.93-12.453-15.734-12.453-10.425 0-17.762 5.406-17.762 10.426 0 2.895 3.186 4.343 5.02 4.343 1.93 0 2.703-1.061 3.089-2.702 2.027-6.758 5.212-8.688 8.88-8.688 4.441 0 8.013 2.22 8.013 9.363v3.186c-2.317 2.413-11.005 4.73-18.148 6.95-6.564 2.027-8.495 6.757-8.495 11.1 0 6.855 4.537 12.84 13.128 12.84 5.6 0 10.522-3.476 13.418-5.31 1.158 3.572 2.8 5.31 5.985 5.31 3.475 0 7.433-1.159 9.653-2.607l-.386-2.8c-1.255.29-2.606.194-3.572 0-1.64-.385-3.089-2.026-3.089-7.722ZM90.45 67.282c0 7.24-5.406 8.977-8.881 8.977-5.502 0-8.302-3.861-8.302-9.074 0-4.344 1.93-6.564 6.854-8.495 3.668-1.351 8.301-3.089 10.329-4.344Zm38.61-41.412c0-5.116.29-5.212 8.108-5.792v-2.992H111.3v2.992c7.916.58 8.109.676 8.109 5.792v42.956c0 8.784-1.545 13.418-3.669 16.024-2.027 2.413-3.957 3.282-6.757 4.054l.483 2.317c3.572-.193 6.468-.58 10.04-2.22 8.204-3.765 9.556-11.294 9.556-20.658Zm71.914 54.25v-2.992c-5.212-.387-6.177-.676-7.818-5.406-4.924-13.418-14.19-39.964-19.306-55.022h-7.337c-6.178 17.665-12.838 37.067-19.402 54.153-1.834 4.923-2.703 5.985-8.398 6.275v2.992h20.078v-2.992l-4.73-.483c-2.8-.29-2.993-1.255-2.317-3.572 1.545-5.502 3.475-10.715 5.502-17.085h20.272c1.255 3.088 4.537 12.452 6.081 16.892.965 2.607.483 3.572-2.413 3.861l-4.151.387v2.992Zm-24.518-27.704h-17.955c2.8-8.977 6.082-18.534 8.784-26.353h.29c2.124 5.985 6.757 19.789 8.88 26.353" data-name="レイヤー 1"/></svg>