<?xml version="1.0" encoding="UTF-8"?>
<svg id="Layer_2" data-name="Layer 2" xmlns="http://www.w3.org/2000/svg" viewBox="0 0 353.69 34.21">
  <g id="_レイヤー_1" data-name="レイヤー 1">
    <path fill="#fff" d="M6.85937 16.377679999999998H8.78758C10.62096 16.377679999999998 12.10663 16.946659999999998 12.644 19.09614C12.865269999999999 19.94961 13.21298 22.28875 13.52908 23.647979999999997C13.97162 25.576189999999997 15.14119 26.24 16.97457 26.24H19.47176V25.260089999999998C17.16423 25.007209999999997 16.69008 23.45832 16.40559 21.43528C16.05788 18.78004 15.172799999999999 16.59895 11.98019 15.840309999999999V15.77709C14.793479999999999 15.239719999999998 16.81652 13.532779999999999 16.81652 10.687879999999998C16.81652 7.874589999999998 15.39407 5.5986699999999985 10.24164 5.5986699999999985H1.04313V6.578579999999999C3.63515 6.736629999999998 3.6983699999999997 6.799849999999999 3.6983699999999997 8.475179999999998V23.36349C3.6983699999999997 25.007209999999997 3.63515 25.070429999999998 1.04313 25.260089999999998V26.24H9.51461V25.260089999999998C6.9542 25.070429999999998 6.85937 25.007209999999997 6.85937 23.36349ZM6.85937 8.19069C6.85937 6.926289999999998 6.85937 6.7050199999999975 8.78758 6.7050199999999975C10.96867 6.7050199999999975 13.43425 7.02112 13.43425 10.972369999999998C13.43425 14.070149999999998 11.98019 15.271329999999999 9.07207 15.271329999999999H6.85937Z M32.40025 15.366159999999999C32.40025 13.595999999999998 31.76805 11.288469999999998 27.247819999999997 11.288469999999998C23.83394 11.288469999999998 21.43158 13.058629999999999 21.43158 14.70235C21.43158 15.650649999999999 22.474709999999998 16.1248 23.0753 16.1248C23.7075 16.1248 23.96038 15.77709 24.08682 15.239719999999998C24.75063 13.027019999999998 25.79376 12.39482 26.99494 12.39482C28.448999999999998 12.39482 29.61857 13.121849999999998 29.61857 15.460989999999999V16.50412C28.85993 17.29437 26.01503 18.05301 23.67589 18.78004C21.52641 19.443849999999998 20.894209999999998 20.992739999999998 20.894209999999998 22.41519C20.894209999999998 24.659499999999998 22.37988 26.61932 25.19317 26.61932C27.02655 26.61932 28.63866 25.48136 29.586959999999998 24.88077C29.966279999999998 26.05034 30.50365 26.61932 31.54678 26.61932C32.68474 26.61932 33.98075 26.24 34.70778 25.765849999999997L34.58134 24.849159999999998C34.17041 24.94399 33.727869999999996 24.91238 33.41177 24.849159999999998C32.8744 24.72272 32.40025 24.18535 32.40025 22.320359999999997ZM29.61857 22.03587C29.61857 24.406619999999997 27.84841 24.9756 26.710449999999998 24.9756C24.908679999999997 24.9756 23.99199 23.711199999999998 23.99199 22.00426C23.99199 20.581809999999997 24.62419 19.854779999999998 26.2363 19.22258C27.43748 18.78004 28.95476 18.211059999999996 29.61857 17.80013Z M47.415 7.084339999999997V11.983889999999999C46.593140000000005 11.572959999999998 45.5184 11.288469999999998 44.15917 11.288469999999998C41.75681 11.288469999999998 39.92343 12.078719999999999 38.69064 13.343119999999999C37.39463 14.670739999999999 36.60438 16.662169999999996 36.60438 19.254189999999998C36.60438 23.679589999999997 38.69064 26.61932 42.705110000000005 26.61932C44.285610000000005 26.61932 45.802890000000005 25.9239 47.415 24.659499999999998V26.24H52.53582V25.196869999999997C50.449560000000005 25.070429999999998 50.32312 25.007209999999997 50.32312 23.489929999999998V4.14461L50.10185 3.9865600000000008L45.2023 4.71359V5.567059999999998L46.498310000000004 5.725109999999997C47.22534 5.788329999999998 47.415 5.977989999999998 47.415 7.084339999999997ZM47.415 21.27723C47.415 21.90943 47.415 22.38358 47.19373 22.889339999999997C46.62475 24.37501 45.36035 24.94399 43.87468 24.94399C41.18783 24.94399 39.79699 22.351969999999998 39.79699 18.90648C39.79699 15.050059999999998 41.156220000000005 12.39482 44.09595 12.39482C45.48679 12.39482 46.62475 13.058629999999999 47.16212 14.2282C47.38339 14.733959999999998 47.415 15.176499999999999 47.415 15.96675Z M57.561809999999994 5.187739999999998C56.455459999999995 5.187739999999998 55.696819999999995 6.009599999999999 55.696819999999995 7.084339999999997C55.696819999999995 8.15908 56.455459999999995 8.91772 57.561809999999994 8.91772C58.66816 8.91772 59.39519 8.15908 59.39519 7.084339999999997C59.4268 6.009599999999999 58.66816 5.187739999999998 57.593419999999995 5.187739999999998ZM56.139359999999996 23.55315C56.139359999999996 25.038819999999998 56.044529999999995 25.13365 53.92666 25.260089999999998V26.24H61.22857V25.260089999999998C59.142309999999995 25.10204 59.01587 25.038819999999998 59.01587 23.55315V11.509739999999999L58.794599999999996 11.320079999999999L54.08471 12.11033V12.963799999999999L55.19106 13.090239999999998C55.9497 13.216679999999998 56.139359999999996 13.37473 56.139359999999996 14.449469999999998Z M74.78926 15.366159999999999C74.78926 13.595999999999998 74.15706 11.288469999999998 69.63683 11.288469999999998C66.22295 11.288469999999998 63.82059 13.058629999999999 63.82059 14.70235C63.82059 15.650649999999999 64.86372 16.1248 65.46431 16.1248C66.09651 16.1248 66.34939 15.77709 66.47583 15.239719999999998C67.13964 13.027019999999998 68.18277 12.39482 69.38395 12.39482C70.83801 12.39482 72.00758 13.121849999999998 72.00758 15.460989999999999V16.50412C71.24894 17.29437 68.40404000000001 18.05301 66.0649 18.78004C63.915420000000005 19.443849999999998 63.28322 20.992739999999998 63.28322 22.41519C63.28322 24.659499999999998 64.76889 26.61932 67.58218000000001 26.61932C69.41556 26.61932 71.02767 25.48136 71.97597 24.88077C72.35529 26.05034 72.89266 26.61932 73.93579 26.61932C75.07375 26.61932 76.36976 26.24 77.09679 25.765849999999997L76.97035 24.849159999999998C76.55942 24.94399 76.11688000000001 24.91238 75.80078 24.849159999999998C75.26341000000001 24.72272 74.78926 24.18535 74.78926 22.320359999999997ZM72.00758 22.03587C72.00758 24.406619999999997 70.23742 24.9756 69.09946000000001 24.9756C67.29769 24.9756 66.381 23.711199999999998 66.381 22.00426C66.381 20.581809999999997 67.0132 19.854779999999998 68.62531 19.22258C69.82649 18.78004 71.34377 18.211059999999996 72.00758 17.80013Z M93.18628000000001 16.02997C93.18628000000001 13.027019999999998 91.57417000000001 11.288469999999998 88.8241 11.288469999999998C86.64301 11.288469999999998 85.28378000000001 12.363209999999999 83.41879 13.532779999999999L83.00786000000001 11.320079999999999L78.58246000000001 12.078719999999999V12.932189999999999L79.62559 13.090239999999998C80.38423 13.18507 80.57389 13.37473 80.57389 14.449469999999998V23.55315C80.57389 25.038819999999998 80.47906 25.10204 78.36119000000001 25.260089999999998V26.24H85.66310000000001V25.260089999999998C83.60845 25.10204 83.4504 25.070429999999998 83.4504 23.55315V16.725389999999997C83.4504 15.998359999999998 83.48201 15.555819999999999 83.73489000000001 15.11328C84.33548 13.94371 85.66310000000001 12.995409999999998 87.21199000000001 12.995409999999998C89.20342000000001 12.995409999999998 90.30977000000001 14.101759999999999 90.30977000000001 16.662169999999996V23.55315C90.30977000000001 25.070429999999998 90.18333000000001 25.10204 88.09707 25.260089999999998V26.24H95.39898000000001V25.260089999999998C93.31272000000001 25.10204 93.18628000000001 25.038819999999998 93.18628000000001 23.521539999999998Z M105.45096000000001 12.995409999999998V11.667789999999998H101.68937000000001V7.937809999999999H100.77268000000001L98.90769 11.667789999999998H96.66338V12.995409999999998H98.78125V23.20544C98.78125 26.208389999999998 101.02556000000001 26.61932 102.1003 26.61932C103.61758 26.61932 104.75554000000001 25.987119999999997 105.76706 25.35492L105.51418000000001 24.53306C104.81876 24.849159999999998 104.34461 24.91238 103.61758 24.91238C102.60606 24.91238 101.68937000000001 24.21696 101.68937000000001 21.972649999999998V12.995409999999998Z M119.39097000000001 8.475179999999998C119.39097000000001 6.799849999999999 119.48580000000001 6.768239999999999 122.04621 6.578579999999999V5.5986699999999985H113.57473V6.578579999999999C116.16675000000001 6.768239999999999 116.22997000000001 6.799849999999999 116.22997000000001 8.475179999999998V22.541629999999998C116.22997000000001 25.418139999999998 115.72421000000001 26.935419999999997 115.02879 27.78889C114.36498 28.57914 113.73278 28.863629999999997 112.81609 29.116509999999998L112.97414 29.875149999999998C114.14371000000001 29.811929999999997 115.09201 29.685489999999998 116.26158000000001 29.14812C118.94843 27.915329999999997 119.39097000000001 25.449749999999998 119.39097000000001 22.38358Z M135.73334 15.366159999999999C135.73334 13.595999999999998 135.10114 11.288469999999998 130.58091 11.288469999999998C127.16703 11.288469999999998 124.76467 13.058629999999999 124.76467 14.70235C124.76467 15.650649999999999 125.8078 16.1248 126.40839 16.1248C127.04059 16.1248 127.29347 15.77709 127.41991 15.239719999999998C128.08372 13.027019999999998 129.12685 12.39482 130.32803 12.39482C131.78209 12.39482 132.95166 13.121849999999998 132.95166 15.460989999999999V16.50412C132.19302 17.29437 129.34812 18.05301 127.00898000000001 18.78004C124.8595 19.443849999999998 124.2273 20.992739999999998 124.2273 22.41519C124.2273 24.659499999999998 125.71297 26.61932 128.52626 26.61932C130.35964 26.61932 131.97175000000001 25.48136 132.92005 24.88077C133.29937 26.05034 133.83674 26.61932 134.87987 26.61932C136.01783 26.61932 137.31384 26.24 138.04087 25.765849999999997L137.91443 24.849159999999998C137.5035 24.94399 137.06096 24.91238 136.74486 24.849159999999998C136.20749 24.72272 135.73334 24.18535 135.73334 22.320359999999997ZM132.95166 22.03587C132.95166 24.406619999999997 131.1815 24.9756 130.04354 24.9756C128.24177 24.9756 127.32508 23.711199999999998 127.32508 22.00426C127.32508 20.581809999999997 127.95728 19.854779999999998 129.56939 19.22258C130.77057 18.78004 132.28785 18.211059999999996 132.95166 17.80013Z M141.2967 30.570569999999996C141.2967 32.087849999999996 141.13864999999998 32.11946 139.084 32.27751V33.257419999999996H146.86006V32.27751C144.36287 32.11946 144.20481999999998 32.087849999999996 144.20481999999998 30.570569999999996V25.987119999999997C144.80541 26.30322 146.19625 26.61932 147.52387 26.61932C151.53834 26.61932 155.01543999999998 24.75433 155.01543999999998 18.621989999999997C155.01543999999998 16.346069999999997 154.47807 11.288469999999998 149.23081 11.288469999999998C147.08132999999998 11.288469999999998 145.37439 12.710919999999998 144.20481999999998 13.46956L143.79389 11.320079999999999L139.24205 12.078719999999999V12.932189999999999L140.38001 13.090239999999998C141.10703999999998 13.18507 141.2967 13.343119999999999 141.2967 14.41786ZM144.20481999999998 16.725389999999997C144.20481999999998 15.998359999999998 144.29964999999999 15.58743 144.55253 15.050059999999998C145.24795 13.690829999999998 146.48074 12.995409999999998 148.06124 12.995409999999998C149.23081 12.995409999999998 151.82282999999998 13.722439999999999 151.82282999999998 18.84326C151.82282999999998 23.14222 150.49521 25.51297 147.55548 25.51297C146.0382 25.51297 144.83702 24.78594 144.39448 23.42671C144.20481999999998 22.889339999999997 144.20481999999998 22.28875 144.20481999999998 21.62494Z M169.4296 15.366159999999999C169.4296 13.595999999999998 168.79739999999998 11.288469999999998 164.27716999999998 11.288469999999998C160.86328999999998 11.288469999999998 158.46093 13.058629999999999 158.46093 14.70235C158.46093 15.650649999999999 159.50405999999998 16.1248 160.10465 16.1248C160.73684999999998 16.1248 160.98972999999998 15.77709 161.11616999999998 15.239719999999998C161.77998 13.027019999999998 162.82310999999999 12.39482 164.02428999999998 12.39482C165.47834999999998 12.39482 166.64791999999997 13.121849999999998 166.64791999999997 15.460989999999999V16.50412C165.88927999999999 17.29437 163.04438 18.05301 160.70523999999997 18.78004C158.55576 19.443849999999998 157.92355999999998 20.992739999999998 157.92355999999998 22.41519C157.92355999999998 24.659499999999998 159.40922999999998 26.61932 162.22251999999997 26.61932C164.05589999999998 26.61932 165.66800999999998 25.48136 166.61630999999997 24.88077C166.99562999999998 26.05034 167.533 26.61932 168.57612999999998 26.61932C169.71408999999997 26.61932 171.0101 26.24 171.73712999999998 25.765849999999997L171.61068999999998 24.849159999999998C171.19975999999997 24.94399 170.75722 24.91238 170.44111999999998 24.849159999999998C169.90374999999997 24.72272 169.4296 24.18535 169.4296 22.320359999999997ZM166.64791999999997 22.03587C166.64791999999997 24.406619999999997 164.87776 24.9756 163.73979999999997 24.9756C161.93802999999997 24.9756 161.02133999999998 23.711199999999998 161.02133999999998 22.00426C161.02133999999998 20.581809999999997 161.65354 19.854779999999998 163.26565 19.22258C164.46683 18.78004 165.98411 18.211059999999996 166.64791999999997 17.80013Z M187.82662 16.02997C187.82662 13.027019999999998 186.21451 11.288469999999998 183.46444 11.288469999999998C181.28334999999998 11.288469999999998 179.92412 12.363209999999999 178.05912999999998 13.532779999999999L177.64819999999997 11.320079999999999L173.22279999999998 12.078719999999999V12.932189999999999L174.26593 13.090239999999998C175.02456999999998 13.18507 175.21423 13.37473 175.21423 14.449469999999998V23.55315C175.21423 25.038819999999998 175.11939999999998 25.10204 173.00152999999997 25.260089999999998V26.24H180.30344V25.260089999999998C178.24878999999999 25.10204 178.09073999999998 25.070429999999998 178.09073999999998 23.55315V16.725389999999997C178.09073999999998 15.998359999999998 178.12234999999998 15.555819999999999 178.37523 15.11328C178.97582 13.94371 180.30344 12.995409999999998 181.85233 12.995409999999998C183.84375999999997 12.995409999999998 184.95011 14.101759999999999 184.95011 16.662169999999996V23.55315C184.95011 25.070429999999998 184.82367 25.10204 182.73740999999998 25.260089999999998V26.24H190.03931999999998V25.260089999999998C187.95306 25.10204 187.82662 25.038819999999998 187.82662 23.521539999999998Z M217.31875 26.24V25.260089999999998C215.61181 25.13365 215.29570999999999 25.038819999999998 214.75834 23.489929999999998C213.14623 19.09614 210.11167 10.403389999999998 208.43634 5.47223H206.03397999999999C204.01094 11.25686 201.82985 17.61047 199.68036999999998 23.20544C199.07978 24.817549999999997 198.79529 25.16526 196.9303 25.260089999999998V26.24H203.50518V25.260089999999998L201.95629 25.10204C201.03959999999998 25.007209999999997 200.97638 24.69111 201.19764999999998 23.93247C201.70341 22.130699999999997 202.33561 20.423759999999998 202.99942 18.3375H209.63752C210.04845 19.34902 211.12319 22.41519 211.62895 23.869249999999997C211.94504999999998 24.72272 211.78699999999998 25.038819999999998 210.8387 25.13365L209.47947 25.260089999999998V26.24ZM209.28981 17.16793H203.41035C204.32703999999998 14.2282 205.40178 11.098809999999999 206.28686 8.5384H206.38169C207.07711 10.498219999999998 208.59439 15.018449999999998 209.28981 17.16793Z M228.16098 15.87192V12.20516C227.14946 11.604569999999999 225.63218 11.288469999999998 224.27294999999998 11.288469999999998C221.04873 11.288469999999998 218.86764 12.805749999999998 218.86764 15.650649999999999C218.86764 18.3375 220.6378 19.254189999999998 223.19821 20.13927C225.03159 20.83469 226.48565 21.561719999999998 226.48565 23.14222C226.48565 24.627889999999997 225.25286 25.51297 223.76719 25.51297C221.39643999999998 25.51297 220.16365 23.83764 219.56305999999998 21.308839999999996H218.61476L218.93086 25.228479999999998C220.03721 26.208389999999998 221.80737 26.61932 223.57753 26.61932C227.11785 26.61932 229.14088999999998 24.69111 229.14088999999998 22.130699999999997C229.14088999999998 19.50707 227.68683 18.59038 224.52582999999998 17.484029999999997C223.26143 17.073099999999997 221.36482999999998 16.282849999999996 221.36482999999998 14.733959999999998C221.36482999999998 13.216679999999998 222.50279 12.39482 223.95685 12.39482C226.04310999999998 12.39482 226.99141 14.03854 227.21267999999998 15.87192Z M241.15269 15.87192V12.20516C240.14117000000002 11.604569999999999 238.62389000000002 11.288469999999998 237.26466 11.288469999999998C234.04044000000002 11.288469999999998 231.85935 12.805749999999998 231.85935 15.650649999999999C231.85935 18.3375 233.62951 19.254189999999998 236.18992 20.13927C238.0233 20.83469 239.47736 21.561719999999998 239.47736 23.14222C239.47736 24.627889999999997 238.24457 25.51297 236.7589 25.51297C234.38815 25.51297 233.15536 23.83764 232.55477 21.308839999999996H231.60647L231.92257 25.228479999999998C233.02892 26.208389999999998 234.79908 26.61932 236.56924 26.61932C240.10956000000002 26.61932 242.1326 24.69111 242.1326 22.130699999999997C242.1326 19.50707 240.67854 18.59038 237.51754 17.484029999999997C236.25314 17.073099999999997 234.35654 16.282849999999996 234.35654 14.733959999999998C234.35654 13.216679999999998 235.49450000000002 12.39482 236.94856000000001 12.39482C239.03482 12.39482 239.98312 14.03854 240.20439 15.87192Z M251.77365 11.288469999999998C247.00054000000003 11.288469999999998 244.62979 14.13337 244.62979 18.9697C244.62979 23.77442 247.00054000000003 26.61932 251.77365 26.61932C256.60998 26.61932 258.94912 23.77442 258.94912 18.9697C258.94912 14.13337 256.60998 11.288469999999998 251.80526 11.288469999999998ZM247.82240000000002 18.9697C247.82240000000002 14.860399999999998 249.0868 12.39482 251.77365 12.39482C254.49211000000003 12.39482 255.75651000000002 14.860399999999998 255.75651000000002 18.9697C255.75651000000002 23.04739 254.49211000000003 25.51297 251.77365 25.51297C249.0868 25.51297 247.82240000000002 23.04739 247.82240000000002 19.001309999999997Z M273.52133000000003 21.87782C272.60464 23.96408 271.46668 25.007209999999997 269.3172 25.007209999999997C265.87171 25.007209999999997 264.98663 21.46689 264.98663 18.55877C264.98663 14.164979999999998 266.72518 12.39482 268.71661 12.39482C270.04423 12.39482 270.89770000000004 13.311509999999998 271.49829 14.955229999999998C271.65634 15.460989999999999 271.846 15.713869999999998 272.44659 15.713869999999998C273.07879 15.713869999999998 274.24836000000005 15.334549999999998 274.24836000000005 14.196589999999999C274.24836000000005 12.77414 272.22532 11.288469999999998 269.03271 11.288469999999998C263.65901 11.288469999999998 261.79402000000005 15.081669999999999 261.79402000000005 19.12775C261.79402000000005 24.090519999999998 264.25960000000003 26.61932 268.685 26.61932C270.80287000000004 26.61932 273.58455000000004 25.576189999999997 274.46963 22.351969999999998Z M279.55884000000003 5.187739999999998C278.45249 5.187739999999998 277.69385 6.009599999999999 277.69385 7.084339999999997C277.69385 8.15908 278.45249 8.91772 279.55884000000003 8.91772C280.66519 8.91772 281.39222 8.15908 281.39222 7.084339999999997C281.42383 6.009599999999999 280.66519 5.187739999999998 279.59045000000003 5.187739999999998ZM278.13639 23.55315C278.13639 25.038819999999998 278.04156 25.13365 275.92369 25.260089999999998V26.24H283.2256V25.260089999999998C281.13934 25.10204 281.0129 25.038819999999998 281.0129 23.55315V11.509739999999999L280.79163 11.320079999999999L276.08174 12.11033V12.963799999999999L277.18809 13.090239999999998C277.94673 13.216679999999998 278.13639 13.37473 278.13639 14.449469999999998Z M296.78629 15.366159999999999C296.78629 13.595999999999998 296.15409 11.288469999999998 291.63385999999997 11.288469999999998C288.21998 11.288469999999998 285.81762 13.058629999999999 285.81762 14.70235C285.81762 15.650649999999999 286.86075 16.1248 287.46134 16.1248C288.09354 16.1248 288.34642 15.77709 288.47285999999997 15.239719999999998C289.13667 13.027019999999998 290.1798 12.39482 291.38098 12.39482C292.83504 12.39482 294.00461 13.121849999999998 294.00461 15.460989999999999V16.50412C293.24597 17.29437 290.40107 18.05301 288.06193 18.78004C285.91245 19.443849999999998 285.28025 20.992739999999998 285.28025 22.41519C285.28025 24.659499999999998 286.76592 26.61932 289.57921 26.61932C291.41259 26.61932 293.0247 25.48136 293.973 24.88077C294.35232 26.05034 294.88969 26.61932 295.93282 26.61932C297.07078 26.61932 298.36679 26.24 299.09382 25.765849999999997L298.96738 24.849159999999998C298.55645 24.94399 298.11391 24.91238 297.79780999999997 24.849159999999998C297.26044 24.72272 296.78629 24.18535 296.78629 22.320359999999997ZM294.00461 22.03587C294.00461 24.406619999999997 292.23445 24.9756 291.09649 24.9756C289.29472 24.9756 288.37803 23.711199999999998 288.37803 22.00426C288.37803 20.581809999999997 289.01023 19.854779999999998 290.62234 19.22258C291.82352 18.78004 293.3408 18.211059999999996 294.00461 17.80013Z M309.01936 12.995409999999998V11.667789999999998H305.25777V7.937809999999999H304.34108L302.47609 11.667789999999998H300.23178V12.995409999999998H302.34965V23.20544C302.34965 26.208389999999998 304.59396 26.61932 305.6687 26.61932C307.18598000000003 26.61932 308.32394 25.987119999999997 309.33546 25.35492L309.08258 24.53306C308.38716 24.849159999999998 307.91301 24.91238 307.18598000000003 24.91238C306.17446 24.91238 305.25777 24.21696 305.25777 21.972649999999998V12.995409999999998Z M313.79247000000004 5.187739999999998C312.68612 5.187739999999998 311.92748 6.009599999999999 311.92748 7.084339999999997C311.92748 8.15908 312.68612 8.91772 313.79247000000004 8.91772C314.89882 8.91772 315.62585 8.15908 315.62585 7.084339999999997C315.65746 6.009599999999999 314.89882 5.187739999999998 313.82408000000004 5.187739999999998ZM312.37002 23.55315C312.37002 25.038819999999998 312.27519 25.13365 310.15732 25.260089999999998V26.24H317.45923V25.260089999999998C315.37297 25.10204 315.24653 25.038819999999998 315.24653 23.55315V11.509739999999999L315.02526 11.320079999999999L310.31537000000003 12.11033V12.963799999999999L311.42172 13.090239999999998C312.18036 13.216679999999998 312.37002 13.37473 312.37002 14.449469999999998Z M326.62613 11.288469999999998C321.85302 11.288469999999998 319.48227 14.13337 319.48227 18.9697C319.48227 23.77442 321.85302 26.61932 326.62613 26.61932C331.46246 26.61932 333.8016 23.77442 333.8016 18.9697C333.8016 14.13337 331.46246 11.288469999999998 326.65774 11.288469999999998ZM322.67488000000003 18.9697C322.67488000000003 14.860399999999998 323.93928 12.39482 326.62613 12.39482C329.34459 12.39482 330.60899 14.860399999999998 330.60899 18.9697C330.60899 23.04739 329.34459 25.51297 326.62613 25.51297C323.93928 25.51297 322.67488000000003 23.04739 322.67488000000003 19.001309999999997Z M350.83939 16.02997C350.83939 13.027019999999998 349.22727999999995 11.288469999999998 346.47720999999996 11.288469999999998C344.29612 11.288469999999998 342.93688999999995 12.363209999999999 341.07189999999997 13.532779999999999L340.66096999999996 11.320079999999999L336.23557 12.078719999999999V12.932189999999999L337.27869999999996 13.090239999999998C338.03734 13.18507 338.227 13.37473 338.227 14.449469999999998V23.55315C338.227 25.038819999999998 338.13217 25.10204 336.0143 25.260089999999998V26.24H343.31620999999996V25.260089999999998C341.26156 25.10204 341.10350999999997 25.070429999999998 341.10350999999997 23.55315V16.725389999999997C341.10350999999997 15.998359999999998 341.13512 15.555819999999999 341.388 15.11328C341.98859 13.94371 343.31620999999996 12.995409999999998 344.8651 12.995409999999998C346.85652999999996 12.995409999999998 347.96288 14.101759999999999 347.96288 16.662169999999996V23.55315C347.96288 25.070429999999998 347.83644 25.10204 345.75018 25.260089999999998V26.24H353.05208999999996V25.260089999999998C350.96583 25.10204 350.83939 25.038819999999998 350.83939 23.521539999999998Z"/>
  </g>
</svg>
