<?xml version="1.0" encoding="UTF-8"?>
<svg id="Layer_2" data-name="Layer 2" xmlns="http://www.w3.org/2000/svg" viewBox="0 0 96.76 96.76">
  <defs>
    <style>
      .cls-1 {
        fill: #fff;
      }

      .cls-2 {
        fill: #ed1c24;
        stroke: #fff;
        stroke-miterlimit: 10;
      }
    </style>
  </defs>
  <g id="_レイヤー_1" data-name="レイヤー 1">
    <g>
      <circle class="cls-2" cx="48.38" cy="48.38" r="47.88"/>
      <g>
        <g>
          <path class="cls-1" d="M45.66,47.92s-.01-.01-.02-.02c-.1-.08-.25-.06-.34.03,0,0-.02.03-.22.18-.41.3-.05-.08-.31-.05-.12.07-.1-.04-.09-.17,0-.13,0-.27-.16-.28-.22.13-.67.38-.9.49-.17-.06-.17-.21-.17-.35,0-.14,0-.29-.17-.35-.08-.03-.19-.02-.32.02-.13.03-.27.09-.41.15-.14.05-.28.11-.4.15-.12.04-.23.05-.3.03-.36.04-.27-.06,0-.2.13-.07.3-.16.48-.25.09-.04.18-.09.27-.13.09-.04.18-.08.25-.12-.28-.05.42-.21.34-.37-.08-.15-.15-.31-.32-.4-.17-.1-.43-.13-.88-.07-.23,0-.13-.32-.2-.48-1.14.5-4.05,1.69-5.32,1.82-1.27.13-2.56.04-3.83-.15-.13-.02-.26-.06-.4-.09-.07-.02-.13-.03-.2-.05-.03,0-.07-.02-.1-.03l-.09-.03c-.06-.02-.12-.04-.18-.06-.06-.02-.12-.04-.18-.07-.12-.05-.24-.1-.37-.16-.49-.24-.96-.56-1.41-.93-.9-.74-1.7-1.65-2.49-2.46-.12-.12-.23-.29-.34-.46-.11-.18-.22-.37-.33-.56-.04-.07-.09-.14-.13-.21.13-.06.26-.12.4-.18.74-.34,1.54-.75,2.14-1,.84-.32,1.69-.69,2.54-1.13.21-.11.42-.23.63-.34.21-.12.42-.24.63-.37.42-.25.84-.53,1.25-.83l.31-.23.31-.25c.1-.08.2-.17.3-.25.1-.08.2-.17.29-.26.39-.35.76-.72,1.13-1.14.36-.42.71-.88,1.01-1.44l.06-.1.05-.11.11-.23c.04-.07.07-.16.1-.24l.05-.12.02-.06.02-.08c.13-.42.21-.85.22-1.28.01-.63-.14-1.26-.44-1.82-.3-.56-.75-1.02-1.28-1.37-.13-.08-.27-.17-.41-.23-.13-.07-.29-.14-.39-.18-.24-.1-.46-.16-.69-.22-.45-.11-.87-.16-1.28-.19-.41-.03-.8-.01-1.17.02-.09,0-.19.01-.28.02l-.28.03-.28.03c-.09.01-.18.03-.27.04l-.27.05c-.09.02-.18.03-.27.05l-.53.12c-.34.09-.69.18-1.02.29-1.83.6-3.61,1.35-5.25,2.18-1.64.83-3.12,1.75-4.27,2.73-.51.44-.79.81-.89,1.09-.03.07-.04.13-.05.19,0,.06,0,.11.02.15.03.09.1.15.21.19.43.15,1.35-.05,2.52-.57.04.07.13.21.17.28-.55.31-.87.55-1.03.74-.17.19-.18.32-.13.43.1.22.46.34.44.6.9-.63,1.87-1.18,2.91-1.57-1.91,3.4-3.68,6.69-5.7,9.96,1.54-2.37,2.92-4.62,4.26-7.12.03.05.06.13.15.07-.27.67-.59,1.31-.94,1.91-.03,0-.05.02-.06.06,0,.01,0,.03,0,.04-1.03,1.78-2.29,3.37-3.19,5.3-.07-.04-.2-.12-.27-.17-.53.86-1.09,1.72-1.66,2.58-.21.37-.27.77-.26,1.14,1.99-2.36,3.61-5.29,5.31-7.97-.67,1.16-1.36,2.54-2.16,3.62-1.09,1.58-1.88,3.12-2.94,4.49-.06.07-.12.15-.18.22.02.15.04.3.06.42.15.54.54,1,1.27.54.1-.17.29-.5.29-.5.17.02.3.14.42.27.69-1.03,1.36-2.07,2.04-3.11.81-1.32,1.64-2.61,2.57-3.78-.89,1.24-1.74,2.51-2.57,3.78-.65,1.06-1.28,2.15-1.93,3.22.14.14.29.22.53.04.4-.21.86-1.5,1.31-2.12,1.1-1.38,2.02-3.01,3.02-4.5.04.07.08.14.12.21.63,1.02,1.35,2,2.18,2.92.42.46.86.9,1.34,1.32.12.11.24.21.36.31.12.1.25.2.38.3l.39.29.4.27c.55.35,1.13.67,1.74.93.15.07.31.12.47.18.08.03.16.06.23.09l.22.07c.29.09.59.19.89.26,1.2.31,2.44.49,3.69.48,1.25,0,3.23-.52,4.42-.84.6-.16,2.1-.87,2.66-1.1.57-.23,1.12-.49,1.65-.78.53-.29.21-.05.7-.4.31-.17.6-.37.62-.42.02-.02.07-.13.08-.14.01-.05,0-.09-.03-.12ZM25.44,41.93l-.22.13s-.03-.04-.05-.06c.09-.03.17-.06.26-.09,0,0,0,.01,0,.02ZM25.72,41.81s.07-.03.11-.04c.02.03.04.07.06.1-.03.01-.07.03-.1.04-.02-.03-.05-.07-.07-.1ZM36.75,34.85c-.43.68-.92,1.22-1.43,1.71-.13.12-.26.24-.39.35l-.2.17c-.07.06-.13.11-.2.16l-.2.16c-.07.05-.14.11-.21.16l-.21.16-.21.15c-.56.4-1.12.75-1.7,1.07-.57.33-1.15.63-1.73.92-.94.48-1.89.93-2.86,1.36-.47.21-.94.41-1.41.6-.04-.03-.08-.05-.12-.07.51-.19,1.02-.39,1.53-.6.96-.4,1.92-.82,2.87-1.28.59-.3,1.17-.62,1.74-.96.57-.34,1.14-.69,1.69-1.09.07-.05.14-.1.21-.15l.21-.16c.14-.1.27-.21.4-.32.26-.21.52-.44.78-.68.51-.48,1-1.01,1.43-1.66ZM34.83,33.56l.05-.09.04-.09c.03-.06.06-.11.07-.17.02-.05.05-.11.05-.15.05-.16.08-.33.06-.5.03.14.02.29-.01.43l-.03.11s-.03.1-.05.14v.04s-.03.04-.03.04l-.03.08-.03.08-.04.08c-.2.42-.52.85-.88,1.26-.05.05-.09.1-.14.15l-.14.15c-.09.1-.2.19-.3.29-.1.1-.21.19-.31.28-.1.09-.21.18-.32.26-.43.33-.89.63-1.35.89-1.31.76-2.62,1.42-3.93,2.01-.55.24-1.09.47-1.64.69.04-.07.07-.14.11-.21.36-.13.73-.26,1.09-.41,1.19-.47,2.37-1.01,3.49-1.64.56-.31,1.1-.65,1.62-1.01.13-.09.25-.18.38-.28.12-.09.24-.19.36-.29.12-.1.24-.2.35-.31.11-.11.23-.21.34-.32.44-.43.83-.88,1.12-1.35.04-.06.07-.12.1-.17ZM29.93,32.96c.78-.24,1.56-.41,2.31-.48.05,0,.09-.01.14-.02h.14s.28-.02.28-.02c.09,0,.17,0,.26,0,.09,0,.17,0,.25,0,.33.02.62.08.82.15h.04s0,.02,0,.02h0s0,0,0,0c0,0,.02,0,.03.01.01,0,.02.01.03.02.02.01.04.03.06.05.01.02.03.04.03.07,0,.03,0,.05,0,.08,0,.01,0,.03,0,.04h0s-.01.05-.01.05c0,.02-.02.05-.02.07l-.04.09s-.02.06-.04.09l-.05.09s-.03.06-.05.1c-.15.26-.36.55-.61.82-.24.28-.52.55-.82.81l-.22.2-.22.18c-.07.06-.16.12-.23.18-.08.06-.16.12-.24.18-.65.47-1.38.9-2.14,1.31.49-.25.97-.52,1.42-.8.45-.28.88-.57,1.27-.87.19-.15.39-.32.58-.48.19-.17.36-.34.53-.51.33-.34.62-.71.81-1.04.04-.08.09-.16.12-.24l.03-.06s.01-.03.02-.05l.02-.05s.02-.04.02-.04c.02-.05.03-.1.02-.15,0-.11-.07-.2-.16-.25-.02-.01-.05-.02-.09-.04-.04-.01-.07-.02-.11-.04-.04-.01-.08-.02-.12-.03-.04-.01-.09-.02-.13-.03-.05,0-.09-.02-.14-.03l-.15-.02h-.16s-.08-.02-.08-.02h-.08s-.16,0-.16,0h-.17c-.06,0-.11,0-.18,0-.12,0-.24.02-.36.02-.12.01-.25.03-.37.04.02-.06.1-.13-.05-.16.13-.03.25-.05.38-.08.13-.02.25-.03.38-.05h.09s.09-.02.09-.02h.18s.18-.01.18-.01c.06,0,.12,0,.17,0h.17s.16.03.16.03c.06,0,.1.02.15.03.05,0,.1.02.15.03.05.01.09.02.14.04.04.02.08.03.12.04.03.01.05.02.07.03.02,0,.04.02.06.03.08.05.15.11.19.19.04.08.07.17.06.26,0,.04,0,.09-.02.13,0,.02,0,.04-.02.06v.03s-.02.02-.02.02h0s0,.02,0,.02c-.02.04-.03.08-.05.11-.02.04-.04.08-.06.12-.02.04-.05.09-.07.13-.03.04-.05.09-.08.13-.46.72-1.25,1.46-2.05,2.09-.41.31-.85.62-1.3.92-.46.3-.93.6-1.41.91-.04-.07-.11-.21-.15-.29-.99.52-2.04,1-3.11,1.43.89-1.68,2.07-3.29,2.59-4.77.07-.22.1-.41.11-.57.29-.1.58-.2.87-.29Z"/>
          <g>
            <path class="cls-1" d="M47.3,40.99s0,0,0,0h0Z"/>
            <path class="cls-1" d="M46.67,43.51c.53.09.93.08,1.33.12.57.02,1.11-.1,1.6-.27.5-.17.96-.37,1.45-.57.05-.02.11-.04.17-.06.01-.11.02-.21.02-.31-.02-.21-.08-.44-.22-.6-.15-.15-.34-.26-.59-.29-.07.06-.22.16-.22.16-.11-.1-.17-.23-.23-.36-.49.24-1.02.41-1.53.47-.32.06-.63.08-.94.03-.04,0-.07-.01-.1-.02l-.1-.02-.09-.03s-.02,0-.02,0h-.01s-.03-.02-.03-.02c-.07-.04-.13-.1-.17-.18.04.06.1.11.18.15.03.02.1.04.16.05l.09.02h.05s.06.02.06.02l.23.03c.08,0,.15,0,.23,0,.08,0,.16,0,.23,0,.08,0,.16,0,.24-.02.51-.1,1.01-.31,1.47-.59-.08-.15-.17-.27-.31-.3-.06-.02-.12-.01-.19.01-.07.03-.14.07-.22.12-.08.05-.16.1-.24.15-.08.04-.16.08-.24.08-.42,0-.81.02-1.18-.01-.02,0-.05,0-.07,0h-.05s-.1-.03-.1-.03h-.02s-.02,0-.02-.01h-.01s-.01-.02-.02-.03c-.02-.03-.02-.08,0-.13.03-.05.05-.06.06-.06h0s-.01-.05-.02-.1c0-.05-.02-.1-.02-.16-.01-.12-.02-.25-.02-.39-.02-.39.11-.85.26-1.27.15-.43.3-.85.31-1.25,0-.29-.15-.47-.37-.58.01-.2,0-.42-.06-.66.06-.03.19-.09.25-.12.08.22.14.39.19.53.05.14.1.24.15.32.09.15.19.2.29.19.1,0,.21-.07.31-.12.1-.05.21-.09.31-.05-.06-.25-.12-.5-.2-.75-.04-.13-.08-.26-.13-.39-.03-.07-.05-.13-.08-.2-.03-.07-.05-.13-.09-.21-.07-.15-.16-.32-.27-.48-.1-.16-.22-.31-.34-.46-.25-.29-.55-.54-.9-.73-.05-.02-.1-.04-.15-.06-.06-.02-.12-.03-.18-.05-.13-.04-.28-.06-.42-.08-.07,0-.15,0-.22-.01-.07,0-.14,0-.21,0-.13,0-.26.02-.36.03-.07.01-.14.03-.21.04l-.11.02-.11.03c-.14.04-.28.08-.41.14-.06.03-.13.05-.19.08l-.09.04s-.05.03-.08.04c-.1.05-.18.1-.27.14-.32.18-.59.36-.86.53-.54.36-1.05.72-1.54,1.1-.5.38-.98.78-1.46,1.19-.48.42-.94.85-1.4,1.34l-.17.19c-.08.09-.15.17-.23.27-.09.11-.18.21-.26.32-.08.11-.17.22-.24.33-.3.45-.54.92-.64,1.39-.03.12-.04.23-.06.35,0,.12-.02.23-.01.35,0,.23.05.46.12.69.08.23.19.44.33.62.07.09.15.18.23.26l.13.12s.09.07.14.11c.37.28.84.46,1.35.57.13.02.26.05.4.07l.41.04c.14.01.28.01.42.02h.1s.07,0,.1,0h.17s.17,0,.17,0c.06,0,.12,0,.17,0l.31-.03c.1,0,.2-.03.31-.05.1-.02.2-.04.3-.07l.3-.08c.1-.03.19-.06.29-.1.05-.02.1-.03.14-.05l.14-.06c.09-.04.19-.08.27-.12-.46.21-.96.37-1.48.46-.06.01-.13.02-.19.03l-.2.02-.2.02c-.07,0-.15,0-.22,0h-.22s-.07,0-.11,0h-.13s-.26-.02-.26-.02h-.13s-.13-.02-.13-.02c-.17-.02-.34-.03-.5-.07l-.25-.05c-.08-.02-.16-.04-.23-.06-.16-.04-.3-.1-.44-.16-.07-.03-.14-.07-.2-.1-.03-.02-.07-.03-.1-.05l-.09-.06c-.25-.15-.47-.34-.65-.56-.18-.22-.32-.49-.4-.78-.15-.57-.07-1.14.17-1.71.12-.29.28-.57.47-.85l.07-.1.08-.1c.05-.07.1-.14.15-.2.11-.13.22-.27.31-.37l.07-.08.06-.07.11-.12.22-.23c.15-.15.29-.3.44-.44.3-.29.6-.56.9-.83.01.05,0,.14.11.09-.29.3-.58.6-.86.89-.14.15-.29.3-.43.45l-.21.23-.11.12-.13.15-.07.08-.08.09-.15.19c-.09.13-.2.25-.28.38-.18.26-.34.53-.45.8-.12.27-.2.55-.23.82-.03.27-.03.56.05.83.08.27.22.53.4.74.18.21.4.38.65.52.13.06.26.14.4.18.07.03.14.06.21.08l.23.06c.07.02.15.04.23.05l.24.04c.16.02.33.04.49.06.17,0,.34.02.5.02.14,0,.29,0,.43-.01.14-.01.26-.03.39-.04.13-.02.25-.05.38-.07.5-.12.97-.32,1.4-.57.03.06.1.18.13.25.43-.21.82-.46,1.18-.74.14.2.3.39.49.55.37.32.83.54,1.32.65.12.03.24.05.37.07.07.01.11.01.16.02h.15s.31.03.31.03c.05,0,.09,0,.14,0h.13s.27,0,.27,0l.27-.02c.09,0,.18-.01.27-.03l.26-.04c-.11.01-.23.03-.34.04-.11,0-.23.01-.34.02-.11,0-.23,0-.34,0h-.17c-.06,0-.11,0-.18-.01-.13-.01-.26-.02-.38-.04h-.09s-.05-.02-.05-.02h-.06c-.08-.02-.15-.03-.23-.05-.3-.07-.59-.17-.86-.32-.27-.15-.51-.33-.72-.55-.11-.11-.2-.23-.29-.36.06-.05.12-.09.18-.14.24.37.56.69.95.91.25.14.53.25.82.32.07.02.15.03.22.04l.19.02c.12.01.25.02.38.03.11,0,.22,0,.34,0h.17s.17-.03.17-.03c.11-.02.22-.03.33-.06.11-.03.22-.06.32-.1.02.07.05.2.06.27.65-.11,1.28-.31,1.9-.57.12-.07.22-.16.29-.27.07-.11.12-.23.15-.35-.46.17-.92.31-1.38.43-.46.12-.93.21-1.41.26-.24.02-.48.04-.72.03h-.18c-.06,0-.13-.01-.2-.02l-.2-.02h-.1s-.05-.02-.05-.02h-.06c-.3-.06-.59-.15-.86-.29-.26-.14-.5-.33-.67-.56.32.37.82.62,1.33.71ZM44.61,42.2s.02.05.03.07c-.06.05-.12.1-.19.15,0-.02-.02-.04-.03-.06.06-.05.12-.1.18-.16ZM40.62,41.13s.06-.06.1-.07c.03,0,.04,0,.06,0,0,0,.01,0,.02,0,0,0,0,.02.03-.02l.34-.34c.13-.13.26-.26.4-.39.54-.52,1.13-1.05,1.73-1.55.38-.33.78-.63,1.2-.91-.02.07-.04.13-.06.18-.13.41-.23.84-.31,1.28-.06.09-.13.18-.2.27-.27.37-.58.76-.86.96-.2.13-.4.26-.6.36-.1.06-.2.1-.3.15-.1.04-.2.09-.3.12-.2.07-.39.12-.58.15l-.14.02s-.09,0-.14,0c-.05,0-.08,0-.12,0h-.05s-.03,0-.03,0c0,0,0,0-.01,0-.09-.02-.16-.05-.19-.11-.02-.03-.01-.07.01-.1ZM39.99,41.37c-.01.08.01.16.06.22.05.06.11.1.18.14.14.07.31.11.5.14.04,0,.12,0,.18.01.06,0,.15,0,.23,0,.08,0,.16-.01.24-.02.08,0,.16-.03.24-.04.32-.07.64-.2.95-.37.25-.15.49-.32.72-.51.23-.2.45-.41.66-.64.02-.02.03-.04.05-.06,0,.03,0,.07,0,.1,0,0,0,0,0,0-.22.22-.45.43-.68.62-.24.19-.48.35-.74.49-.31.18-.63.32-.96.39l-.12.03s-.08.01-.12.02l-.12.02s-.08,0-.12,0h-.12s-.07,0-.11,0h-.1s-.03,0-.04,0h-.04c-.2-.03-.38-.08-.52-.15-.07-.04-.13-.09-.17-.15-.04-.06-.06-.15-.04-.23ZM43.91,42.8c-.43.28-.91.52-1.42.69l-.19.06-.2.05c-.07.02-.13.04-.2.05l-.2.04c-.13.03-.27.04-.41.05-.13.02-.29.02-.44.02-.14,0-.33,0-.49-.02-.09,0-.17-.01-.25-.02-.08,0-.17-.02-.25-.03-.33-.05-.64-.12-.93-.23-.28-.11-.54-.26-.76-.45-.21-.2-.39-.45-.47-.74-.08-.29-.07-.58-.02-.87.06-.29.17-.57.32-.84-.24.46-.38.95-.31,1.46.03.25.15.5.3.7.16.2.37.36.59.48.45.25,1,.37,1.57.42.14.02.28.02.43.03.15.01.26,0,.39.01.06,0,.13,0,.19,0,.06,0,.11,0,.17-.01.11,0,.23-.01.34-.03.64-.09,1.24-.31,1.75-.6.33-.18.63-.39.91-.61,0,.02.02.04.03.06-.14.11-.29.21-.44.31Z"/>
          </g>
          <path class="cls-1" d="M74.35,31.47s-.01,0-.02,0c0,0-.03,0-.04,0-.03,0-.06.01-.1.02-.07.02-.15.04-.22.07-.04.01-.08.03-.12.04-.03,0-.05.01-.07.02-.05,0-.09.01-.12.01-.07,0-.1-.03-.06-.12l-.28.21-.11.08-.1.07c-.06.04-.13.09-.18.13l-.17.11c-.06.04-.12.07-.17.11-.06.03-.11.07-.17.11-.12.06-.24.13-.37.2-.5.26-1.08.49-1.69.69-1.23.4-2.61.69-4.07.84-.24.09-.84.22-1.65.3-.2.02-.42.05-.64.07-.05,0-.12.01-.16.02-.05,0-.1,0-.16.01-.06,0-.11,0-.17.01-.06,0-.12,0-.18,0-.52.02-1.07.05-1.62.07-.57.03-1.16.07-1.75.12-.58.06-1.16.13-1.7.22-.54.09-1.05.2-1.5.32-.45.12-.83.24-1.12.35-.07.03-.14.06-.2.09-.63.25-1.35.66-1.98,1.28-.08.08-.15.16-.23.24-.04.04-.07.08-.11.12-.02.02-.04.05-.06.07l-.06.08c-.08.11-.16.22-.24.33l-.03.04s0,.02-.01.02l-.02.04s-.03.06-.04.09c-.01.03-.03.06-.04.09v.02s-.02.01-.02.01h0s0,0,0,0h0s0,0,0,0c-.12.18-.03.05-.06.09-.02.04-.04.08-.06.12-.04.08-.08.16-.11.24-.03.08-.06.18-.09.26-.06.17-.09.37-.12.55-.02.18-.03.37-.02.55,0,.08.02.16.03.24,0,.04.01.08.02.12l.03.11c.02.07.04.14.06.21.02.07.05.13.07.2.03.06.05.13.08.18.03.06.06.11.09.16.06.11.13.2.19.29.27.35.55.57.81.74-.12-.28-.21-.57-.26-.84.17.31.37.55.54.72.17.17.32.27.43.3.25.13.41.17.52.16.11,0,.16-.06.18-.15.04-.17-.05-.45-.05-.72-.04-.15.05-.22.13-.31.08-.08.13-.18.07-.37.18.18.27.27.47.43.06-.06-.11-.16-.25-.27-.14-.11-.24-.22-.09-.26.06.1.16.18.27.25.11.07.23.13.33.2.03-.12-.14-.26-.27-.4-.13-.14-.23-.27-.15-.34.06.02.12.18.21.32.09.14.2.24.3.14.04-.04-.15-.19-.23-.26.3.19.59.27.74.22.02,0,.04-.01.05-.02.07.06.05.04,0,0,.05-.03.07-.09.06-.17v-.02s.06-.06.06-.06l.02-.03s0,0,0,0c0,.01,0,.02,0,.03,0,0,0,0,0,.01,0,0,0,0,0,0h.01s.02-.02.03-.03c.01.01.03.02.04.04.05.05.1.09.15.12.03.02.05.03.08.05.01,0,.03.01.04.02,0,0,.01,0,.02,0,0,0,.01,0,0,0,0,0,0,0,0,0,0,0-.01,0-.02-.02-.01,0-.02-.02-.04-.03-.03-.02-.06-.05-.08-.07-.06-.05-.11-.1-.16-.13,0,0,0,0,0,0,.1.07.22.14.31.19,0-.04,0-.09,0-.13-.05-.06-.1-.11-.16-.16,0,0,0,0,0,0,.05.03.1.07.16.1,0-.06-.01-.12-.02-.18.11-.06.23-.12.37-.18-.04-.1-.13-.17-.07-.25.06-.05.12-.07.19-.08.07,0,.15,0,.22,0,.07,0,.15.02.22.01.07,0,.15-.02.22-.07,0-.06-.01-.11-.02-.17.13,0,.27.01.41.02.14.01.29.03.44.04.52-.12,1.07-.22,1.64-.32-.02-.06-.03-.12.03-.14.09-.02.2-.03.32-.03-.16.22-.31.43-.46.65-.58.85-1.11,1.72-1.61,2.59-.25.44-.48.88-.72,1.32l-.34.66-.17.33-.16.33-.32.67c-.11.22-.21.45-.31.67-.21.45-.41.9-.6,1.35-.2.45-.38.9-.57,1.36l-.12.29-.02.04-.02.05-.05.11c-.08.15-.17.31-.26.47-.39.62-.87,1.19-1.41,1.63-.54.44-1.12.75-1.76.93-.32.09-.65.14-.99.17h-.26c-.09.02-.18.01-.27.01h-.13s-.09,0-.14-.01l-.27-.02c-.09-.01-.18-.03-.28-.04-.09-.01-.19-.02-.26-.04l-.12-.02-.12-.03c-.08-.02-.17-.05-.25-.07-.34-.1-.85-.17-1.23-.32-.75-.29-1.53-.69-2.29-1.14-.76-.45-2.64-1.7-3.38-2.24-1.48-1.08-5.28-4.21-6.67-5.46-.69-.63-.33-.1-1-.75-.66-.65-.02.02-.65-.65-.16-.14-.27-.22-.33-.25-.08-.04-.12-.04-.15-.01-.06.05-.05.19-.12.25l.21.23s.09.09.13.14c0,0,.03.03.08.09.02.02.03.03.03.03.29.3.25.22.24.21,0,.01.04.06.16.21.31.3-.56-.05-.37.37.31.3.93.89,1.25,1.19.14.48-.68.08-.55.57.07.24.46.63.86,1,.4.37.33.23.44.43.46.72.24.49-.21.08-.45-.32-.64-.39-1.12-.83.1.21-.06.06-.26-.12-.2-.19-.44-.41-.5-.35-.12.13-.25.25-.2.52.05.27.27.68.85,1.37.28.36-.24.26-.36.39,1.01.9,2.08,1.79,3.22,2.64.57.43,3.53,2.77,4.14,3.17.61.4,2.37,1.53,3.04,1.88.34.18.68.35,1.04.51.35.16.72.31,1.1.45.38.14.77.26,1.19.36.41.1.84.18,1.29.23.06,0-.06-.02,0-.01l.15.02.31.04.15.02h.16s.31.03.31.03c.21.02.42,0,.63,0,.21,0,.42-.02.63-.03.85-.07,1.69-.26,2.47-.57.65-.26,1.29-.58,1.88-.98.59-.4,1.14-.86,1.63-1.36.25-.25.48-.52.7-.79.22-.27.43-.56.62-.85.2-.29.38-.6.55-.92.04-.08.08-.16.13-.25.02-.04.04-.09.06-.13l.04-.08.03-.07.17-.4c.93-2.15,1.93-4.24,2.81-6.11.07-.14.15-.29.23-.45.09-.15.19-.31.29-.47.05-.08.1-.16.16-.24.05-.08.11-.16.17-.24.11-.16.22-.33.33-.48.43-.64.83-1.21.89-1.67-.12.16-.24.33-.36.49-.12.17-.23.34-.35.5.24-.58.6-1.08,1-1.53.4-.45.83-.86,1.22-1.26-.06-.06-.11-.11-.11-.18,0-.07.04-.17.16-.32-.3.24-.64.59-.97.97-.33.38-.65.78-.94,1.08l-.21-.16c.22-.36.57-.75.93-1.12.36-.36.74-.69,1.02-.97l.18-.05c.25-.07.5-.14.75-.22.5-.14,1.02-.31,1.53-.48.11-.05.21-.11.32-.16.11-.06.21-.11.32-.17.21-.11.42-.2.62-.28.16-.04.32-.09.5-.13.17-.04.35-.07.53-.1.18-.03.36-.07.53-.11.17-.04.34-.08.5-.11-.07-.14-.03-.28.06-.44.08-.16.21-.32.33-.48.24-.31.42-.64.18-.87.09-.03.19-.07.29-.11.1-.04.2-.08.29-.14.17-.1.29-.2.26-.28-.04-.12-.06-.26-.07-.4-.01-.14-.01-.29.01-.45.01-.08.03-.16.05-.24.01-.04.03-.08.04-.12.01-.04.03-.08.04-.13.03-.08.07-.17.12-.26.05-.09.1-.18.16-.27.05-.06.13-.13.22-.18.05-.03.09-.06.14-.09.05-.03.1-.06.15-.09l.04-.02s.03-.02.05-.03c.03-.02.06-.04.09-.06.03-.02.06-.04.08-.06.03-.02.06-.04.09-.06.16-.11.28-.19.34-.26.03-.07,0-.1-.05-.12ZM33.45,42.5c.15.16.09.1.03.05-.05-.06-.1-.12-.03-.05Z"/>
          <path class="cls-1" d="M80.66,35.99c0-.07,0-.13-.01-.19,0-.06-.01-.12-.02-.17-.03-.22-.09-.41-.16-.57-.07-.16-.15-.31-.26-.45-.06-.07-.12-.14-.21-.21-.04-.04-.1-.08-.16-.11-.06-.04-.13-.07-.19-.1-.13-.06-.23-.08-.33-.1-.09-.02-.18-.03-.27-.04-.09,0-.17-.01-.26-.01-.09,0-.18,0-.27.01-.19.02-.4.06-.63.14-.17.06-.35.15-.54.26-.19.12-.39.26-.6.42-.42.32-.86.72-1.29,1.14-.44.43-.87.88-1.31,1.34l-.32.35-.24.26-.32.36c-.85.96-1.66,1.95-2.45,2.94-.46.59-.94,1.18-1.43,1.77-.03,0-.06,0-.08-.01-.88.03-1.96.23-2.81.43-.43.1-.69.51-.69.51-.1.08-.18.23-.06.28.22,0,.76-.08.79.05,0,.03-.1.05-.21.07.02.13-.25.44-.36.46-.1.08-.71.38-.81.46-.31.15.76.49,1.21.52.23.03.03.16.05.26.19-.06.31,0,.48-.03-.9,1.1-1.72,2.16-2.35,3.15-.67,1.07-.65,1.55-.23,1.54.42-.01,1.22-.51,2.15-1.4.06.04.17.12.23.15-1.67,1.89-.31,1.29-.22,1.73.77-.98,1.61-1.92,2.57-2.78.2-.24.59-.73.79-.97.51-.63,1.02-1.25,1.52-1.87.86-.02,1.88-.24,2.79-.44.11-.02.2-.1.08-.15.11-.02.22-.03.32-.05.22-.03.09-.12.31-.15.15-.04.29-.07.44-.1-.09.51-.15,1.03-.19,1.58-.02.79.19,1.51.51,2.08-.13-.76-.11-1.47-.04-2.16.05-.55.14-1.08.25-1.61.04,0,.08-.01.12-.02-.08.46-.15.93-.19,1.4-.03.37-.05.76-.04,1.15,0,.39.04.79.12,1.21.02.09.03.18.05.27.02.09.04.18.07.28.17.21.34.39.5.54.04.03.09.07.13.1.05.03.09.06.13.08.09.05.17.08.25.1.16.04.29.04.37-.02.09-.06.13-.17.13-.34,0-.17-.03-.39-.06-.69-.03-.07-.06-.15-.1-.24-.03-.09-.06-.19-.09-.28-.03-.09-.04-.17-.06-.23-.01-.06-.02-.09-.02-.09.12-.14.28-.09.44-.05-.07-.44-.08-.9-.06-1.36.02-.46.09-.93.16-1.4.04-.24.09-.48.14-.72h.05c-.05.24-.09.49-.13.74-.07.47-.12.94-.13,1.41,0,.23,0,.46.02.69.01.23.05.45.09.66.09.01.17,0,.23-.05.06-.05.1-.16.13-.34.04-.13.04-.34.04-.6,0-.26,0-.58.02-.93.02-.54.09-1.15.2-1.66.56-.08,1.12-.17,1.67-.29-.44.03-.78.02-1.2.12,0-.03-.02-.1-.13-.08-.1,0-.2.02-.29.04.01-.06.03-.11.04-.17.09-.31.19-.62.29-.93.07-.02.14-.03.2-.05.08-.04.02-.09-.15-.11.14-.42.28-.85.42-1.28.07-.2.14-.41.21-.61.12-.36.23-.71.35-1.07.25-.77.51-1.56.69-2.3.05-.19.08-.36.12-.54.02-.09.03-.17.04-.25l.02-.12s0-.08,0-.11l.02-.22v-.2ZM78.23,42.74s0,0-.01,0c0-.02.01-.04.02-.06,0,0,0,0,.01,0,0,.02,0,.04-.01.06ZM77.34,37.8c.06-.04.13-.09.2-.12.07-.03.17-.03.22.03.04.06.05.13.05.2,0,.07,0,.14-.02.22-.05.29-.14.58-.23.87-.1.29-.21.56-.32.8-.03.08-.07.17-.1.25l-.02.06-.05.13c-.03.09-.06.18-.09.27-.12.36-.23.72-.34,1.08-.1.32-.18.64-.27.96-.02,0-.04,0-.06,0,.21-.74.44-1.46.67-2.18l.08-.23v-.04s.02-.02.02-.02l.02-.05.07-.2.15-.41c.1-.28.2-.57.28-.88.04-.15.08-.31.08-.47,0-.04,0-.08-.01-.12,0-.04-.03-.08-.06-.1-.03-.02-.08-.03-.11-.02-.04,0-.07.02-.11.03-.14.06-.25.15-.37.24-.12.09-.23.19-.35.29.2-.19.41-.4.67-.58ZM73.73,42.69c.42-.5.84-1,1.27-1.49.29-.33.58-.67.87-.99l.36-.41.05-.06c.07-.08.14-.16.22-.23.04-.04.08-.07.13-.1.01,0,.02-.01.04-.01.01,0,.03,0,.03.02,0,.02,0,.05,0,.08-.02.11-.06.21-.1.3-.02.05-.04.09-.06.13h0s0,.02,0,.02c0,0,0,0,0,0,0,0,0,0,0,.02l-.1.32c-.07.21-.13.43-.2.64.09-.27.18-.55.27-.82l.03-.1.02-.05h0s.01-.02.01-.02l.03-.04c.03-.06.07-.14.11-.22.04-.08.08-.18.11-.28.01-.05.03-.1.02-.16,0-.03-.02-.05-.04-.05-.02,0-.04,0-.06.01-.08.04-.14.09-.22.16-.07.06-.14.14-.21.21-.04.04-.07.08-.1.11l-.05.06c-.09.1-.18.2-.27.3-.38.42-.75.85-1.12,1.29-.01-.05,0-.16-.13-.06.35-.47.71-.92,1.08-1.36.09-.1.18-.21.27-.31.03-.03.06-.07.08-.1.06-.07.12-.14.18-.2.13-.13.25-.25.37-.35.12-.1.23-.18.35-.21.03,0,.06-.02.1,0,.04.02.05.07.05.11,0,.09-.03.18-.05.26-.05.16-.11.31-.16.43-.05.13-.09.24-.12.36l-.02.09v.03s-.03.1-.03.1l-.06.21c-.08.28-.15.56-.21.85-.07-.02-.21-.05-.28-.07-.13.44-.26.89-.39,1.35-.14.01-.33.05-.51.08-.51.03-1.03.09-1.55.14ZM75.26,44s-.01-.07-.02-.1l-.22.03c-.13-.1.12-.19.46-.27-.02.11-.05.21-.07.32-.05,0-.11,0-.16.01ZM75.96,43.95c.03-.13.06-.26.09-.38.03,0,.06-.01.09-.02-.02.07-.03.14-.05.2-.01.06-.02.13-.04.19-.03,0-.06,0-.1,0ZM77.93,44.02s-.03,0-.04,0c.08-.36.17-.71.27-1.07,0,0,.01,0,.02,0-.09.35-.17.71-.25,1.06ZM80.04,36.55c-.03.35-.11.75-.22,1.18-.11.43-.26.88-.41,1.33l-.44,1.32-.31.92c-.09.29-.18.57-.27.86-.03.11-.06.23-.09.34,0,0,0,0,0,0,.03-.11.07-.23.1-.34.08-.29.17-.58.26-.88.1-.32.2-.63.3-.95.14-.44.29-.88.43-1.32.14-.44.28-.89.4-1.31.11-.43.19-.82.22-1.16.03-.34.02-.63,0-.9-.01-.13-.04-.26-.07-.38-.03-.12-.07-.24-.14-.36-.03-.06-.08-.12-.15-.18-.06-.06-.15-.11-.24-.14-.17-.06-.3-.06-.42-.06.13,0,.26,0,.44.06.09.03.18.08.24.14.06.06.11.12.15.18.07.12.11.24.15.36.03.12.06.25.07.38.03.26.04.56.01.91Z"/>
        </g>
        <g>
          <path class="cls-1" d="M30.31,63.5c.39.14.61.52.74,1.07.16.69.29,1.23.39,1.43h-.83c-.08-.15-.2-.61-.33-1.26-.14-.7-.4-.97-.96-.97h-.48v2.23h-.79v-5.19c.34-.06.81-.11,1.28-.11.69,0,1.17.12,1.5.42.28.24.42.61.42,1.03,0,.67-.41,1.14-.94,1.33h0ZM29.38,63.17c.66,0,1.07-.38,1.07-.94,0-.68-.48-.92-1.05-.92-.27,0-.46.02-.56.05v1.81h.54Z"/>
          <path class="cls-1" d="M34.76,65.1c0,.32,0,.65.06.9h-.72l-.06-.44h-.02c-.21.3-.58.52-1.06.52-.71,0-1.11-.52-1.11-1.11,0-.94.82-1.41,2.12-1.41,0-.28,0-.85-.76-.85-.34,0-.68.1-.92.26l-.17-.53c.27-.17.72-.32,1.22-.32,1.11,0,1.42.74,1.42,1.54v1.43ZM33.98,64.09c-.63,0-1.35.12-1.35.79,0,.42.26.61.56.61.43,0,.79-.33.79-.77v-.63Z"/>
          <path class="cls-1" d="M37.54,64.25c0,1.39-.66,1.82-1.58,1.82-.24,0-.52-.04-.69-.1l.1-.66c.13.05.31.08.52.08.53,0,.85-.23.85-1.17v-3.5h.8v3.52Z"/>
          <path class="cls-1" d="M42.4,66h-.84l-.47-1.55h-1.61l-.45,1.55h-.82l1.61-5.26h.98l1.61,5.26ZM40.96,63.84l-.41-1.38c-.1-.34-.19-.72-.26-1.04h-.01c-.08.32-.16.71-.25,1.03l-.42,1.38h1.36Z"/>
          <path class="cls-1" d="M48.08,65.86c-.22.11-.67.22-1.24.22-1.47,0-2.45-.97-2.45-2.65,0-1.79,1.13-2.77,2.59-2.77.61,0,.98.13,1.12.21l-.17.65c-.22-.1-.53-.19-.92-.19-1.02,0-1.78.69-1.78,2.06,0,1.29.67,2.02,1.76,2.02.36,0,.72-.08.95-.19l.14.64Z"/>
          <path class="cls-1" d="M52.1,64.07c0,1.42-.92,2-1.78,2-.98,0-1.73-.72-1.73-1.95s.78-2,1.79-2,1.72.78,1.72,1.95ZM50.35,62.73c-.68,0-.94.73-.94,1.38,0,.74.35,1.37.94,1.37s.94-.63.94-1.38c0-.63-.26-1.37-.93-1.37Z"/>
          <path class="cls-1" d="M52.78,65.53c0-.32.22-.55.52-.55s.51.23.51.55-.2.54-.52.54-.51-.24-.51-.54Z"/>
          <path class="cls-1" d="M55.53,64.93c-.2.69-.54,1.54-.81,1.97l-.55.06c.19-.52.4-1.35.49-1.95l.87-.08Z"/>
          <path class="cls-1" d="M60.69,66h-2.83v-5.26h.8v4.59h2.03v.67Z"/>
          <path class="cls-1" d="M61.51,61.52l.79-.25v.94h.9v.6h-.9v1.92c0,.47.14.69.48.69.16,0,.25-.02.35-.05l.03.61c-.14.06-.35.09-.62.09-.32,0-.58-.1-.75-.29-.19-.21-.28-.52-.28-1.02v-1.96h-.54v-.6h.54v-.69Z"/>
          <path class="cls-1" d="M67.06,64.99c0,.34.01.75.03,1.01h-.7l-.04-.59h-.02c-.2.39-.61.67-1.15.67-.86,0-1.51-.76-1.51-1.93,0-1.29.74-2.02,1.58-2.02.49,0,.84.22,1,.51h.01v-2.15h.8v4.51ZM66.26,63.74c0-.62-.39-.98-.84-.98-.61,0-.95.61-.95,1.36s.33,1.31.94,1.31c.52,0,.85-.45.85-.98v-.7Z"/>
          <path class="cls-1" d="M67.97,65.53c0-.32.22-.55.52-.55s.51.23.51.55-.2.54-.52.54-.51-.24-.51-.54Z"/>
        </g>
      </g>
    </g>
  </g>
</svg>