<svg xmlns="http://www.w3.org/2000/svg" data-name="Layer 2" viewBox="0 0 353.69 34.21"><path fill="#fff" d="M6.86 16.378h1.928c1.833 0 3.319.569 3.856 2.718.221.854.569 3.193.885 4.552.443 1.928 1.612 2.592 3.446 2.592h2.497v-.98c-2.308-.253-2.782-1.802-3.066-3.825-.348-2.655-1.233-4.836-4.426-5.595v-.063c2.813-.537 4.837-2.244 4.837-5.09 0-2.812-1.423-5.088-6.575-5.088H1.043v.98c2.592.158 2.655.22 2.655 1.896v14.888c0 1.644-.063 1.707-2.655 1.897v.98h8.472v-.98c-2.56-.19-2.656-.253-2.656-1.897Zm0-8.187c0-1.265 0-1.486 1.928-1.486 2.18 0 4.646.316 4.646 4.267 0 3.098-1.454 4.3-4.362 4.3H6.86Zm25.54 7.175c0-1.77-.632-4.078-5.152-4.078-3.414 0-5.816 1.77-5.816 3.414 0 .949 1.043 1.423 1.643 1.423.633 0 .885-.348 1.012-.885.664-2.213 1.707-2.845 2.908-2.845 1.454 0 2.624.727 2.624 3.066v1.043c-.76.79-3.604 1.549-5.943 2.276-2.15.664-2.782 2.213-2.782 3.635 0 2.244 1.486 4.204 4.3 4.204 1.833 0 3.445-1.138 4.393-1.738.38 1.17.917 1.738 1.96 1.738 1.138 0 2.434-.379 3.16-.853l-.126-.917c-.41.095-.853.063-1.17 0-.537-.126-1.01-.664-1.01-2.529Zm-2.781 6.67c0 2.37-1.77 2.94-2.909 2.94-1.801 0-2.718-1.265-2.718-2.972 0-1.422.632-2.15 2.244-2.781 1.201-.443 2.719-1.012 3.383-1.423ZM47.415 7.084v4.9c-.822-.411-1.897-.696-3.256-.696-2.402 0-4.236.79-5.468 2.055-1.296 1.328-2.087 3.32-2.087 5.911 0 4.426 2.087 7.365 6.101 7.365 1.58 0 3.098-.695 4.71-1.96v1.581h5.12v-1.043c-2.085-.127-2.212-.19-2.212-1.707V4.145l-.221-.158-4.9.727v.853l1.296.158c.727.063.917.253.917 1.36m0 14.193c0 .632 0 1.107-.221 1.612-.57 1.486-1.834 2.055-3.32 2.055-2.686 0-4.077-2.592-4.077-6.038 0-3.856 1.36-6.511 4.299-6.511 1.39 0 2.529.664 3.066 1.833.221.506.253.948.253 1.739Zm10.147-16.09c-1.107 0-1.865.823-1.865 1.897s.758 1.834 1.865 1.834 1.833-.759 1.833-1.834c.032-1.074-.727-1.896-1.802-1.896Zm-1.423 18.366c0 1.486-.094 1.58-2.212 1.707v.98h7.302v-.98c-2.087-.158-2.213-.221-2.213-1.707V11.51l-.221-.19-4.71.79v.854l1.106.126c.759.127.948.285.948 1.36Zm18.65-8.187c0-1.77-.632-4.078-5.152-4.078-3.414 0-5.816 1.77-5.816 3.414 0 .949 1.043 1.423 1.643 1.423.633 0 .885-.348 1.012-.885.664-2.213 1.707-2.845 2.908-2.845 1.454 0 2.624.727 2.624 3.066v1.043c-.76.79-3.604 1.549-5.943 2.276-2.15.664-2.782 2.213-2.782 3.635 0 2.244 1.486 4.204 4.3 4.204 1.833 0 3.445-1.138 4.393-1.738.38 1.17.917 1.738 1.96 1.738 1.138 0 2.434-.379 3.16-.853l-.126-.917c-.41.095-.853.063-1.17 0-.537-.126-1.01-.664-1.01-2.529Zm-2.781 6.67c0 2.37-1.77 2.94-2.909 2.94-1.801 0-2.718-1.265-2.718-2.972 0-1.422.632-2.15 2.244-2.781 1.201-.443 2.719-1.012 3.383-1.423Zm21.178-6.006c0-3.003-1.612-4.742-4.362-4.742-2.181 0-3.54 1.075-5.405 2.245l-.411-2.213-4.426.759v.853l1.044.158c.758.095.948.285.948 1.36v9.103c0 1.486-.095 1.549-2.213 1.707v.98h7.302v-.98c-2.055-.158-2.213-.19-2.213-1.707v-6.828c0-.727.032-1.17.285-1.612.6-1.17 1.928-2.118 3.477-2.118 1.991 0 3.098 1.107 3.098 3.667v6.891c0 1.517-.127 1.549-2.213 1.707v.98H95.4v-.98c-2.086-.158-2.213-.221-2.213-1.738Zm12.265-3.035v-1.327h-3.762v-3.73h-.916l-1.865 3.73h-2.245v1.327h2.118v10.21c0 3.003 2.245 3.414 3.32 3.414 1.517 0 2.655-.632 3.666-1.264l-.253-.822c-.695.316-1.17.38-1.896.38-1.012 0-1.929-.696-1.929-2.94v-8.978Zm13.94-4.52c0-1.675.095-1.707 2.655-1.896V5.6h-8.471v.98c2.592.19 2.655.22 2.655 1.896v14.067c0 2.876-.506 4.393-1.201 5.247-.664.79-1.296 1.075-2.213 1.328l.158.758c1.17-.063 2.118-.19 3.288-.727 2.686-1.233 3.129-3.698 3.129-6.764Zm16.342 6.891c0-1.77-.632-4.078-5.152-4.078-3.414 0-5.816 1.77-5.816 3.414 0 .949 1.043 1.423 1.643 1.423.633 0 .885-.348 1.012-.885.664-2.213 1.707-2.845 2.908-2.845 1.454 0 2.624.727 2.624 3.066v1.043c-.759.79-3.604 1.549-5.943 2.276-2.15.664-2.782 2.213-2.782 3.635 0 2.244 1.486 4.204 4.3 4.204 1.833 0 3.445-1.138 4.393-1.738.38 1.17.917 1.738 1.96 1.738 1.138 0 2.434-.379 3.16-.853l-.126-.917c-.41.095-.853.063-1.17 0-.537-.126-1.01-.664-1.01-2.529Zm-2.781 6.67c0 2.37-1.77 2.94-2.908 2.94-1.802 0-2.719-1.265-2.719-2.972 0-1.422.632-2.15 2.244-2.781 1.202-.443 2.719-1.012 3.383-1.423Zm8.345 8.535c0 1.517-.158 1.548-2.213 1.707v.98h7.776v-.98c-2.497-.159-2.655-.19-2.655-1.707v-4.584c.6.316 1.991.632 3.319.632 4.014 0 7.491-1.865 7.491-7.997 0-2.276-.537-7.334-5.784-7.334-2.15 0-3.857 1.423-5.026 2.182l-.411-2.15-4.552.759v.853l1.138.158c.727.095.917.253.917 1.328Zm2.908-13.846c0-.727.095-1.138.348-1.675.695-1.36 1.928-2.055 3.508-2.055 1.17 0 3.762.727 3.762 5.848 0 4.3-1.328 6.67-4.268 6.67-1.517 0-2.718-.727-3.16-2.086-.19-.538-.19-1.138-.19-1.802Zm25.225-1.359c0-1.77-.633-4.078-5.153-4.078-3.414 0-5.816 1.77-5.816 3.414 0 .949 1.043 1.423 1.644 1.423.632 0 .885-.348 1.011-.885.664-2.213 1.707-2.845 2.908-2.845 1.454 0 2.624.727 2.624 3.066v1.043c-.759.79-3.604 1.549-5.943 2.276-2.15.664-2.781 2.213-2.781 3.635 0 2.244 1.485 4.204 4.299 4.204 1.833 0 3.445-1.138 4.393-1.738.38 1.17.917 1.738 1.96 1.738 1.138 0 2.434-.379 3.161-.853l-.126-.917a2.9 2.9 0 0 1-1.17 0c-.537-.126-1.011-.664-1.011-2.529Zm-2.782 6.67c0 2.37-1.77 2.94-2.908 2.94-1.802 0-2.719-1.265-2.719-2.972 0-1.422.633-2.15 2.245-2.781 1.2-.443 2.718-1.012 3.382-1.423Zm21.179-6.006c0-3.003-1.612-4.742-4.363-4.742-2.18 0-3.54 1.075-5.405 2.245l-.41-2.213-4.426.759v.853l1.043.158c.759.095.948.285.948 1.36v9.103c0 1.486-.095 1.549-2.212 1.707v.98h7.301v-.98c-2.054-.158-2.212-.19-2.212-1.707v-6.828c0-.727.031-1.17.284-1.612.6-1.17 1.928-2.118 3.477-2.118 1.992 0 3.098 1.107 3.098 3.667v6.891c0 1.517-.126 1.549-2.213 1.707v.98h7.302v-.98c-2.086-.158-2.212-.221-2.212-1.738Zm29.492 10.21v-.98c-1.707-.126-2.023-.221-2.56-1.77-1.613-4.394-4.647-13.087-6.323-18.018h-2.402c-2.023 5.785-4.204 12.138-6.354 17.733-.6 1.613-.885 1.96-2.75 2.055v.98h6.575v-.98l-1.549-.158c-.916-.095-.98-.41-.758-1.17.505-1.801 1.138-3.508 1.801-5.594h6.639c.41 1.011 1.485 4.077 1.99 5.531.317.854.159 1.17-.79 1.265l-1.359.126v.98Zm-8.03-9.072h-5.879c.917-2.94 1.992-6.07 2.877-8.63h.095c.695 1.96 2.212 6.48 2.908 8.63m18.872-1.296v-3.667c-1.012-.6-2.529-.917-3.888-.917-3.224 0-5.405 1.518-5.405 4.363 0 2.686 1.77 3.603 4.33 4.488 1.834.696 3.288 1.423 3.288 3.003 0 1.486-1.233 2.371-2.719 2.371-2.37 0-3.603-1.675-4.204-4.204h-.948l.316 3.92c1.106.98 2.876 1.39 4.647 1.39 3.54 0 5.563-1.928 5.563-4.488 0-2.624-1.454-3.54-4.615-4.647-1.265-.41-3.161-1.201-3.161-2.75 0-1.517 1.138-2.34 2.592-2.34 2.086 0 3.034 1.645 3.256 3.478Zm12.992 0v-3.667c-1.012-.6-2.53-.917-3.888-.917-3.225 0-5.406 1.518-5.406 4.363 0 2.686 1.77 3.603 4.33 4.488 1.834.696 3.288 1.423 3.288 3.003 0 1.486-1.232 2.371-2.718 2.371-2.37 0-3.604-1.675-4.204-4.204h-.949l.317 3.92c1.106.98 2.876 1.39 4.646 1.39 3.54 0 5.564-1.928 5.564-4.488 0-2.624-1.454-3.54-4.615-4.647-1.265-.41-3.161-1.201-3.161-2.75 0-1.517 1.138-2.34 2.592-2.34 2.086 0 3.034 1.645 3.255 3.478Zm10.62-4.584c-4.772 0-7.143 2.845-7.143 7.682 0 4.804 2.37 7.65 7.144 7.65 4.836 0 7.175-2.846 7.175-7.65 0-4.837-2.339-7.682-7.144-7.682Zm-3.95 7.682c0-4.11 1.264-6.575 3.95-6.575 2.72 0 3.984 2.465 3.984 6.575 0 4.077-1.265 6.543-3.983 6.543-2.687 0-3.952-2.466-3.952-6.512Zm25.698 2.908c-.916 2.086-2.054 3.13-4.204 3.13-3.445 0-4.33-3.541-4.33-6.45 0-4.393 1.738-6.163 3.73-6.163 1.327 0 2.18.917 2.781 2.56.158.506.348.759.949.759.632 0 1.801-.38 1.801-1.517 0-1.423-2.023-2.909-5.215-2.909-5.374 0-7.239 3.794-7.239 7.84 0 4.963 2.466 7.491 6.891 7.491 2.118 0 4.9-1.043 5.785-4.267Zm6.038-16.69c-1.107 0-1.865.822-1.865 1.896 0 1.075.758 1.834 1.865 1.834s1.833-.759 1.833-1.834c.032-1.074-.727-1.896-1.802-1.896Zm-1.423 18.365c0 1.486-.094 1.58-2.212 1.707v.98h7.302v-.98c-2.087-.158-2.213-.221-2.213-1.707V11.51l-.221-.19-4.71.79v.854l1.106.126c.759.127.948.285.948 1.36Zm18.65-8.187c0-1.77-.632-4.078-5.152-4.078-3.414 0-5.816 1.77-5.816 3.414 0 .949 1.043 1.423 1.643 1.423.633 0 .885-.348 1.012-.885.664-2.213 1.707-2.845 2.908-2.845 1.454 0 2.624.727 2.624 3.066v1.043c-.759.79-3.604 1.549-5.943 2.276-2.15.664-2.782 2.213-2.782 3.635 0 2.244 1.486 4.204 4.3 4.204 1.833 0 3.445-1.138 4.393-1.738.38 1.17.917 1.738 1.96 1.738 1.138 0 2.434-.379 3.16-.853l-.126-.917c-.41.095-.853.063-1.17 0-.537-.126-1.01-.664-1.01-2.529Zm-2.781 6.67c0 2.37-1.77 2.94-2.909 2.94-1.801 0-2.718-1.265-2.718-2.972 0-1.422.632-2.15 2.244-2.781 1.202-.443 2.719-1.012 3.383-1.423Zm15.014-9.04v-1.328h-3.761v-3.73h-.917l-1.865 3.73h-2.244v1.327h2.118v10.21c0 3.003 2.244 3.414 3.319 3.414 1.517 0 2.655-.632 3.666-1.264l-.252-.822c-.696.316-1.17.38-1.897.38-1.012 0-1.928-.696-1.928-2.94v-8.978Zm4.773-7.808c-1.106 0-1.865.822-1.865 1.896 0 1.075.76 1.834 1.865 1.834 1.107 0 1.834-.759 1.834-1.834.031-1.074-.727-1.896-1.802-1.896Zm-1.422 18.365c0 1.486-.095 1.58-2.213 1.707v.98h7.302v-.98c-2.086-.158-2.212-.221-2.212-1.707V11.51l-.222-.19-4.71.79v.854l1.107.126c.758.127.948.285.948 1.36Zm14.256-12.265c-4.773 0-7.144 2.845-7.144 7.682 0 4.804 2.371 7.65 7.144 7.65 4.836 0 7.176-2.846 7.176-7.65 0-4.837-2.34-7.682-7.144-7.682Zm-3.951 7.682c0-4.11 1.264-6.575 3.951-6.575 2.719 0 3.983 2.465 3.983 6.575 0 4.077-1.264 6.543-3.983 6.543-2.687 0-3.951-2.466-3.951-6.512Zm28.164-2.94c0-3.003-1.612-4.742-4.362-4.742-2.18 0-3.54 1.075-5.405 2.245l-.411-2.213-4.425.759v.853l1.043.158c.758.095.948.285.948 1.36v9.103c0 1.486-.095 1.549-2.213 1.707v.98h7.302v-.98c-2.054-.158-2.212-.19-2.212-1.707v-6.828c0-.727.031-1.17.284-1.612.6-1.17 1.928-2.118 3.477-2.118 1.992 0 3.098 1.107 3.098 3.667v6.891c0 1.517-.127 1.549-2.213 1.707v.98h7.302v-.98c-2.086-.158-2.213-.221-2.213-1.738Z" data-name="レイヤー 1"/></svg>