<?xml version="1.0" encoding="UTF-8"?>
<svg id="Layer_2" data-name="Layer 2" xmlns="http://www.w3.org/2000/svg" viewBox="0 0 1917.67 801.81">
  <defs>
    <style>
      .cls-1 {
        fill: none;
        stroke: #231916;
        stroke-miterlimit: 10;
      }

      .cls-2 {
        fill: #231916;
      }
    </style>
  </defs>
  <g id="_レイヤー_1" data-name="レイヤー 1">
    <g>
      <g>
        <path class="cls-2" d="M1884.64,361.81l32.44,47.71c-15.19,27.47-44.01,62.85-86.07,106.15l-24.76-31.5-55.02-201.94,43.67-10.44,2.37,18.05,35.91,136.41c17.48-17.71,34.55-39.3,51.44-64.44Z"/>
        <path class="cls-2" d="M1861.81,104.02c9.68,11.68,14.55,27.32,14.55,46.84,0,28.6-11.38,56.15-34.14,82.6l-16.43-37.53c2.83-.87,6.75-2.15,11.38-3.88,8.97-12.17,13.45-25.36,13.83-39.27.53-17.11-5.61-28.19-18.46-32.93-2.83,17.33-8.59,35.35-17.56,53.96-7.99,16.5-16.2,28.86-24.61,37.08-17.52-16.24-26.45-35.76-26.64-58.11-.38-20.16,4.82-36.21,15.83-48.57,11.19-12.13,25.36-18.2,42.69-18.2,16.81.23,30.03,6.07,39.57,18.01ZM1791.68,169.25c10.06-16.88,16.77-34.22,19.93-51.59-7.27.87-13.6,4.33-18.62,10.4-5.24,6.1-7.65,13.45-7.46,22.12,0,7.16,2.03,13.68,6.14,19.07Z"/>
        <path class="cls-2" d="M1831.21,576.9l-11.76,13.64c-4.45-7.57-8.74-15.6-12.66-24.27l11-8.67c2.6,4.56,7.27,11.04,13.41,19.29Z"/>
        <path class="cls-2" d="M1815.38,696.13l-11.57,32.52-4.67-5.84c-2.6-2.83-7.84-7.35-15.49-13.23-.57,9.12-3.54,16.69-8.4,22.76-5.2,6.29-11.72,9.35-19.56,9.12-7.46,0-13.79-3.69-18.84-10.63-4.82-6.71-7.27-14.51-7.27-23.63,0-10.63,3.17-18.88,9.16-24.95,5.77-5.43,13.23-8.25,22.53-8.44,0-6.75.19-17.79.19-33.39-9.87,0-18.65.41-26.26,1.28l-6.93,1.73-1.28-35.99,7.08.87c4.82,0,13.98-.23,27.4-.64.38-3.69.38-9.35,0-17.33,0-2.19-.19-5.01-.57-8.7l23.51.68-.75,8.44v16.5c3.66,0,9.46.15,17.41.38.53,0,1.06.04,1.62.04.19,0,3.35-.23,9.5-1.09l-1.85,35.76c-1.88-.41-5.05-1.06-9.35-1.73-4.3-.19-10.06-.41-17.33-.41l-.19,37.95c8.21,3.47,17.15,8.44,26.68,15.19l5.24,2.79ZM1761.12,705.02v-4.75c-.94-.23-1.88-.23-2.83-.23-6.52,0-9.68,2.83-9.5,8.67.19,4.79,2.41,7.39,7.08,7.39,3.54-.23,5.24-3.92,5.24-11.08Z"/>
        <path class="cls-2" d="M1813.12,589.03l-11.95,13.87c-4.22-7.16-8.25-14.92-11.98-22.87-.23-.45-.45-.94-.68-1.39l11-8.89c2.79,4.75,7.27,11.27,13.6,19.29Z"/>
        <path class="cls-2" d="M1748.76,438.38c4.18,32.6,2.22,70.01-5.46,111.73l-54.15-41.98c3.69-4.15,7.8-9.19,12.81-16.09,4.03-45.07,1.36-91.15-7.95-139.09-.11-.38-1.73-5.09-4.48-14.28l43.3-9.12c6.41,38.36,11.83,74.2,15.94,108.83Z"/>
        <path class="cls-2" d="M1697.4,22.29l-.04.11-3.5,16.81,34.37,7.16c2.41.49,7.01,1.09,13.87,1.43l-14.39,55.54c-6.78-3.62-21.67-7.8-44.58-12.59l-4.37,21.06,32.86,6.82c3.09.3,7.46.45,13.57,1.36l-13.79,55.69c-7.69-3.81-22.27-7.91-43.3-12.66l-5.35,25.62c8.86,4.37,21.86,12.93,38.59,24.83,4.75,2.83,9.19,5.61,13.15,7.88l-27.06,55.85c-5.09-7.27-8.82-12.1-11.46-14.43-10.7-10.66-18.95-17.86-25.02-22.04-8.93,38.4-27.7,54.6-56.67,48.57-12.66-2.64-22.31-10.89-28.86-24.68-6.41-13.04-7.91-26.91-4.79-41.98,3.43-17.97,12.21-31.5,25.7-40.4,13.08-8.25,27.36-10.4,42.96-6.82,1.28-4.48,2.9-10.74,4.63-19.14-14.85-2.71-30.3-5.58-46.39-8.59l-11.57,1.28,10.4-57.5,11.98,4.33c10.85,2.26,26.3,5.12,46.61,8.97l4.07-21.1c-14.55-2.68-30.07-5.16-46.54-7.84l-11.42.53,10.1-57.58,11.08,4.18,47.52,9.12c.94-4.56,2.19-10.48,3.5-18.31.15-.68.79-5.31,1.77-13.15l35.91,8.93c-2.07,7.76-3.28,12.02-3.54,12.74ZM1616.08,231.28c.45-2.15.98-4.6,1.62-7.72-14.21-4.41-22.68-1.43-24.95,9.42-1.81,8.78.9,13.75,7.95,14.85,7.88,1.28,12.81-4.3,15.37-16.54Z"/>
        <path class="cls-2" d="M1720.84,695.3l1.28,32.93c-3.35.87-14.73,2.83-33.91,5.65-.38-3.28-1.32-9.99-2.64-19.97-.72-6.29-1.28-19.29-1.28-39.04s.19-31.65.34-37.91c0,0,.38-10.63,1.13-31.65l-.57-8.48,23.89.64-1.13,9.53c-.38,23.66-.57,43.6-.57,59.65,0,13,.19,23.4.38,31.65l13.08-3.01Z"/>
        <path class="cls-2" d="M1646.79,382.16l-1.88,34.89c-2.22-.41-5.39-.87-9.5-1.51-37.31-.87-71.97-.64-103.66.64-1.88.23-4.67.68-8.21,1.73l-.94-35.76c2.6.41,5.24.87,8.21,1.28,34.67-.87,69.71-.87,105.32-.41,2.26,0,5.8-.45,10.66-.87Z"/>
        <path class="cls-2" d="M1631.79,519.89l-13.45,56.11c-2.98-1.62-7.84-3.5-13.98-5.58-15.34-3.2-41.11-7.69-77.32-13.83l-12.02.34,9.53-57.88,11.38,3.69,83.47,15.9c2.52.41,6.67.68,12.4,1.24Z"/>
        <path class="cls-2" d="M1628.06,734.71l-14.17,66.51c-14.73-3.05-42.02-8.18-81.85-16.02l-1.54-31.05,7.95-45.75-70.65,82.37-18.09-65.3,17.9-4.67,72.16-77.59-44.28-2.19c-3.66.57-8.25.94-13.57,1.96l6.48-60.97,11.91,2.26c8.93.68,45.63,3.88,109.77,9.19,1.58.26,5.46.15,12.32-.3l-8.14,57.35c-7.16-1.88-11.19-2.9-12.85-2.79-3.47-.53-6.93-1.09-10.44-1.28l-25.85,30.49,16.32,2.94-2.71,8.97-8.03,46.5,35.01,5.54c8.03-1.7,15.19-3.96,22.35-6.18Z"/>
        <path class="cls-2" d="M1519.58,161.68l11.76,28.64c-6.33,8.44-14.55,17.11-24.61,25.77-10.44,9.12-19.78,13.45-27.62,13.45-9.31,0-17.33-6.93-24.04-20.8-5.8-12.13-8.78-24.08-8.78-35.57.19-16.69.38-46.61.94-90.21l-.94-12.1,25.17.83-1.47,9.8c-.94,31.65-1.32,59.16-1.51,82.6,0,6.71.94,13,2.83,18.84,2.41,8.25,6.33,12.13,11.15,11.95,4.11,0,10.1-4.15,18.28-11.95,7.08-6.71,13.45-13.87,18.84-21.25Z"/>
        <path class="cls-2" d="M1432.34,342.48l50.72,4.56c-.75,2.37-1.13,4.56-1.32,6.26-8.4,59.01-25.17,108.45-50.16,148.96l-21.44-35.31c3.92-1.54,7.99-3.28,11.91-5.65,14.92-24.27,25.36-52.04,31.73-83.69l-31.73-1.96c-6.33,17.15-14.17,33.84-23.48,49.67l-22.01-33.61c2.07-1.09,5.58-3.47,10.44-7.16,11.95-23.17,21.63-48.99,28.71-77.17l23.51,6.48c-.38,2.41-2.79,11.95-6.9,28.64Z"/>
        <path class="cls-2" d="M1418.96,79.53l-11.76,13.64c-4.67-7.57-8.93-15.6-12.85-24.27l11-8.7c2.79,4.79,7.27,11.3,13.6,19.33Z"/>
        <path class="cls-2" d="M1417.79,672.09l-26.26,26.87c-1.7-6.07-3.35-11.49-5.05-16.24-3.73-10.4-11.38-29.92-23.1-58.33l22.01-13.23c4.26,8.67,12.47,25.36,24.61,49.67,1.47,2.37,4.11,6.26,7.8,11.27Z"/>
        <path class="cls-2" d="M1400.69,91.89l-11.76,13.64c-4.48-7.57-8.78-15.83-12.7-24.31l11.04-8.67c2.6,4.56,7.27,11.08,13.41,19.33Z"/>
        <path class="cls-2" d="M1376.8,92.08v24.31l-13.98,42.47-19.93-13,7.84-19.29c-16.62-.45-35.99,0-57.81,1.32-.38,0-3.01.87-8.21,2.37l-.75-38.17c1.88.23,4.86.64,9.53.87,34.29-.64,62.06-1.06,83.32-.87Z"/>
        <path class="cls-2" d="M1375.33,175.77l-.57,37.95c-5.05-.45-8.03-.64-8.97-.64-32.26.64-57.62-.87-76.42-4.97-4.86-.45-6.93-.68-6.37-.68l4.11-34.89c1.32.41,3.54,1.28,6.71,2.37,15.86,2.41,33.76,3.47,54.07,3.47,5.8,0,11.76,0,17.9-.19,1.7-.45,4.86-1.09,9.53-2.41Z"/>
        <path class="cls-2" d="M1364.62,448.7l-18.24,38.59c-7.84-11.49-20.91-27.96-39-49.21-13.23,21.71-28.15,39.91-44.73,54.87l-13.45-39.87c2.07-.45,5.99-1.32,11.95-3.05,14.73-15.64,26.68-31.24,35.61-46.42,5.8-9.95,11.38-21.89,16.62-36.21-15.68.23-30.98.68-45.71,1.09l-8.37,2.19-1.13-40.55,9.31.87,74.23-.87-.57,26.87c-3.35,16.73-9.87,34.93-19.37,54.87,7.42,7.16,17.9,17.37,31.5,30.15.72.41,4.45,2.6,11.34,6.71Z"/>
        <path class="cls-2" d="M1343.97,671.22l-.75,34.71c-3.73,1.28-18.09,4.11-43.07,8.67l-3.92-23.44-.34-85.65,24.61.23-.94,8.25c-.38,16.47-.38,30.56-.38,42.05,0,8.67,0,15.83.19,21.48,8.03-1.77,16.2-3.69,24.61-6.29Z"/>
        <path class="cls-2" d="M1252.93,125.92l7.84,8.89-20.88,27.51-5.43-13.23c-4.45-8.86-13.04-26.87-25.7-53.96l19.75-13.04c3.35,7.2,7.46,14.77,12.13,22.57l12.28,21.25Z"/>
        <path class="cls-2" d="M1235.18,619.18l16.24,20.08c-1.32.53-3.35,1.62-6.37,3.28-33.35,24.42-50.34,41.79-50.68,52.27-.38,8.14,4.45,12.66,14.55,13.23,8.74.53,18.62-.38,29.28-2.56,3.13-1.06,5.77-2.34,7.99-3.43l3.92,30.22c-16.77,2.37-30.94,3.28-43.07,2.71-11.76-.53-21.06-3.81-27.77-9.76-7.27-6.52-11-15.22-11.19-26.42-.19-11.04,5.05-22.8,16.02-35.12l-16.02-52.83-3.01-6.52,23.7-7.05,1.47,8.33,12.51,39.79c8.03-7.05,16.99-14.09,26.87-21.33,2.03-1.66,3.92-3.28,5.58-4.9Z"/>
        <path class="cls-2" d="M1212.05,399.49l10.81,30.79c-12.28,12.81-33.2,27.96-62.48,45.52l-8.93-20.8-.75-118.36,25.36.64-1.32,10.17-.19,79.81c12.13-7.16,24.61-16.5,37.49-27.77Z"/>
        <path class="cls-2" d="M1208.77,132.85c.53,34.25-1.51,68.05-6.37,101.89l-33.39-29.92c3.39-1.28,8.4-3.66,14.73-7.16,2.07-14.73,3.2-30.98,3.39-48.76.15-3.92-.75-6.93-2.83-9.12-1.85-2.19-4.45-3.24-8.03-3.05-1.66,0-4.63.26-8.55.45-6.9,31.88-17.18,65.68-31.16,101.25l-21.82-31.43c2.07-1.09,5.24-3.47,9.53-6.71,7.46-17.79,14.17-37.98,20.12-60.29l-12.85,1.73-7.84,2.6-2.03-37.08,8.93.23c.94,0,7.84-.68,20.69-1.96,0-6.71,0-16.05.19-27.96l-.57-7.84,23.14.45-.94,8.03c0,5.65-.19,14.09-.38,25.36h7.84c8.21,0,14.92,2.6,19.78,7.39,5.39,5.43,8.18,12.59,8.4,21.89Z"/>
        <path class="cls-2" d="M1108.72,358.53l25.02,1.28c-2.07,21.89-4.3,42.28-7.08,61.8-2.45,18.43-8.97,38.59-19.22,60.29l-23.51-30.82c2.64-1.7,5.61-3.88,9.35-6.93,8.74-24.04,13.98-49.63,15.86-77.17,0-.23-.23-3.05-.41-8.44Z"/>
        <path class="cls-2" d="M1057.59,363.92l-2.41,38.4c-3.35-.87-6.56-1.51-9.68-1.73-3.58-.23-13.64-.45-30.03-.23-2.26,36.85-7.84,70.69-17.37,101.48l-26.83-31.24c2.41-1.28,5.58-3.66,9.87-7.16,5.77-21.03,9.53-42.05,11.19-62.85-11.38.23-23.33.64-35.42,1.28l-8.03,1.96-1.85-38.36,9.31,1.06c14.55-.41,27.06-.87,37.68-.87,0-10.4,0-22.31-.38-35.95-.19-1.54-.57-4.56-.94-8.7l24.42.23-.72,9.08v35.16c3.5,0,8.93-.23,16.02-.23,7.27-.23,12.66-.23,16.2-.23,1.13,0,4.15-.41,8.97-1.09Z"/>
        <path class="cls-2" d="M920.65,399.68l-.57,4.48-4.82,79.55h-65.08c-1.32,0-4.11.34-8.78,1.21l-1.13-25.13c2.98.53,6.18.87,9.53.87h22.76c11.34-.19,19.18-.19,23.48-.19.19-2.56.38-5.5.57-8.59l-44.77.15-7.27,1.21-.9-22.57,8.55.53,45.86-.15.38-8.63c-11.15-.15-27.58-.15-49.02.19-2.26.34-5.05.68-8.4,1.21l-1.13-24.64,8.97.72,71.79-.19Z"/>
        <path class="cls-2" d="M799.39,376.5l14.17,25.36c-22.95,35.35-50.53,63.31-82.41,83.69-.75.87-2.79,2.6-6.33,5.88l-12.13-35.8c.75-.19,3.17-.87,7.27-2.37,29.28-16.69,55.73-42.28,79.43-76.76Z"/>
        <path class="cls-2" d="M751.27,343.12l-12.85,27.77c-6.9-3.28-17.33-8.25-31.35-15.19l9.35-31.65c8.03,4.11,19.56,10.4,34.86,19.07Z"/>
        <path class="cls-2" d="M742.71,394.52l-10.48,27.51c-11.15-5.61-21.97-10.59-32.26-15.37l8.59-30.37c8.21,3.92,19.59,10.21,34.14,18.24Z"/>
        <path class="cls-2" d="M670.74,363.92l-2.41,38.4c-3.35-.87-6.56-1.51-9.72-1.73-3.54-.23-13.6-.45-30-.23-2.26,36.85-7.84,70.69-17.37,101.48l-26.83-31.24c2.41-1.28,5.58-3.66,9.87-7.16,5.77-21.03,9.5-42.05,11.19-62.85-11.38.23-23.33.64-35.42,1.28l-8.03,1.96-1.85-38.36,9.31,1.06c14.55-.41,27.02-.87,37.64-.87,0-10.4,0-22.31-.34-35.95-.19-1.54-.57-4.56-.94-8.7l24.42.23-.75,9.08v35.16c3.54,0,8.97-.23,16.05-.23,7.27-.23,12.66-.23,16.2-.23,1.13,0,4.11-.41,8.97-1.09Z"/>
        <path class="cls-2" d="M534.63,382.16l-1.85,34.89c-2.22-.41-5.43-.87-9.5-1.51-37.31-.87-71.97-.64-103.7.64-1.85.23-4.63.68-8.21,1.73l-.9-35.76c2.6.41,5.2.87,8.18,1.28,34.71-.87,69.75-.87,105.36-.41,2.26,0,5.8-.45,10.63-.87Z"/>
        <path class="cls-2" d="M379.49,420.1l-10.44,37.72-19.18-12.36c-8.03,20.57-17.37,39.68-28,57.47l-19.22-35.12c2.83-1.09,6.37-2.83,11.04-5.24,6.14-10.4,11.15-20.8,15.45-30.98l-22.2-14.55,5.61-12.44,5.58-12.28c3.92,2.41,11,6.07,21.25,11.27,2.45-8.44,4.48-17.11,6.37-26l-30.98-2.37c-3.05,8.89-6.52,17.45-10.33,25.74-3.84,8.25-8.03,16.2-12.59,23.89l-21.1-33.16c2.07-1.09,5.05-3.05,9.16-6.07,11.95-23.4,21.44-49.67,28.53-78.72l22.95,6.29c-2.45,11.27-4.67,20.8-6.75,28.6l50.19,4.79c-.57,1.96-1.13,4.15-1.51,6.29-2.79,20.84-7.08,41.19-12.85,60.48,2.03,1.09,4.82,2.41,8.18,4.11,1.7.9,5.24,1.77,10.81,2.64Z"/>
        <path class="cls-2" d="M221.37,358.3l16.62,21.67c-11.95,22.35-23.89,41-35.61,55.73-13.08,16.05-28.37,31.01-45.9,44.47-1.47,1.51-3.92,3.88-7.08,7.12l-13.98-32.71c3.73-1.09,6.33-1.96,8.03-2.64,31.31-22.72,57.24-53.96,77.93-93.64Z"/>
        <path class="cls-2" d="M171.22,375l-14.92,25.36c-8.74-7.57-20.5-17.56-35.8-29.69l13.98-27.09c6.33,5.2,18.65,15.6,36.74,31.43Z"/>
        <path class="cls-2" d="M79.69,325.56l17.15,22.99c-1.66,1.09-3.54,2.83-5.77,4.97-6.18,6.29-13.04,12.59-20.31,18.88l1.85,119.04-30.41-12.13,5.99-13.04.38-76.31c-12.89,9.31-27.06,17.97-42.36,25.81L.25,372.4c2.98,0,7.08-.23,11.95-.45,24.42-11.27,45.29-24.91,62.82-40.96.57-.68,2.07-2.37,4.67-5.43Z"/>
      </g>
      <g>
        <path class="cls-1" d="M1697.44,22.02c-.04.11-.04.19-.04.26l-.04.11-3.5,16.81,34.37,7.16c2.41.49,7.01,1.09,13.87,1.43l-14.39,55.54c-6.78-3.62-21.67-7.8-44.58-12.59l-4.37,21.06,32.86,6.82c3.09.3,7.46.45,13.57,1.36l-13.79,55.69c-7.69-3.81-22.27-7.91-43.3-12.66l-5.35,25.62c8.86,4.37,21.86,12.93,38.59,24.83,4.75,2.83,9.19,5.61,13.15,7.88l-27.06,55.85c-5.09-7.27-8.82-12.1-11.46-14.43-10.7-10.66-18.95-17.86-25.02-22.04-8.93,38.4-27.7,54.6-56.67,48.57-12.66-2.64-22.31-10.89-28.86-24.68-6.41-13.04-7.91-26.91-4.79-41.98,3.43-17.97,12.21-31.5,25.7-40.4,13.08-8.25,27.36-10.4,42.96-6.82,1.28-4.48,2.9-10.74,4.63-19.14-14.85-2.71-30.3-5.58-46.39-8.59l-11.57,1.28,10.4-57.5,11.98,4.33c10.85,2.26,26.3,5.12,46.61,8.97l4.07-21.1c-14.55-2.68-30.07-5.16-46.54-7.84l-11.42.53,10.1-57.58,11.08,4.18,47.52,9.12c.94-4.56,2.19-10.48,3.5-18.31.15-.68.79-5.31,1.77-13.15l35.91,8.93c-2.07,7.76-3.28,12.02-3.54,12.74"/>
        <path class="cls-1" d="M1697.36,22.4l.04-.04s-.04-.04,0-.08"/>
        <path class="cls-1" d="M1748.76,438.38c4.18,32.6,2.22,70.01-5.46,111.73l-54.15-41.98c3.69-4.15,7.8-9.19,12.81-16.09,4.03-45.07,1.36-91.15-7.95-139.09-.11-.38-1.73-5.09-4.48-14.28l43.3-9.12c6.41,38.36,11.83,74.2,15.94,108.83Z"/>
        <path class="cls-1" d="M1831.02,515.67l-24.76-31.5-55.02-201.94,43.67-10.44,2.37,18.05,35.91,136.41c17.48-17.71,34.55-39.3,51.44-64.44l32.44,47.71c-15.19,27.47-44.01,62.85-86.07,106.15Z"/>
        <path class="cls-1" d="M1613.89,801.22c-14.73-3.05-42.02-8.18-81.85-16.02l-1.54-31.05,7.95-45.75-70.65,82.37-18.09-65.3,17.9-4.67,72.16-77.59-44.28-2.19c-3.66.57-8.25.94-13.57,1.96l6.48-60.97,11.91,2.26c8.93.68,45.63,3.88,109.77,9.19,1.58.26,5.46.15,12.32-.3l-8.14,57.35c-7.16-1.88-11.19-2.9-12.85-2.79-3.47-.53-6.93-1.09-10.44-1.28l-25.85,30.49,16.32,2.94-2.71,8.97-8.03,46.5,35.01,5.54c8.03-1.7,15.19-3.96,22.35-6.18l-14.17,66.51Z"/>
        <path class="cls-1" d="M1618.34,576c-2.98-1.62-7.84-3.5-13.98-5.58-15.34-3.2-41.11-7.69-77.32-13.83l-12.02.34,9.53-57.88,11.38,3.69,83.47,15.9c2.52.41,6.67.68,12.4,1.24l-13.45,56.11Z"/>
      </g>
    </g>
  </g>
</svg>