<svg xmlns="http://www.w3.org/2000/svg" id="Layer_2" data-name="Layer 2" viewBox="0 0 1190.55 683.63"><defs><style>.cls-1{fill:#e2dfef}.cls-2{fill:#fef0d8}.cls-4{fill:#e0e0d7}.cls-5{fill:#fffbc5}.cls-9{fill:#e1efd5}.cls-10{fill:#fce2cb}.cls-12{fill:#e8f0c5}.cls-13{fill:#d3edf9}.cls-14{fill:#cfd1c9}.cls-16{fill:#fce9f2}.cls-17{fill:#e8f5fa}.cls-18{fill:#f6f5ec}.cls-19{fill:#f5fbfd}</style></defs><g id="_レイヤー_1" data-name="レイヤー 1"><path d="M53.56 340.75c13.87-4.02 31.23-9.05 51.43-4.82 9.9 2.08 19.46 6.17 33.71 3.85 6.85-1.11 8.01-2.6 17.34-3.96 14.34-2.08 16.68.71 26.01-1.7 11.43-2.96 10.14-7.73 21.19-10.71 8.78-2.37 10.96.27 27.93 0 11.38-.18 10.48-1.37 24.08-2.06 19.14-.96 21.48 1.36 33.71 0 9.18-1.02 16.08-3.53 29.86-8.54 13.99-5.08 25.71-9.34 39.49-16.37 5.01-2.56 10.85-5.76 19.26-6.5 3.31-.29 4.23.04 13.49 0 8.63-.04 12.95-.06 15.41-.44 3.33-.51 7.27-1.68 22.15-12.32 15.73-11.25 14.09-11.92 22.15-16.37 1.85-1.02.85-.39 20.23-9.63 9-4.29 9.27-4.46 10.6-4.82 10.41-2.82 13.79 1.9 24.08 0 8.2-1.52 6.83-4.66 16.37-6.8 10.26-2.3 19.45-.38 21.19 0 8.06 1.77 8.66 4.11 14.45 3.91 6.01-.21 6.38-2.77 14.45-3.91 7.18-1.01 8.87.74 13.49-1.11 4.93-1.98 5.07-4.82 8.93-7.5 7.8-5.42 15.22.59 31.52 0 13.86-.5 13.3-5.02 22.15-3.79 11.19 1.55 14.92 9.16 28.9 19.2 5.75 4.13 13.78 7.89 29.86 15.41 24.75 11.58 30.97 12.09 52.01 22.08 19.16 9.1 15.1 9.2 30.82 16.45 16.87 7.77 33.4 12.25 66.46 21.19 23.36 6.32 28 6.75 32.75 6.74 15.14-.02 19.88-4.42 31.79-.96 7.28 2.11 7.79 4.42 22.15 9.63 12.02 4.36 15.78 4.24 18.3 3.85 8.27-1.27 9.4-6.36 16.37-7.71 9-1.74 14.55 5.29 24.08 9.81 12.8 6.07 17.34.29 47.2.07 12.55-.09 26.03 1.5 52.98 4.68 17.14 2.02 25.71 3.03 33.66 4.71 13.49 2.84 32.7 8.37 54.96 20.23H0c21.26-20.65 42.42-28.56 53.56-31.79" style="fill:#231916"/><path d="M624.79 222.78c1.19-4.35 2.53-11.19 1.77-19.43-.89-9.63-3.95-13.48-1.77-19.43 1.89-5.15 7.65-11.76 14.57-10.6 5.65.95 10.4 6.8 10.6 14.13.61-3.2 2.03-8.41 5.74-13.69 6.46-9.18 15.52-12.37 19.43-13.69 11.52-3.88 21.16-1.53 26.05-.27 5.37 1.39 8.82 2.33 11.04 5.57 4.9 7.15-1.27 18.14-1.77 18.99-3.16 5.46-7.64 8.37-10.6 10.16-14.86 9-35.53 16.56-52.11 19.43-2.42.42-9.52 1.56-17.66 5.74a57 57 0 0 0-5.3 3.09Z" style="fill:#e60013"/><path d="M739.15 36.89c1.38 3.81 1.19 7.88.03 11.79l-1.3 4.38c-2.78 9.4-2.39 4.97-6.09 12.91-.69 1.47-1.81 3.05-2.78 4.41-.07 2.91.34 8.43-2.48 10.4l4.27 3.67c1.83 1.58 3.16 3.28 3.85 5.62.41 1.42 1.43 3.16 1.7 4.47.59 2.76-2.04 4.77-3.65 6.46-1.36 1.42-2.64 3.27-4.55 3.57l-3.57.56-11.15 2.41c-.86-3.42-1.84-5.99-2.69-9.12l-.97-3.56c-2.55-9.38-1.75-7.3-2.56-17.19-5.66.08-10.53 1.51-15.77 2.51-5.64 1.08-7.66 1.01-13.33 2.21-3.18.67-6.34 1.21-9.55 1.7l-11.47 1.71-7.67 1.28c-6.67 1.1-11.71 3.5-17.83 5.89l-2.3 3.46-1.66-1.1c.88-1.34 1.69-2.73 2.42-4.15.78-1.52.82-2.08 2.65-2.26 1.92-.19 4.02-.88 5.99-1.45 5.19-1.51 10.27-2.67 15.55-3.77l3.7-.77 10.8-1.27 7.12-1.22 5.26-1.16 19.4-3.36c3.37-.58 6.66-.47 9.89-1.59l-18.33-1.41-10.9-1.48c-2.51-.34-4.88-.43-7.43-.6-9.4-.66-18.57-1.33-28.03-1.37-4.51 0-9.63 2.45-10.52 1.6-.33-.31-.27-1.3-.25-2 .05-1.81-1.14-3.52-1.79-5.21-2.03-5.29-5-9.8-8.64-14.12-1.6-1.89-3.06-3.77-5.13-5.15l-4.95-3.3c-.98-.66-2.25-2.25-3.35-2.54l-5.75-1.53c-.57-.95-1-1.51-1.74-2.39l1.23-1.55 1.29-6.1c-3.28 2.03-5.46.31-5.87 1.27-1.5 3.59-1.33 2.86-.78 4.6.67 2.08-2.18 3.35-3.98 3.17-8.51-.9-5.82.11-13.92.3-4.08.09-8.05.03-12.13.63-5.49.82-10.94 1.95-16.23 3.51l-.48-1.63 6.88-2.02c7.43-2.17 14.91-2.67 22.6-2.72 1.67-.01 3.57-.2 5.16-.44l8.69-1.32c2.32-5.49-1.55-4.8.37-8.21.17-.3-.37-1.08-.6-.87-.66.61-1.76 1.79-2.47 2.13l-6.14 3.01-5.72 1.58c-2.27.63-4.25.89-6.55.9-7.83.06-12.22-.55-19.87-1.6-2.4-.32-4.45-1.01-6.59-2.05-3.55-1.71-5.72-4.26-7.9-7.4-2.46-3.54-5.63-6.73-5.98-12.02-.09-1.46-.3-3.83.69-4.99l6.11-2.12c2.71-.94 5.77-.67 8.74-.27l4.6.61 8.04 1.07c5.17.69 10.03 1.78 15.07 3.16l8.25 2.25c2.03.55 3.41 1.79 5.06 2.94 2.99 2.08 6.49 3.51 8.55 5.47 1.4-1.15 3.17-2.59 5.21-2.78 1.08-.1 3.33.49 3.95 1.34l1.94 2.65 9.13-2.35c2.19-.56 4.89-1.12 7.19-1.21l14.7-.61c3.26-.14 6.35-.05 9.57-.05l7.7-.02c4.13 0 8 .26 11.91 1.76l4.54 1.74c.63 5.15-7.68 15.81-11.24 18.92-3.19 2.79-6.72 4.84-10.74 5.98-1.5.42-3.07.09-4.59-.05-6.6-.62-13.26-2.14-19.16-5.1l-4-2.01c-1.93-.98-3.86-1.98-5.53-3.27l-5.99-4.63c-1.33-1.02-2.2-1.87-3.65-3.49-1.36 1.8-2.12 4.11-2.56 6.34l-.78 3.98 3.15 2.09c2.54 1.69 4.98 3.19 7.4 5.06 2.19 1.7 4.84 3.11 6.49 5.21 1.15 1.47 2.12 3.01 3.33 4.29 1.77 1.89 3.15 3.79 4.29 6.08l2.81 5.64c.87 1.75 1.68 3.66 2.41 5.56 11.57-.33 22.42.3 34.21 1.21 5.9.46 11.49.64 17.31 1.76 1.04.2 2.44.49 3.45.56l12 .86 2.16-3.27 9.05-12.03c2.69-3.57 4.74-7.45 7.74-10.77 1.05-1.17 2.26-2.28 3.18-3.51 2.4-3.19 5.32-5.27 9.02-6.74.69-.27 1.79-.59 2.46-.37.56.19 1.11 1.27 1.37 2m-4.11 16.88c1.56-4.23 4.11-11.72 1.18-15.79-3.85.53-6.17 3.1-8.56 5.58-4.15 4.29-7.42 8.77-10.6 13.86-1.89 3.03-4.36 5.69-6.48 8.6-1.32 1.79-2.71 3.26-3.42 5.51 2.97.25 5.56.54 8.1.27.7-.08 1.54-1.3 2.82-.62.76-.11 2.19-1.45 2.98-1.68 4.52-1.32 5.99-.45 6.78-1.87l2.47-4.36c1.79-3.17 3.47-6.06 4.73-9.5m-2.82 44.66c2.08-1.52 1.96-3.03 1.29-5.12-.77-2.42-1.58-4.88-3.65-6.68L724 81.55c-5.42.09-6.06-1.1-9.74-4.48-.94-.3-3.04-.07-3.88.43-.66 1.43-.37 3.24-.3 4.79l.13 2.83c.3 6.62 2.8 12.61 5.2 18.83 2.39.5 10.77-1.53 13.05-2.31 1.47-.5 2.74-2.47 3.76-3.21m-6.59-20.4c.64-.9 1.19-3.24.63-4.1l-1.54-2.34c-2.99-.03-7.98 3.94-7.12 5.8.19.42 1.25.84 1.55.49.45-.53 1.04-1.17 1.48-1.21.98-.09 3.5 3.45 5 1.36m-61.69-45.25c5.43-5.56 9.33-12.72 8.76-14.27-.11-.3-.67-.67-1.06-.82-5.17-2.04-10.47-2.18-15.94-2.23l-8.46-.09-17.58.69c-4.25.16-8.04 1.14-12.16 2.1l-2.81.66c-.48.11-.57 1.75-.35 2.13 7.11 4.69 9.32 5.06 17.11 7.65 4.33 1.44 8.73 2.12 13.3 2.23l8.12.2c2.35.06 4.87.15 7.13-.41 1.17-.29 2.25-1.11 3.75-.61.08.68-.46 2.2-1.02 2.71-.5.45-1.79.75-2.66.76h-6.57l-6.87-.16c-4.67-.12-10.48-.67-15-1.83-1.44-.38-11.24-4.22-14.28-5.46.96 1.28 2.3 2.24 3.8 3.15 6.22 3.81 9.82 5.77 16.75 7.95 2.36.75 4.58 1.01 7.21 1.47l5.09.88c4.6.8 9.61-2.49 13.74-6.7m-59.98-7.06c.61-.21 5.8-5.36 2.89-8.98-.43-.52-1.97-.92-2.61-.75-2.18.61-3.46 2.8-4.43 4.74-.64 1.28-1.55 2.75-1.5 4 1.5 1.34 3.55 1.72 5.65.99m-8.61-4.66 2.5-1.9c-.63-1.11-1.09-2.52-1.91-3.04l-4.39-2.78c-2.35-1.5-4.3-2.86-7.01-3.64l-12.76-3.67c-1.79-.51-9.56-1.88-11.74-2.13l-9.21-1.07-3.63-.33c-3.09-.28-6.06-.51-8.9 1.41-1.18.8-.64 2.39-.15 3.54 1.5 3.52 3.94 5.87 7.26 7.68l9.59 5.22c5.76 3.13 6.7 1.66 12.24 1.74 7.32.1 14.9-1.6 20.98-5.63.89-.58 2.72-.41 2.77 1.07-1.79.97-3.86 2.96-5.81 3.58-5.95 1.9-12.07 3.09-18.33 3.35-10.65.45-9.73-.5-17.25-4.47-3.46-1.82-6.57-3.49-9.8-5.78-.33.83.43 1.72 1.06 2.49l4.78 5.79c3.73 4.52 14.92 5.51 20.59 5.87 8.09.51 13.82.66 21.38-2.69 2.8-1.24 5.28-2.74 7.74-4.61"/><path d="M736.22 37.98c2.93 4.07.38 11.56-1.18 15.79-1.26 3.44-2.94 6.33-4.73 9.5l-2.47 4.36c-.79 1.42-2.26.55-6.78 1.87-.79.23-2.22 1.57-2.98 1.68-1.28-.68-2.12.54-2.82.62-2.54.27-5.13-.02-8.1-.27.71-2.25 2.1-3.72 3.42-5.51 2.12-2.91 4.59-5.57 6.48-8.6 3.18-5.09 6.45-9.57 10.6-13.86 2.39-2.48 4.71-5.05 8.56-5.58m-2.71 55.33c.67 2.09.79 3.6-1.29 5.12-1.02.74-2.29 2.71-3.76 3.21-2.28.78-10.66 2.81-13.05 2.31-2.4-6.22-4.9-12.21-5.2-18.83l-.13-2.83c-.07-1.55-.36-3.36.3-4.79.84-.5 2.94-.73 3.88-.43 3.68 3.38 4.32 4.57 9.74 4.48l5.86 5.08c2.07 1.8 2.88 4.26 3.65 6.68" class="cls-17"/><path d="M726.26 73.93c.56.86.01 3.2-.63 4.1-1.5 2.09-4.02-1.45-5-1.36-.44.04-1.03.68-1.48 1.21-.3.35-1.36-.07-1.55-.49-.86-1.86 4.13-5.83 7.12-5.8zm-34.18-1.01 18.33 1.41c-3.23 1.12-6.52 1.01-9.89 1.59l-19.4 3.36-5.26 1.16-7.12 1.22-10.8 1.27-3.7.77c-5.28 1.1-10.36 2.26-15.55 3.77-1.97.57-4.07 1.26-5.99 1.45-1.83.18-1.87.74-2.65 2.26a45.3 45.3 0 0 1-7.41 10.45c-1.71 1.79-4.15 2.68-6.32 3.77-2.92 1.46-4.15 1.91-7.23 2.26l-6.75.77c-1.51.17-2.74.27-4.15.53-4.8.87-9.63-.06-14.46-.01h-1.09l-9.63.12c-7.46.08-14.88-4.11-18.1-3.39-3.28.72-6.7-1.19-10.83-1.63-.37-.04-.75-.07-1.13-.08-8.48-.3-5.82-1.92-14.1-4.51-2.46-.77-4-2.05-5.45-4.05-1.32-1.82-2.46-3.44-3.12-5.84l-2.69-1.07c-.74-3.6-1.73-8.27-1.24-11.91l.82-6.17c.93-.71 6.63 1 9.2.52l5.86-1.11 7.53.03c5.47.03 1.42.64 7.14.55l-.85 5.12c-.44 2.68-1.44 5.53-.82 8.28l1.22 5.35 5.93 2.83 7.01 2.11c1.5.44 3.56.38 5.13.24 1.58-.14 3.01.02 4.59.05l7.96.14c7.77.13 13.55-11.82 16.08-17.84 1.2-2.84 2.12-6.05 3.54-8.54.97-1.72.95-2.08.92-3.72-.01-1.2 1.66-8.28 1.77-12.28.06-2.25-.38-4.28.79-6.4-2.19-1.29-4.54-.85-6.82-1.26-3.21-.59-6.31-2.06-9.78-2.26-4.75-.27-10.21-.07-14.44 2.37l-4.05 2.33c-4.79 2.77-16.52 13.06-16.46 19.68-2.33 2.31-8.45-.21-13.83.54-6.33.88-8.58 2.39-16.12.18 3.4-8.09 8.79-16.41 17.03-19.9l8.15-3.44c3.05-1.29 6.18-2.39 9.36-3.33 5.29-1.56 10.74-2.69 16.23-3.51 4.08-.6 8.05-.54 12.13-.63 8.1-.19 5.41-1.2 13.92-.3 1.8.18 4.65-1.09 3.98-3.17-.55-1.74-.72-1.01.78-4.6.41-.96 2.59.76 5.87-1.27l-1.29 6.1-1.23 1.55c.74.88 1.17 1.44 1.74 2.39l5.75 1.53c1.1.29 2.37 1.88 3.35 2.54l4.95 3.3c2.07 1.38 3.53 3.26 5.13 5.15 3.64 4.32 6.61 8.83 8.64 14.12.65 1.69 1.84 3.4 1.79 5.21-.02.7-.08 1.69.25 2 .89.85 6.01-1.61 10.52-1.6 9.46.04 18.63.71 28.03 1.37 2.55.17 4.92.26 7.43.6zm-67.31-2.87c1.71-2.39 2.18-4.67 1.94-7.57-.53-6.46-5.15-8.77-5.63-9.34l-2.45-2.89-6.42-4.42c-4.22-2.91-10.09-2.46-10.48-1.32-.26.76.15 1.71.72 2.33 1.4 1.54 1.18 3.75 1.17 5.72 0 2.07.07 4.07-.26 6.13-.65 4.14-1.7 8.19-3 12.17-.34 1.04-1.88 2.37-.36 3.54l6.39-.9 3.89-.36 11.46-1.16c1.45-.15 2.19-.77 3.03-1.93" style="fill:#f3e7f2"/><path d="M672.7 18.51c.57 1.55-3.33 8.71-8.76 14.27l-1.21-.06c.56-.51 1.1-2.03 1.02-2.71-1.5-.5-2.58.32-3.75.61-2.26.56-4.78.47-7.13.41l-8.12-.2c-4.57-.11-8.97-.79-13.3-2.23-7.79-2.59-10-2.96-17.11-7.65-.22-.38-.13-2.02.35-2.13l2.81-.66c4.12-.96 7.91-1.94 12.16-2.1l17.58-.69 8.46.09c5.47.05 10.77.19 15.94 2.23.39.15.95.52 1.06.82" class="cls-17"/><path d="m662.73 32.72 1.21.06c-4.13 4.21-9.14 7.5-13.74 6.7l-5.09-.88c-2.63-.46-4.85-.72-7.21-1.47-6.93-2.18-10.53-4.14-16.75-7.95-1.5-.91-2.84-1.87-3.8-3.15 3.04 1.24 12.84 5.08 14.28 5.46 4.52 1.16 10.33 1.71 15 1.83l6.87.17h6.57c.87-.02 2.16-.32 2.66-.77" class="cls-17"/><path d="m629.29 96.43-2.34 3.54c-4.17 6.3-5.23 5.42-12.11 8.93 2.74 6.88 2.76 5.5 7.13 7.9l5.18 2.84c.42 5.18-4.23 6.21-7.66 8.67-4.48.4-8.88.86-13.25.77-2.14-.04-4.12-.25-6.28-.16-11.09.47-15.09-2.06-26.1-2.06l-.02-2.22h.81c13.46-.08 13.49 2.57 25.78 2.05l15.67-.67c1.47-.06 3.12-1.14 4.63-2.05-1.34-.91-3.38-1.92-4.78-1.66l-3.52.65c-.87.16-2.57 1.07-2.72-.56-.24-2.68-2.57-8.58-3.91-11.34-1.12-.31-2.81-.12-3.72.38-.02 3.86 2.68 4.91 2.52 5.62l-.37 1.66c-.05.24.74.82.6 1.02l-.52.74c-.34.48-.75 1.02-1.07 1.26 0-.21-8.18-.46-9.26-.61-2.64-.34-4.94-.38-7.61-.26-1.91.09-4.02-.13-6.02-.25l-3-.17.13-2.33c4.15.31 8.68.25 11.77-.01-1.41-.61-2.91-.85-4.56-.89-3.79-.1-7.37-.22-11.08-.53-.35-.03-.67-.06-.99-.06l.08-2.35 2.01.07 10.17.45 14.54.75c.63-.77.46-2.64-.26-3.59l-6.54-.21c-1.73-.05-3.32-.27-5.03-.14-1.35.1-2.76-.23-4.07-.26h-.85l-.03-2.37h1.09c4.83-.06 9.66.87 14.46 0 1.41-.26 2.64-.36 4.15-.53l6.75-.77c3.08-.35 4.31-.8 7.23-2.26 2.17-1.09 4.61-1.98 6.32-3.77a44.6 44.6 0 0 0 4.99-6.3l1.66 1.1Zm-5.81 25.93c.23.1.47-1.25.26-1.38-.89-.55-2.81-1.46-4.1-1.83l2.88 2.7c.2.18.73.41.96.51m-6.74-3.14-2.63-5-1.89-4.08c-1.19.05-2.53.17-3.45.35 2 4.54 1.22 5.08 3.98 9.57zm9.97-56.74c.24 2.9-.23 5.18-1.94 7.57-.84 1.16-1.58 1.78-3.03 1.93l-11.46 1.16-3.89.36-6.39.9c-1.52-1.17.02-2.5.36-3.54 1.3-3.98 2.35-8.03 3-12.17.33-2.06.25-4.06.26-6.13.01-1.97.23-4.18-1.17-5.72-.57-.62-.98-1.57-.72-2.33.39-1.14 6.26-1.59 10.48 1.32l6.42 4.42 2.45 2.89c.48.57 5.1 2.88 5.63 9.34m-4.91 6.59c2.07-.47 3.08-6.44 2.33-8.23-1.57-3.71-4.62-6.2-7.38-8.86-1.53-1.47-2.68-2.78-4.96-3.31.09 5.79.54 4.18.27 10.25-.16 3.78-.37 7.59-.74 11.35l5.3-.25c1.45-.07 3.49-.56 5.18-.95m-13.47 1.43c.94-7.59 1.56-16.71.27-23.64-.86-.27-2.07-.27-2.76-.08.75 2.42.14 12.88-.29 14.55l-2.5 9.75z"/><path d="M624.13 60.84c.75 1.79-.26 7.76-2.33 8.23-1.69.39-3.73.88-5.18.95l-5.3.25c.37-3.76.58-7.57.74-11.35.27-6.07-.18-4.46-.27-10.25 2.28.53 3.43 1.84 4.96 3.31 2.76 2.66 5.81 5.15 7.38 8.86" class="cls-18"/><path d="M623.74 120.98c.21.13-.03 1.48-.26 1.38s-.76-.33-.96-.51l-2.88-2.7c1.29.37 3.21 1.28 4.1 1.83m-20.5.75c.32-.24.73-.78 1.07-1.26l.52-.74c.14-.2-.65-.78-.6-1.02l.37-1.66c.16-.71-2.54-1.76-2.52-5.62.91-.5 2.6-.69 3.72-.38 1.34 2.76 3.67 8.66 3.91 11.34.15 1.63 1.85.72 2.72.56l3.52-.65c1.4-.26 3.44.75 4.78 1.66-1.51.91-3.16 1.99-4.63 2.05l-15.67.67c-12.29.52-12.32-2.13-25.78-2.05h-.81c-1.89.03-4.06.08-5.71-.5-3.09-1.09-5.64-.94-8.85-1.19l-8.08-.63c-8.13-.63-20.02-.98-27.09-5.16-2.14-1.27-4.01-3.13-5.92-4.92-1.56-1.46-1.72-5.4-.16-6.71 1.83-1.55 3.76.77 4.74 2.03.74.94 2 1.66 2.78 2.47 1.3 1.36 2.61 2.47 4.47 3.29l5.24 2.32 2.4-1.38c-.33-1.92 1.31-3.31 2.7-4.14.46-.31.42-1.91.64-2.47.35-.91 1.63-1.3 2.82-1.22.76.06 1.49.31 1.93.76l-2.38 4.7c-.44.85-2.26 2.63-.72 3.57 3.3.96 7.03 2.06 10.61 2.4l7.41.69 8.4 1.24c1.47.22 2.83.35 4.28.43l4 .22 3 .17c2 .12 4.11.34 6.02.25 2.67-.12 4.97-.08 7.61.26 1.08.15 9.26.4 9.26.61Z" class="cls-2"/><path d="m614.11 114.22 2.63 5-3.99.84c-2.76-4.49-1.98-5.03-3.98-9.57.92-.18 2.26-.3 3.45-.35z" class="cls-2"/><path d="M608.6 46.86c1.29 6.93.67 16.05-.27 23.64l-5.28.58 2.5-9.75c.43-1.67 1.04-12.13.29-14.55.69-.19 1.9-.19 2.76.08" class="cls-18"/><path d="M606.85 16.74c2.91 3.62-2.28 8.77-2.89 8.98-2.1.73-4.15.35-5.65-.99-.05-1.25.86-2.72 1.5-4 .97-1.94 2.25-4.13 4.43-4.74.64-.17 2.18.23 2.61.75" class="cls-17"/><path d="M600.17 45.75c-1.17 2.12-.73 4.15-.79 6.4-.11 4-1.78 11.08-1.77 12.28.03 1.64.05 2-.92 3.72-1.42 2.49-2.34 5.7-3.54 8.54-2.53 6.02-8.31 17.97-16.08 17.84l-7.96-.14c-1.58-.03-3.01-.19-4.59-.05-1.57.14-3.63.2-5.13-.24l-7.01-2.11-5.93-2.83-1.22-5.35c-.62-2.75.38-5.6.82-8.28l.85-5.12c-5.72.09-1.67-.52-7.14-.55l-7.53-.03-5.86 1.11c-2.57.48-8.27-1.23-9.2-.52l-2.02-.59c1.64-5.26 4.69-10.58 7.57-14.6 1.06-1.47 2.3-2.76 3.55-4.23 2.51-2.95 10.6-6.24 14.6-8.12 2.06-.96 4.15-1.59 6.32-2.23l5.54-1.62.48 1.63c-3.18.94-6.31 2.04-9.36 3.33l-8.15 3.44c-8.24 3.49-13.63 11.81-17.03 19.9 7.54 2.21 9.79.7 16.12-.18 5.38-.75 11.5 1.77 13.83-.54-.06-6.62 11.67-16.91 16.46-19.68l4.05-2.33c4.23-2.44 9.69-2.64 14.44-2.37 3.47.2 6.57 1.67 9.78 2.26 2.28.41 4.63-.03 6.82 1.26m-3.58 8.36c.4-1.99-.15-4.13-.48-6.34l-7.77-1.67c-1.91-.41-3.62-1.06-5.54-1.12-3.81-.1-7.55-.23-11.13 1.28-2.53 1.08-4.98 2.15-7.11 3.9-.19.16-.39.31-.59.46-1.39 1.05-2.94 1.98-4.18 3.15-3.83 3.61-8.57 8.74-9.78 13.47 1.4-1.15 2.21.25 3.37.44 2.9.46 5.91-.11 8.79-.1l5.42.02c.27-1.6.74-2.59 1.8-3.29l4.22-2.78c-1.37-.66-3-1.82-3.23-3.5l-.72-5.39c-1.13.19-2.72.25-3.25-.3-.17-.18-.16-.82-.04-1.25.07-.21.15-.37.27-.41 1.03-.35 5.21-1.39 6.42-.32-.22 2.49-1.43 5.99.72 7.74 1.9 1.55 5.18-1.09 5.66-3.38.4-1.89.44-3.58 1.17-4.94.6-1.12 2.4-.23 3.17.29 1.93 1.31 5.28.2 5.51 1.67.11.72-.99 2.1-1.53 2.14l-4.6-1.07c-2.55 5.7-.78 4-5.49 8.27 2.37.98 3.57 2.67 3.57 5.1.22.94 5.69 0 6.25-.16 1.88-.51 3.34-.84 5.31-.78.45.01 1.53-.17 1.64-.58.1-.38.25-1.12.35-1.6zm-4.96 19.01 1.76-5.16-11.78 1.64c-.85 2.54-1.99 5.23-4.71 6.16-1.99.68-4.03-.44-5.93-1.03-2.15-.67-3.31-1.86-2.98-4.65l-6.96.13-11.78.15c-1.5 4.44-3.43 14.93.6 17.54 3.54 2.3 7.87 2.97 12.03 3.83 1.55.31 3.28-.03 4.81 0l6.31.13c3.38.06 6.88.1 9.39-2.41 4.58-4.58 7.18-10.28 9.24-16.33m-12.88-3.47-6.96.12c-.41.01-1.35.41-1.32.82.2 2.55 4.28 3.24 6.16 2.33 1.16-.56 1.99-2.32 2.12-3.27m-.3-2.74c.2-.98-.3-2.04-1.1-2.56-1.31-.84-6.09.71-6.57 3.08z"/><path d="m597.85 19.16-2.5 1.9c-2.46 1.87-4.94 3.37-7.74 4.61-7.56 3.35-13.29 3.2-21.38 2.69-5.67-.36-16.86-1.35-20.59-5.87l-4.78-5.79c-.63-.77-1.39-1.66-1.06-2.49 3.23 2.29 6.34 3.96 9.8 5.78 7.52 3.97 6.6 4.92 17.25 4.47 6.26-.26 12.38-1.45 18.33-3.35 1.95-.62 4.02-2.61 5.81-3.58-.05-1.48-1.88-1.65-2.77-1.07-6.08 4.03-13.66 5.73-20.98 5.63-5.54-.08-6.48 1.39-12.24-1.74l-9.59-5.22c-3.32-1.81-5.76-4.16-7.26-7.68-.49-1.15-1.03-2.74.15-3.54 2.84-1.92 5.81-1.69 8.9-1.41l3.63.33 9.21 1.07c2.18.25 9.95 1.62 11.74 2.13l12.76 3.67c2.71.78 4.66 2.14 7.01 3.64l4.39 2.78c.82.52 1.28 1.93 1.91 3.04" class="cls-17"/><path d="M596.11 47.77c.33 2.21.88 4.35.48 6.34l-1.8 8.95c-.1.48-.25 1.22-.35 1.6-.11.41-1.19.59-1.64.58-1.97-.06-3.43.27-5.31.78-.56.15-6.03 1.1-6.25.16 0-2.43-1.2-4.12-3.57-5.1 4.71-4.27 2.94-2.57 5.49-8.27l4.6 1.07c.54-.04 1.64-1.42 1.53-2.14-.23-1.47-3.58-.36-5.51-1.67-.77-.52-2.57-1.41-3.17-.29-.73 1.36-.77 3.05-1.17 4.94-.48 2.29-3.76 4.93-5.66 3.38-2.15-1.75-.94-5.25-.72-7.74-1.21-1.07-5.39-.03-6.42.32-.12.04-.2.2-.27.41l-2.4-.47c.2-.15.4-.3.59-.46 2.13-1.75 4.58-2.82 7.11-3.9 3.58-1.51 7.32-1.38 11.13-1.28 1.92.06 3.63.71 5.54 1.12zm-9.01 9.85c.3-.72.44-1.59.15-1.87s-1.21-.6-1.76-.62c-.85-.04-1.91.89-2.11 1.69-.18.72.57 1.73 1.4 2.08.64.27 1.94-.36 2.32-1.28m6.29 10.34-1.76 5.16c-2.06 6.05-4.66 11.75-9.24 16.33-2.51 2.51-6.01 2.47-9.39 2.41l-6.31-.13c-1.53-.03-3.26.31-4.81 0-4.16-.86-8.49-1.53-12.03-3.83-4.03-2.61-2.1-13.1-.6-17.54l11.78-.15 6.96-.13c-.33 2.79.83 3.98 2.98 4.65 1.9.59 3.94 1.71 5.93 1.03 2.72-.93 3.86-3.62 4.71-6.16zm-7.12 5.77c.04-.61-.81-1.85-1.4-1.89-.55-.04-1.43.21-2.18.56-.93.43-1.12 1.48-1.03 2.44.06.73.95 2 1.69 2 1.7.01 2.8-1.44 2.92-3.11" class="cls-18"/><path d="M587.25 55.75c.29.28.15 1.15-.15 1.87-.38.92-1.68 1.55-2.32 1.28-.83-.35-1.58-1.36-1.4-2.08.2-.8 1.26-1.73 2.11-1.69.55.02 1.47.34 1.76.62m-2.38 16.09c.59.04 1.44 1.28 1.4 1.89-.12 1.67-1.22 3.12-2.92 3.11-.74 0-1.63-1.27-1.69-2-.09-.96.1-2.01 1.03-2.44.75-.35 1.63-.6 2.18-.56"/><path d="M584.69 117.21c1.65.04 3.15.28 4.56.89-3.09.26-7.62.32-11.77.01-2.51-.2-4.89-.53-6.71-1.04.68-.35 1.25-.45 1.85-.45.32 0 .64.03.99.06 3.71.31 7.29.43 11.08.53" class="cls-2"/><path d="m582.64 108.96.03 2.37c-2.46 0-4.9.29-7.42.43-2.26.13-4.56-.34-6.84-.55-7.23-.68-6.54-1.66-12.72-1.7-.35 0-1.45-.43-1.52-.09l-.28 1.34c-.05.25.12.94.21 1.2.06.18.95-.47 1.14-.44 6.29 1.13 6.77 2.4 13.19 2.61l4.27.14-.08 2.35c-.6 0-1.17.1-1.85.45 1.82.51 4.2.84 6.71 1.04l-.13 2.33-4-.22c-1.45-.08-2.81-.21-4.28-.43l-8.4-1.24-7.41-.69c-3.58-.34-7.31-1.44-10.61-2.4-1.54-.94.28-2.72.72-3.57l2.38-4.7c-.44-.45-1.17-.7-1.93-.76l.26-2.38c4.13.44 7.55 2.35 10.83 1.63 3.22-.72 10.64 3.47 18.1 3.39zm-29.32 5.75c-2.54.71 7.11 1.61 6.93 1.01-.83-.86-5.55-1.4-6.93-1.01m-3.16.32 1.56-6.69c-1.02-.34-3.02-.99-3.54-.31-1.14 1.48-1.74 3.11-2.56 4.9z"/><path d="m571.79 69.77 6.96-.12c-.13.95-.96 2.71-2.12 3.27-1.88.91-5.96.22-6.16-2.33-.03-.41.91-.81 1.32-.82m5.56-5.42c.8.52 1.3 1.58 1.1 2.56l-7.67.52c.48-2.37 5.26-3.92 6.57-3.08" class="cls-16"/><path d="m573.84 124.64.02 2.22c-.92 0-1.89.02-2.92.06-3.04.11-5.84-1.02-8.76-1.23l-11.8-.87c-3.09-.22-6.09.07-9.19-.48-2.39-.42-4.91-.49-7.19-1.09-1.79-.46-3.41-1.05-5.24-1.39-1.18-.22-2.91-.3-3.74-.91-2.17-1.59-4.08-2.9-6.37-4.35-3.49-2.19-5.78-6.31-4.26-10.46.39-1.06 1.88-2.94 2.89-3.46 1.48-.76 4.07-.26 5.48.5 1.18.63 2.16 2.56 3.39 2.91 7.82 2.2 4.71 1.29 11.03 1.78.63.04 1.6-1.27 1.53-1.66-2.83-1.08-5.2-2.19-7.93-3.48-2.25-1.06-5.19-1.11-7.02-3.11-1.64-1.8-3.11-4.14-5.14-5.54-1.07-.75-2.33-1.26-2.66-2.73l-1.72-7.79c-.46-2.08-.34-4.55-.31-6.77.02-2.23.48-4.59 1.22-6.96l2.02.59-.82 6.17c-.49 3.64.5 8.31 1.24 11.91l2.69 1.07c.66 2.4 1.8 4.02 3.12 5.84 1.45 2 2.99 3.28 5.45 4.05 8.28 2.59 5.62 4.21 14.1 4.51.38.01.76.04 1.13.08l-.26 2.38c-1.19-.08-2.47.31-2.82 1.22-.22.56-.18 2.16-.64 2.47-1.39.83-3.03 2.22-2.7 4.14l-2.4 1.38-5.24-2.32c-1.86-.82-3.17-1.93-4.47-3.29-.78-.81-2.04-1.53-2.78-2.47-.98-1.26-2.91-3.58-4.74-2.03-1.56 1.31-1.4 5.25.16 6.71 1.91 1.79 3.78 3.65 5.92 4.92 7.07 4.18 18.96 4.53 27.09 5.16l8.08.63c3.21.25 5.76.1 8.85 1.19 1.65.58 3.82.53 5.71.5m-43.33-14.58c2.87 3.59 6.51.58 5.44.49l-.72-.06z"/><path d="m573.61 61.53-4.22 2.78c-1.06.7-1.53 1.69-1.8 3.29l-5.42-.02c-2.88-.01-5.89.56-8.79.1-1.16-.19-1.97-1.59-3.37-.44 1.21-4.73 5.95-9.86 9.78-13.47 1.24-1.17 2.79-2.1 4.18-3.15l2.4.47c-.12.43-.13 1.07.04 1.25.53.55 2.12.49 3.25.3l.72 5.39c.23 1.68 1.86 2.84 3.23 3.5m-7.12-3.19c.53-.32 1.48-1.45 1.24-2.05-.42-1.02-2.14-1.51-2.87-1.16-.9.44-1.64 2.21-.88 3.05.51.57 1.9.52 2.51.16" class="cls-18"/><path d="M567.73 56.29c.24.6-.71 1.73-1.24 2.05-.61.36-2 .41-2.51-.16-.76-.84-.02-2.61.88-3.05.73-.35 2.45.14 2.87 1.16"/><path d="M560.25 115.72c.18.6-9.47-.3-6.93-1.01 1.38-.39 6.1.15 6.93 1.01m-8.53-7.38-1.56 6.69-4.54-2.1c.82-1.79 1.42-3.42 2.56-4.9.52-.68 2.52-.03 3.54.31m-15.77 2.21c1.07.09-2.57 3.1-5.44-.49l4.72.43z" class="cls-2"/><path d="M322.55 288.96c4.25 4.42 6.05 12.69 3.17 17.79-.85 1.51-3.19 3.81-4.44 4.61-.29.19-1.11-.28-1.56-.42-5.58 3.02-8.08 4.39-14.68 2.61-2.71-.73-4.05-3.16-5.47-5.27-3.94-5.84-.77-7.78 2.52-13.32l-.41-2.47 9.37-1.55c4.36-.73 9.09-2.08 11.28-6.48.83-1.66-.22-5.27-1.97-6.15-1.83-.93-4-1.35-6.2-1.92l-.96-2.54c1.55-.86 2.61-.72 3.97-.21 8.56 3.26 5.41 1.86 7.59 6.04 1.78 3.39 1.27 7.37-2.21 9.28m.55 15.82c1.85-3.1.29-13.74-4.32-13.08l2.31 3.62c1.74 2.73 1.39 6.11 2.01 9.46m-3.41.78c.46-13.45-6.73-12.18-6.67-11.66l.16 1.37c.07.57.06 1.54-.38 1.69-.37.12-1.26-.41-1.49-.72l-1.27-1.72c-5.85 2.36-5.27.61-8.81 6.42-2.19 3.6 1.6 9.25 5.98 10 3.72.64 7.3.2 10.49-2.08.87-.62 1.95-2.19 1.99-3.3"/><path d="M318.78 291.7c4.61-.66 6.17 9.98 4.32 13.08-.62-3.35-.27-6.73-2.01-9.46z" class="cls-14"/><path d="M320.36 278.31c1.75.88 2.8 4.49 1.97 6.15-2.19 4.4-6.92 5.75-11.28 6.48l-9.37 1.55-.54.09c-4.16.69-8.16 1.47-12.5 1.64-2.37.09-4.85.17-7.23.39l-8.53.81-10.59.99c-2.51.24-4.79.57-7.4.59l-25.56.21c-2.77.02-4.99-.67-7.63.79-1.39.76-3.86-.12-4.32-1.54-.06-.2-.09-.4-.07-.61 3.41-3.65 8.33-4.99 13.21-4.77l6.62.3c2.73-1.67 5.34-2.5 8.45-2.74 3.37-.25 7.8-1.11 11.44-1.58 1.21-.16 2.34-.28 3.31-.32l7.36-.28 3.7-.35 6.15-.38 8.5-.37 4.02-.17c5.13-.22 7.05-2.89 11.3-1.47l2.74-1.6c3.01-.13 5.97-.05 8.69-1.66 1.05-.63 1.35-2.87 1.36-4.07 2.2.57 4.37.99 6.2 1.92" class="cls-1"/><path d="M313.02 293.9c-.06-.52 7.13-1.79 6.67 11.66-.04 1.11-1.12 2.68-1.99 3.3-3.19 2.28-6.77 2.72-10.49 2.08-4.38-.75-8.17-6.4-5.98-10 3.54-5.81 2.96-4.06 8.81-6.42l1.27 1.72c.23.31 1.12.84 1.49.72.44-.15.45-1.12.38-1.69zm-1.48 12.24c2.12-.04 4.39-2.95 4.84-5.29-1.39-1.11-3.53-2.28-4.87-2.31-2.54-.06-3.18 1.91-3.33 3.85-.11 1.37 1.23 3.8 3.36 3.75" class="cls-4"/><path d="M316.38 300.85c-.45 2.34-2.72 5.25-4.84 5.29-2.13.05-3.47-2.38-3.36-3.75.15-1.94.79-3.91 3.33-3.85 1.34.03 3.48 1.2 4.87 2.31m-3.18-27 .96 2.54c0 1.2-.31 3.44-1.36 4.07-2.72 1.61-5.68 1.53-8.69 1.66l-.88-2.36c1.28-2.2 7.54.14 7.48-3-.05-2.49-1.27-3.55-3.06-4.28-2.37-.97-5.01-1.88-7.34-.14v1.17l-2.28-.01c-.74-4.17 2.8-5.05 1-10.46-1.22-3.68-2-7.01-2.46-10.82-.41-3.39-2.16-6.47-2.89-9.75l-2.09-9.48-1.42-5.86c-.11-.47-.24-.93-.37-1.39l2.55-.79c.38 1.42.77 2.83 1.06 3.99l3.24 13.15c.94 3.84 2.63 7.35 3.21 11.36.9 6.19 2.6 9.05 3.22 14.28l2.79.54c-.85-3.13-1.49-5.19-2.59-7.79-.93-2.21-.99-5.11-1.82-7.51-1.37-3.97-2.32-7.75-3.11-11.86l-1.86-9.65c-.19-.97-.39-1.92-.61-2.86l2.45-.56 1.03 4.5 1.9 8.69c.83 3.82 2.01 7.22 3.05 11.02l1.82 6.66 2.3 7.11c.62 1.92 1.67 3.27 3.45 4.38z"/><path d="M310.71 276.76c.06 3.14-6.2.8-7.48 3l-2.96-1.15.03-5.1v-1.17c2.34-1.74 4.98-.83 7.35.14 1.79.73 3.01 1.79 3.06 4.28m-4.84-8.49-2.79-.54c-.62-5.23-2.32-8.09-3.22-14.28-.58-4.01-2.27-7.52-3.21-11.36l-3.24-13.15c-.29-1.16-.68-2.57-1.06-3.99-.5-1.83-.99-3.67-1.27-5.02-.06-.3 1.08-.95 1.2-.73l.69 1.29c1.37 2.59 2.24 5.29 2.91 8.11.22.94.42 1.89.61 2.86l1.86 9.65c.79 4.11 1.74 7.89 3.11 11.86.83 2.4.89 5.3 1.82 7.51 1.1 2.6 1.74 4.66 2.59 7.79" class="cls-1"/><path d="m303.23 279.76.88 2.36-2.74 1.6c-4.25-1.42-6.17 1.25-11.3 1.47l-4.02.17-8.5.37-6.15.38-3.7.35-7.36.28c-.97.04-2.1.16-3.31.32l-.31-2.59 3.73-.45 4.42-.35 11.48-.9c7.12-.56 12.88.69 21.41-2.48v-1.66l2.51-.02zm-1.55 12.73.41 2.47-6.52 1.35c-7.19 1.48-11.52.52-19.13 1.32l-13.54 1.43c-4.61.49-8.84 1.11-13.61.84l2.15 5.74c-.58 2.02-1.37 4.82-2.92 6.33-4.13 4.03-7.78 3.97-10.79 5.47-2.41 1.21-5.32 2.68-8.19 2.77-3.16.1-7.11-2.71-8.39-5.34-1.67-3.41-.75-6.9.63-9.84l1.87-4-4.79.3c-.93.06-3.21-.7-3.21-1.74-.01-1.21-.31-2-.81-2.66l2.54-.47c.46 1.42 2.93 2.3 4.32 1.54 2.64-1.46 4.86-.77 7.63-.79l25.56-.21c2.61-.02 4.89-.35 7.4-.59l10.59-.99 8.53-.81c2.38-.22 4.86-.3 7.23-.39 4.34-.17 8.34-.95 12.5-1.64zm-56.93 18.85c3.28-2.03 4.14-5.88 2.32-8.7-1.12-1.73-2.2-1.35-3.59-1.62-.87-.17-1.91-2.06-3.52-.81l2.55 2.78c2.16 2.36 2.93 4.96 2.24 8.35m-3-1.15c1.78-3-3.41-7.07-5.27-8.32-.42-.28-1.82.37-2.28.44-1.93-.39-5.33-1.63-7.23-.83-2.81 1.9-3.28 5.4-4.16 8.24-.97 3.14.52 5.41 3.23 6.7 2.34 1.12 4.33 1.45 6.82.4 3.39-1.43 6.82-3.13 8.89-6.63"/><path d="m300.3 273.51-.03 5.1-2.52.02v-1.07l-14.09-.43-6.55 2.71c-2.13.88-4.28 1.48-6.52 2.08-1.88.51-3.83.74-5.79.87-2.52.17-5.08.18-7.55.43-4 .42-10.51.51-11.2-4.55l-5.26.54-2.21.43-.56-2.84c2.15-.41 3.38-1.25 7.91-1.18l-.58-6.77c-.11-1.25-.32-2.58-.16-3.75.27-2.01-.01-3.75.04-5.75l.36-14.19-.09-4.58c-1.88 1.34-3.03 2.96-3.96 4.82l-2.33-1.03 1.79-4.06c-3.41-.11-5.17-1.15-7.48-3.53a52 52 0 0 0-2.73 6.11l-2.14-.79 3.04-8.26c-.73-1.04-1.89-2.32-2.17-3.16l-1.83-5.62-4.15-.97c.12-1.13.31-2.24.57-3.34l2.03.47c4.96 1.81 9.3 2.01 14.26 2.01 2.3 0 4.9.6 7.11.11l4.39-.98c.61-1.56 1.03-3.38 1.3-5.27l2.56.41-.89 5.53c-.31 1.97-1.53 3.12.48 4.91 3.98 3.53 3.5 8.98 3.15 14.59-.52 8.43.3 10.43.29 16.88v5.18c4.41.51 5.8 2.57 8.94.79 2.63-1.49 5.28-1.58 8.2-1.04 1.32.23 2.02.86 2.98 1.85.77.79 2.05 1.73 2.28 2.69l1.17 4.88 6.5.4c3.04.19 6.64.94 9.17-.66h2.27Zm-21.2 2.08c.24-1.75.46-4.04-.25-5.41-1.46-2.82-6.27-4.18-8.51-2.72-2.02 1.33.59 5.45-2.85 9.3l-4.47.91c-1.99 1.94-3.79 1.25-6.08.8-2.12-.43-4.02-.05-6.07-1.74-.47.64-1.05 1.94-1.12 2.45 3.37 1.86 5.68.82 8.65.81 7.09-.04 14.39-.69 20.7-4.4m-12.72-2.13c.57-.86.7-3.31.34-3.85l-2.47-.73c-7.46-2.2-6.24 1.68-8.57-.61-.87-.85-.51-1.78-.23-3.18 1.17-5.98-.4-8.92-.33-14.75l-6.6-.49c-.05 5.05-.25 9.69.14 14.68l.44 5.54c.43 1.12 1.72 3.02 2.49 4.15 7.39 2.66 8.15 2.52 14.79-.76m-10.69-39.18c.15-1.05-.72-2.22-1.55-3.17l-4.36-5.03c-4.76.35-12.57.47-17.1.04-.41-.04-1.24-.1-1.28.18-.05.29-.03 1.26.13 1.53l3.76 5.82c1.54 2.4 3.61 3.63 6.54 3.69l4.47.08 7.26-.37c.91-.04 2-1.92 2.13-2.77m-.59 12.85.55-7.02c-.12-.22-1.4.31-1.83.28l-4.16-.28c-1.12 1.79-1.23 3.69-1.04 6.05 2.22.44 4.45.8 6.48.97"/><path d="m297.68 225.2.65 2.84-2.45.56c-.67-2.82-1.54-5.52-2.91-8.11l-.69-1.29c-.12-.22-1.26.43-1.2.73.28 1.35.77 3.19 1.27 5.02l-2.55.79c-.4-1.39-.89-2.75-1.4-4.08-2.37.48-4.18 1.15-6.24 1.21-3.52.1-10.46-.65-13.27-2.21l-6.1-3.37c-1.35-.75-2.3-3.08-4.17-3.45l-1.88-2.45-.98 6.11-2.56-.41c.36-2.55.47-5.23.46-7.59 0-.4-1.29-1.19-1.51-.86l-.92 1.38c-.35.53-1.18 1.37-1.7 1.36-1.52-.04-.8-1.04-4.19-3.57-.56-.42-.42-2.31-.01-2.89 1.67-2.35 3.69 1.51 4.98 2.13 1.47-1.08 2.73-2.13 4.02-3.33l4.68-4.32c.78-2.09-.48-5.03-.38-7.15.11-2.23-.38-3.7-2.45-4.69-2.64-1.26-4.83-.39-7.38.94-1.51.78-4.09.81-5.35 2.12-1.49 1.55-3.2 3.01-4.49 4.61-4.91 6.09-9.94 18.23-12.82 25.99l-2.03-.47c1.41-6.18 4.64-11.92 7.17-17.74 2.06-4.75 4.81-8.87 8.38-12.64 1.23-1.31 2.62-3.56 4.31-4.04l6.75-1.92c-1.2-.26-2.23-.47-3.13-.65l.53-2.75c1.69.42 3.42.59 5.16.19l4.19-.96c4.69-1.08 9.11-4.91 10.74-9.4.12-.33.23-.7.34-1.1l2.43.02c-.42 3.94-2.79 6.65-5.59 9.34 1.15 2.01 2.92 4 3.3 6.2.43 2.52.61 5.62-.02 7.96l-1 3.76c5.2.12 9.83.14 14.27-2.05 2.4-1.18 4.23-2.98 7.3-2.57 1.17.15 2.22 1.8 2.94 2.83 3.08 4.43.01 3.97 2.94 7.78 1.27 1.64 1.43 4.05 1 6.11l-1.33 6.36zm-6.35-9.76c2.17-2.85 1.96-6.63 1.94-9.73-7.86-7.16-5 5.84-23.94 1.78-7.39-1.58-6.63-4.23-9.99-3.78-1.19.17-2.66 1.04-2.5 2.41.24 2.09 2.42 3.34 3.79 4.77 4.5 4.73 8.33 7.74 14.96 8.65 2.63.36 5.56 1.01 8.35.32 2.52-.62 5.78-2.3 7.39-4.42m-.54-15.89c.14-1.46-1.58-3.87-3.11-3.45-1.32.36-2.72.72-3.92 1.21l-5.4 2.22c-6.23 2.56-13.23-1.38-15.2 1.94 2.39 2.25 5.09 2.77 8.37 3.12 1.54.17 3.31.94 4.75.86 8.33-.45 7.31-4.84 14.51-5.9m-24.91-9.98c.3-1.96-1.49-6.86-2.54-7.61-.48-.34-1.91-.26-2.5.01l-4.13 1.87c1.19.77 2.26 1.66 3.52 2.78.99.87 3.13 1.81 2.78 3.5-.54 2.68-1.44 5.32-.61 7.89 3.24-2.13 3.31-5.37 3.48-8.44"/><path d="M297.75 278.63v1.66c-8.52 3.17-14.28 1.92-21.4 2.48l-11.48.9-.07-.88c1.96-.13 3.91-.36 5.79-.87 2.24-.6 4.39-1.2 6.52-2.08l6.55-2.71 14.08.43v1.07Z" class="cls-16"/><path d="M293.27 205.71c.02 3.1.23 6.88-1.94 9.73-1.61 2.12-4.87 3.8-7.39 4.42-2.79.69-5.72.04-8.35-.32-6.63-.91-10.46-3.92-14.96-8.65-1.37-1.43-3.55-2.68-3.79-4.77-.16-1.37 1.31-2.24 2.5-2.41 3.36-.45 2.6 2.2 9.99 3.78 18.94 4.06 16.08-8.94 23.94-1.78" class="cls-2"/><path d="M287.68 196.1c1.53-.42 3.25 1.99 3.11 3.45-7.2 1.06-6.18 5.45-14.51 5.9-1.44.08-3.21-.69-4.75-.86-3.28-.35-5.98-.87-8.37-3.12 1.97-3.32 8.97.62 15.2-1.94l5.4-2.22c1.2-.49 2.6-.85 3.92-1.21" class="cls-2"/><path d="M284.73 156.76c.54 3.27-1.06 5.08-2.13 7.61-2.01 4.71-6.16 7.66-11.62 5.39l-2.43-.02c.38-1.43.68-3.3.89-5.31.44-4.18.46-8.98-.13-11.67-.42-1.9-.69-3.63-1.45-5.46l-1.41-3.38c-.18-.91-.37-1.88-.61-2.85-.24-1.04-.55-2.07-.95-3.01-6.45-.45-8.2.82-13.28-.92-.75-.26-1.58-.58-2.5-.98-.6-.26-2.11-.28-2.43-.81-.27-.46-.34-1.58-.44-2.55l-3.98.87-.52-2.39c2.65-.58 5.42-1.23 8.48-1.78 3.42-.61 6.79-1.92 9.99-3.14.97-3.89-.58-6.87-2.74-9.6-2.69-3.41-5.62-5-10.11-5.06-5.19-.07-10.72 2.06-14.03 6.49-.49.66-.96 1.3-1.38 1.92l-2.29-.26c.32-.49.63-1.07.92-1.8.94-2.35 2.74-3.81 4.94-4.99 2.41-1.29 4.73-3.19 7.45-3.82 4.15-.95 8.89-.54 12.39 1.86 2.42 1.66 5.02 4.93 6.67 7.46 1.13 1.72 1.28 3.97 1.59 6.36 2.66.82 13.36-1.52 16.81-2.29 1.59-.36 2.77-.58 4.47.15-.74 2.04-1.9 3.27-3.15 4.94-1.34 1.79-2.45 4.13-4.58 5.3l-5.83 3.18 7.93 7.45c2.32 2.17 3.87 5.39 5.41 8.26.64 1.21-.15 3.69.05 4.85m-3.18 3.71c.62-2.72.62-5.97-.37-8.58-1.76-4.63-8.62-10.93-13.01-13.94.16 1.72.59 3.57 1.33 4.84l6.57 5.42c1.63 1.34 2.83 4.39 3.24 6.44-3.08 9.15-8 5.56-7.74 10.82l.07 1.3c.01.24.58.05 1.11 0 2.62 1.7 5.73.33 6.82-2.34.51-1.24 1.68-2.67 1.98-3.96m-7.93-28.48c2.71-1.44 5.47-2.98 5.92-6.5-5.61 1.1-10.61 1.99-15.69 3.29-4.54 1.16-9.41 1.84-14.35 3.47 2.31 1.91 8.14 2.9 10.27 3.03 5.05.31 9.43-.93 13.85-3.29m2.37 23.27c.24-1.9-2.96-6.38-4.8-7l.9 8.21.32 2.57c1.59-.74 3.36-1.97 3.58-3.78"/><path d="M281.18 151.89c.99 2.61.99 5.86.37 8.58-.3 1.29-1.47 2.72-1.98 3.96-1.09 2.67-4.2 4.04-6.82 2.34-.53.05-1.1.24-1.11 0l-.07-1.3c-.26-5.26 4.66-1.67 7.74-10.82-.41-2.05-1.61-5.1-3.24-6.44l-6.57-5.42c-.74-1.27-1.17-3.12-1.33-4.84 4.39 3.01 11.25 9.31 13.01 13.94" class="cls-9"/><path d="M278.85 270.18c.71 1.37.49 3.66.25 5.41-6.31 3.71-13.61 4.36-20.7 4.4-2.97.01-5.28 1.05-8.65-.81.07-.51.65-1.81 1.12-2.45 2.05 1.69 3.95 1.31 6.07 1.74 2.29.45 4.09 1.14 6.08-.8l4.47-.91c3.44-3.85.83-7.97 2.85-9.3 2.24-1.46 7.05-.1 8.51 2.72" class="cls-14"/><path d="M279.54 125.49c-.45 3.52-3.21 5.06-5.92 6.5-4.42 2.36-8.8 3.6-13.85 3.29-2.13-.13-7.96-1.12-10.27-3.03 4.94-1.63 9.81-2.31 14.35-3.47 5.08-1.3 10.08-2.19 15.69-3.29" class="cls-5"/><path d="M271.19 148.26c1.84.62 5.04 5.1 4.8 7-.22 1.81-1.99 3.04-3.58 3.78l-.32-2.57z" class="cls-9"/><path d="M269.31 152.76c.59 2.69.57 7.49.13 11.67l-.88-.08c0-.91-.59-1.82-1.24-2.25-.99-.66-2.23.28-2.96.89l-3.9-.75-.28-5.48.75-4.13c.52-2.91.09-6.06.83-8.65l2.42-.7c.42-.12.75-1.37.59-1.96l1.07-.25c.24.97.43 1.94.61 2.85l1.41 3.38c.76 1.83 1.03 3.56 1.45 5.46m-4.12-1.28c.18-.9-.38-2.29-1.25-2.4-1.38 1.09-1.69 2.89-1.05 4.57 1.72-.48 2.09-1.15 2.3-2.17" class="cls-2"/><path d="m268.56 164.35.88.08c-.21 2.01-.51 3.88-.89 5.31-.11.4-.22.77-.34 1.1-1.63 4.49-6.05 8.32-10.74 9.4l-4.19.96c-1.74.4-3.47.23-5.16-.19-1.71-.42-3.39-1.09-5.03-1.67-6.89-2.41-10.03-7.26-11.52-13.79-.21-.93-.39-1.89-.54-2.89-.45-3-.97-6.01-.73-9.01l.72-9.19c.24-3.05.24-6.23 1.79-8.74l9.45-2.05 3.98-.87c.1.97.17 2.09.44 2.55.32.53 1.83.55 2.43.81.92.4 1.75.72 2.5.98l-.43 2.22c-2.05-.39-4.22-.36-6.14.28-.51.18-1.27 1.65-.93 2.05 1.21 1.4 3.47-.32 4.56.64.39.34.64 1.52.63 2.09-.07 5.45 1.29 10.38 3.82 15.02l.18 4.47-4.52.68c-1.45.22-3.17-1.72-4.68-2.17-1.06-.32-1.97 2.35-1.17 2.84l3.05 1.73c-.25.84-.63 1.86-.41 2.29.19.36.93.8 1.29 1.2 1.37 1.53 2.28 3.71 4.04 4.81 2.03 1.28 4.98 2.09 7.22 1.43 3.81-1.12 5.93-4.57 7.32-8.04l2.68-3.13c.31-.37.44-.78.44-1.2m-24.11-13.64c.65-1.67-1.6-2.84-2.76-2.43-1.08.38-1.77 2.07-.7 2.83.78.55 3.13.39 3.46-.4" class="cls-2"/><path d="M268.56 164.35c0 .42-.13.83-.44 1.2l-2.68 3.13c-1.39 3.47-3.51 6.92-7.32 8.04-2.24.66-5.19-.15-7.22-1.43-1.76-1.1-2.67-3.28-4.04-4.81-.36-.4-1.1-.84-1.29-1.2-.22-.43.16-1.45.41-2.29l-3.05-1.73c-.8-.49.11-3.16 1.17-2.84 1.51.45 3.23 2.39 4.68 2.17l4.52-.68-.18-4.47c-2.53-4.64-3.89-9.57-3.82-15.02.01-.57-.24-1.75-.63-2.09-1.09-.96-3.35.76-4.56-.64-.34-.4.42-1.87.93-2.05 1.92-.64 4.09-.67 6.14-.28.18.02.36.06.53.1l.42 7.34c.22 3.75 1.17 7.42 3.12 10.81 2.03-.74 3.02-2.66 3.14-4.59l.57-9.81c.06-.95-.34-2.67 1.09-2.97 1.29-.28 3.66.05 4.58.83.07.05.11.14.14.25.16.59-.17 1.84-.59 1.96l-2.42.7c-.74 2.59-.31 5.74-.83 8.65l-.75 4.13.28 5.48 3.9.75c.73-.61 1.97-1.55 2.96-.89.65.43 1.24 1.34 1.24 2.25m-5.93 1.5c-2.46-1.07-4.56-.06-6.9.65 2.13 1.17 4.77 1.02 6.9-.65m-3.65 7.6c1.32-1.28 2.31-2.34 3.29-3.75-3.81.68-6.2.73-8.96-1-1.47-.35-2.96-.58-4.14.38l2.7 3.23c1.69 2.02 4.84 1.72 7.11 1.14m-1.07-12.34c.12-1.11-1.43-.66-2.13-.12-.38.29.05 1.14.48 1.88.18.28 1.14.58 1.28.27.15-.32.25-.97.37-2.03"/><path d="M266.72 269.61c.36.54.23 2.99-.34 3.85-6.64 3.28-7.4 3.42-14.79.76-.77-1.13-2.06-3.03-2.49-4.15l-.44-5.54c-.39-4.99-.19-9.63-.14-14.68l6.6.49c-.07 5.83 1.5 8.77.33 14.75-.28 1.4-.64 2.33.23 3.18 2.33 2.29 1.11-1.59 8.57.61z" class="cls-19"/><path d="M263.34 181.96c1.05.75 2.84 5.65 2.54 7.61-.17 3.07-.24 6.31-3.48 8.44-.83-2.57.07-5.21.61-7.89.35-1.69-1.79-2.63-2.78-3.5-1.26-1.12-2.33-2.01-3.52-2.78l4.13-1.87c.59-.27 2.02-.35 2.5-.01" class="cls-16"/><path d="m265.84 141.07-1.07.25c-.03-.11-.07-.2-.14-.25-.92-.78-3.29-1.11-4.58-.83-1.43.3-1.03 2.02-1.09 2.97l-.57 9.81c-.12 1.93-1.11 3.85-3.14 4.59-1.95-3.39-2.9-7.06-3.12-10.81l-.42-7.34c-.17-.04-.35-.08-.53-.1l.43-2.22c5.08 1.74 6.83.47 13.28.92.4.94.71 1.97.95 3.01" class="cls-2"/><path d="M263.94 149.08c.87.11 1.43 1.5 1.25 2.4-.21 1.02-.58 1.69-2.3 2.17-.64-1.68-.33-3.48 1.05-4.57"/><path d="m264.8 282.79.07.88-4.42.35-3.73.45-7.53.9c-3.23.38-6.65.64-9.66 1.49-2.65.75-4.5 1.66-7.42.98l-3.35-.05c1.82-2.56 2.37-4.41 2.27-7.4l6.4-.52 1.15-.23 2.21-.43 5.26-.54c.69 5.06 7.2 4.97 11.2 4.55 2.47-.25 5.03-.26 7.55-.43m-9.07-116.29c2.34-.71 4.44-1.72 6.9-.65-2.13 1.67-4.77 1.82-6.9.65" class="cls-16"/><path d="M257.47 116.76c2.16 2.73 3.71 5.71 2.74 9.6-3.2 1.22-6.57 2.53-9.99 3.14-3.06.55-5.83 1.2-8.48 1.78-2.64.58-5.17 1.08-7.76 1.33l-3.93.38c-2-5.33-.91-8.74 1.9-12.88.42-.62.89-1.26 1.38-1.92 3.31-4.43 8.84-6.56 14.03-6.49 4.49.06 7.42 1.65 10.11 5.06" class="cls-5"/><path d="M262.27 169.7c-.98 1.41-1.97 2.47-3.29 3.75-2.27.58-5.42.88-7.11-1.14l-2.7-3.23c1.18-.96 2.67-.73 4.14-.38 2.76 1.73 5.15 1.68 8.96 1m-3.64 22.55c-.1 2.12 1.16 5.06.38 7.15l-4.68 4.32c-1.29 1.2-2.55 2.25-4.02 3.33-1.29-.62-3.31-4.48-4.98-2.13-.41.58-.55 2.47.01 2.89 3.39 2.53 2.67 3.53 4.19 3.57.52 0 1.35-.83 1.7-1.36l.92-1.38c.22-.33 1.51.46 1.51.86.01 2.36-.1 5.04-.46 7.59-.27 1.89-.69 3.71-1.3 5.27l-4.39.98c-2.21.49-4.81-.12-7.11-.11-4.96 0-9.3-.2-14.26-2.01 2.88-7.76 7.91-19.9 12.82-25.99 1.29-1.6 3-3.06 4.49-4.61 1.26-1.31 3.84-1.34 5.35-2.12 2.55-1.33 4.74-2.2 7.38-.94 2.07.99 2.56 2.46 2.45 4.69" class="cls-16"/><path d="M255.78 160.99c.7-.54 2.25-.99 2.13.12-.12 1.06-.22 1.71-.37 2.03-.14.31-1.1.01-1.28-.27-.43-.74-.86-1.59-.48-1.88" class="cls-2"/><path d="m256.72 284.47.31 2.59c-3.64.47-8.07 1.33-11.44 1.58-3.11.24-5.72 1.07-8.45 2.74l-6.62-.3c-4.88-.22-9.8 1.12-13.21 4.77-.02.21.01.41.07.61l-2.54.47c-.49-.66-1.18-1.19-1.93-1.88-1.15-1.04 1.4-2.75 2.27-3.13-.61-1.97-1.26-3.97-.99-6.04.17-1.29-.59-2.45-.93-3.58l-1.89-6.29c-1.69-5.65-1.5-15.58 3.47-18.82 10.13-1.14 9.98-4.68 13.44-14.08l.37-1.01 2.14.79c-.45 1.2-.86 2.41-1.26 3.66l-1.17 3.64 4.08 3.84c.3.28 1.4.97 1.58.61l.77-1.53 3.8-7.35.62-1.39 2.33 1.03c-.32.62-.6 1.28-.88 1.95-1.17 2.81-2.77 5.69-4.35 8.34-.42.69-.18 2.39-.11 3.45l-2.05.82c-.98 4.3-2.59 1.7-6.03 8.49l1.47 7.95c4.6.78 6.78.72 8.43.4l.56 2.84-1.15.23-6.4.52c.1 2.99-.45 4.84-2.27 7.4l3.35.05c2.92.68 4.77-.23 7.42-.98 3.01-.85 6.43-1.11 9.66-1.49zm-29.7-19.49c2.02-3.6 2.8-4.77 5.26-8.04a37 37 0 0 0-5.23-2.83c-.78.88-1.49 2.43-1.9 3.26-2.72 2.5-4.35 5.11-4.12 8.92.17 2.97.13 6.39 1.72 9.1 2.02-.6 1.95-2.98.94-4.49-1.09-1.63.62-1.12 3.33-5.92m.49 19.15c1.2-2.42.38-5.6-.98-7.7-1.19 1.91-2.01 3.49-3.69 2.77-5.3-2.27-4.35-12.2-4.16-17.09l.83-2.68c-2.22-.27-3.69.58-4.87 1.93-2.91 3.33-.34 17.12 1.57 19.59 1.51 1.94 2.98 4 4.9 5.24 2.51 1.6 5.14.47 6.4-2.06m-6.6 5.73-3.11-1.6v2.46c1.25-.23 1.7-.33 3.11-.86"/><path d="M254.14 231.11c.83.95 1.7 2.12 1.55 3.17-.13.85-1.22 2.73-2.13 2.77l-7.26.37-4.47-.08c-2.93-.06-5-1.29-6.54-3.69l-3.76-5.82c-.16-.27-.18-1.24-.13-1.53.04-.28.87-.22 1.28-.18 4.53.43 12.34.31 17.1-.04z" class="cls-17"/><path d="m255.65 240.11-.55 7.02c-2.03-.17-4.26-.53-6.48-.97-.19-2.36-.08-4.26 1.04-6.05l4.16.28c.43.03 1.71-.5 1.83-.28" class="cls-2"/><path d="m248.12 181.01-.53 2.75c-6.74-1.36-6.13-1.1-12.58-5.82l-4.9-3.59c-3.43 2.08-6.02 6.48-7.9 7.33-4.45 2.02-8.65-.16-12.3-2.41-2.88-1.77-5.08-3.53-5.26-7.38-.16-3.44 1.36-6.64 2.75-9.87 1.27-2.94 1.73-6.5 3.73-9.13.9-1.19 1.83-2.34 2.78-3.47l1.68 1.38c-3.98 4.94-4.68 9.32-7.74 16.64-.79 1.88-.76 5.07.71 6.71 3.89 4.35 10.59 7.6 15.09 2.5l-4.53-1.89c-3.02-1.26-5.13-4.19-4.22-7.66-1.29-4.12-.16-7.9 1.35-11.68l.58-1.45 2.27.91c-1.71 4.01-2.15 7.78-1.6 12.1.67 5.17 3.8 6.16 8.91 6.28-1.61-2.79-2.46-4.17-3.09-6.62-2.57-10.07-1.69-7.32-1.58-13.14l2.68.04c-.06 2.11.07 4.1.35 5.77l.57 3.36c.24 1.39 2.14 8.56 4.6 7.67l-.91-4.25 2.54-.54c1.49 6.53 4.63 11.38 11.52 13.79 1.64.58 3.32 1.25 5.03 1.67"/><path d="M247.07 302.64c1.82 2.82.96 6.67-2.32 8.7.69-3.39-.08-5.99-2.24-8.35l-2.55-2.78c1.61-1.25 2.65.64 3.52.81 1.39.27 2.47-.11 3.59 1.62" class="cls-14"/><path d="M241.69 148.28c1.16-.41 3.41.76 2.76 2.43-.33.79-2.68.95-3.46.4-1.07-.76-.38-2.45.7-2.83m.05-17 .52 2.39-9.45 2.05c-1.55 2.51-1.55 5.69-1.79 8.74l-.72 9.19c-.24 3 .28 6.01.73 9.01.15 1 .33 1.96.54 2.89l-2.54.54-.4-1.87c-.92-4.29-1.19-8.09-.91-12.49l.82-13.25c-2.7 3.84-3.97 9.83-4.12 15.06l-2.68-.04c.02-1.12.02-2.56-.05-4.47-1.16 1.94-1.78 3.95-2.59 5.85l-2.27-.91 3.01-7.52c-1.76 1.54-3.13 2.97-4.25 4.35l-1.68-1.38c1.18-1.43 2.41-2.82 3.67-4.19l2.69-2.92 5.55-6.03c.53-.58 1.11-1.37 1.31-1.9.21-.54-.64-1.88-.72-2.49-1.21-9.7 1.15-8.79 3.25-12.04l2.29.26c-2.81 4.14-3.9 7.55-1.9 12.88l3.93-.38c2.59-.25 5.12-.75 7.76-1.33"/><path d="M236.48 301.87c1.86 1.25 7.05 5.32 5.27 8.32-2.07 3.5-5.5 5.2-8.89 6.63-2.49 1.05-4.48.72-6.82-.4-2.71-1.29-4.2-3.56-3.23-6.7.88-2.84 1.35-6.34 4.16-8.24 1.9-.8 5.3.44 7.23.83.46-.07 1.86-.72 2.28-.44m-5.05 11.11c4.47-1.13 6.34-4.94 5.18-8.46-.39-1.18-6.03-.66-7.24 1.43-.74 1.27-1.26 2.79-.88 4.36z" class="cls-4"/><path d="m241 240.31-1.79 4.06-.62 1.39-3.8 7.35-.77 1.53c-.18.36-1.28-.33-1.58-.61l-4.08-3.84 1.17-3.64c.4-1.25.81-2.46 1.26-3.66.75-2 1.61-3.99 2.73-6.11 2.31 2.38 4.07 3.42 7.48 3.53" class="cls-2"/><path d="M236.61 304.52c1.16 3.52-.71 7.33-5.18 8.46l-2.94-2.67c-.38-1.57.14-3.09.88-4.36 1.21-2.09 6.85-2.61 7.24-1.43"/><path d="m229.03 166.09.91 4.25c-2.46.89-4.36-6.28-4.6-7.67l-.57-3.36c-.28-1.67-.41-3.66-.35-5.77.15-5.23 1.42-11.22 4.12-15.06l-.82 13.25c-.28 4.4-.01 8.2.91 12.49z" class="cls-9"/><path d="M232.28 256.94c-2.46 3.27-3.24 4.44-5.26 8.04-2.71 4.8-4.42 4.29-3.33 5.92 1.01 1.51 1.08 3.89-.94 4.49-1.59-2.71-1.55-6.13-1.72-9.1-.23-3.81 1.4-6.42 4.12-8.92.41-.83 1.12-2.38 1.9-3.26 1.94.87 3.48 1.7 5.23 2.83" class="cls-19"/><path d="M226.53 276.43c1.36 2.1 2.18 5.28.98 7.7-1.26 2.53-3.89 3.66-6.4 2.06-1.92-1.24-3.39-3.3-4.9-5.24-1.91-2.47-4.48-16.26-1.57-19.59 1.18-1.35 2.65-2.2 4.87-1.93l-.83 2.68c-.19 4.89-1.14 14.82 4.16 17.09 1.68.72 2.5-.86 3.69-2.77" class="cls-14"/><path d="M223.32 166.64c.63 2.45 1.48 3.83 3.09 6.62-5.11-.12-8.24-1.11-8.91-6.28-.55-4.32-.11-8.09 1.6-12.1.81-1.9 1.43-3.91 2.59-5.85.07 1.91.07 3.35.05 4.47-.11 5.82-.99 3.07 1.58 13.14" class="cls-9"/><path d="m219.12 174.76 4.53 1.89c-4.5 5.1-11.2 1.85-15.09-2.5-1.47-1.64-1.5-4.83-.71-6.71 3.06-7.32 3.76-11.7 7.74-16.64 1.12-1.38 2.49-2.81 4.25-4.35l-3.01 7.52-.58 1.45c-1.51 3.78-2.64 7.56-1.35 11.68-.91 3.47 1.2 6.4 4.22 7.66" class="cls-9"/><path d="M205.17 272.73c1.1 1.12-.18 3.25-1.82 3.43l-4.45.47-8.33 1.12c-.37-.67.25-3.21 1.38-3.36zm-.5 11.39c.21.27-.41 1-.75 1.27-3.98 3.19-8.31-.61-15.91 1.27-.54.13-1.18-1.19-1.12-1.76.05-.56.75-1.88 1.39-1.84l13.81.83c.44.03 1.47-1.15 1.68-.88zm-2.98-17.53c1.27.96-3.08 3.26-4 3.12l-4.92-.73-7.29.38c-.59.03-.96-1.8-.63-2.3.32-.5 1.36-1.32 1.99-1.28l8.25.46c1.71.1 3.91.43 5.35.08.34-.08 1.05.12 1.25.27m748.97-68.72c.09.95-.45 2.83-1.1 3.35-5.04 4.12-6 3.85-10.15 7.96-6.13 6.09-9.66 8.31-15.83 13.71l-4.44 3.9-3.58 2.97c2.83 1.69 4.97 3.28 7.38 5.12 4.04 3.08 7.7 3.04 12.45 8.7l6.75 8.05c1.33 1.59 1.81 4.78 2.19 7.84l-2.03.25c-.18-1.98-.95-4.17-1.85-5.66-.88-1.44-2.24-2.61-3.13-3.9-5.34-7.78-8.85-8.3-15.83-13.13l-4.56-3.15c-1.24-.86-3.44-1.12-4.56-1.78-3.15-1.84-7.88-4.32-11.46-5.26l-7.06-1.87-12.04-2.89c-7.52-1.81-16.48-2.99-24.35-1.32l-.55-2.53 4.8-1.06c1.44-.31 4.25-.5 5.69-.5 4.88 1.19 9.61 1.45 14.51 2.54l9.54 2.12c4.28.95 8.36 2.16 12.53 3.51 1.2.39 2.86 1.81 4.12.84 4.89-3.73 7.91-9.27 9.19-15.36l1.03-4.89 2.21.46-1.18 6.23c-1.01 5.32-4.59 11.76-9.17 15.33.75 1.05 2.21.94 3.14.16l13.55-11.34c3.18-2.66 6.38-4.99 9.37-7.93 1.9-1.88 4-3.62 6.07-5.27 1.52-1.2 3.22-1.55 4.37-3.66l-6.39 1.62c-.6-1.1-1.37-2.85-1.85-3.97-2.32-5.33 2.2-3.99 3.72-11.13-1.51.56-2.58 1.15-3.33 1.74l-1.32-1.77c1.78-1.05 3.43-1.98 5.53-2.43.65-.13 2.2.95 2.09 1.65-.26 1.61-.95 3.24-1.57 4.56.68.49 1.33.95 1.68 1.32.29.31.17 1.7-.05 2.07l-2.78 4.8 5.79-1.16c.7-.13 2.4.48 2.46 1.13Z"/><path d="m940.3 201.04 6.39-1.62c-1.15 2.1-2.86 2.45-4.37 3.66-2.08 1.65-4.18 3.39-6.07 5.27-2.99 2.95-6.19 5.27-9.37 7.93l-13.55 11.34c-.93.78-2.39.88-3.14-.16 4.58-3.57 8.17-10.01 9.17-15.33l1.18-6.23 1.92-7.8c1.56-6.36 2.23-12.69 6.29-18.54.68 2.11.37 4.27-.32 6.48-.37 1.21.51 3.72 1.68 3.38 1.99-.57 1.1-5.74 5.29-7.14l-1.42 6.56c-.28 1.29-.48 3.45 1.38 3.85 1.9-.82.75-2.87 3.47-4.97.76-.59 1.82-1.18 3.33-1.74-1.51 7.14-6.03 5.8-3.72 11.13.48 1.12 1.25 2.87 1.85 3.97Z" class="cls-18"/><path d="M952.99 276.36c3.18 15.31-3.19 12.93-2.49 23-.65 1.05-1.47 2.36-1.95 3.63-.6 1.59-1.6 2.86-2.35 4.2-1.98 3.53-3.81 6.71-6.85 9.41l-1.05 2.35-2.71-1.21c.31-.76.38-1.6-.06-1.89l-6.1-3.98c-.21-.14-1.16-.24-1.49-.1l-2.56.09c.72-.8.44-1.99.57-3.1l.14-1.15c.01-.08-.06-.14-.18-.19l2.48-.29c2.85 2.8 6.18 4.52 10.11 5.96 2.47-2.92 4.24-6.01 5.92-9.41l2.05-4.13c-1.2-.55-2.03-.19-3.06.36-.85-.1-2.19-1.2-3.25-2.01-.23-.17-11.76-3.16-14.4-2.73.37 1.03.76 1.6 1.3 2.38.39 1.31.67 2.62.88 3.95l-2.12.34c-.21-1.08-.81-2.14-2.06-2.54l.48 4.24-2.48.45c-.32-1.52-1.87-2.55-2.98-3.61-.68-.65-.71-3.01-2.24-2.9a30.5 30.5 0 0 0-3.39 5.37l-2.61-.11c3.03-6.78 5.09-6.65 1.64-8.33-.94-.47-1.97.65-2.7.71-1.62.13-2.96-.26-4.18.91l-1.25 1.18c-.28.27.31 1.28.56 1.58l2.64 3.3-2.05 1.63a32 32 0 0 0-3.43-3.73c-1.82 2.31-2.97 4.55-3.56 7.18h-2.42c.08-.69-.02-1.37-.34-1.87-.75-.1-1.27.4-1.59 1.09l-2.58.08c.34-.75.4-1.82.08-2.31l-8.16-1.62.51-2.58c3.03.6 4.84.27 8.35 1.2l.88-3.42c8.5-9.18 10.64-9.69 22.61-7.91 1.92.28 3.42 0 5.01 1.63 1.27 1.31 3.54-.35 4.95-.03l7.37 1.61c2.48.55 4.7 1.03 7.26 1.14 1.56-3.27 1.78-9.04 4.17-11.2l2.22-.4 4.29 1.52c1.16-2.99.4-5.76-.5-8.59-1.26-3.94-4.13-6.41-8.59-6.55-.43-1.87-.15-3.5.17-5.17.15-.8.3-1.59.39-2.45.05-.51.05-1.06 0-1.63l2.03-.25c.43 3.56.74 6.94 2.14 7.46 2.95 1.07 6.05 7.11 6.53 9.44m-2.84 11.81c-.1-1.17-2.49-2.58-3.72-2.06-1.05.46-2.1 2.18-2.26 3.34l-.82 5.61c.99.8 2.73 1.33 4.07 1.55l2.74-8.45Zm-44.98 3.91c-2.03-.16-3.3.89-4.86 2.11 1.25 1.87 3.71-.98 4.86-2.11m-7.01 8.01c.23-.55.47-1.64.38-2.1-.1-.54-1.52-1.23-1.87-.81-.8 1-1.95 3.31-2.34 4.59 1.45 1.63 3.2-.14 3.83-1.68"/><path d="M950.32 275.5c.9 2.83 1.66 5.6.5 8.59l-4.29-1.52-2.22.4c-2.39 2.16-2.61 7.93-4.17 11.2-2.56-.11-4.78-.59-7.26-1.14l-7.37-1.61c-1.4-.31-3.68 1.34-4.95.03-1.59-1.63-3.09-1.34-5.01-1.63-11.97-1.78-14.11-1.26-22.61 7.91l-.88 3.42c-3.51-.93-5.33-.6-8.35-1.2-.44-.08-.89-.19-1.38-.31 1.06-3.35 2.64-5.71 3.79-8.76l3.86-10.23 3.39-8.17c1.09-2.65 1.78-5.75 3.59-7.92 1.16-1.4 2.91.44 4 .64 10.53 1.99 7.68 4.49 13.6 5.14 4.09.45 7.84 1.28 11.83 2.08 1.35.27 2.91-.07 4.29.82 1.74 1.11 3.44 1.75 5.35 2.64.51.23 1.28.85 1.73 1.03.37.15 1.27-1.05 1.33-1.5.3-2.81.25-4.34.21-5.76-.04-1.6-.05-3.05.54-5.97l2.08.14c-.32 1.67-.6 3.3-.17 5.17 4.45.14 7.33 2.61 8.59 6.55Z" class="cls-12"/><path d="M946.43 286.12c1.24-.53 3.63.89 3.72 2.06l-2.74 8.45c-1.34-.23-3.08-.75-4.07-1.55l.82-5.61c.16-1.16 1.21-2.88 2.26-3.34Z" class="cls-5"/><path d="m937.51 185.92 1.32 1.77c-2.72 2.1-1.57 4.15-3.47 4.97-1.85-.4-1.66-2.56-1.38-3.85l1.42-6.56c-4.19 1.4-3.3 6.57-5.29 7.14-1.16.34-2.05-2.17-1.68-3.38.69-2.2.99-4.37.32-6.48-4.06 5.86-4.72 12.18-6.29 18.54l-1.92 7.8-2.21-.46.65-3.08 2.22-10.51c.7-3.34 5.07-19.47 10.46-14.41l.27 3.97 2.38-1.81c.47-.35 1.29-.73 1.78-.8 2.96-.38 1.36 5.52 1.41 7.13Z"/><path d="m946.47 299.55-2.05 4.13c-1.69 3.4-3.45 6.49-5.92 9.41-3.93-1.44-7.26-3.16-10.11-5.96-.03-1.92-.16-3.79-.45-5.63-.2-1.33-.48-2.64-.88-3.95-.54-.78-.94-1.35-1.3-2.38 2.64-.42 14.17 2.56 14.4 2.73 1.06.81 2.39 1.91 3.25 2.01 1.03-.55 1.86-.91 3.06-.36" class="cls-9"/><path d="M942.29 259.71c.05.57.05 1.12 0 1.63-.09.85-.24 1.65-.39 2.45l-2.08-.14c-3.41-10.79-6.77-13.57-15.23-20.06l-6.25-4.8c-4.38-3.36-7.55-.95-13.02-4.11-1.25.36-1.41 2.25-1.63 3.45-.47 2.54-1.6 6.19-3.01 9.88-1.82 4.74-4.1 9.53-6.02 12.09-.27.36-1.17.79-1.43 1.04h-2.75c.2-1.04.55-2.79 2.09-5.22 1.21-1.89 1.8-3.6 2.55-5.7 1.63-4.54 3.39-8.8 5.28-13.27.45-1.07 2.43-3.29.75-4.25l-3.66-2.1-2.53-.28-6.5-1.04-15.87-3.2c-2.2-.45-4.73 1.16-6.85 1.46l-1.32-.43c-.3-.09-.78.94-.97 1.32-2.09 4.17-6.45 7.41-9.43 11.27-3.12 4.05-6.56 6.73-10.38 10.13l-4.04 3.6c-.22 9.39 6.84 13.19 14.36 16.85 7.94-8.03 4.34-8.72 6.23-15.1.2-.67 2-.09 2.64.18 7.93 3.35 10.5 3.62 15.53 5.13 1.67.49 3.63 1.13 6.14 2.06-.67 1.92-1.3 3.27-1.94 4.99l-3.2 8.53-3.12 7.83-3.96 9.56c-.43 1.06-1.03 2.22-1.49 3.13-1.22.02-2.3-.22-3.3-.58-1.68-.59-3.18-1.5-4.92-2-4.08-1.18-7.85-2.21-11.62-4.09-3.72-1.85-7.77-3.18-11.63-4.73-1.81-.72-1.77-2.34-1.22-3.79 1.22-3.25-1.16-5.81-2.68-8.21-2.65-4.12-6.62-8.73-11.73-9.37l-9.54-1.18c-1.65-.2-3.01-.47-4.6-.17l-4.71.87c-3.19 5.24-1.81 1.17-4.34 5.22-1.37-.04-3.5-.46-5.31-.88-.31-2.76.56-4.83 1.7-7.2 3.07-6.3 8.46-6.67 15.07-6.92 3.22-.13 6.74-.23 10.4-.98 2.63-.53 5.44-1.71 8.19-.11.48.28 2.04.34 2.45.17 2.13-6.63 8.47-6.08 15.16-12.73 1.83-1.82 3.76-3.92 5.28-6.05 1.51-2.14 2.84-4.73 4.81-6.2.47-.34 1.25-1.69 1.02-2.16-.24-.46-.87-1.21-1.38-1.74l-4.46-1.84c1.29-.48 2.63-.86 4.01-1.16 7.87-1.68 16.84-.49 24.35 1.32l12.04 2.89 7.06 1.87c3.58.95 8.31 3.42 11.46 5.26 1.13.66 3.32.92 4.56 1.78l4.56 3.15c6.98 4.82 10.49 5.34 15.83 13.13.89 1.29 2.26 2.46 3.13 3.9.9 1.49 1.66 3.68 1.85 5.66Zm-63.66 9.06c.71-.69 1.54-2.14.53-2.97-1.79-1.47-3.88-2.43-6.3-2.64-.94-.08-2.12 1.1-3.16 2.44 2.54 1.35 7.75 4.32 8.93 3.18Z" class="cls-12"/><path d="M939.82 263.65c-.58 2.93-.57 4.37-.54 5.97l-2.39-.08c.02-1.34-.43-2.6-.61-4.02-.33-2.72.1-5.73-1.52-8.11-1.8-2.63-3.73-5.29-6.33-7.2l-7.77-5.76c-3.65-2.7-9.03-7.18-14.37-4.3-1.03 3.01-2.11 5.93-3.26 8.81l-2.36-.94c1.41-3.68 2.54-7.33 3.01-9.88.22-1.21.38-3.1 1.63-3.45 5.47 3.16 8.65.75 13.02 4.11l6.25 4.8c8.46 6.49 11.82 9.27 15.23 20.06Z"/><path d="m936.9 269.54 2.39.08c.04 1.42.09 2.95-.21 5.76-.06.45-.95 1.64-1.33 1.5-.45-.18-1.22-.79-1.73-1.03-1.91-.89-3.62-1.54-5.35-2.64-1.39-.89-2.94-.55-4.29-.82-3.99-.8-7.74-1.63-11.83-2.08-5.91-.65-3.07-3.14-13.6-5.14-1.08-.2-2.84-2.04-4-.64-1.81 2.17-2.5 5.27-3.59 7.92l-3.39 8.17-3.86 10.23c-1.15 3.06-2.74 5.41-3.79 8.76.49.13.95.23 1.38.31l-.51 2.58-1.65-.33c-.36-.07-1.19.43-1.43.48-.31.07-.79-.73-1.14-.86-6.45-2.46-3.77-.53-8.28-2.09l-3.98-1.37.81-2.35c1 .36 2.07.6 3.3.58.46-.91 1.06-2.07 1.49-3.13l3.96-9.56 3.12-7.83 3.2-8.53c.65-1.72 1.27-3.07 1.94-4.99-2.52-.92-4.47-1.57-6.14-2.06l.83-2.48c2.63.84 5.19 1.3 8.22 1.67 1.07-2.07 1.89-3.88 2.85-5.95l2.04-4.43 2.26-6.32 3.18-7.21 2.64 1.16c-1.89 4.47-3.65 8.73-5.28 13.27-.75 2.1-1.34 3.81-2.55 5.7-1.54 2.43-1.89 4.18-2.09 5.23-.13.63-.21 1.02-.47 1.15-2.73 1.35-3.94 4.14-4.96 6.88l-6.75 18.11c-1.34 3.59-2.99 6.47-3.23 10.47l3.61.91c1.33-2.02 2.21-3.77 3.1-5.92.82-2.01 2.39-4.03 3.02-6.04 1.04-3.39 1.89-6.43 3.48-9.66 2.19-4.44 4.02-9.46 5.29-14.2.1-.36-.6-1.46-.34-1.72.26-.24 1.16-.68 1.43-1.04 1.91-2.57 4.19-7.36 6.02-12.09l2.36.94a198 198 0 0 1-4.6 10.71c-1.38 2.97 4.63 2.31 7.45 3.85 4.62 2.54 9.05 4.18 14.21 5l7.41 1.2 8.87 2.01c.37-.77.5-1.47.51-2.17Z"/><path d="M936.29 265.52c.18 1.42.63 2.68.61 4.02-.02.69-.14 1.4-.51 2.17l-8.87-2.01-7.41-1.2c-5.16-.82-9.59-2.46-14.21-5-2.82-1.55-8.84-.88-7.45-3.85 1.66-3.57 3.18-7.11 4.6-10.71 1.15-2.88 2.23-5.8 3.26-8.81 5.35-2.88 10.72 1.6 14.37 4.3l7.77 5.76c2.6 1.91 4.53 4.57 6.33 7.2 1.61 2.38 1.19 5.39 1.52 8.11Z" class="cls-19"/><path d="m938.3 318.95-1.9 4.25c-7.19-2.22-7.61-.49-13.14-2.45l-3.76 3.68c-2.69.54-5 1.09-7.59 1.96-1.16.39-2.7.27-3.88.39-2.61.26-5.44.06-7.47-1.9-.64.26-1.81.74-2.11.36l-1.06-1.39c-.59-.77-1.18-1.54-1.72-2.33l1.96-1.01c.24.34.53.57.8.59 1.13-.41.34-3.15-.82-3.05l1.99-2.07c.66.72 1.57 1.27 2.65 1.54l3.28-6.42q-1.185.015-2.28.12l-.21-2.62 5.2-.41c-1.03-1.71-2.01-3.16-3.04-4.48l2.05-1.63 1.17 1.47c.21.26.57 1.41.8 1.21.23-.19.78-.79.91-1.11s.26-.63.4-.92l2.61.11c-.75 1.5-1.39 3.1-1.98 4.88 3.02-.36 5.41-1.02 8.35-1.69l2.14-.49c.19-.58.21-1.1.11-1.57l2.48-.45c.03.28.5.81.66.97.62.65 1.23-1.03.92-2.68l2.12-.34c.29 1.84.42 3.72.45 5.63l-2.48.29c-.22-.11-.61-.16-.74-.07-.2.12-.65.76-.67 1.1l-.22 4.07c.51-.17.87-.38 1.1-.65l2.56-.09c-.06.03-.11.05-.11.1-.37 2.31.97 3.21-.61 3.99-.86.43-1.49 1.1-1.53 1.61-.04.46 1.04.9 1.56.93 2.41.16 4.31.4 6.78.78.59.1 1.22-.63 1.55-1.44l2.71 1.21Zm-17.26-6.5c.57-1.27.76-1.84.86-3.38-3.43-.08-6.45.41-9.53 1.5 1.14 1.66 1.84 3.18 2.85 4.32 1.86 2.1 5.05-.7 5.82-2.43Zm-3.92 9.84c.36-.1 1.31-1.41 1.01-1.64l-1.2-.97c-.51-.42-1.85 1.54-2.23 1.26l-.87-.62c-.18-.13-1.11-.25-1.08-.04l.5 3.21 3.88-1.19Zm-4.07-5.16-3.22-6.03c-2.2 2.03-3.49 4.38-3.91 7.4l4.11-1.22c.61-.19 1.97-.08 3.02-.15m-7.9 6.34-2.42-1.53-1.01-.6c-.29-.16-.48 1.17-.25 1.4.61.61 2.3 1.46 3.68.74Z"/><path d="M935.52 315.85c.45.29.38 1.13.06 1.89-.34.8-.96 1.53-1.55 1.44-2.47-.39-4.37-.62-6.78-.78-.53-.03-1.6-.48-1.56-.93.04-.51.67-1.18 1.53-1.61 1.58-.78.24-1.68.61-3.99 0-.05.05-.08.11-.1.33-.13 1.27-.04 1.49.1l6.1 3.98Z" class="cls-17"/><path d="M925.82 301.83c.31 1.65-.3 3.32-.92 2.68-.17-.17-.64-.69-.66-.97l-.48-4.24c1.25.4 1.85 1.47 2.06 2.54Zm.08 5.58c.12.05.19.11.18.19l-.14 1.15c-.13 1.11.15 2.3-.57 3.1-.24.27-.6.49-1.1.65l.22-4.07c.02-.33.47-.98.67-1.1.13-.08.52-.04.74.07Zm-4.14-3.43c.1.46.08.99-.11 1.57l-2.14.49c-2.94.67-5.33 1.33-8.35 1.69.59-1.78 1.24-3.38 1.98-4.88.95-1.92 2.05-3.66 3.39-5.37 1.54-.11 1.56 2.25 2.24 2.9 1.11 1.06 2.66 2.09 2.98 3.61Zm.15 5.09c-.1 1.55-.3 2.12-.86 3.38-.77 1.74-3.96 4.53-5.82 2.43-1.01-1.13-1.71-2.65-2.85-4.32 3.08-1.09 6.1-1.58 9.53-1.5Zm-3.78 11.58c.29.23-.65 1.54-1.01 1.64l-3.88 1.19-.5-3.21c-.03-.21.9-.09 1.08.04l.87.62c.39.28 1.72-1.68 2.23-1.26l1.2.97Zm-5.96-26.24c3.45 1.67 1.39 1.55-1.64 8.33-.13.29-.27.6-.4.92-.13.31-.68.92-.91 1.11-.23.2-.59-.95-.8-1.21l-1.17-1.47-2.64-3.3c-.25-.3-.83-1.31-.56-1.58l1.25-1.18c1.23-1.17 2.56-.78 4.18-.91.73-.06 1.76-1.18 2.7-.71Zm-2.34 16.69 3.22 6.03c-1.05.07-2.41-.04-3.02.15l-4.11 1.22c.42-3.02 1.71-5.37 3.91-7.4" class="cls-14"/><path d="M901.15 232.7c1.68.96-.3 3.18-.75 4.25l-2.64-1.16.43-.98c-1.37-.29-2.13-.63-2.99-1.2-.47-.31-1.86-.21-2.46-.31l-6.05-.98c-5.64-.91-11.5-3.2-17.1-1.94-.64.14-1.27.34-1.9.58-.47.17-1.64-.39-1.85-.11l-1.08 1.49-8.57 9.68c-1.36 1.52-3.16 2.82-3.44 4.88 7.3-1.46 1.85 1.47 8.85 4.71l2.45 1.14-1.22 2.63c-.64-.27-2.44-.85-2.64-.18-1.89 6.38 1.7 7.07-6.23 15.1-7.53-3.66-14.58-7.46-14.36-16.85l4.04-3.6c3.81-3.4 7.25-6.08 10.38-10.13 2.98-3.86 7.34-7.1 9.43-11.27.2-.39.67-1.42.97-1.32l1.32.43c2.12-.31 4.65-1.91 6.85-1.46l15.87 3.2 6.5 1.04 2.53.28 3.66 2.1Zm-47.42 33.59c3.18-3.45 3.99-8.15 3.44-12.5-.74-.24-1.85-.76-1.98-1.28-.14-.52.04-1.52.13-2.43-4.61-.6-9.53 1.62-12.02 5.69-.1 3.13 2.62 6.5 5.84 8.16z"/><path d="m908.24 308.2-5.2.41-2.63.21-2.51.22c.08-.65.18-1.27.32-1.88.59-2.63 1.74-4.87 3.56-7.18 1.29 1.21 2.39 2.4 3.43 3.73 1.04 1.32 2.01 2.77 3.04 4.48Zm-7.93-14.01c1.55-1.23 2.82-2.28 4.86-2.11-1.15 1.13-3.61 3.99-4.86 2.11m5.21 16.92-3.28 6.42c-1.08-.27-1.99-.82-2.65-1.54-.95-1.04-1.4-2.42-1.11-3.87 1.53-.43 3.07-.72 4.76-.88q1.095-.105 2.28-.12Z" class="cls-14"/><path d="m898.19 234.8-.43.98-3.18 7.21-2.26 6.32-2.04 4.43c-.95 2.07-1.78 3.88-2.85 5.95-3.03-.37-5.59-.83-8.22-1.67-.81-.25-1.63-.54-2.46-.88l7.85-4.48c.71-.41 1.04-2.37.37-2.68-3.03-1.42-1.21 1.75-6.72-2.29-.19-.99 1.41-.53 1.87-.73 2.83-1.26 5.03-3.75 6.93-6.39l3.61 2.71c.45-.45.89-1.18.69-1.51l-.9-1.55c-1.05-1.81-2.38-3.72-4.82-3.78-1.26 3.22-3 6.14-6.25 7.5-1.58.67-2.98-.77-3.91-1.99-2.64-3.45 1.6-4.93.35-8.92-1.8-.76-4.13-.95-6.15-.82l-.1-1.82c5.6-1.26 11.46 1.03 17.1 1.94l6.05.98c.6.1 1.99 0 2.46.31.87.57 1.62.92 2.99 1.2Zm-9.59 11.39a1.87 1.87 0 0 0-1.28-2.31c-.99-.29-2.03.28-2.31 1.27-.29.99.28 2.02 1.27 2.31s2.03-.28 2.32-1.27" class="cls-18"/><path d="m902.73 321.94 2.42 1.53c-1.38.72-3.07-.13-3.68-.74-.23-.23-.03-1.56.25-1.4l1.01.6Z" class="cls-14"/><path d="m903.03 308.6.21 2.62c-1.69.16-3.23.45-4.76.88-.29 1.45.16 2.84 1.11 3.87l-1.99 2.07c-.11.01-.23.05-.34.11-.51.41-.17 1.61.37 2.35l-1.96 1.01c-.91-1.31-1.72-2.67-2.29-4.21-3.73 2.87-13.67-1.4-14.54-4.37l-1.72-5.86c-8.77-.58-8.18-2.88-14.2-3.94-1.47-.26-2.61-1.06-3.97-1.63-1.22-.52-2.4-.93-3.49-1.3l.8-2.43 2.3.76 8.17 2.81c3.41 1.18 7.21 2.75 10.74 2.74.37-.15 1.1-.6 1.42-.77.38-.21 1.11 1.02 1.54 1.23 2.91 1.37 6.93 2.48 10.31 2.57.22-.14.41-.39.54-.68l2.58-.08c-.67 1.52-.43 3.99.26 3.32.93-.35 1.54-1.45 1.67-2.54h2.42c-.14.61-.24 1.24-.32 1.89l2.51-.22 2.63-.21Z"/><path d="M898.54 297.99c.09.46-.15 1.55-.38 2.1-.63 1.53-2.39 3.31-3.83 1.68.38-1.28 1.54-3.6 2.34-4.59.35-.41 1.77.27 1.87.81" class="cls-14"/><path d="M893.24 261.13c-.26.25.44 1.36.34 1.72-1.27 4.75-3.1 9.76-5.29 14.2-1.59 3.23-2.44 6.27-3.48 9.66-.63 2.02-2.2 4.03-3.02 6.04-.89 2.15-1.77 3.9-3.1 5.92l-3.61-.91c.24-4 1.9-6.88 3.23-10.47l6.75-18.11c1.02-2.75 2.23-5.54 4.96-6.88.26-.12.33-.51.47-1.15h2.75Z" class="cls-12"/><path d="M891.36 241.75c.19.33-.24 1.06-.69 1.51l-3.61-2.71c-1.91 2.65-4.11 5.13-6.93 6.39-.46.2-2.06-.25-1.87.73 5.51 4.04 3.69.88 6.72 2.29.67.31.34 2.28-.37 2.68l-7.85 4.48c.83.34 1.65.63 2.46.88l-.83 2.48c-5.04-1.5-7.61-1.78-15.53-5.13l1.22-2.63.34.16c-.49-3.61-3.53-3.53-1.04-7.24.58-.88 1.18-2.77 2.76-1.97l2.11 3.17c1.33-.67 2.51-1.21 3.85-1.76l1.38-.55c1.39-.55-4.06-3.96-.85-7.9-1.18-.52-2.07-.92-2.87-1.37-.6-.34-.63-2.11-.36-3.07.1 0 .2-.02.3-.02 2.02-.13 4.35.06 6.15.82 1.24 3.99-2.99 5.47-.35 8.92.93 1.22 2.33 2.66 3.91 1.99 3.25-1.36 4.99-4.28 6.25-7.5 2.44.07 3.77 1.97 4.82 3.78l.9 1.55Zm-15.64 7.8c-.56-.9-1.1-1.57-1.69-1.85-.57-.29-1.5.16-2.5 1.02 1.77.53 2.43.69 4.18.83Zm2 3.25c-3.38-.45-6.61-.36-9.32-2.17l-2.1-1.39c.29 3.47 3.28 6 6.65 5.77 1.83-.13 3.63-1.05 4.77-2.21"/><path d="M897.61 318.05c1.17-.11 1.95 2.63.82 3.05-.26-.02-.56-.25-.8-.59-.54-.73-.88-1.94-.37-2.35.11-.06.23-.1.34-.11Zm-2.16-12.77c.33.5.42 1.19.34 1.87-.13 1.1-.74 2.2-1.67 2.54-.68.67-.93-1.8-.26-3.32.32-.69.83-1.19 1.59-1.09" class="cls-14"/><path d="M887.32 243.88a1.87 1.87 0 0 1 1.28 2.31c-.29.99-1.33 1.56-2.32 1.27s-1.56-1.32-1.27-2.31c.28-.99 1.32-1.56 2.31-1.27"/><path d="M891.36 304.14c.33.48.26 1.55-.08 2.31-.13.29-.32.54-.54.68-3.38-.09-7.4-1.2-10.31-2.57-.43-.21-1.16-1.44-1.54-1.23-.32.17-1.05.62-1.42.77-3.52.01-7.32-1.56-10.74-2.74l-8.17-2.81-2.3-.76-6.65-2.19-4.94-1.49-4.81-1.75c-1.01-.37-3-.77-3.69-1.68-.16-.21-.16-.57-.08-.97.2-.96.94-2.15 1.41-2.14 2.47 1.18 4.81 1.89 7.18 2.78l4.78 1.82c2.31.88 4.57 2.2 6.96 2.95l9.81 3.06.48.17 3.98 1.37c4.5 1.56 1.82-.37 8.28 2.09.35.13.83.93 1.14.86.25-.05 1.07-.55 1.43-.48l1.65.33 8.16 1.62Z" class="cls-17"/><path d="M879.16 265.8c1.01.83.18 2.28-.53 2.97-1.18 1.14-6.38-1.82-8.93-3.18 1.04-1.34 2.22-2.52 3.16-2.44 2.42.22 4.51 1.17 6.3 2.64Z"/><path d="M874.03 247.69c.59.29 1.12.95 1.69 1.85-1.75-.14-2.42-.3-4.18-.83.99-.86 1.93-1.31 2.5-1.02Z" class="cls-10"/><path d="M872.63 236.65c-3.21 3.93 2.23 7.35.85 7.9l-1.38.55c-1.35.55-2.52 1.1-3.85 1.76l-2.11-3.17c-1.58-.8-2.18 1.09-2.76 1.97-2.49 3.7.54 3.63 1.04 7.24l-.34-.16-2.45-1.14c-7-3.24-1.55-6.17-8.85-4.71.27-2.05 2.08-3.35 3.44-4.88l8.57-9.68 1.08-1.49c.21-.28 1.38.28 1.85.11.62-.24 1.26-.44 1.9-.58l.1 1.82c-.1 0-.2 0-.3.02-.26.96-.24 2.73.36 3.07.79.45 1.68.85 2.87 1.37Zm-1.99 1.94c.09-1.15-.66-2.15-1.94-2.18-1.39-.03-2.16.49-2.23 2.81-.02.58.94 1.34 1.65 1.32 1.46-.01 2.42-.68 2.52-1.95" class="cls-18"/><path d="M868.4 250.63c2.71 1.81 5.94 1.71 9.32 2.17-1.14 1.16-2.94 2.08-4.77 2.21-3.36.24-6.36-2.3-6.65-5.77z" class="cls-10"/><path d="M868.7 236.4c1.28.03 2.03 1.03 1.94 2.18-.1 1.26-1.06 1.93-2.52 1.95-.71.02-1.66-.74-1.65-1.32.07-2.32.84-2.84 2.23-2.81m-9.07-62.23c2.61 2.68-2.24 4.02-3.04 12.86-.77 8.42-3.41 11.57-5.44 18.35l-2.38-.67c.49-1.7 1.08-3.37 1.75-5.03 3-7.37 3.14-9.49 4.15-17.05-1.11 1.46-1.74 3.21-3.6 2.89-1.87-1.64.48-7.1-2.03-9.55-1.69 3.05.26 14.74-4.13 9.63-.36.92-.72 1.85-1.23 2.21-.95.69-1.74-.07-2.18-1.18l-2.21 1.39c-1.34-1.07-1.65-5.56-2.45-3.87-.08.18-.19.72-.16.99l.88 8.21c.02.24.07.49.14.76l-2.5.67c-.05-.15-.09-.28-.12-.43-.72-2.95-.51-6.18-1.05-9.19-.28-1.55-.47-3.13.99-4.04 1.14-.7 2.49-.67 4.09-.01l.87-4.46c.17-.82 2.35-.15 2.94.38l.82-2.05c.16-.41 1.07-.56 1.51-.51l1.24.14c.19.02.47-1.3 1.41-2.77.24-.37 1.66-.47 1.94-.08 1.13 1.63 2.32 4.07 3.37 6.23l3.19-4.49c.71-1 2.62.04 3.26.68ZM867.52 296l-.81 2.35-.48-.17-9.81-3.06c-2.39-.74-4.65-2.06-6.96-2.95l-4.78-1.82c-2.36-.9-4.71-1.61-7.18-2.78-.47-.02-1.21 1.18-1.41 2.14l-1.78-.47c-.43-1.93-1.7-2.52-3.4-2.76l-.44 1.52-2.8-.82c1.12-2.65 1.43-5.56.97-8.78-2.15.25-3.73 1.16-5.53 2l-2.48 1.17-1.19-2.52 7.05-3.58c.26-.13 1.05-1 .86-1.18l-1.04-1c-1.49-1.43-2.96-2.34-5.14-3.13l-1.73 8.9-2.6-.25 1.55-8.44c-1-.96-6.96-.33-7.19 1.98l-2.05 1.74-2.12 3.5c-.71 1.17-1.49 2.41-1.85 3.73l-2.9.15-3.39-1.92-.48 1.3v.04l-2.35.41c-.74-3.8.09-6.62 2.6-9.5l-4.4-1.6.92-2.53c1.82.42 3.94.83 5.31.88 2.53-4.05 1.15.03 4.34-5.22l4.71-.87c1.6-.3 2.96-.03 4.6.17l9.54 1.18c5.11.63 9.08 5.24 11.73 9.37 1.53 2.4 3.9 4.96 2.68 8.21-.55 1.46-.59 3.08 1.22 3.79 3.86 1.55 7.91 2.89 11.63 4.73 3.78 1.88 7.55 2.91 11.62 4.09 1.74.5 3.24 1.41 4.92 2Zm-32.65-11.82c.98-1.32 1.52-3.65.61-5.16-.97-.12-2.73.07-3.62.33l.05 4.46c.74.13 2.22.35 2.97.36Zm-2.82-7.68c.6.04 1.79-.72 1.47-1.18-.58-.85-3.46-4.7-3.82-4.58l-.69.24c-.19.08.29.97.49 1.09 2.96 1.8.83 4.31 2.55 4.43m-21.72-8.34c1.74-1.15 2.95-1.3 5.11-1.64-.76-1.23-6.43-1.29-5.67.42l.55 1.21Zm-8.7 5.03c.45 1.43 4.18 2.52 3.69 1.4l-3.41-3.28c-.14.07-.43 1.42-.28 1.88"/><path d="M859.28 225.5c.23.47-.55 1.82-1.02 2.16-1.97 1.47-3.3 4.06-4.81 6.2-1.52 2.13-3.45 4.23-5.28 6.05-6.69 6.65-13.03 6.1-15.16 12.73-.41.18-1.97.11-2.45-.17-2.76-1.59-5.56-.42-8.19.11-3.67.75-7.18.85-10.4.98l-.1-2.85c4.19-.11 9.57-1.26 13.08-2.38l-5.75-2.79c-9.45-4.56.9-.75-13.7-3.69a34 34 0 0 0-3.13-.49l.29-2.81c2.95.38 4.64 1.22 9.39-.52.5-.19 1.64-.16 2.06-.41l11.63-7.17 6.76-4.07c2.25-1.35 4.72-2.18 7.21-3.36-.01-1.54-.16-3.06-.34-4.46-1.26-9.91.37-8.76-2.88-19.47-.42-1.41-.95-2.88-1.32-4.33l2.5-.67c.69 2.79 3.38 7.77 4.08 18.66.19 3.05.56 5.89 1.51 8.9.89 0 2.09-.4 2.69-.88l1.12-8.19c.37-2.72.93-5.33 1.68-7.89l2.38.67c-1.41 4.7-1.77 9.43-2.23 14.61l7.99-1.76.55 2.53c-1.38.3-2.72.68-4.01 1.16l4.46 1.84c.5.53 1.13 1.28 1.38 1.74Zm-4.15.52-4.03-1.82c-.86-.38-2.83-.49-3.88-.48-1.8.01-3.57 1.13-5.21 1.72-5.29 1.88-6.22 2.08-11.05 5.04l-10.32 6.33-5.29 3.21 6.9 3.5 4.81 2.25c1.45.69 2.75 2.27 4.49 2.22l2.5-2.36 5.5-3.32c2.31-1.4 4.5-2.59 6.38-4.69 3.28-3.67 6.2-7.36 9.22-11.61Z"/><path d="M854.65 182.63c-1 7.56-1.15 9.69-4.15 17.05-.67 1.66-1.26 3.33-1.75 5.03-.76 2.56-1.31 5.17-1.68 7.89l-1.12 8.19c-.6.48-1.8.88-2.69.88-.95-3.01-1.32-5.85-1.51-8.9-.7-10.88-3.39-15.87-4.08-18.66-.07-.28-.12-.52-.14-.76l-.88-8.21c-.03-.27.08-.81.16-.99.81-1.69 1.11 2.8 2.45 3.87l2.21-1.39c.43 1.1 1.23 1.87 2.18 1.18.51-.36.88-1.3 1.23-2.21 4.39 5.11 2.44-6.58 4.13-9.63 2.51 2.45.17 7.92 2.03 9.55 1.86.32 2.49-1.43 3.6-2.89Z" class="cls-18"/><path d="m851.1 224.21 4.03 1.82c-3.01 4.25-5.94 7.95-9.22 11.61-1.88 2.1-4.07 3.3-6.38 4.69l-5.5 3.32-2.5 2.36c-1.74.05-3.04-1.53-4.49-2.22l-4.81-2.25-6.9-3.5 5.29-3.21 10.32-6.33c4.84-2.97 5.76-3.16 11.05-5.04 1.64-.59 3.42-1.71 5.21-1.72 1.05-.02 3.02.09 3.88.48Z" class="cls-19"/><path d="M857.17 253.79c.55 4.35-.26 9.05-3.44 12.5l-4.59-2.36c-3.23-1.66-5.95-5.03-5.84-8.16 2.49-4.07 7.4-6.29 12.02-5.69-.09.91-.27 1.91-.13 2.43.13.52 1.24 1.04 1.98 1.28" class="cls-9"/><path d="m856.27 297.79-.8 2.43c-4.78-1.54-8.42-1.79-10.86-2.74l-6.04-2.35c-1.56-.61-4.04-1.71-5.49-.51-1.85 3.33-4.84 5.66-8.36 6.77-.03.88-.1 1.91-.44 2.3-.83.98-1.68-1.04-5.83-.5l-4.71.6c-.68-2.12-2.6-2.34-4.24-3.36l-4.44-2.73c-2.42-1.48-4.15-4.3-5.84-6.28-5.65.42-12.51-.41-14.26-6.55l-2.48-2.17.04-2.08c.01-.41-1.19-.77-1.6-.92-2.45-.83-4.51-1.89-6.73-3.18-1.41-.82-2.04-1.39-2.29-3.16-.27-1.88-1.5-4.57.09-6.24 1.4-1.46 2.64-3.04 3.67-4.73l2.41 1.2c-.02.06-.05.12-.07.17l-2 5.04c-.38.33-1.49.64-1.76 1-.31.43 0 1.74.24 2.23 1.27 2.86 4.18 3.18 6.71 4.21l6.81 2.78c2.76 1.12 5.15 2.27 8.07 2.3v-.04l2.35-.41c-.1.69 3.23 1.17 3.88.58l2.9-.15c-.32 1.18-.31 2.44.39 3.8.33.66 1.61-.26 2.16-.59l6.88-4.15-5.46-6.3 2.05-1.74 5.64 6.46 2.6.25 1.19 2.52-1.87.87 2.98 4.81c.89 1.43 1.84 2.62 3.4 3.98 1.09-1.28 1.93-2.64 2.53-4.06l2.8.82-.53 1.81 4.37-.56 1.78.47c-.08.4-.08.76.08.97.69.91 2.68 1.31 3.69 1.68l4.81 1.75 4.94 1.49 6.65 2.19Zm-28.12-2.34c1.26.36 2.66-1.51 2.09-2.41-.53-.82-1.96-.64-2.37 0-.36.57-.45 2.21.28 2.4Zm-2.51 2.87c.06-2.44-4.28-.56-4.9.59 1.87.6 3.41.07 4.9-.59m-2.61-4.92c-1.92-2.07-2.97-3.76-4.71-6.39-1.01 2.45-1.48 4.92-1.88 7.96 2.44 1.2 5.16.05 6.59-1.57m-7.07-10.39-8.5 5.2 1.31 3.18c.91 2.2 2.2 4.02 4.8 3.66l1.1-5.34c.49-2.34 1.37-4.17 1.29-6.7m-14.17 7.14c.55-.05 1.41-.6 2.29-1.19-.93-.56-1.99-.77-3.67-.77.1.64.83 2 1.38 1.96"/><path d="M835.48 279.03c.91 1.5.37 3.84-.61 5.16-.74-.01-2.23-.23-2.97-.36l-.05-4.46c.9-.26 2.66-.46 3.62-.33Zm-1.97-3.71c.32.46-.87 1.22-1.47 1.18-1.72-.11.41-2.63-2.55-4.43-.2-.12-.69-1.01-.49-1.09l.69-.24c.36-.12 3.24 3.73 3.82 4.58m.81 13.93-4.37.56.53-1.81.44-1.52c1.7.25 2.97.83 3.4 2.76Zm-4.08 3.78c.57.9-.83 2.77-2.09 2.41-.73-.19-.64-1.84-.28-2.4.41-.65 1.84-.82 2.37 0Zm-1.58-14.62c.46 3.21.15 6.12-.97 8.78-.6 1.42-1.44 2.77-2.53 4.06-1.56-1.35-2.51-2.54-3.4-3.98l-2.98-4.81 1.87-.87 2.48-1.17c1.8-.85 3.38-1.76 5.53-2Zm-1.3-4.11c.2.18-.6 1.05-.86 1.18l-7.05 3.58 1.73-8.9c2.18.79 3.65 1.7 5.14 3.13l1.04 1Z" class="cls-14"/><path d="m819.2 245.55 5.75 2.79c-3.5 1.12-8.89 2.26-13.08 2.38-.66.01-1.29 0-1.88-.03-8.43-.52-4.4 2.06-8.99-.41l-3.41-1.85c-2.08-1.11-3.87-2.81-4.71-4.92 3.05-2.06 6.23-2.45 9.49-2.14 1.03.11 2.07.27 3.13.49 14.59 2.95 4.25-.87 13.7 3.69" class="cls-9"/><path d="M820.74 298.91c.62-1.15 4.95-3.03 4.9-.59-1.49.66-3.02 1.19-4.9.59m-2.43-11.9c1.75 2.62 2.8 4.31 4.71 6.39-1.44 1.62-4.15 2.77-6.59 1.57.4-3.04.87-5.5 1.88-7.96m.1-16.64-1.55 8.44-5.64-6.46c.23-2.31 6.19-2.94 7.19-1.98m-10.95 17.84 8.5-5.2c.08 2.52-.8 4.35-1.29 6.7l-1.1 5.34c-2.61.36-3.89-1.46-4.8-3.66zm1.71-14.11 5.46 6.3-6.88 4.15c-.54.33-1.82 1.25-2.16.59-.7-1.36-.71-2.62-.39-3.8.36-1.33 1.14-2.57 1.85-3.73l2.12-3.5Z" class="cls-14"/><path d="m811.87 250.71.1 2.85c-6.61.25-12 .62-15.07 6.92-1.14 2.36-2.01 4.43-1.7 7.2l-.92 2.53-1.79-.65c-2.96-1.07-4.33-2.37-7.71-4.05-1.62-.8-2.94-1.45-4.32-2.55-.29-.23-1.21-.68-1.49-.48-.25.18-.68.72-.9 1.14l-2.41-1.2a23.4 23.4 0 0 0 2.46-5.36c1.04-.6 2.07-1.68 2.69-2.79l3.32-5.92 3.77-5.44c.97-1.39 1.23-1.66 3.04-1.88 1.46-.18 3.24-1.84 4.87-2.16 3.18-.6 5.22-.53 6.86-.31l-.29 2.81c-3.26-.31-6.44.08-9.49 2.14.84 2.11 2.63 3.81 4.71 4.92l3.41 1.85c4.59 2.47.55-.11 8.99.41.59.04 1.22.04 1.88.03Zm-19.44 11.72c2.04-7.14 7.1-8.57 5.91-9.83-.26-.27-.99-.09-1.38.14-2.75 1.57-3.81 3.87-5.16 6.59-.97 1.97-1.98 3.77-1.34 5.97.71-.92 1.74-2.07 1.97-2.86Zm.13-9.79c.91-1.17 1.83-1.98 1.41-3.49-1.87 1.71-3.83 3.56-4.83 5.68l-3.6 7.65c.21.2.69.57.82.43 1.95-2.03 2.3-5.23 6.21-10.26Zm-1.68-5.48c.21-.29.21-1.18.13-1.45-.1-.33-1.18-.11-1.42.15-2.32 2.42-4.13 5.47-5.62 8.48l-2.53 5.08c3.36.87 3.14-3.72 6.55-8.36l2.88-3.91Z"/><path d="M815.44 266.53c-2.16.34-3.37.48-5.11 1.64l-.55-1.21c-.77-1.71 4.91-1.65 5.67-.42Zm-10.11 8.06c.48 1.12-3.24.04-3.69-1.4-.15-.47.13-1.81.28-1.88zm-6.41 4.97 3.39 1.92c-.65.59-3.98.11-3.88-.58v-.04l.48-1.3Zm5.16 9.39c-.88.59-1.74 1.14-2.29 1.19-.55.04-1.28-1.32-1.38-1.96 1.68 0 2.73.21 3.67.77" class="cls-14"/><path d="M798.34 252.6c1.18 1.27-3.87 2.7-5.91 9.83-.23.79-1.26 1.94-1.97 2.86-.64-2.2.37-4 1.34-5.97 1.35-2.72 2.41-5.02 5.16-6.59.39-.23 1.13-.4 1.38-.14Z" class="cls-5"/><path d="m794.28 270.2 4.4 1.6c-2.51 2.88-3.34 5.7-2.6 9.5v.04c-2.92-.03-5.31-1.18-8.07-2.3l-6.81-2.78c-2.54-1.03-5.45-1.36-6.71-4.21-.23-.49-.55-1.8-.24-2.23.27-.37 1.37-.68 1.76-1l2-5.04c.03-.05.05-.11.07-.17.22-.41.65-.95.9-1.14.28-.21 1.2.24 1.49.48 1.38 1.11 2.7 1.76 4.32 2.55 3.39 1.68 4.75 2.98 7.71 4.05l1.79.65Z" class="cls-17"/><path d="M793.97 249.14c.42 1.52-.5 2.33-1.41 3.49-3.91 5.03-4.25 8.23-6.21 10.26-.14.14-.61-.22-.82-.43l3.6-7.65c1-2.12 2.96-3.97 4.83-5.68Zm-2.97-3.43c.08.26.09 1.16-.13 1.45l-2.88 3.91c-3.41 4.63-3.19 9.22-6.55 8.36l2.53-5.08c1.49-3.01 3.3-6.06 5.62-8.48.25-.26 1.32-.48 1.42-.15Z" class="cls-5"/><path d="M1132.36 462.46c.44 5.78-7.97 5.27-12.55 5.73l-13.27 1.34-4.31.32c.91 6 .39 11.75-.14 17.66-.61 6.73-1.4 17.94-3.7 23.95-1.53 3.99-3.75 7.49-6.07 11.08.04.73.93 1.57 1.44 2.18 1.47 1.8 2.82 3.59 4.08 5.56 1.1 1.74-.24 5.4-.25 7.73v2.13c0 3.18-.8 6.23.71 8.77 2.75 4.64 6.25 7.99 10.94 10.77 1.48.89 3.15 3.09 5.1 2.9 2.76-.28 5.19.6 6.49 2.88 1.3 2.3.6 5.17-1.34 7.06-4.02 3.9-11.08 5.06-13.22 1.72-.67-1.04-.13-3.36.07-4.67-4.1-2.08-8.04-8.69-9.86-12.78-.68-1.53-2.17-2.97-3.48-4.54-2.9 2.12-1.96 8.13-1.59 11.4.1.87-.04 2.43.17 3.16.42 1.48 1.22 2.97 1.38 4.34.31 2.69.74 5.12 1.8 7.54 1.59 3.66 1.22 7.35-.57 10.88-.42.84-1.16 1.38-2.23 1.78-.54 4.3.05 12.69 1.1 16.92.31 1.23.34 2.07.35 3.37.02 3.2.37 6.37.73 9.63 1.74 1.21 4 1.15 6.15 1.41 1.51.35 3.24 1.36 4.83 2.25.75.42 4.62 6.31 2.58 9.78-1.62 2.78-4.94 3.4-7.84 3.87-6.21.99-11.43 1.44-14.37-4.45-.81 2.05-1.82 4.58-3.9 4.83-4.68.57-16.11 1.75-19.04-2.27-1.75-3.99-.24-8.15.91-11.92 1.24-4.08 3.22-1.3 3.87-7.53 1.02-9.75 2.74-15.39 4.01-24.65l-2.64-.39c-1.76-.26-1.6-2.15-1.21-3.46.35-1.15.25-2.68.37-3.91l1.02-10.58c-1.53 1.89-2.03 3.57-3.17 5.24l-1.99 2.93-6.22 8.4c-2.64 3.58-.92.61-3.39 4.37l-10.41 15.84c-4.74 7.23-13.62 10.53-20.69 14.41l-11.27 6.2c-3.55 1.95-7.01 3.61-10.88 4.94l-8.08 2.78c-5.39 1.84-9.01.77-15.68 1.83l-7.9 1.27c-4.69.75-5 1.76-9.66 1.76-3.04 0-1.77 2.2-3.51 1.65-1.08-.34-.74-3.22-.39-3.93.72-1.48 5.58-.59 9.15-1.21l10.33-1.8 13.99-1.57c2.9-.34 12.42-3.42 15.1-4.69 4.54-2.14 8.87-4.33 13.26-6.77l8.81-4.88 7.71-4.22c4.79-2.62 8.03-6.93 10.97-11.5l7.13-11.07c-2.9 1.87-5.74 3.23-8.75 2.01-3.35-1.38-2.7-7.24-1.17-10.69 2.88-6.46 5.92-.89 8.9-6.26l2.97-5.39 5.3-9.96 2.88-5.44c1.15-2.15 2.13-4.14 3.17-6.41-1.78-2.2-6.9-.99-6.95-4.16 0-.51 1.02-.96 1.88-1.17l2.06-5.13c1.39-3.48 2.98-6.61 4.73-9.99 1.18-2.27 3.18-4.6 4.58-6.58l-5.56-5.19c-.36 4.1-.89 19.46-6.04 19.18-2.96-.16-3.3-7.37-3.16-9.96l.29-5.61c-.91 1.11-2.05 2.6-2.86 3.4-.37.37-1.97.23-2.25-.19-.32-.49-.93-1.72-.87-2.32l.63-6.23c-1.76 1.93-2.6 3.66-4.67 4.6-1.35.61-3.97-.24-4.55-1.71-.8-2.05.08-6.46.67-8.72l1.18-4.58c.89-3.46 1.56-6.61 3.2-9.81 2.69-5.22 4.83-13.27 5.68-19.09.41-2.72-3.17-6.37-1.83-9.92 1.08-2.85 1.54-6.13 3.03-8.69 1.83-3.16 4.8-7.66 7.06-10.58.63-.83 2.33-1.68 3.24-2.42 4.88-3.9 10.85-5.21 17.01-4.72 7.37.59 10.09 2.92 15.22 7.41 1.41 1.24 2.47 2.26 2.99 4.21.95 3.59 10.94 2.13 17.15 3.23l5.16.91c3.63.63 7.18 1.72 9.98 4.19Zm-7.11 2.72c1.52-.16 2.76-.56 3.89-1.71-2.03-1.97-12.01-3.54-14.56-3.67l-12.89-.66c-1.24-.06-2.47-.25-3.71-.37-3.27-.3-6.64.81-9.94 1.14-2.85.28-5.42.92-8.01 2.08l-7.46 3.36c3.37 1.39 10.39 1.74 13.88 1.89 11.46.49 22.65-.44 34.27-1.6l4.52-.45Zm-7.06 104.94c.72-.95.83-2.92.01-3.51-1.35-.96-2.75-.31-4.42-.17-1.04.1-2.38-1.63-3.3-2.2-4.33-2.74-8.01-5.64-11.5-9.38-.37 3.2 2.37 4.81 4.62 9.14 1.04 2.02 2.93 2.82 5.22 2.79 1.58 1.74-1.39 4.56-.07 5.85 1.99 1.97 6.95.81 9.44-2.53Zm-15.53 64.96c1.48-.42 3.18-1.38 3.04-3.31-.11-1.46-1.14-4.01-2.53-4.83-1.62-.97-3.64-1.39-5.54-1.87-.78 2.58-1.76 4.68-3.66 6.38l-6-3.05c-1.22 2.06-.11 3.97 1.18 5.78 2.05 2.86 10.21 1.82 13.5.91Zm-2.33-153.74c.11-.63-.18-1.96-.84-2.13l-8.28-2.14c-1.38 9.21.55 10.61-.89 21.06-.36 2.63-1.83 6.16-4.51 6.98-.43.13-.85.18-1.27.18-2.64-.05-4.97-2.61-5.89-4.97-1.27-3.23-1.53-6.4-2.05-9.8l-.8-5.4-.85-4.99c-1.05-.74-6.49 1.2-5.82-.25l1.08-2.29c2.3-.68 4.6-1.02 6.86-.79l1.58 10.42c.57 3.77.41 15.47 6.79 15.16 4.87-5.1 2.64-13.69 3.2-21.11.18-2.45.24-4.39-.04-7.19 2.91-1.46 6.88 2.66 11.6 1.94l-.56-5.5-7.31-.25c-1.54-.05-3.09.08-4.61-.06l-7.56-.71c-1.93-.18-4.27-.18-6.1-.77-4.06-1.29-7.49-.65-10.82 1.89-1.4 1.08-2.47 1.87-2.07 4.08.35 1.91-.12 4.15.19 6.12l1.64 10.53.54 5.74c.16 1.6 1.2 10.45 1.68 10.57l1.64.39.11 5.31c.05 2.35 2.03 4.4 3.06 6.2 1.54 2.66 3.78 2.82 6.08 3.77 1.2.5 2.03 1.5 3.69 1.42 1.87-.08 3.66-.36 5.3-.91 2.24-.74 4.21-2.02 5.85-4.04 9.41-11.6 7.2-25.39 9.39-38.47Zm-9.38-24.45 6.71-1.27c-1.71-4.97-8.16-10.22-13.73-10.61-3.11-.22-6.41-.63-9.41.26-4.97 1.47-6.35 1.69-10.29 5.09-3.02 2.61-4.75 6.04-6.8 9.42-1.6 2.64-5.28 11.64-2.29 14.2 6.94-7.52.78-1.82 8.62-6.58 1.3-.79 2.37-1.74 3.6-2.93l2.56-.54c4.45-2.09 8.84-4.57 13.64-5.85 2.39-.65 4.98-.73 7.37-1.18Zm3.54 83.48c1.29-8.07 2.2-6.31-2.72-13.59-.81 1.42-.56 9.88-.48 11.52.29 5.95-.29 6.74-.16 11.57 2.68-2.97 2.81-6.16 3.35-9.5Zm-.37 87.04c.35-.38.6-1.5.32-1.97-.26-.45-1.18-.73-1.94-.98-1.6-.54-1.47-2.49-1.48-3.87-.01-2.37-.26-5.72-.45-8.13-.05-.43-1.5-.75-1.69-.38-.14.29-.43 1.1-.41 1.5l.37 5.39.2 4.6c.05 1.22 3.6 5.47 5.07 3.85Zm-2.63-39.7c1.65-.68 2.41-4.1 1.81-5.53-1.22-2.86-1.85-5.6-2.61-8.47l-1.89-7.26c-3.42.17-6.76 1.12-10.09 2.33-2.6.93-6.14.65-6.43 2.3-.49 2.85-.69 5.49-.93 8.31l-.43 5.06-.47 4.2 3 .99c.6.2 1.28.42 1.7.34 1.16-.23 2.55-4.19 2.67-4.95l1.23-7.86c.12-.77.29-1.74.69-2.14.42-.41 2.01-.43 2.33.1.34 2.99-2.05 9.23 1.08 11.44 2.05 1.45 5.97 2.14 8.33 1.16Zm-1.3 20.3-.92-10.27c-.01-2.21-.2-4.25-.72-6.61-1.09 4.22-.77 7.92-.56 12.05l.22 4.42c.01.37.78 1.14 1.1 1.18.26.02.63-.39.89-.78Zm-1.73-44.67c.11-3.66.11-7.44-.16-11.18-.36-4.93.62-15.25.08-18l-.59-2.91c-.35-1.76-.26-3.51-.47-5.12-3.3.97-6.02 1.39-9.5 1.56 1.29 2.69 1.04 5.39.47 8.1-1.46 6.96-1.62 9.77-4.38 16.6-.77 1.9-1.95 3.26-2.13 5.36-.26 3.16-.51 6.1-.08 9.17 7.89.36 8.92-2.66 16.75-3.58Zm-2.68 56.66c.79-5.74-.42-11.44-.5-17.22l-.16-11.85-5.65-2.26c-1.91 4.09-2.02 8.36-2.36 12.83l-.8 10.73-1.14 10.34c3.39 2.39 6.31 2.13 10.02 3.82-.26-2.54.31-4.38.59-6.39m-4.68 15.58c2.01-1.23 2.55-4.63 1.57-6.64-.44-.89-2.79-1.2-3.45-.62-.32.44-.86 1.72-1.29 2.05-4.82 3.63-7.73 2.29-12.82-1.2-.54 1.69-.75 3.35-.66 5.24 2.93 1.76 5.52 2.14 8.72 2.03 2.57-.1 5.65.54 7.92-.86Zm-4.26-8.05-4.6-2.37 1.22-10.61c-.72-.37-2.72-.36-3.47.25l-.38 5.86c-1.74 1.95-2.63 4.2-1.45 6.44.86 1.62 3.1 3.31 5.33 2.53 1.08-.38 1.97-1.07 3.35-2.09Zm-.91-92.64c.54-2.85-.49-5.65-1.45-8.71-1.75 1.44-2.56 2.88-3.72 4.38-2.19 2.84-3.89 5.6-5.07 9.08-.75 2.2-2.44 4.63-2.9 6.92.35 2.35 3.53 3.24 5.35 3.14l.96 2.09c.97-.01 2.92-.57 3.18-1.39.84-2.5 1.59-4.68 2.06-7.1zm-1.98 73.55c.35-4.85 1.15-10.1.71-15.04-1.83 3.31-2.23 6.62-2.86 10l-1.45 7.72c.78.3 2.8.43 3.42-.25zm-5.2-42.66.59-4.79c-.79.98-1.38 1.74-1.97 2.62l-5.15 7.78c-2.35 3.53-5.76 10.67-3.73 14.7 3.7-5.41 7.19-10.55 9.54-16.25.38-.92.62-3.09.73-4.06Zm-2.45-5.64 2.74-5.72c-.59-.72-1.9-.19-2.35.65l-5.72 10.9c-1.84 3.51-3.52 6.86-5.56 10.24l-5.21 8.59-3.55-.25c-2.93.75-4.8 8.25-1.75 8.76 3.51.59 6.03-2.5 8.22-4.91 1.1-1.22 1.99-2.41 1.58-3.91-.54-2 .24-3.21 1.03-4.94 1.63-3.53 2.8-7.25 4.88-10.55 1.87-2.99 4.16-5.68 5.68-8.86Zm-2.57-37.62c.39-4.54.28-8.87-.63-13.36-.85-4.26-1.36-8.38-1.95-12.64l-2.11-15.63-.19-6.33c-2.05.9-2.18 2.44-2.61 4.06l-2.61 9.82c-2.07 7.79-5.35 11.99-6.01 15.38-.38 1.9-.68 3.66-1.3 5.49-1.11 3.24-2.09 6.64-1.24 10.12.16.65 2.17.57 2.56.02 1.76-2.5 3.23-4.82 4.74-7.46 1.57-2.74.89-3.94 2.33-5.39.24-.24 1.39.16 1.5.54 1.03 3.39-3.57 11.39-2.31 16.39l5.91-9.07c.3-.44 1.75-.84 2.06-.43 1.56 1.99-3.26 5.41-2.93 15.87.06 2.13.04 4.01 1.48 5.78 2.07-.54 3.14-11 3.31-13.19Z"/><path d="M1129.14 463.47c-1.12 1.15-2.37 1.56-3.89 1.71l-4.52.45c-11.62 1.16-22.81 2.09-34.27 1.6-3.49-.16-10.51-.5-13.88-1.89l7.46-3.36c2.58-1.16 5.16-1.81 8.01-2.08 3.3-.32 6.68-1.44 9.94-1.14 1.24.12 2.47.31 3.71.37l12.89.66c2.55.13 12.53 1.7 14.56 3.67Z" class="cls-10"/><path d="M1118.2 566.62c.81.59.71 2.56-.01 3.51-2.49 3.34-7.46 4.5-9.44 2.53-1.32-1.29 1.65-4.12.07-5.85-2.29.04-4.18-.77-5.22-2.79-2.25-4.33-4.99-5.95-4.62-9.14 3.49 3.75 7.17 6.64 11.5 9.38.92.57 2.26 2.3 3.3 2.2 1.66-.14 3.06-.79 4.42.17Z" class="cls-5"/><path d="M1105.7 631.76c.14 1.94-1.56 2.9-3.04 3.31-3.29.91-11.45 1.95-13.5-.91-1.29-1.81-2.41-3.72-1.18-5.78l6 3.05c1.9-1.7 2.88-3.79 3.66-6.38 1.9.48 3.93.9 5.54 1.87 1.39.83 2.42 3.37 2.53 4.83Z" class="cls-13"/><path d="M1099.5 479.21c.66.17.95 1.5.84 2.13-2.19 13.08.01 26.88-9.39 38.47-1.64 2.02-3.61 3.3-5.85 4.04l-.47-1.41c.59-.2 1.17-.5 1.76-.9 4.73-3.15-.16-4.89 6.46-8.8l.12-3.27c-1.47-.06-2.53.42-4.15 1.36l-2.02-2.38a5.8 5.8 0 0 0-2.36-.68l.12-2.5c.42 0 .84-.05 1.27-.18 2.68-.81 4.15-4.34 4.51-6.98 1.44-10.45-.49-11.85.89-21.06l8.28 2.14Zm-5.71 7.29c1.93.68 2.75-1.41 2.58-2.8-.13-1.05-1.48-2.32-2.86-1.57-1.32.73-1.3 3.82.28 4.37" class="cls-5"/><path d="m1099.64 470.52.56 5.5c-4.72.72-8.69-3.4-11.6-1.94.28 2.8.22 4.74.04 7.19-.55 7.42 1.68 16.01-3.2 21.11-6.38.31-6.21-11.39-6.79-15.16l-1.58-10.42c-2.26-.23-4.56.11-6.86.79l-1.08 2.29c-.67 1.45 4.76-.49 5.82.25l.85 4.99.8 5.4c.51 3.4.78 6.57 2.05 9.8.92 2.36 3.24 4.92 5.89 4.97l-.12 2.5c-2.43-.16-4.72 1.35-6 3.97-2.19-1.45-1.66-7.6-4.58-6.2-2.44 1.16 1.07 6.07 2.18 7.79.86 1.3 1.45 2.54 1.57 4.18.16 2.09 1.35 4.15 2.98 4.77 1.47.56 2.76.59 4.04.14l.47 1.41c-1.64.55-3.43.83-5.3.91-1.65.07-2.49-.92-3.69-1.42-2.3-.95-4.54-1.11-6.08-3.77-1.03-1.8-3.02-3.85-3.06-6.2l-.11-5.31-1.64-.39c-.48-.12-1.52-8.96-1.68-10.57l-.54-5.74-1.64-10.53c-.31-1.96.16-4.2-.19-6.12-.39-2.21.67-3 2.07-4.08 3.33-2.54 6.76-3.18 10.82-1.89 1.83.59 4.18.59 6.1.77l7.56.71c1.52.14 3.06.01 4.61.06l7.31.25Zm-27.46 15.94c1.32-.19 2.55-1.77 2.03-3.3-.24-.73-1.94-.6-2.63-.11-.56.39-1.1 1.47-1.05 2.09.05.56 1.09 1.4 1.65 1.32" class="cls-5"/><path d="m1097.67 455.62-6.71 1.27c-2.39.45-4.98.54-7.37 1.18-4.8 1.28-9.19 3.76-13.64 5.85l-2.56.54c-1.23 1.2-2.3 2.14-3.6 2.93-7.84 4.76-1.68-.93-8.62 6.58-2.99-2.56.68-11.56 2.29-14.2 2.05-3.37 3.78-6.81 6.8-9.42 3.94-3.4 5.33-3.61 10.29-5.09 2.99-.9 6.29-.48 9.41-.26 5.56.39 12.01 5.65 13.73 10.61Z" class="cls-10"/><path d="M1096.37 483.7c.17 1.39-.66 3.48-2.58 2.8-1.58-.55-1.59-3.64-.28-4.37 1.38-.75 2.73.51 2.86 1.57"/><path d="M1091.78 526.78c4.92 7.29 4.01 5.53 2.72 13.59-.54 3.34-.67 6.53-3.35 9.5-.13-4.83.44-5.62.16-11.57-.08-1.64-.34-10.1.48-11.52Z" class="cls-12"/><path d="M1094.45 625.43c.28.48.02 1.59-.32 1.97-1.47 1.62-5.03-2.63-5.07-3.85l-.2-4.6-.37-5.39c-.02-.39.26-1.21.41-1.5.19-.37 1.64-.05 1.69.38.19 2.41.44 5.76.45 8.13.01 1.38-.12 3.33 1.48 3.87.75.25 1.68.53 1.94.98Zm-1.15-43.24c.6 1.42-.16 4.85-1.81 5.53-2.36.98-6.28.29-8.33-1.16-3.12-2.21-.74-8.45-1.08-11.44-.32-.53-1.91-.5-2.33-.1-.41.41-.57 1.38-.69 2.14l-1.23 7.86c-.12.77-1.51 4.73-2.67 4.95-.42.08-1.1-.13-1.7-.34l-3-.99.47-4.2.43-5.06c.24-2.81.44-5.46.93-8.31.29-1.65 3.83-1.36 6.43-2.3 3.33-1.21 6.67-2.17 10.09-2.33l1.89 7.26c.75 2.87 1.39 5.61 2.61 8.47Z" class="cls-16"/><path d="m1092.96 509.49-.12 3.27c-6.62 3.9-1.74 5.65-6.46 8.8-.59.39-1.17.69-1.76.9-1.28.44-2.57.42-4.04-.14-1.63-.62-2.82-2.68-2.98-4.77-.12-1.64-.71-2.87-1.57-4.18-1.11-1.72-4.62-6.63-2.18-7.79 2.92-1.4 2.39 4.75 4.58 6.2 1.28-2.62 3.57-4.13 6-3.97.78.05 1.57.26 2.36.68l2.02 2.38c1.63-.95 2.68-1.42 4.15-1.36Zm-6.2 6.71-6.17.55c-.16.72-.01 1.93.38 2.43.35.44 2.03.55 2.8.28 1.5-.54 2.49-1.94 2.99-3.26m-6.15-2.43 5.91-.29c-.75-1.2-1.3-2.27-1.84-2.54-1.45-.68-3.91.78-4.07 2.82Z"/><path d="m1089.26 597.74.92 10.27c-.25.38-.62.8-.89.78-.32-.05-1.09-.81-1.1-1.18l-.22-4.42c-.2-4.13-.53-7.83.56-12.05.51 2.36.71 4.39.72 6.61Z" class="cls-5"/><path d="M1088.31 552.16c.26 3.73.26 7.52.16 11.18-7.84.92-8.87 3.94-16.75 3.58-.43-3.06-.18-6.01.08-9.17.18-2.11 1.36-3.46 2.13-5.36 2.76-6.83 2.92-9.63 4.38-16.6.57-2.72.83-5.41-.47-8.1 3.48-.17 6.2-.59 9.5-1.56.2 1.62.12 3.36.47 5.12l.59 2.91c.54 2.75-.44 13.07-.08 18Z" class="cls-12"/><path d="m1080.59 516.75 6.17-.55c-.5 1.32-1.5 2.72-2.99 3.26-.77.28-2.45.17-2.8-.28-.39-.5-.54-1.71-.38-2.43m5.93-3.27-5.91.29c.16-2.05 2.62-3.51 4.07-2.82.54.26 1.09 1.34 1.84 2.54Z" class="cls-16"/><path d="M1082.67 628.94c.98 2.01.44 5.41-1.57 6.64-2.27 1.4-5.35.77-7.92.86-3.21.11-5.79-.28-8.72-2.03-.1-1.89.12-3.55.66-5.24 5.09 3.48 7.99 4.82 12.82 1.2.43-.32.97-1.6 1.29-2.05.66-.57 3-.26 3.45.62Z" class="cls-13"/><path d="m1072.25 625.16 4.6 2.37c-1.38 1.03-2.27 1.71-3.35 2.09-2.23.79-4.46-.91-5.33-2.53-1.18-2.24-.29-4.49 1.45-6.44l.38-5.86c.75-.61 2.75-.62 3.47-.25l-1.22 10.61Z" class="cls-16"/><path d="M1074.49 526.18c.96 3.06 1.99 5.86 1.45 8.71l-1.59 8.41c-.47 2.42-1.22 4.6-2.06 7.1-.26.81-2.21 1.38-3.18 1.39l-.96-2.09c-1.82.11-5-.79-5.35-3.14.45-2.29 2.14-4.72 2.9-6.92 1.18-3.48 2.88-6.25 5.07-9.08 1.16-1.5 1.97-2.94 3.72-4.38" class="cls-12"/><path d="M1074.65 593.4c.44 4.94-.36 10.2-.71 15.04l-.18 2.43c-.62.68-2.64.55-3.42.25l1.45-7.72c.63-3.39 1.03-6.69 2.86-10" class="cls-5"/><path d="M1074.21 483.16c.51 1.53-.72 3.11-2.03 3.3-.56.08-1.6-.75-1.65-1.32-.05-.62.49-1.7 1.05-2.09.69-.49 2.39-.62 2.63.11"/><path d="m1069.04 554.42-2.74 5.72c-1.52 3.17-3.82 5.86-5.68 8.86-2.08 3.3-3.26 7.02-4.88 10.55-.79 1.74-1.57 2.94-1.03 4.94.41 1.51-.48 2.69-1.58 3.91-2.19 2.41-4.72 5.49-8.22 4.91-3.05-.51-1.18-8.01 1.75-8.76l3.55.25 5.21-8.59c2.05-3.39 3.72-6.74 5.56-10.24l5.72-10.9c.44-.84 1.76-1.36 2.35-.65Z" class="cls-5"/><path d="M1063.09 509.16c.91 4.49 1.03 8.82.63 13.36-.18 2.19-1.24 12.65-3.31 13.19-1.45-1.77-1.42-3.65-1.48-5.78-.32-10.46 4.49-13.88 2.93-15.87-.31-.41-1.76-.01-2.06.43l-5.91 9.07c-1.26-5 3.34-13.01 2.31-16.39-.11-.38-1.26-.78-1.5-.54-1.45 1.45-.77 2.64-2.33 5.39a95 95 0 0 1-4.74 7.46c-.39.55-2.41.62-2.56-.02-.85-3.48.13-6.88 1.24-10.12.62-1.83.92-3.59 1.3-5.49.66-3.39 3.94-7.59 6.01-15.38l2.61-9.82c.43-1.62.56-3.16 2.61-4.06l.19 6.33 2.11 15.63c.59 4.26 1.1 8.38 1.95 12.64Z" style="fill:#d3edfb"/><path d="m347.66 672.31-6.05-18.91-40.25-83.75c-4.83.43-9.26.82-13.68 1.21-11.67.43-26.17.43-44.28 0v73.26l3.23 17.34h-50.72l3.62-14.91V395.77l-3.62-24.16 49.51.39c5.23 0 11.67 0 20.13-.39 10.47 0 17.31-.39 20.54-.39 35.02-.39 61.18 6.85 78.09 21.73 18.52 15.7 27.78 41.07 27.78 75.68 0 40.64-14.5 68.83-42.68 85.75l36.24 63.2 13.28 14.09-51.12 40.64Zm-60.39-246.75c-6.03 0-20.52 1.21-43.87 3.21v86.53c33.01.82 54.76 0 65.21-2.79 24.16-5.64 36.24-20.55 36.24-44.28 0-28.19-19.32-42.28-57.57-42.68Zm285.8 219.38c-13.68 21.73-37.04 32.61-70.05 32.61-26.57 0-47.5-6.85-62-20.52-14.88-13.7-22.53-33.83-23.34-60.41 0-25.34 7.64-45.07 23.75-59.56 16.09-14.49 36.63-21.34 62-19.73 11.67.39 24.14 4.43 37.83 12.06-3.21-22.13-16.5-34.22-39.04-35.4-16.11-1.21-36.63 3.61-61.59 14.06-2.43 1.64-6.85 4.46-13.68 8.88l-9.26-63.62c2.41-.39 7.24-1.21 14.49-2.39 26.98-6.85 49.92-10.1 68.44-10.88 53.13-1.21 82.11 27.37 86.55 85.35.8 6.03 1.2 19.7 1.2 41.04.8 35.04-4.43 61.2-15.29 78.5Zm-29.39-49.1c0-8.85-4.83-15.7-14.09-20.13-7.24-3.25-16.09-4.85-26.16-4.85-27.78 0-41.87 8.88-41.87 26.19-.39 18.09 13.29 26.94 40.66 26.94 23.75 0 37.04-6.82 40.66-20.52.39-2.43.8-4.82.8-7.64Zm180.1-206.93v165.07c0 66.41-38.65 103.84-115.15 112.69l-6.42-64.8c4.43.82 12.49 1.61 23.73 2.82 34.65-5.64 51.53-23.76 51.53-55.17V388.91c0-2.82-.79-8.46-2-16.91h50.31zm218.95 285.43-4.03-18.13-20.13-51.13H804.24l-17.31 57.16-1.61 18.52-60.8-24.55 12.88-12.88 87.35-257.24-3.61-13.67h66.01l-4.03 14.88 101.45 247.57 10.06 14.09-51.92 25.37Zm-88.56-233.08-31.01 100.23h70.05z" style="fill:#231916;stroke:#231916;stroke-miterlimit:10;stroke-width:4px"/><path d="m180.71 381.72 4.91 5.17v1.23l-5.08-5.39-6.21 5.89v-1.24l6.06-5.66h-6.06v-.94h11.29v.94zm5.14 13.9c0 3.31-2.47 5.85-5.88 5.85s-5.88-2.53-5.88-5.85 2.44-5.86 5.88-5.86 5.88 2.57 5.88 5.86Zm-10.9 0c0 2.8 2.22 4.91 5.02 4.91s5.02-2.12 5.02-4.91-2.19-4.92-5.02-4.92-5.02 2.14-5.02 4.92Zm10.67 11.02c0 2.22-1.27 3.39-3.06 3.39-1.36 0-2.97-.77-3.08-3.25l-5.15 3.97v-1.11l5.15-3.91v-1.43h-5.15v-.94h11.29zm-.85-2.34h-4.45v1.91c0 .74 0 2.89 2.22 2.89s2.22-2.01 2.22-2.89v-1.91Zm-6.89 9.39-3.55-1.39v-1.01l11.29 4.48v1.27l-11.29 4.48v-1.02l3.55-1.39v-5.41Zm.84 5.1 6.08-2.38-6.08-2.38zm6.9 5.55h-11.29v-1h11.29zm-6.57 5.57h-1v-3.6h1zm-4.19 10.59c-.23-.48-.76-1.57-.76-3.31 0-3.87 2.7-6.05 5.86-6.05s5.89 2.3 5.89 5.96c0 1.79-.65 2.84-.94 3.33l-.85-.35c.45-.66.94-1.5.94-2.99 0-3.05-2.21-5.02-5.02-5.02-2.41 0-5.02 1.57-5.02 5.17 0 1.78.61 2.71.95 3.25h-1.04Zm5.91 9.14h4.85v.95h-11.29v-.95h5.59v-6.28h-5.59v-.95h11.29v.95h-4.85zm5.08 8.7c0 3.31-2.47 5.85-5.88 5.85s-5.88-2.53-5.88-5.85 2.44-5.86 5.88-5.86 5.88 2.57 5.88 5.86Zm-10.9 0c0 2.8 2.22 4.91 5.02 4.91s5.02-2.12 5.02-4.91-2.19-4.92-5.02-4.92-5.02 2.14-5.02 4.92Zm10.67 13.31-11.29-5.44v-.88l11.29 5.44zm-1.26 6.85c.22-.38.64-1.1.64-2.21 0-1.57-1.1-2.37-2.18-2.37-1.34 0-1.75 1-2.27 2.44-.49 1.37-1.1 3.07-3.25 3.07s-3.2-1.75-3.2-3.85c0-1.07.27-2.11.82-3.02l.84.29c-.49.79-.81 1.62-.81 2.7 0 1.34.58 2.93 2.32 2.93 1.6 0 2.02-1.2 2.47-2.47.49-1.4 1.08-3.05 3.05-3.05 1.65 0 3.06 1.23 3.06 3.33 0 .88-.22 1.66-.61 2.44l-.88-.25Zm-3.59 10.18h4.85v.95h-11.29v-.95h5.59v-6.28h-5.59v-.95h11.29v.95h-4.85zm4.85 4.66h-11.29v-1h11.29zm0 5.05-10.67 3.52 10.67 3.54v1.56l-11.29 1.63v-.94l10.68-1.53-10.68-3.55v-1.4l10.68-3.55-10.68-1.53v-.94l11.29 1.63zm.23 17.17c0 3.31-2.47 5.85-5.88 5.85s-5.88-2.53-5.88-5.85 2.44-5.86 5.88-5.86 5.88 2.57 5.88 5.86Zm-10.9 0c0 2.8 2.22 4.91 5.02 4.91s5.02-2.12 5.02-4.91-2.19-4.92-5.02-4.92-5.02 2.14-5.02 4.92Zm2.93 9.25-3.55-1.39v-1.01l11.29 4.48v1.27l-11.29 4.48v-1.02l3.55-1.39v-5.41Zm.84 5.09 6.08-2.38-6.08-2.38zm6.9 7.52c0 2.22-1.27 3.39-3.06 3.39-1.36 0-2.97-.77-3.08-3.25l-5.15 3.97v-1.11l5.15-3.91v-1.43h-5.15v-.94h11.29zm-.85-2.34h-4.45v1.91c0 .74 0 2.89 2.22 2.89s2.22-2.01 2.22-2.89v-1.91Zm-6.89 9.39-3.55-1.39v-1.01l11.29 4.48v1.27l-11.29 4.48v-1.02l3.55-1.39v-5.41Zm.84 5.09 6.08-2.38-6.08-2.38zm-4.39 8.19v-.95h10.44v-3.94h.85v8.84h-.85v-3.94h-10.44Zm3.55 6.91-3.55-1.39v-1.01l11.29 4.48v1.27l-11.29 4.48v-1.02l3.55-1.39v-5.41Zm.84 5.1 6.08-2.38-6.08-2.38zm6.9 9.8-11.29-5.44v-.88l11.29 5.44zm-11.29 5.61v-.95h10.44v-3.94h.85v8.84h-.85v-3.94h-10.44Zm3.55 6.91-3.55-1.39v-1.01l11.29 4.48v1.27l-11.29 4.48v-1.02l3.55-1.39v-5.41Zm.84 5.09 6.08-2.38-6.08-2.38zm6.9 5.7-10.52 7.26h10.52v.94h-11.29v-1.49l10.52-7.26h-10.52v-.94h11.29zm0 11.88h-11.29v-1h11.29zm-6.63 5.78 6.63-3.88v1.05l-5.69 3.29 5.69 3.31v1.05l-6.63-3.88h-4.66v-.94zm-1.11 7.91-3.55-1.39v-1.01l11.29 4.48v1.27l-11.29 4.48v-1.02l3.55-1.39v-5.41Zm.84 5.1 6.08-2.38-6.08-2.38zm6.9 6.59-10.67 3.52 10.67 3.54v1.56l-11.29 1.63v-.94l10.68-1.53-10.68-3.55v-1.4l10.68-3.55-10.68-1.53v-.94l11.29 1.63zm-7.74 13.32-3.55-1.39v-1.01l11.29 4.48v1.27l-11.29 4.48v-1.02l3.55-1.39v-5.41Zm.84 5.09 6.08-2.38-6.08-2.38z" style="stroke-width:.5px;fill:#231916;stroke:#231916;stroke-miterlimit:10"/></g></svg>