<?xml version="1.0" encoding="UTF-8"?>
<svg id="Layer_2" data-name="Layer 2" xmlns="http://www.w3.org/2000/svg" viewBox="0 0 184.88 216.89">
  <defs>
    <style>
      .cls-1 {
        fill: #231f20;
      }

      .cls-2 {
        fill: #643996;
      }

      .cls-3 {
        fill: #f3733b;
      }

      .cls-4 {
        fill: #f1f2f2;
      }

      .cls-5 {
        fill: #bc5ba3;
      }

      .cls-6 {
        fill: #80c350;
      }

      .cls-7 {
        fill: #f3c43d;
      }

      .cls-8 {
        fill: #3d60ac;
      }

      .cls-9 {
        fill: #53a6dc;
      }

      .cls-10 {
        fill: #2bb673;
      }
    </style>
  </defs>
  <g id="_レイヤー_1" data-name="レイヤー 1">
    <g>
      <g>
        <path class="cls-1" d="M36.09,60.24c.32-.63,1.93-3.91,2.84-6.47-.42.05-1.93.37-3.43,1.04l-.03-5.32,4.77-.05c.74-2.19,1.4-4.75,2.07-7.67l3.5,2.77-1.79,5.17c2.7.73,4.41,3.08,4.41,6.52,0,2.51-1.09,6.05-3.01,9.87-1.68,3.29-3.26,5.9-5.08,8.25,0,0-1.26-2.35-2.49-4.59.49-.26,1.47-1.15,2.38-1.77,1.19-1.25,1.79-2.77,2.7-4.54,1.12-2.19,2.07-5.48,2.07-7.2,0-1.46-.91-1.88-2.73-2.14-1.58,3.86-2.63,6.58-3.05,7.36-.95,2.04-2.24,3.97-3.85,5.9l-1.65-4.38c1.3-1.15,1.75-1.57,2.38-2.71ZM51.89,48.81c.77,1.83,2.35,6.63,4.77,14.41l-3.64,3.34-1.93-11.27c-.07-.26-.88-1.72-2.38-4.38l3.19-2.09Z"/>
        <path class="cls-1" d="M61.98,62.93c.39-.4,1.93-2.38,4.06-5.02l-3.19.18c-.14,0-1.26.36-3.36,1.03l-.1-5.97c1.72.22,3.92.36,6.69.36.6,0,1.4-.13,2.38-.4,1.54-.45,2.31-.63,2.38-.63l1.61,4.13c-1.4,1.17-2.45,2.74-3.99,4.71l.56,1.17c-.04,2.87-.04,5.07-.04,6.1,1.51.13,2.66.22,3.47.22.7,0,1.26-.09,1.72-.31.07,0,.63-.31,1.68-.9l.28,5.65c-4.38,0-7.25-.13-9.5,0l-1.3-5.56.14-2.56c-2.03,2.29-4.49,4.62-6.52,6.41-.56-1.79-1.19-3.54-1.82-5.2,1.44-.63,3.29-1.75,4.83-3.41ZM63.81,50.14c-.28,0-.98.09-2.1.27l.35-5.11c3.43,1.03,6.27,1.7,8.55,2.02l.03,4.17c-1.16-.27-2.28-.54-3.43-.81-1.47-.36-2.59-.54-3.4-.54Z"/>
        <path class="cls-1" d="M96.06,70.42c-.11,5.94-3.75,9.76-11.88,9.58-.6-1.6-1.02-2.53-1.02-2.53,0-.13.17-1.02.53-2.66.39-1.64.6-2.48.63-2.53.25-.49,1.26-.93,3.08-1.29.11.04.6.62,1.44,1.73.88,1.06,1.47,1.91,1.82,2.44,1.44-.58,2.1-3.46,2.1-4.61.04-1.11-.28-2.04-.95-2.75-.63-.75-1.68-1.06-2.59-1.06-2.84-.04-5.78,1.2-8.93,3.24,0,0-1.16-3.5-1.44-4.52,1.05-.75,2.7-1.73,4.34-3.68,1.54-1.77,3.33-3.64,4.14-5.1-.81,0-2.52.27-5.19.75l-.53-5.37c2.21.13,4.56.22,7.04.22-.14,0,1.16-.04,3.89-.18l.11,4.7h-.18c-1.61,1.46-2.7,2.53-3.29,3.15-1.02,1.11-1.93,2.4-2.8,3.81,1.09-.27,2.17-.4,3.19-.4,2,.09,3.33.67,4.52,1.69,1.47,1.24,2,3.02,1.96,5.37ZM88.18,76.1l-1.65-2.08-.46,2.44,2.1-.35Z"/>
        <path class="cls-1" d="M103.08,75.66c.6-1.82.85-4.28.75-7.48-1.35.75-2.1,1.12-2.34,1.18-.05,0-.3-1.07-.7-3.15-.15-1.02-.3-2.03-.5-3.05.4.21,1.35.21,2.79-.05.75-.32,1.5-.75,2.3-1.23,1.9-1.18,3.79-2.67,5.69-4.44l2.99-3.53,3.19,6.09c-1.65.69-2.59,1.12-2.74,1.28-1.3.91-3.34,2.24-6.14,4.01-.2,2.14-.5,5.34-.95,9.57,1.8-.32,3.54-.75,5.19-1.18l-2.44-6.04,2.89-.69c.9,1.66,1.75,3.05,2.54,4.17,0,0,.4.21,1.1.75.75.48,1.1.75,1.05.8l-2.74,6.89-.95-2.3c-1.25.48-2.89,1.07-4.89,1.87,3.29.48,4.94.69,5.04.64l-.05.53h7.83l4.89-1.02,2.44,2.94c-1.35,8.92-2.15,14.37-2.35,16.3,0,.11-1.35.05-3.99-.27l.1-.91-9.88-.05c-.05.37-.1.8-.15,1.28l-4.09-1.23c.45-2.78.65-5.72.65-8.71,0-2.73-.15-5.88-.55-9.46-4.14,1.66-6.19,2.57-6.24,2.73,0,0-.55-1.92-1.65-5.93.25,0,.85-.11,1.9-.32ZM113.51,93.51l3.09.05c.1-.75.15-1.71.15-2.89-.65,0-1.7.05-3.09.16-.05.86-.1,1.71-.15,2.67ZM113.76,86.61c1,.05,2.05.11,3.09.16v-2.51c-.5,0-1.5.11-2.99.27-.05.64-.1,1.34-.1,2.08ZM134.87,62.09c-1.45,6.2-2.59,10.47-3.39,12.72-.4.96-1,2.03-1.95,3.21-.9,1.18-1.4,1.71-1.55,1.6-.4-.37-1.15-1.18-2.25-2.35-.85-1.02-1.35-1.5-1.35-1.5.95-.59,1.95-1.23,2.94-1.92.95-2.62,1.65-5.34,2-8.23l-2.25-.11c-1.05,2.73-2.3,5.77-3.69,9.14-.4.8-1.3,1.98-2.74,3.58-.05-.05-1.2-1.12-3.34-3.26.75-.32,1.4-.86,2-1.55,1.5-1.76,2.59-4.33,3.24-7.7-.65.11-2.15.37-4.49.8l-.5-5.29c.9,0,1.85.05,2.84.05,3.09,0,6.24-.21,9.53-.64h.05l4.89,1.44ZM120.15,93.61h3.39l.35-3.1-3.59.11-.15,2.99ZM120.45,86.88c2.34.05,3.64.05,3.84,0l.3-2.57-4.04-.05c-.05.75-.05,1.66-.1,2.62Z"/>
        <path class="cls-1" d="M157.06,85.55l-1.25,3.05h3.39v-.59s2,.37,5.84,1.12c-.85,5.4-2.1,10.53-3.09,16.03l-4.59-2.67c.35-1.55.85-4.65,1.4-8.66-2.84-.21-6.39-.27-10.53-.16-3.54.05-7.04.11-10.58.21.05.32-.2,3.74-.8,9.78-2.59,1.5-3.94,2.24-4.09,2.24.05-.05.1-5.72.15-17.74l5.24.37-.05.37,1.45-.05c-.3-.86-.6-1.71-.85-2.62-.3-.86-.85-1.92-1.7-3.15l4.94-1.18c.05.32.65,2.62,1.8,6.84l2-.05c-.15-.53-.4-1.5-.7-2.99l-2.15-3.79,5.79-.75,1.05,7.48h1.6c.3-1.07,1.05-3.63,2.25-7.7l5.74,1.44-2.25,3.15ZM140.14,122.9c-1.15-2.03-1.7-3.05-1.7-3.15.9-.16,1.8-.32,2.69-.59,1.6-1.12,2.7-2.14,3.34-3.05.65-.86,1.1-2.03,1.4-3.47h-6.19c-.3,0-1.5.21-3.59.69l-1.35-5.72,11.63.11c-.25-.91-.8-2.08-1.6-3.63l4.29-.59,1.55-1.66c-2.5,0-5.04-.05-7.64-.05-.05.05-1.35.32-3.84.8l-.75-5.18,13.72.16s1.1-.11,3.29-.32l1.75,4.97c-1.3,1.07-3.19,2.3-5.64,3.63l.15,1.92h4.84c.05,0,1.3-.21,3.74-.64l-.6,5.56-8.78-.05c-.85,3.21-2.05,5.99-3.69,8.44-1.55,2.24-3.24,3.85-5.04,4.7-.15.05-.8-.91-2-2.89Z"/>
      </g>
      <g>
        <path class="cls-1" d="M19.66,191.08c-.02.19.02.41.02.61,0,.58-.13,1.23-.24,1.77-.11.53-.31.99-.4,1.52-.04.17-.02.36-.06.56-.04.15-.14.24-.16.36-.04.14-.04.29-.09.43-.06.22-.23.48-.31.65-.08.22,0,.56-.09.77-.04.1-.1.14-.14.24-.04.07-.04.19-.08.29-.06.17-.15.34-.21.51-.06.19-.1.39-.17.58-.06.19-.09.56-.25.65-.06.22-.19.39-.27.58-.06.12-.08.27-.13.36-.06.12-.14.19-.18.31-.1.24-.13.53-.19.77-.23.72-.5,1.4-.83,2.05v.05c0,.34-.48,1.86-.65,2.2-.04.07-.12.14-.14.22-.08.22-.04.53-.09.77-.04.24-.13.48-.17.73-.06.36-.09,1.16-.24,1.48-.19.41-.84.79-1.22.79-.36,0-.83-.35-.96-.76-.2-.56-.36-1.17-.59-1.7-.1-.22-.22-.39-.3-.58-.1-.29-.12-.58-.22-.87-.14-.41-.38-.75-.5-1.17-.06-.19-.1-.41-.14-.61-.24-.87-.55-1.7-.81-2.58-.06-.17-.1-.34-.14-.53-.06-.19-.06-.41-.1-.61-.12-.44-.32-.83-.46-1.24-.14-.39-.2-.9-.45-1.19-.47.07-.47.7-.58,1.13-.11.46-.17.97-.3,1.4-.08.29-.23.56-.35.82-.04.07-.1.14-.14.22-.04.15,0,.34-.06.51-.04.12-.14.17-.18.29-.08.27-.03.61-.13.85-.02.07-.06.1-.1.17-.16.34-.37,1.23-.48,1.65-.02.07-.02.14-.04.22-.1.31-.31.58-.31.94,0,.22.06.44.06.66,0,.41-.29.56-.47.84-.16.24-.19.53-.47.63-.04.02-.08.02-.14.02-.2,0-.61-.17-.75-.37-.04-.07-.04-.15-.08-.19l-.1-.07c-.12-.24-.11-.7-.17-1-.12-.63-.33-1.19-.49-1.8-.04-.17-.04-.36-.1-.54-.18-.73-.45-1.41-.65-2.11-.1-.32-.16-.63-.24-.95-.08-.29-.22-.56-.26-.85-.04-.22-.02-.41-.05-.63-.04-.19-.14-.39-.2-.58-.06-.22-.04-.46-.1-.68-.1-.41-.26-.78-.36-1.19-.16-.66-.21-1.36-.39-2.01-.06-.19-.16-.34-.2-.54-.06-.22-.02-.46-.05-.68-.06-.34-.18-.75-.27-1.07-.06-.12-.14-.24-.18-.39-.08-.27.06-.22-.16-.54-.14-.58-.19-1.21-.23-1.82.23-.24.37-.51.69-.5.45,0,.7.56.88.98.76,1.75,1.12,3.74,1.63,5.64.12.46.2.95.31,1.41.14.56.33,1.14.47,1.73.12.46.33,1.65.57,1.99.08.34.14.73.28,1.07.06.1.14.19.18.32.06.19.07,1.04.34,1.05.34,0,.49-.68.6-.99.06-.19.16-.36.21-.58.04-.22.02-.46.09-.7.1-.34.33-.6.45-.97.08-.24.09-.51.15-.78.04-.22.14-.43.21-.65.08-.34.17-.68.27-.99.04-.12.04-.24.08-.36.06-.22.19-.39.27-.61.04-.17.02-.39.11-.56l.1-.07c.04-.24.17-1.33.17-1.55,0-.53-.19-1.07-.19-1.6,0-.61.39-.87.86-.87.08,0,.16.03.24.05.44.2.9,1.61,1.08,2.12.12.44.23.85.39,1.26.22.58.48,1.09.63,1.7.06.2.08.41.14.61.3.88.69,1.73.97,2.63.16.56.36,1.09.53,1.65.22.73.43,1.48.71,2.16.12.29.24.68.48.85.16-.02.29-.19.39-.34.08-.17.1-.34.17-.51.1-.34.23-.68.33-1.02.1-.36.17-.73.27-1.09.04-.12.1-.24.19-.36.06-.12.09-.46.15-.65.1-.24.31-.41.41-.68.1-.27.15-.58.25-.85.04-.19.15-.36.21-.53.14-.36.27-.75.43-1.09.08-.19.18-.34.27-.53.06-.17.08-.39.17-.58.06-.17.16-.31.21-.51.08-.27.09-.58.19-.85l.1-.1c.19-.77.5-1.55.65-2.37,0-.1,0-.17.02-.27.04-.24.16-.44.21-.65.02-.19,0-.41,0-.58,0-.24.04-.46.05-.68.02-.17,0-.34,0-.51,0-.22.1-.39.13-.61.07-.53-.05-1.16.3-1.57.1-.12.23-.26.37-.26.38,0,.64.54.64.95,0,.46-.25.63-.33,1.01Z"/>
        <path class="cls-1" d="M29.27,205.39c0,.15.02.29.02.44,0,.53-.51.87-.9.87-.32,0-.52-.2-.75-.44-.46-.59-.29-1.12-.29-1.82,0-.9-.13-1.79-.24-2.69-.08-.56-.17-.95-.41-1.43-.14-.32-.26-.63-.6-.63-.38,0-.8.69-1.06.98-.33.34-.45.53-.48,1.06-.27.31-.45.68-.6,1.06-.08.22-.07.68-.11.94-.04.19-.12.39-.17.6-.02.24-.03.48-.03.75,0,.61.05,1.21.05,1.82,0,.39-.07.61-.29.87-.18.19-.59.48-.85.48-.14,0-.42-.05-.46-.25h-.06c-.34,0-.33-1.55-.33-1.8-.02-.32-.12-.58-.11-.9,0-.27.05-.56.05-.85,0-.39-.14-.73-.13-1,0-.22.06-.44.07-.63,0-.97-.21-1.89-.2-2.86,0-.24.07-.46.07-.7,0-.29-.12-.58-.16-.87-.02-.34-.01-.65-.01-.99,0-.8.07-1.62.08-2.42,0-.27-.02-.51-.03-.78,0-.22-.08-.41-.1-.61-.02-.27.02-.51.03-.78,0-.44-.22-.8-.21-1.24,0-.32.11-.65.11-.99,0-.46-.11-.9-.11-1.36,0-.12.02-.27.08-.39.12-.05.23-.19.37-.19.18,0,.36.03.5.2.46.54.47,1.6.57,2.31.02.15.04.29.04.44,0,.22-.04.41-.05.63,0,.27.16.61.2.87.02.17.04.34.06.51.09.87.03,1.77.08,2.67.03.75.09,1.5.08,2.26,0,.31-.06.61-.07.92,0,.29.12.56.11.87,0,.22-.06.46-.07.7,0,.1.02.22.04.31.39-.04.37-.58.49-.87.23-.24.47-.43.68-.7.2-.24.33-.55.53-.8.45-.58,1.02-1.18,1.73-1.17.81,0,1.57.76,1.91,1.64.08.22.08.51.16.75.06.22.2.39.26.63.06.22.04.49.1.73.08.46.19.92.25,1.38.02.24,0,.51.03.75.06.31.22.63.22.97,0,.24-.07.48-.07.73Z"/>
        <path class="cls-1" d="M36.96,201.39c-.19.46-.33.99-.54,1.42-.04.1-.12.17-.16.27-.04.1-.02.19-.04.29-.04.1-.12.17-.16.26-.04.1-.02.19-.06.31-.17.56-.48,1.06-.68,1.62-.16.36-.33.73-.48,1.11-.15.39-.23.8-.37,1.18s-.33.75-.5,1.11c-.06.19-.12.39-.21.56-.04.1-.12.17-.16.26-.12.29-.13.63-.25.92-.04.1-.12.17-.16.27-.12.24-.19.53-.33.8-.04.1-.12.14-.14.24-.04.1-.02.22-.06.31-.1.29-.33.53-.43.82-.08.19-.1.41-.17.6-.15.46-.41.8-.54,1.26-.06.29-.15.87-.37,1.06-.14.12-.51.14-.69.14-.2,0-.59-.03-.75-.23-.12-.12-.22-.41-.22-.61,0-.29.09-.58.17-.82.1-.26.29-.43.37-.68.1-.24.09-.53.17-.75.04-.1.12-.17.16-.27.08-.19.11-.41.21-.6.14-.29.54-1.11.64-1.38.06-.19.08-.43.17-.63.1-.26.35-.46.47-.75.1-.22.13-.46.21-.68.08-.19.19-.36.27-.56.16-.43.27-.87.44-1.3.15-.43.29-.85.48-1.26.14-.34.39-.82.37-1.21v-.1c-.02-.31-.36-.71-.52-.92-.38-.56-.72-1.1-1-1.71-.3-.63-.66-1.22-1.14-1.63-.11-.8-.8-1.24-.79-2.12,0-.12,0-.22.02-.34.16-.1.33-.19.51-.19.34,0,.6.3.8.59.14.22.22.46.36.68.06.12.14.22.2.32.22.39.42.83.68,1.19.02.05.06.07.1.12.06.12.08.27.14.39.2.34,1.1,1.9,1.44,1.95.37-.14.45-.89.62-1.26.12-.24.31-.43.43-.68.1-.22.13-.46.21-.68.21-.51.43-.99.66-1.47.1-.19.21-.39.31-.58.02-.07.02-.15.04-.19s.08-.02.1-.07c.04-.05.08-.22.1-.29.16-.39.42-1.16.7-1.37.06-.05.35-.19.43-.19.3,0,.59.25.58.63,0,.92-1.25,3.84-1.62,4.79Z"/>
        <path class="cls-1" d="M54.82,207.38c-.23.34-.33.77-.75.77-.36,0-1.01-.2-1.17-.64-.06-.19-.06-.39-.06-.56,0-.58.07-1.14.08-1.72,0-.41-.1-.8-.09-1.09,0-.17.04-.29.04-.44,0-.34.03-.68-.03-1.02-.08-.44-.42-.83-.41-1.29,0-.15.02-.29.02-.44,0-.31-.12-.15-.12-.63,0-.19-.17-.75-.25-.95-.08-.27-.14-.58-.36-.76h-.1c-.91-.06-1.26.69-1.83,1.41-.2.27-.35.53-.53.82-.23.34-.31.29-.51.8-.1.24-.09.56-.17.82-.06.14-.16.26-.23.43-.06.14-.1.31-.15.48-.13.48-.09,1.02-.11,1.5-.02.29-.13.58-.13.87,0,.53.23,1.02.23,1.58,0,.63-.4,1.28-.98,1.28-.28,0-.6-.22-.72-.56-.06-.22-.04-.44-.03-.68,0-.41-.16-.75-.16-.8,0-.17.06-.34.07-.51,0-.24-.18-.44-.22-.68-.02-.17.02-.39.02-.56,0-.29-.12-.56-.15-.83-.17-1.04-.26-2.72-.25-3.81,0-.48.01-1.41.56-1.4.34,0,.6.37.82.66.14.61.09,1.48.35,1.99.67,0,.78-.84,1.04-1.35.12-.22.31-.36.43-.55.12-.19.18-.43.31-.63.02-.02.9-.99.9-.99.16-.14.37-.12.53-.26.18-.14.37-.43.61-.43.06,0,.12.07.2.07.18,0,.38-.07.57-.07.45,0,.72.54,1.07.76.04.05.1.03.14.07.02.03.08.24.12.32.12.24.3.46.4.75s.12.63.21.92c.35,1.36.71,2.48.7,3.93,0,.29-.07.56-.07.82,0,.75.21,1.46.2,2.21,0,.12,0,.24-.02.34Z"/>
        <path class="cls-1" d="M62,205.84c-.12.14-.23.34-.37.43-.18.14-.43.22-.63.31-.16.1-.41.26-.57.31s-.34,0-.51,0c-.2,0-.4.04-.61.04-.2,0-.38-.08-.56-.25-.55-.05-1.09-.3-1.49-.76-.08-.07-.1-.17-.16-.24-.06-.05-.14-.07-.2-.12-.62-.56-.74-1.15-.73-2.04,0-.85.38-1.6.71-2.32.02-.07.02-.14.06-.19.06-.1.18-.14.27-.24.14-.19.23-.46.41-.63.06-.07.14-.07.2-.12.12-.1.21-.31.33-.39.39-.24,1.06-.28,1.48-.28.85,0,2.02.36,2.46,1.33.1.17.14.34.26.49.16.17.36.29.48.51.02.05.02.12.04.17.18.46.24.92.23,1.43,0,1.14-.42,1.81-1.09,2.56ZM61.47,202.11c-.06-.07-.12-.12-.16-.2-.18-.24-.3-.7-.56-.8-.14-.07-1.29-.4-1.39-.4-.12,0-.45.29-.55.38-.08.07-.16.12-.27.17-.57.38-.69.72-.7,1.52,0,.58.17,1,.47,1.41.18.24.66.9.88,1,.34.17.87.1,1.25.16.29-.22.69-.58.84-.94l.1-.07c.06-.1.06-.24.1-.36.14-.39.25-.36.25-.92,0-.34-.11-.68-.27-.95Z"/>
        <path class="cls-1" d="M69.85,198.93c-.18,0-.36-.12-.55-.13-.67,0-.81.14-1.18.74.04.44.05.87.09,1.31.04.39.11.78.15,1.19.03.66-.03,1.33.02,1.99.02.19.12.36.12.58,0,.19-.04.41-.05.61,0,.19.04.39.14.56-.06.17-.08.34-.09.53,0,.31.06.61.11.9.04.19.09,1.26.09,1.5,0,.51-.56,1.26-.98,1.25-.3,0-.56-.32-.74-.59-.06-.07-.22-.34-.24-.44-.1-.27-.04-2.16-.04-2.59,0-.41-.01-.8-.05-1.21-.02-.34-.1-.56-.09-.95,0-.31.03-.63.03-.97,0-.7-.15-1.38-.14-2.06,0-.17.04-.29.04-.43,0-.24-.08-.46-.1-.7-.02-.24.03-.51-.06-.75-.12-.46-.34-.56-.72-.61-.12-.03-.24-.08-.36-.08-.18,0-.37.12-.59.12-.24,0-.47-.08-.71-.08-.16,0-.3-.03-.36-.25.07-1.07,2.17-.15,2.66-.78.02-.07.02-.15.02-.22,0-.39-.11-.78-.11-1.16,0-.19.06-.39.07-.58s-.08-.34-.1-.54c-.06-.41-.01-.85-.05-1.26-.04-.34-.16-.7-.15-1.04,0-.49.17-1.02.64-1.01.14,0,.32.03.36.2.06.03.02,0,.08,0h.02c.14.07.38.83.42,1,.22.83.31,1.65.4,2.5.02.22.08.41.1.63,0,.19-.02.39-.03.58,0,.31.34,1,.64,1,.18,0,.37-.17.57-.19.14-.02.28,0,.43,0,.16,0,.32-.07.51-.07.3,0,.69.47.68.85,0,.41-.59.65-.9.65Z"/>
        <path class="cls-1" d="M82.58,199.57c-.45,0-.21-1.07-1.33-1.08-.75,0-.9.4-.9,1.21,0,.73.19,1.04.41,1.65.08.22.12.46.2.7.14.34.32.61.42,1,.06.29.12.58.19.87.12.39.28.73.42,1.12.04.15.04.29.1.44.04.12.12.19.16.32.04.22.04.46.03.68,0,.78-.07,1.28-.42,1.94-.1.15-.16.36-.27.51-.12.14-.29.19-.43.31-.22.14-.43.33-.63.55-.08-.05-.16-.05-.24-.05-.22,0-.41.12-.59.21-.28.02-.59.02-.87.02-.24,0-.52-.17-.71-.32l-.06-.12h-.1c-.14-.17-.2-.44-.32-.63-.08-.15-.32-.34-.36-.51-.02-.12-.04-.24-.04-.36,0-.29.15-.61.41-.6.18,0,.32.12.42.29.06.07.06.22.1.32.16.34.72,1.07,1.06,1.08.2,0,.53-.19.71-.31.49-.38.43-1.18.48-1.81,0-.15.06-.31.07-.46l-.02-.05c0-.12-.39-1.41-.45-1.48-.02-.05-.06-.05-.1-.07-.2-.54-.11-1.14-.29-1.55-.18-.36-.3-.75-.46-1.14-.28-.61-.56-1.07-.55-1.82,0-.85.46-1.82,1.05-2.29.04-.02.1-.07.14-.12.18-.14.73-.5.92-.55.2-.05.43-.07.63-.07.65,0,1.61.84,1.61,1.66,0,.29-.11.56-.39.56Z"/>
        <path class="cls-1" d="M89.34,199.1c-.18,0-.36-.12-.55-.13-.67,0-.81.14-1.18.74.04.44.05.87.09,1.31.04.39.11.78.15,1.19.03.65-.03,1.33.02,1.99.02.19.12.36.12.58,0,.19-.04.41-.05.61,0,.19.04.39.14.56-.06.17-.08.34-.09.53,0,.31.06.61.11.9.04.19.09,1.26.09,1.5,0,.51-.56,1.25-.98,1.25-.3,0-.56-.32-.74-.59-.06-.07-.22-.34-.24-.44-.1-.27-.04-2.16-.04-2.59,0-.41-.01-.8-.05-1.21-.02-.34-.1-.56-.09-.95,0-.32.03-.63.03-.97,0-.7-.15-1.38-.14-2.06,0-.17.04-.29.04-.44,0-.24-.08-.46-.1-.7-.02-.24.03-.51-.06-.75-.12-.46-.34-.56-.72-.61-.12-.03-.24-.08-.36-.08-.18,0-.37.12-.59.12-.24,0-.47-.08-.71-.08-.16,0-.3-.03-.36-.25.07-1.07,2.17-.15,2.66-.78.02-.07.02-.15.02-.22,0-.39-.11-.78-.11-1.16,0-.19.06-.39.07-.58,0-.19-.08-.34-.1-.53-.06-.41-.01-.85-.05-1.26-.04-.34-.16-.71-.15-1.04,0-.49.17-1.02.64-1.01.14,0,.32.03.36.2.06.02.02,0,.08,0h.02c.14.07.38.83.42,1,.22.83.31,1.65.4,2.5.02.22.08.41.1.63,0,.19-.02.39-.03.58,0,.31.34,1,.64,1,.18,0,.37-.17.57-.19.14-.02.28,0,.43,0,.16,0,.32-.07.51-.07.3,0,.69.47.68.85,0,.41-.59.65-.9.65Z"/>
        <path class="cls-1" d="M98.72,208.22c-.12.02-.22.02-.35.02-.61,0-.85-.28-.98-.95-.04-.17,0-.36-.04-.53-.02-.12-.12-.22-.14-.34-.02-.24,0-.53,0-.8,0-.36-.03-1.02-.23-1.31-.55.09-.45.82-.76,1.21-.18.22-.47.24-.65.45-.16.19-.21.53-.35.77-.23.38-.59.72-.88,1.06-.08.12-.16.29-.27.36-.1.1-.26.09-.37.17-.14.07-.24.24-.39.24-.18,0-.34-.07-.5-.1-.2,0-.41.02-.61.02-.18,0-.44-.08-.58-.25-.04-.05-.02-.15-.06-.19-.06-.1-.2-.15-.24-.24-.06-.17-.04-.51-.1-.73-.04-.17-.16-.34-.2-.51-.04-.29-.06-.58-.05-.85,0-.73.25-1.21.26-1.84,0-.27-.04-.53-.03-.8s.13-.43.15-.68c.04-.17,0-.36.03-.53.06-.53.15-1.04.2-1.55.04-.49.23-1.53.76-1.52.75,0,.78.83.78,1.51,0,.46-.15.73-.15,1.02,0,.22.06.44.06.66,0,.22-.06.41-.09.63-.04.53-.05,1.07-.13,1.6,0,.07-.02.15-.02.22,0,.24.02.49.01.73,0,.29-.05.61-.05.92,0,.36.15.97.54.97.28,0,.65-.53.88-.74.29-.29.55-.53.78-.87.1-.17.17-.43.31-.55.04-.05.1-.05.16-.1.31-.31.84-1.16,1.03-1.61.1-.29.35-.48.45-.77.02-.1,0-.29.02-.41.08-.36.29-.68.29-1.06,0-.22-.02-.44-.01-.66,0-.34.39-.63.65-.62.75,0,1.14,1.56,1.13,2.29,0,.31-.09.73-.09,1.14,0,.82.19,1.62.18,2.43,0,.14-.02.31-.02.46,0,.39.17.75.17,1.14s-.23.92-.49,1.14Z"/>
        <path class="cls-1" d="M108.34,193.15c-.11.73-.03,1.48-.12,2.2-.02.17-.08.29-.13.46,0,.12.02.27.02.41,0,.34-.13.7-.13,1.07-.03.82-.16,1.65-.22,2.47-.02.24-.1.46-.11.7,0,.14.04.27.04.41,0,.17-.08.22-.1.36-.08.41-.03.87-.07,1.31-.04.41-.19.8-.21,1.23-.04.36-.03.73-.23,1.02-.03.46,0,.92-.07,1.38-.04.22-.12.41-.17.63-.11.58-.07,1.55-.34,2.01-.26.17-.63.19-.93.19-.22-.29-.48-.51-.48-.97,0-.41.19-.8.19-1.23,0-.12-.02-.27-.06-.39-.06-.02-.12-.03-.16-.03-.2,0-.37.12-.55.16-.32.05-.65.04-.95.04-.28,0-.57,0-.83-.05-.14-.05-.26-.15-.38-.2-.12-.07-.26-.05-.38-.15-.12-.07-.2-.27-.32-.39-.26-.29-.64-.54-.86-.9-.28-.54-.49-1.34-.49-1.94,0-.73.31-1.16.58-1.76.06-.14.08-.31.16-.43.23-.39.8-.84,1.14-1.03.12-.07.26-.07.39-.14.1-.02.16-.14.27-.19.16-.05.89-.11,1.05-.11.32,0,.58.32.93.32.1,0,.2-.02.3-.05.36.17.48.73.84.9.33-.38.35-1.04.4-1.55.13-1.24.14-2.52.36-3.76.09-.43.29-.85.29-1.28,0-.14-.06-.27-.06-.41,0-.22.12-.46.17-.7.09-.56.04-2.21.71-2.2.38,0,.7.88.7,1.27,0,.44-.11.9-.17,1.33ZM105.29,201.68c-.14-.34-.34-.51-.52-.78-.06-.07-.06-.19-.12-.27-.1-.17-.64-.35-.83-.35-.06,0-.08,0-.14.02-.39.17-1.06.21-1.3.64-.06.1-.08.27-.1.39-.12.39-.19.8-.19,1.19,0,.56.2.75.37,1.21.04.1.06.22.12.32.12.29.48.85.74.97.18.07.4.08.59.08.77,0,1.2-.21,1.53-1.03.1-.22.19-.46.19-.7,0-.39-.17-1.34-.33-1.7Z"/>
        <path class="cls-1" d="M115.51,202.06c-.19.46-.33.99-.54,1.43-.04.1-.12.17-.16.26-.04.1-.02.19-.04.29-.04.1-.12.17-.16.26-.04.1-.02.19-.06.31-.17.56-.48,1.06-.68,1.62-.16.36-.33.73-.48,1.11-.15.39-.23.8-.37,1.19-.15.39-.33.75-.5,1.11-.06.19-.12.39-.21.56-.04.1-.12.17-.16.27-.12.29-.13.63-.25.92-.04.1-.12.17-.16.27-.12.24-.19.53-.33.8-.04.1-.12.14-.14.24-.04.1-.02.22-.06.31-.1.29-.33.53-.43.82-.08.19-.1.41-.17.6-.15.46-.41.8-.54,1.26-.06.29-.15.87-.37,1.06-.14.12-.51.14-.69.14-.2,0-.59-.03-.75-.23-.12-.12-.22-.41-.22-.61,0-.29.09-.58.17-.82.1-.27.29-.43.37-.68.1-.24.09-.53.17-.75.04-.1.12-.17.16-.27.08-.19.11-.41.21-.6.14-.29.54-1.11.64-1.38.06-.19.08-.44.17-.63.1-.27.35-.46.47-.75.1-.22.13-.46.21-.68.08-.19.18-.36.27-.56.16-.43.27-.87.44-1.3.15-.44.29-.85.48-1.26.14-.34.39-.82.37-1.21v-.1c-.02-.32-.36-.71-.52-.93-.38-.56-.72-1.1-1-1.71-.3-.63-.66-1.22-1.14-1.63-.11-.8-.8-1.24-.79-2.12,0-.12,0-.22.02-.34.16-.1.33-.19.51-.19.34,0,.6.3.8.59.14.22.22.46.36.68.06.12.14.22.2.32.22.39.42.83.68,1.19.02.05.06.07.1.12.06.12.08.27.14.39.2.34,1.1,1.9,1.44,1.95.37-.14.45-.89.62-1.26.12-.24.31-.43.43-.68.1-.22.13-.46.21-.68.21-.51.43-.99.66-1.47.1-.19.21-.39.31-.58.02-.07.02-.14.04-.19.02-.05.08-.02.1-.07.04-.05.08-.22.1-.29.16-.39.42-1.16.7-1.38.06-.05.35-.19.43-.19.3,0,.59.25.58.63,0,.92-1.25,3.84-1.62,4.79Z"/>
        <path class="cls-1" d="M130.46,201.56c-.02.44-.19.85-.19,1.26,0,.24.04.49.03.73,0,.34-.07.65-.15.97-.06.17-.15.31-.19.48-.04.22-.03.43-.07.63-.02.17-.1.31-.13.48-.02.24.02.49.01.73,0,.34-.15.58-.19.9-.04.29-.03,1.04-.09,1.26-.12.36-.54,1.11-.9,1.11-.38,0-.89-.52-.88-1,0-.31.15-.58.15-.87,0-.1-.02-.19-.04-.29.1-.34.18-.41.19-.8,0-.12-.02-.29-.06-.41-.1-.05-.2-.07-.3-.08-.34,0-.67.19-1.01.19-.26,0-.52-.05-.77-.05-.16,0-.32.02-.49.02-.06,0-.12,0-.18-.03-.26-.07-1.33-1.27-1.41-1.54-.02-.12-.04-.27-.04-.39,0-.41.19-.75.35-1.09.1-.22.21-.53.35-.7.06-.1.2-.12.29-.22.1-.07.14-.19.24-.26.43-.36,1-.52,1.5-.52.14,0,.3,0,.44.03.3.08.52.29.81.44.1.05.4.08.46.15.04.03.06.07.06.12.1.05.2.03.3.07.21-.19.11-.65.11-.94,0-.49.13-.97.13-1.48,0-.63-.37-2.09-.97-2.21-.04,0-.1,0-.14,0-.51,0-.77.55-1.38.55-.43.43-.67.82-1.18,1.13-.1.05-.22.19-.35.19-.04,0-.08-.03-.12-.07-.06-.1-.1-.22-.1-.34,0-.68.63-.94.8-1.4.12-.05.22-.12.31-.22l.06-.12c.16-.1.36-.17.53-.29.06-.05.1-.14.16-.22.32-.22.91-.36,1.3-.35.24,0,.77.06.99.18.08.03.12.1.18.15.38.2.6.37.86.76.52.75.71,1.9.7,2.84,0,.17,0,.36-.03.53ZM127.87,204.13c-.3-.37-1.33-.59-1.76-.6-.38,0-.89.11-.9.7,0,.39.21.92.48,1.14.26.22.67.2.99.23.18.03.36.08.55.08.32,0,.73-.07.92-.4l.02-.15c0-.34-.1-.75-.29-1Z"/>
        <path class="cls-1" d="M139.35,205.37c-.06.41-.29.65-.45,1.01-.1.19-.23.63-.37.75-.16.17-.35.17-.53.24-.28.12-.37.48-.73.48-.12,0-.22-.03-.34-.03-.38,0-.65.36-1.02.43-.2.02-.43,0-.63,0-.12,0-.24,0-.37.05-.18-.1-.4-.29-.62-.3-.12,0-.2.07-.33.12-.04.02-.1.02-.14.05-.25.24-.21.36-.59.36s-.95-.54-.94-1c0-.53.11-1.07.12-1.6,0-.34-.08-.68-.09-1.02-.05-.8-.09-1.62-.08-2.42,0-.15.06-.29.06-.44,0-.34-.16-.66-.15-1,0-.12.06-.27.06-.41s-.1-.27-.1-.41c0-.19.06-.36.07-.53,0-.87-.15-1.7-.14-2.57,0-.12.06-.27.06-.41,0-.27-.12-.56-.16-.83-.06-.61-.03-1.24-.09-1.84-.02-.27-.1-.53-.1-.82,0-.17.06-.31.07-.49,0-.53-.13-1.07-.13-1.62,0-.36.07-1.26.5-1.26.16,0,.41-.05.44.17h.1c.38.39.43,1.97.53,2.55.04.29.16.56.2.83.04.34.01.68.03,1.02.03.65.09,1.31.13,1.96.04.29.08.58.09.87.02.27,0,.53,0,.8,0,.27.08.49.1.75.06.58,0,1.19.05,1.77,0,.39-.03,1.21.37,1.31.04.03.08.03.12.03.47,0,.67-.62,1.02-.84.08-.05.14-.02.2-.07.41-.14.83-.28,1.26-.28.51,0,.97.13,1.37.5.06.05.1.12.14.17.14.15.32.25.44.42.1.15.12.34.2.49.04.07.12.1.14.17.04.05.02.07.06.12.18.29.2.71.38,1.02-.04.58-.11,1.19-.2,1.77ZM137.63,203.34c-.02-.12-.1-.24-.14-.36-.18-.51-.18-.68-.54-1.07-.04.02-.08.02-.12.02-.14,0-.26-.05-.4-.05-.43,0-.55.31-.88.55-.24.22-.35.55-.55.82-.16.24-.51.53-.51.84,0,.12.02.27.02.39,0,.39-.27.61-.27,1.04,0,.48.15.97.15,1.48.28.22.61.17.93.18.16,0,.28.05.43.05.12,0,.26-.12.39-.17.14-.05.3,0,.44-.04.06-.05.12-.15.18-.19.59-.43.82-.6.9-1.47.02-.12.02-.24.02-.36,0-.46.03-1.24-.05-1.65Z"/>
        <path class="cls-1" d="M145.57,200.28c-.18,0-.36-.12-.57-.13-.53,0-1.06,1.01-1.33,1.49-.23.41-.53.8-.54,1.33,0,.22.06.41.06.61,0,.34-.17.63-.17,1.04,0,.53.15.95.21,1.43.04.39.01.75.09,1.14.08.44.11.92.15,1.36-.12.24-.67.67-.88.67-.16,0-.46-.2-.59-.29-.28-.85-.29-1.75-.46-2.62-.02-.12-.08-.22-.1-.32,0-.1.02-.19.02-.29,0-.19-.1-.19-.12-.34-.02-.1,0-.19,0-.29,0-.22-.12-.49-.16-.7-.02-.22,0-.46-.03-.68-.04-.27-.16-.51-.22-.75-.06-.39-.01-.75-.09-1.14-.02-.17-.06-.34-.1-.49-.04-.15-.12-.24-.16-.39-.04-.19-.13-1.33-.13-1.58,0-.15.02-.32.04-.49.16-.14.35-.29.57-.29.24,0,.46.2.62.42.44.61.39,1.63.77,1.95.41-.02.55-.58.8-.87.1-.12.24-.24.37-.36.57-.63.92-1.25,1.81-1.25.39,0,.85.47.84.95,0,.46-.35.87-.74.87Z"/>
        <path class="cls-1" d="M152.83,206.62c-.12.14-.23.34-.37.43-.18.14-.43.21-.63.31-.16.1-.41.26-.57.31-.16.05-.34,0-.51,0-.2,0-.4.04-.61.04-.2,0-.38-.08-.56-.25-.55-.05-1.09-.3-1.49-.76-.08-.07-.1-.17-.16-.24-.06-.05-.14-.07-.2-.12-.62-.56-.74-1.15-.73-2.04,0-.85.38-1.6.71-2.32.02-.07.02-.14.06-.19.06-.1.18-.14.27-.24.14-.19.23-.46.41-.63.06-.07.14-.07.2-.12.12-.1.21-.31.33-.38.39-.24,1.06-.28,1.48-.28.85,0,2.02.36,2.46,1.33.1.17.14.34.26.49.16.17.36.29.48.51.02.05.02.12.04.17.18.46.24.92.23,1.43,0,1.14-.42,1.81-1.09,2.56ZM152.29,202.88c-.06-.07-.12-.12-.16-.2-.18-.24-.3-.71-.56-.8-.14-.07-1.29-.4-1.39-.4-.12,0-.45.29-.55.38-.08.07-.16.12-.27.17-.57.38-.69.72-.7,1.52,0,.58.17.99.47,1.41.18.24.66.9.88,1,.34.17.87.1,1.25.16.29-.22.69-.58.84-.94l.1-.07c.06-.1.06-.24.1-.36.14-.39.25-.36.25-.92,0-.34-.11-.68-.27-.95Z"/>
        <path class="cls-1" d="M161.49,201.82c-.02.44-.19.85-.19,1.26,0,.24.04.49.03.73,0,.34-.07.65-.15.97-.06.17-.15.31-.19.48-.04.22-.03.44-.07.63-.02.17-.1.31-.13.48-.02.24.02.49.01.73,0,.34-.15.58-.19.9-.04.29-.03,1.04-.09,1.26-.12.36-.54,1.11-.9,1.11-.38,0-.89-.52-.88-1,0-.32.15-.58.15-.87,0-.1-.02-.19-.04-.29.1-.34.18-.41.19-.8,0-.12-.02-.29-.06-.41-.1-.05-.2-.07-.3-.07-.34,0-.67.19-1.01.18-.26,0-.52-.05-.77-.06-.16,0-.32.02-.49.02-.06,0-.12,0-.18-.03-.26-.08-1.33-1.27-1.41-1.54-.02-.12-.04-.27-.04-.39,0-.41.19-.75.35-1.09.1-.22.21-.53.35-.7.06-.1.2-.12.29-.22.1-.07.14-.19.24-.26.43-.36,1-.52,1.5-.52.14,0,.3,0,.44.03.3.08.52.3.81.44.1.05.4.08.47.15.04.02.06.07.06.12.1.05.2.03.3.08.21-.19.11-.65.11-.94,0-.49.13-.97.13-1.48,0-.63-.37-2.09-.97-2.21-.04,0-.1,0-.14,0-.51,0-.77.55-1.38.55-.43.43-.67.82-1.18,1.13-.1.05-.22.19-.35.19-.04,0-.08-.03-.12-.07-.06-.1-.1-.22-.1-.34,0-.68.63-.94.8-1.4.12-.05.22-.12.31-.22l.06-.12c.16-.1.36-.17.53-.29.06-.05.1-.14.16-.22.32-.22.91-.36,1.3-.35.24,0,.77.05.99.18.08.02.12.1.18.15.38.2.6.37.86.76.52.76.71,1.9.7,2.84,0,.17,0,.36-.03.53ZM158.9,204.4c-.3-.37-1.33-.59-1.76-.6-.38,0-.89.11-.9.69,0,.39.21.92.48,1.14.26.22.67.2.99.23.18.03.36.08.55.08.32,0,.73-.07.92-.4l.02-.14c0-.34-.1-.75-.29-1Z"/>
        <path class="cls-1" d="M170.61,193.68c-.11.73-.03,1.48-.12,2.2-.02.17-.08.29-.13.46,0,.12.02.27.02.41,0,.34-.13.7-.13,1.07-.03.82-.16,1.65-.22,2.47-.02.24-.1.46-.11.7,0,.15.04.27.04.41,0,.17-.08.22-.1.36-.08.41-.03.87-.07,1.31-.04.41-.19.8-.21,1.23-.04.36-.03.73-.23,1.02-.03.46,0,.92-.07,1.38-.04.22-.12.41-.17.63-.11.58-.07,1.55-.34,2.01-.26.17-.63.19-.93.19-.22-.29-.48-.51-.48-.97,0-.41.19-.8.19-1.23,0-.12-.02-.27-.06-.39-.06-.02-.12-.03-.16-.03-.2,0-.37.12-.55.17-.32.05-.65.04-.95.04-.28,0-.57,0-.83-.05-.14-.05-.26-.15-.38-.2-.12-.07-.26-.05-.38-.15-.12-.07-.2-.27-.32-.39-.26-.29-.64-.54-.86-.9-.28-.54-.49-1.34-.49-1.94,0-.73.31-1.16.58-1.76.06-.14.08-.31.16-.43.23-.39.8-.84,1.14-1.03.12-.07.26-.07.39-.14.1-.02.16-.14.27-.19.16-.05.89-.11,1.05-.11.32,0,.58.32.93.32.1,0,.2-.02.3-.05.36.17.48.73.84.9.33-.38.35-1.04.4-1.55.13-1.24.14-2.52.36-3.76.09-.43.29-.85.29-1.28,0-.14-.06-.27-.06-.41,0-.22.12-.46.17-.7.09-.56.04-2.21.71-2.2.38,0,.7.88.7,1.27,0,.44-.11.9-.17,1.33ZM167.56,202.22c-.14-.34-.34-.51-.52-.78-.06-.07-.06-.19-.12-.27-.1-.17-.64-.34-.83-.35-.06,0-.08,0-.14.02-.39.17-1.05.21-1.3.64-.06.1-.08.27-.1.39-.12.39-.19.8-.19,1.19,0,.56.2.75.37,1.21.04.1.06.22.12.32.12.29.48.85.74.97.18.07.4.08.59.08.77,0,1.2-.21,1.53-1.03.1-.22.19-.46.19-.7,0-.39-.17-1.34-.33-1.7Z"/>
        <path class="cls-1" d="M184.88,196.35c-.02.1-.58,1.91-.6,1.93-.02.02-.06.05-.1.07-.04.1-.06.22-.1.31-.06.15-.14.29-.21.43-.12.22-.33.38-.43.6-.02.07-.02.15-.06.19-.02.05-.57.87-.57.87-.04.05-.1.02-.16.07l-.04.12c-.12.07-.24.02-.36.04-.35.12-.65.38-.94.57-.47-.03-.89.11-1.26.43-.09.53-.13,1.09-.14,1.65,0,.36.07.7.07,1.04,0,.46-.43.87-.8.87-.36,0-.68-.56-.68-.97,0-.29.11-.56.11-.85,0-.27-.08-.49-.07-.75,0-.53.15-1.04.16-1.58,0-.31-.1-.63-.09-.97,0-.41.17-.65.53-.65.79,0,.58,1.14,1,1.15.26,0,.57-.16.81-.31.33-.19.79-.41,1.04-.74.18-.24.35-.87.48-1.18.08-.19.2-.34.27-.56.04-.12.02-.24.06-.36.19-.8.28-1.62.28-2.45,0-.68-.59-2.09-1.13-2.31-.1-.05-.2-.05-.3-.05-.18,0-.34.02-.53.02-.1,0-.22,0-.32-.05-.25.22-.55.24-.77.43s-.35.51-.53.75c-.04.07-.12.12-.16.19-.06.1,0,.36-.11.43-.04.34-.37.34-.37,1.09,0,.7.62.49.62.9,0,.31-.27.51-.51.5-.32,0-.72-.52-.8-.88-.02-.12-.02-.24-.02-.36,0-.56.15-1.09.26-1.62.13-.7.62-1.52,1.05-2,.33-.34,1.69-.62,2.13-.61.24,0,.51.05.75.15.34.12,1.11.62,1.29,1.01.04.05.02.12.06.19.1.17.28.32.4.49.14.19.26.41.36.63.42.73.36.68.41,1.55.02.17.06.34.06.49v.07ZM180.01,208.99c-.28-.1-.61-.17-.87-.32-.1-.17-.22-.36-.22-.56,0-.46.35-.65.69-.65.4,0,.79.27.78.81,0,.32-.17.56-.39.72Z"/>
      </g>
      <g>
        <path class="cls-1" d="M20.29,177.73c0,.69-.56,1.24-1.24,1.24s-1.24-.56-1.24-1.24.56-1.24,1.24-1.24,1.24.58,1.24,1.24Z"/>
        <path class="cls-1" d="M30.9,181.8h-1.45l-2.27-3.87-.69.86v3.01h-1.23v-8.2h1.23v3.85h.03c.19-.32.4-.62.59-.91l2.11-2.94h1.51l-2.69,3.49,2.85,4.71Z"/>
        <path class="cls-1" d="M35.78,180.4c0,.5.01,1.02.08,1.41h-1.12l-.09-.69h-.03c-.33.46-.91.8-1.65.8-1.1,0-1.74-.81-1.74-1.73,0-1.47,1.27-2.2,3.3-2.2,0-.44,0-1.32-1.19-1.32-.53,0-1.06.16-1.44.41l-.26-.83c.42-.27,1.11-.49,1.91-.49,1.74,0,2.22,1.15,2.22,2.4v2.23ZM34.57,178.83c-.98,0-2.1.18-2.1,1.23,0,.65.41.94.87.94.68,0,1.23-.51,1.23-1.2v-.98Z"/>
        <path class="cls-1" d="M41.67,181.57c-.42.19-1.07.35-1.87.35-1.78,0-2.81-1.19-2.81-2.99s.99-3.16,2.66-3.16,2.33,1.38,2.33,2.84c0,.2-.01.37-.03.52h-3.75c.03,1.33.86,1.83,1.79,1.83.65,0,1.1-.12,1.49-.28l.2.88ZM40.79,178.24c.01-.71-.28-1.59-1.23-1.59s-1.3.9-1.36,1.59h2.59Z"/>
        <path class="cls-1" d="M46.14,176.99c-.11-.02-.22-.03-.36-.03-.84,0-1.36.69-1.36,1.71v3.13h-1.24v-4.11c0-.69-.01-1.25-.04-1.8h1.08l.04,1.08h.04c.27-.75.89-1.21,1.53-1.21.12,0,.2.01.31.03v1.19Z"/>
        <path class="cls-1" d="M51.9,180.11c0,.66.03,1.22.05,1.69h-1.09l-.06-.86h-.03c-.25.41-.83.98-1.78.98-1.02,0-1.91-.63-1.91-2.52v-3.51h1.24v3.31c0,1.02.29,1.69,1.1,1.69.57,0,1.23-.45,1.23-1.34v-3.65h1.24v4.21Z"/>
        <path class="cls-1" d="M59.8,174.88c-.27-.15-.78-.36-1.46-.36-.98,0-1.38.57-1.38,1.09,0,.7.46,1.04,1.5,1.49,1.32.58,1.95,1.3,1.95,2.42,0,1.37-1.02,2.4-2.86,2.4-.77,0-1.59-.22-1.98-.49l.28-1.04c.44.27,1.1.48,1.78.48.98,0,1.52-.5,1.52-1.24,0-.7-.42-1.13-1.39-1.53-1.22-.49-2.05-1.23-2.05-2.35,0-1.3,1.04-2.27,2.67-2.27.78,0,1.37.19,1.73.37l-.3,1.03Z"/>
        <path class="cls-1" d="M61.93,174.83l1.23-.39v1.46h1.4v.93h-1.4v2.99c0,.73.23,1.08.75,1.08.25,0,.4-.03.55-.07l.04.95c-.21.09-.55.14-.96.14-.49,0-.91-.16-1.17-.45-.3-.32-.44-.81-.44-1.59v-3.05h-.84v-.93h.84v-1.07Z"/>
        <path class="cls-1" d="M70.44,180.11c0,.66.03,1.22.05,1.69h-1.09l-.06-.86h-.03c-.25.41-.83.98-1.78.98-1.02,0-1.91-.63-1.91-2.52v-3.51h1.24v3.31c0,1.02.29,1.69,1.1,1.69.57,0,1.23-.45,1.23-1.34v-3.65h1.24v4.21Z"/>
        <path class="cls-1" d="M76.96,180.23c0,.54.02,1.17.04,1.58h-1.09l-.06-.92h-.03c-.31.6-.95,1.04-1.79,1.04-1.34,0-2.36-1.19-2.36-3.01,0-2,1.15-3.14,2.47-3.14.76,0,1.31.34,1.56.79h.02v-3.36h1.24v7.02ZM75.72,178.29c0-.97-.61-1.53-1.31-1.53-.95,0-1.48.94-1.48,2.11s.51,2.05,1.46,2.05c.8,0,1.33-.71,1.33-1.53v-1.09Z"/>
        <path class="cls-1" d="M83.22,175.9l-1.43,4.09c-.7,1.94-1.19,3.03-1.9,3.72-.54.49-1.08.7-1.37.76l-.32-1.05c1.29-.46,1.75-1.66,1.75-1.82,0-.06-.01-.14-.06-.26l-2.03-5.44h1.36l1.07,3.32c.12.39.24.84.32,1.18h.03c.08-.34.2-.78.31-1.18l.95-3.32h1.31Z"/>
        <path class="cls-1" d="M92.51,181.8h-1.31l-.74-2.41h-2.51l-.71,2.41h-1.27l2.51-8.2h1.52l2.51,8.2ZM90.26,178.44l-.64-2.14c-.15-.54-.29-1.11-.41-1.62h-.02c-.12.5-.25,1.1-.39,1.61l-.65,2.16h2.11Z"/>
        <path class="cls-1" d="M94.85,176.72c.35-.6.96-.95,1.79-.95,1.35,0,2.28,1.19,2.28,2.99,0,2.15-1.25,3.16-2.48,3.16-.76,0-1.35-.31-1.75-1.01h-.03l-.06.89h-1.06c.02-.4.04-1.04.04-1.58v-7.02h1.24v3.52h.02ZM94.83,179.47c0,.75.54,1.46,1.35,1.46.95,0,1.48-.85,1.48-2.11,0-1.11-.48-2.05-1.47-2.05-.78,0-1.36.76-1.36,1.54v1.16Z"/>
        <path class="cls-1" d="M103.11,176.99c-.11-.02-.22-.03-.36-.03-.84,0-1.36.69-1.36,1.71v3.13h-1.24v-4.11c0-.69-.01-1.25-.04-1.8h1.08l.04,1.08h.04c.27-.75.89-1.21,1.53-1.21.12,0,.2.01.31.03v1.19Z"/>
        <path class="cls-1" d="M109.17,178.8c0,2.21-1.44,3.12-2.76,3.12-1.53,0-2.7-1.13-2.7-3.03s1.22-3.12,2.79-3.12,2.68,1.22,2.68,3.03ZM106.45,176.7c-1.06,0-1.47,1.14-1.47,2.15,0,1.16.55,2.13,1.46,2.13s1.46-.98,1.46-2.15c0-.98-.41-2.13-1.45-2.13Z"/>
        <path class="cls-1" d="M114.54,180.4c0,.5.01,1.02.08,1.41h-1.12l-.09-.69h-.03c-.33.46-.91.8-1.65.8-1.1,0-1.74-.81-1.74-1.73,0-1.47,1.27-2.2,3.3-2.2,0-.44,0-1.32-1.19-1.32-.53,0-1.06.16-1.44.41l-.26-.83c.42-.27,1.11-.49,1.91-.49,1.74,0,2.22,1.15,2.22,2.4v2.23ZM113.33,178.83c-.98,0-2.1.18-2.1,1.23,0,.65.41.94.87.94.68,0,1.23-.51,1.23-1.2v-.98Z"/>
        <path class="cls-1" d="M121.03,180.23c0,.54.02,1.17.04,1.58h-1.09l-.06-.92h-.03c-.31.6-.95,1.04-1.79,1.04-1.34,0-2.36-1.19-2.36-3.01,0-2,1.15-3.14,2.47-3.14.76,0,1.31.34,1.56.79h.02v-3.36h1.24v7.02ZM119.79,178.29c0-.97-.61-1.53-1.31-1.53-.95,0-1.48.94-1.48,2.11s.51,2.05,1.46,2.05c.8,0,1.33-.71,1.33-1.53v-1.09Z"/>
        <path class="cls-1" d="M131.03,181.8h-1.31l-.74-2.41h-2.51l-.71,2.41h-1.27l2.51-8.2h1.52l2.51,8.2ZM128.78,178.44l-.64-2.14c-.15-.54-.29-1.11-.41-1.62h-.02c-.12.5-.25,1.1-.39,1.61l-.65,2.16h2.11Z"/>
        <path class="cls-1" d="M137.04,175.9c-.03.42-.05.91-.05,1.7v3.36c0,1.18-.1,3.35-2.89,3.35-.69,0-1.4-.15-1.87-.43l.28-.96c.36.21.93.42,1.6.42.96,0,1.65-.54,1.65-1.87v-.57h-.02c-.3.5-.88.87-1.64.87-1.39,0-2.35-1.23-2.35-2.88,0-2,1.21-3.12,2.5-3.12.88,0,1.37.45,1.62.92h.02l.05-.79h1.1ZM135.74,178.18c0-.78-.51-1.43-1.27-1.43-.86,0-1.46.81-1.46,2.08,0,1.16.53,1.98,1.45,1.98.64,0,1.29-.49,1.29-1.48v-1.16Z"/>
        <path class="cls-1" d="M142.89,181.57c-.42.19-1.07.35-1.87.35-1.78,0-2.81-1.19-2.81-2.99s.99-3.16,2.66-3.16,2.33,1.38,2.33,2.84c0,.2-.01.37-.03.52h-3.75c.03,1.33.86,1.83,1.79,1.83.65,0,1.1-.12,1.49-.28l.2.88ZM142.01,178.24c.01-.71-.28-1.59-1.23-1.59s-1.3.9-1.36,1.59h2.59Z"/>
        <path class="cls-1" d="M149.26,181.8h-1.24v-3.46c0-.84-.28-1.54-1.13-1.54-.61,0-1.26.5-1.26,1.45v3.56h-1.24v-4.24c0-.65-.02-1.16-.04-1.66h1.08l.06.88h.03c.28-.5.9-1.01,1.79-1.01s1.95.6,1.95,2.42v3.61Z"/>
        <path class="cls-1" d="M154.81,181.62c-.28.13-.84.3-1.52.3-1.71,0-2.82-1.17-2.82-3.01s1.16-3.14,3.05-3.14c.57,0,1.06.14,1.32.27l-.25.95c-.22-.11-.56-.24-1.06-.24-1.16,0-1.8.94-1.8,2.1,0,1.3.76,2.07,1.79,2.07.49,0,.84-.12,1.11-.24l.17.93Z"/>
        <path class="cls-1" d="M160.59,175.9l-1.43,4.09c-.7,1.94-1.19,3.03-1.9,3.72-.54.49-1.08.7-1.37.76l-.32-1.05c1.29-.46,1.75-1.66,1.75-1.82,0-.06-.01-.14-.06-.26l-2.03-5.44h1.36l1.07,3.32c.12.39.24.84.32,1.18h.03c.08-.34.2-.78.31-1.18l.95-3.32h1.31Z"/>
        <path class="cls-1" d="M167.28,177.73c0,.69-.56,1.24-1.24,1.24s-1.24-.56-1.24-1.24.56-1.24,1.24-1.24,1.24.58,1.24,1.24Z"/>
      </g>
      <g>
        <g>
          <g>
            <path d="M140.55,141.59c1.68,4.44.78,8.09-1.97,12.44-3.4,5.37-8.24,5.98-13.2,7.57-4.41,1.41-8.64,3.41-13,4.99-1.35.49-2.88.59-4.33.59-.25,0-.92-1.79-.67-2.04,1.01-1.02,2.23-1.89,3.5-2.57,1.18-.61,2.53-.91,4.23-1.49-2.1-1.61-3.59-.7-5.13-.13-2.89,1.07-5.79,2.09-8.72,3.05-.67.22-1.54.26-2.18.02-.91-.34-2.43-1.11-2.37-1.53.13-1.03.78-2.41,1.64-2.87,1.53-.81,3.35-1.05,5.37-1.61-.65-.34-1.06-.46-1.35-.71-.73-.64-1.41-1.35-2.11-2.03.65-.32,1.27-.72,1.93-1.03l.34.76c-.03.27-.07.55-.11.82.51.21,1.07.37,1.53.66.71.45,1.35,1,2.02,1.51-.75.53-1.43,1.27-2.27,1.56-1.37.49-2.89.59-4.27,1.07-.54.19-.88.95-1.31,1.45.55.26,1.16.83,1.64.73,2.37-.5,4.75-1.07,7.05-1.81,1.7-.55,3.25-1.58,4.95-2.07,1.69-.49,3.86-.5,4.34,1.51.48,2.05-1.69,2.45-3.21,2.96-1.09.36-2.23.54-3.27.99-.37.16-.51.87-.77,1.33.49.13.97.39,1.45.36.46-.03.91-.34,1.33-.58,5.23-2.99,10.82-4.95,16.75-6.05,1.59-.29,3.16-.89,4.6-1.63,4.01-2.06,4.67-4.81,1.49-7.93-3.13-3.07-6.69-5.73-10.26-8.33-3.03-2.21-6.39-3.96-9.47-6.11-1.09-.76-1.77-2.11-2.63-3.19,1.53-.29,3.05-.67,4.59-.83.59-.07,1.31.25,1.85.59,2.13,1.36,4.3,2.68,6.28,4.24,2.57,2.01,4.9,4.34,7.47,6.35,2.24,1.75,4.28.89,4.41-1.93.08-1.67-.17-3.71-1.07-5.04-2.04-2.99-4.39-5.41-6.99-7.33l.81-1.11c5,3.73,8.82,8.47,11.07,14.42Z"/>
            <path class="cls-10" d="M135.66,135.62c.9,1.33,1.15,3.37,1.07,5.04-.13,2.83-2.17,3.68-4.41,1.93-2.57-2.01-4.9-4.34-7.47-6.35-1.98-1.56-4.15-2.88-6.28-4.24-.53-.34-1.25-.65-1.85-.59-1.54.16-3.06.54-4.59.83.87,1.08,1.55,2.43,2.63,3.19,3.08,2.15,6.43,3.9,9.47,6.11,3.56,2.59,7.12,5.25,10.26,8.33,3.19,3.12,2.52,5.87-1.49,7.93-1.44.74-3.01,1.34-4.6,1.63-5.93,1.09-11.52,3.06-16.75,6.05-.42.24-.87.55-1.33.58-.47.03-.96-.23-1.45-.36.25-.46.39-1.17.77-1.33,1.04-.45,2.19-.63,3.27-.99,1.53-.51,3.69-.91,3.21-2.96-.48-2.01-2.65-2.01-4.34-1.51-1.7.49-3.25,1.53-4.95,2.07-2.31.75-4.68,1.31-7.05,1.81-.48.1-1.09-.47-1.64-.73.43-.5.77-1.26,1.31-1.45,1.38-.48,2.89-.59,4.27-1.07.84-.29,1.52-1.03,2.27-1.56-.67-.51-1.31-1.06-2.02-1.51-.47-.29-1.02-.45-1.53-.66.04-.27.08-.55.11-.82,5.04,0,10.08.18,15.11-.05,4.85-.22,9.8,2.15,15.32-.62-1.34-.61-2.09-.91-2.81-1.28-3.67-1.91-7.66-3.41-10.95-5.84-5.06-3.73-9.62-8.13-14.46-12.16-.3-.25-.58-.51-.83-.77-2.19-2.28-2.77-5.08-2.4-8.25.22-1.87,1.19-3.24,3.03-3.78,1.25-.37,2.57-.83,3.82-.73,7.6.61,14.57,2.53,20.31,6.77,2.61,1.93,4.95,4.34,6.99,7.33Z"/>
            <path d="M130.14,153.05c.72.37,1.47.67,2.81,1.28-5.51,2.77-10.47.4-15.32.62-5.03.23-10.07.05-15.11.05l-.34-.76c.37-.18.75-.33,1.15-.43,1.06-.25,2.23-.05,3.39-.43-1.31-.21-2.61-.41-3.97-.63l.17-1.02c.6.07,1.35.09,2.28.05,3.75-.13,7.48-.65,11.23-.98,1.23-.11,2.46-.15,4.35-.27-2.03-1.62-3.47-2.68-4.82-3.86-4.34-3.81-8.81-7.48-12.94-11.51l.87-.9c.25.27.53.52.83.77,4.83,4.03,9.4,8.44,14.46,12.16,3.29,2.43,7.27,3.93,10.95,5.84Z"/>
            <path d="M129.48,127.17l-.81,1.11c-5.74-4.25-12.72-6.16-20.31-6.77-1.25-.1-2.57.37-3.82.73-1.83.54-2.81,1.91-3.03,3.78-.37,3.17.21,5.97,2.4,8.25l-.87.9c-.26-.24-.51-.49-.77-.74-2.95-2.93-3.47-8.12-1.44-11.16,1.97-2.95,6.63-7.02,10.88-5.65.76.24,1.85-.53,2.79-.83-.29-.87-.35-1.97-.92-2.55-4.15-4.29-9.02-7.53-14.62-9.64-1.62-.61-2.74-.47-3.65,1.17l-1.07-.18c.1-.17.17-.32.23-.43.67-1.27.67-2.33-.45-3.27-1.87-1.56-3.9-2.69-6.1-3.35l.04-.13c.25-.21.51-.47.8-.75.68.27,1.36.54,2.04.81l-.22.38c.11-.1.23-.21.36-.32.53.21,1.05.42,1.59.64l-.31.33c.15-.08.31-.17.49-.27.88.35,1.77.7,2.67,1.06.09-.93.03-1.86-.18-2.77.3-.25.61-.53.92-.83.3,1.28.44,2.64.51,3.99,12.69,4.4,21.91,12.67,29.04,23.57.42.64,1.17,1.11,1.84,1.55.69.45,1.35.91,1.99,1.39Z"/>
            <path class="cls-10" d="M120.79,150.55c-1.89.11-3.12.16-4.35.27-3.75.33-7.48.85-11.23.98-.93.03-1.68.02-2.28-.05-2.11-.27-2.39-1.39-2.55-4.61-.2-4.08-.65-8.15-1.05-12.22-.07-.75-.42-1.47-.65-2.2-.25.01-.49.03-.73.05-.05.76-.19,1.53-.14,2.29.32,4.64.91,9.28.99,13.93.12,7.11-2.06,9.64-8.85,11.47-.77.21-1.49.56-2.21.95l-.51-1.84c.21-.05.42-.11.63-.17-1.17-1.24-1.27-1.33-4.05-.61l-.14-1.7c1.17-.07,2.26-.42,3.06-1.7.5.07,1.14.15,1.78.27,3.81.71,5.29-.27,5.75-4.21.67-5.68-1.14-11-2.81-16.3-.07-.21-.3-.38-.49-.51-.11-.08-.3-.06-.72-.12.81,4.48,1.61,8.9,2.4,13.32-.31.19-.63.37-.95.55-1.09-.74-2.37-1.64-3.82-2.69-.87-.63-1.8-1.33-2.77-2.07-4.15-3.17-7.58-6.13-10.31-8.66-3.89-3.59-6.35-6.29-7.44-7.44,2.54,2.1,11.7,8.98,13.6,9.02l2.7.37c.49-.27,3.98-2.52,4.88-3.7.19-.26.9-1.23,1.29-2.77.39-1.58.19-2.69.05-4.23-.46-4.77.25-6.79-.55-7.08-.76-.28-1.47,1.39-3.65,2.38-1.03.47-3.45.55-4.53.19-6.26-2.15-12.54-4.25-18.8-6.41-1.47-.51-2.97-1.04-4.24-1.88-.75-.5-1.68-1.53-1.79-2.29-.01-.09-.02-.18,0-.26.13-.97,1.19-2.24,2.14-2.61,1.88-.72,3.98-.83,5.95-1.34,2.74-.72,5.46-1.55,8.18-2.39.93-.29,1.79-.79,2.72-1.11,3.46-1.24,3.99-1.11,5.56,1.83.07.12.13.25.2.38,1.49,2.86,3.71,4.86,7.08,4.91,3.26.06,5.63-1.71,7.03-4.53.04-.08.08-.15.11-.22.91-1.64,2.03-1.79,3.65-1.17,5.61,2.11,10.47,5.35,14.62,9.64.57.59.63,1.69.92,2.55-.94.3-2.03,1.07-2.79.83-4.25-1.37-8.9,2.69-10.88,5.65-2.03,3.05-1.51,8.23,1.44,11.16.25.25.51.5.77.74,4.13,4.03,8.6,7.7,12.94,11.51,1.35,1.18,2.79,2.24,4.82,3.86Z"/>
            <path d="M102.93,151.74l-.17,1.02c-.86-.13-1.75-.27-2.67-.42-.75,6.01-4.77,8.6-10.36,9.6-1.2.22-2.26,1.23-3.39,1.87-2.45,1.41-3.75,1.02-5.25-1.29-.49-.75-1.5-1.14-2.12-1.83-.47-.53-.91-1.09-1.33-1.67l.65-.47c1.4,1.59,3.07.87,4.67.45.31-.08.6-.15.86-.22,2.79-.71,2.89-.63,4.05.61-.21.06-.43.12-.63.17-1.65.46-3.23.89-4.99,1.38.53,2.45,1.8,2.42,3.35,1.65.73-.36,1.43-.79,2.15-1.19.71-.39,1.44-.75,2.21-.95,6.79-1.83,8.97-4.36,8.85-11.47-.08-4.65-.67-9.29-.99-13.93-.05-.76.09-1.53.14-2.29.25-.02.49-.04.73-.05.23.73.57,1.45.65,2.2.4,4.07.85,8.14,1.05,12.22.16,3.22.44,4.34,2.55,4.61Z"/>
            <path d="M95.82,95.66l3.89-4.11c-.49,1.1-1.28,2.51-2.51,3.95-.36.43-.73.81-1.1,1.17-.08-.35-.17-.69-.28-1.01Z"/>
            <path d="M94.18,92.56l1.83-3.19c-.21,1.07-.57,2.44-1.28,3.93-.17-.26-.35-.51-.55-.75Z"/>
            <path d="M95.82,95.66c.11.33.2.67.28,1.01-.31.3-.62.58-.92.83-.07-.3-.15-.6-.25-.9l.89-.95Z"/>
            <path d="M95.82,95.66l-.89.95c-.23-.66-.53-1.31-.9-1.95.17-.27.32-.56.47-.86.09-.17.17-.33.23-.49.47.71.82,1.51,1.09,2.35Z"/>
            <path class="cls-6" d="M95.18,97.51c.21.91.27,1.84.18,2.77-.9-.36-1.79-.71-2.67-1.06.73-.41,1.59-.97,2.49-1.71Z"/>
            <path d="M95.3,105.77c-.03.07-.07.14-.11.22-1.4,2.82-3.77,4.59-7.03,4.53-3.37-.05-5.59-2.05-7.08-4.91-.07-.13-.13-.26-.2-.38l.95-.02c.22-.05.44-.09.66-.13.49-5.33,1.72-5.56,4.77-3.49.19.89.34,1.94.37,3.14.05,1.83-.21,3.39-.5,4.56.69.07,2.45.17,4.28-.83,1.58-.87,2.41-2.11,2.83-2.87l1.07.18Z"/>
            <path d="M94.92,96.61c.1.3.19.6.25.9-.9.75-1.76,1.31-2.49,1.71-.06-.03-.12-.05-.17-.07l2.41-2.55Z"/>
            <path class="cls-6" d="M94.92,96.61l-2.41,2.55c-.53-.22-1.06-.43-1.59-.64.91-.85,2.08-2.12,3.09-3.85.37.63.67,1.29.9,1.95Z"/>
            <path d="M94.73,93.31c-.07.16-.15.33-.23.49-.15.3-.31.59-.47.86-.17-.29-.35-.57-.56-.86l.71-1.24c.2.24.39.49.55.75Z"/>
            <path class="cls-4" d="M94.01,101.89c1.13.94,1.12,2,.45,3.27-.06.11-.13.26-.23.43-.42.75-1.25,2-2.83,2.87-1.83,1-3.59.9-4.28.83.29-1.17.55-2.73.5-4.56-.03-1.2-.18-2.25-.37-3.14-3.05-2.07-4.29-1.84-4.77,3.49-.22.04-.44.08-.66.13-.31-1.99-.75-3.97-.85-5.96-.02-.47,1.15-1.42,1.79-1.43,1.8-.02,3.52.22,5.15.72,2.2.67,4.23,1.79,6.1,3.35Z"/>
            <path d="M91.47,135.15c1.67,5.31,3.47,10.62,2.81,16.3-.47,3.94-1.95,4.91-5.75,4.21-.64-.12-1.28-.2-1.78-.27-.8,1.28-1.89,1.63-3.06,1.7-1.99.12-4.2-.57-5.66,1.12.09.13.18.25.27.35l-.65.47c-.34-.47-.68-.93-1.03-1.39.99-.53,1.97-1.07,2.97-1.58.33-.17.69-.28,1.04-.41l-.18-.84c-4.33.82-8.67,1.62-13,2.48-.62.13-1.19.73-1.79.75-1.03.03-2.06-.06-3.09-.15l.05-.73c3.71-.93,7.09-1.99,10.55-2.57,3.47-.59,7.01-.69,10.72-1.03-2.05-.89-4.59-1.21-5.33-2.53-.28-.5-.4-1.08-.44-1.72l1.23-.05c0,.65,1.09,1.95,1.68,1.97,2.13.07,4.03.09,5.12,2.4.18.37,1.38.46,2.07.37,2.35-.3,3.44-1.87,3.81-3.81-1.63-1.18-3.22-2.33-4.84-3.51l.7-.97c1.45,1.05,2.73,1.95,3.82,2.69.32-.18.63-.36.95-.55-.79-4.42-1.59-8.84-2.4-13.32.42.06.61.04.72.12.19.13.43.31.49.51Z"/>
            <path d="M94.18,92.56l-.71,1.24c-.11-.15-.23-.31-.35-.46-.25-.33-.53-.62-.81-.89.18-.41.33-.79.46-1.17.54.37,1.01.8,1.41,1.28Z"/>
            <path d="M93.46,93.8c.21.29.39.57.56.86-1.01,1.73-2.18,3.01-3.09,3.85-.05-.01-.09-.03-.14-.06l2.67-4.65Z"/>
            <path class="cls-6" d="M93.46,93.8l-2.67,4.65c-.68-.27-1.36-.54-2.04-.81.99-.97,2.17-2.39,3.13-4.28.16-.31.3-.61.43-.91.29.27.56.56.81.89.12.15.23.31.35.46Z"/>
            <path d="M92.24,90.95l1.15-2.01c-.13.67-.32,1.47-.63,2.34-.17-.12-.34-.23-.53-.33Z"/>
            <path d="M92.52,99.15c.05.02.11.04.17.07-.17.1-.33.19-.49.27l.31-.33Z"/>
            <path d="M92.76,91.28c-.13.38-.28.77-.46,1.17-.2-.19-.41-.37-.63-.53l.56-.98c.19.1.36.21.53.33Z"/>
            <path d="M92.24,90.95l-.56.98c-1.31-.97-2.87-1.33-4.61-.85-2.35.65-2.91,2.79-3.4,4.55,1.61.65,3.19,1.27,4.78,1.91l-.5.87-.04.13c-1.63-.5-3.35-.74-5.15-.72-.63,0-1.81.95-1.79,1.43.09,1.99.53,3.97.85,5.96l-.95.02c-1.57-2.94-2.1-3.07-5.56-1.83-.93.33-1.79.83-2.72,1.11-2.71.84-5.43,1.67-8.18,2.39-1.97.51-4.07.62-5.95,1.34-.95.37-2.01,1.63-2.14,2.61-.01.08,0,.17,0,.26l-1.45.15c-.27-1.94.71-3.39,3.08-4.37,1.12-.46,2.35-.67,3.53-.99,1.09-.29,2.19-.55,2.89-.73-.3-2.95-.88-5.67-.73-8.35.09-1.76.93-3.67,1.96-5.16.22-.31.45-.61.7-.88.31.88.66,1.66,1.01,2.33-.15.34-.31.68-.48,1.01.37.03.75.06,1.12.09.12.19.23.37.35.53l-.14-.51c.57.05,1.13.09,1.69.13.07.21.14.39.21.57l-.02-.56c.71.05,1.41.11,2.11.16.14.47.28.89.42,1.25l-.04-1.22c1.86.15,3.7.29,5.55.43-1.23-3.29-3.25-5.25-5.72-5.49l-.04-1.17c2.03.21,4.01,1.35,5.41,3.41,1.07,1.57,1.63,3.51,2.45,5.31,1.63-4.2,3.97-8.22,9.42-7.07,1.03.21,1.9.55,2.65.98ZM79.13,98.19c-1.68-2.17-3.99-2.05-6.11-2.35-1.59-.23-6.43,2.03-6.19,3.65.19,1.27,0,3.16,5.14,1.9,2.33-.92,4.58-2.03,7.16-3.19Z"/>
            <path d="M92.3,92.45c-.13.3-.27.6-.43.91-.96,1.89-2.14,3.31-3.13,4.28l-.3-.12,3.23-5.6c.21.16.43.33.63.53Z"/>
            <path class="cls-6" d="M91.68,91.93l-3.23,5.6c-1.59-.63-3.17-1.26-4.78-1.91.49-1.75,1.05-3.9,3.4-4.55,1.74-.48,3.3-.11,4.61.85Z"/>
            <path d="M90.79,98.45s.09.05.14.06c-.13.11-.25.22-.36.32l.22-.38Z"/>
            <path d="M89.89,126.2c.15,1.55.35,2.65-.05,4.23-.39,1.55-1.1,2.51-1.29,2.77-.9,1.18-4.39,3.43-4.88,3.7l-2.7-.37c-1.89-.03-11.06-6.91-13.6-9.02,0,0-.01,0-.02-.01-.39-.41-.6-.62-.63-.59-.01.01.04.07.13.16l-1.55.33c-.91-1.8-2.99-3.21-4.7-4.53-1.65-1.27-3.67-1.83-3.4-4.73.15-1.55-.96-3.29-1.69-4.85-.34-.73-.56-1.41-.64-2.04l1.45-.15c.11.77,1.04,1.79,1.79,2.29,1.27.84,2.77,1.37,4.24,1.88,6.25,2.16,12.54,4.25,18.8,6.41,1.08.37,3.51.28,4.53-.19,2.18-.99,2.89-2.66,3.65-2.38.81.29.09,2.31.55,7.08Z"/>
            <path d="M88.45,97.53l.3.12c-.29.29-.55.54-.8.75l.5-.87Z"/>
            <path d="M87.89,145.69l-.7.97c-1.95-1.4-3.93-2.84-6.07-4.39-.66,2.44-1.42,4.63-1.76,6.89,0,.03,0,.05,0,.07l-1.23.05c-.08-1.38.23-3.01.23-4.55-1.03-.46-2.19-.98-3.59-1.61-.39,2.87-.67,4.86-1.01,6.24l-.99-.1c.13-.43.21-.95.26-1.55.3-3.52.61-7.04.91-10.56.25.01.49.03.73.05-.08-.14-.13-.37-.25-.41-.28-.09-.55-.19-.83-.3l1.23-1.55c2.73,2.53,6.16,5.49,10.31,8.66.97.74,1.89,1.43,2.77,2.07Z"/>
            <path class="cls-10" d="M87.24,159.57l.51,1.84c-.71.4-1.42.83-2.15,1.19-1.55.77-2.81.8-3.35-1.65,1.75-.49,3.33-.92,4.99-1.38Z"/>
            <path class="cls-10" d="M83.68,157.09l.14,1.7c-.26.07-.55.14-.86.22-1.59.41-3.27,1.13-4.67-.45-.09-.1-.18-.22-.27-.35,1.46-1.69,3.67-1,5.66-1.12Z"/>
            <path class="cls-10" d="M78.56,151.01c.74,1.32,3.28,1.64,5.33,2.53-3.7.34-7.25.45-10.72,1.03-3.46.59-6.83,1.65-10.55,2.57.84-2.27,2.67-1.73,4.01-2.13,1.37-.41,3.05-.5,1.47-2.64,3.73.11,4.86.14,5.64-3.01.35-1.38.62-3.37,1.01-6.24,1.4.63,2.57,1.15,3.59,1.61,0,1.54-.31,3.17-.23,4.55.04.64.16,1.22.44,1.72Z"/>
            <path class="cls-4" d="M73.03,95.84c2.11.3,4.43.18,6.11,2.35-2.58,1.16-4.83,2.27-7.16,3.19-5.15,1.26-4.95-.63-5.14-1.9-.24-1.61,4.6-3.87,6.19-3.65Z"/>
            <path class="cls-6" d="M78.07,94.97c-1.85-.14-3.69-.28-5.55-.43l-.17-5.06c2.47.23,4.49,2.19,5.72,5.49Z"/>
            <path d="M74.81,134.96l-1.23,1.55c-4.01-1.6-6.43-4.61-8.11-8.74-.05-.13-.11-.25-.17-.37l1.55-.33c.11.1.28.24.5.43,0,0,.01,0,.02.01,1.09,1.15,3.55,3.85,7.44,7.44Z"/>
            <path d="M72.76,149.27l.99.1c-.78,3.15-1.91,3.12-5.64,3.01,1.58,2.14-.1,2.23-1.47,2.64-1.34.39-3.17-.14-4.01,2.13l-.05.73c-.32-.03-.64-.06-.95-.08.15-1.25.31-2.51.48-3.92-.2-.3-1.27-1.45-1.09-1.72.63-.91,1.68-2.02,2.63-2.08,1.65-.11,3.35.5,5.03.84,2.43.5,3.59.1,4.09-1.65Z"/>
            <path d="M72.52,94.55l.04,1.22c-.14-.36-.28-.77-.42-1.25.13.01.25.02.38.03Z"/>
            <path d="M72.35,89.49l.17,5.06c-.13,0-.25-.01-.38-.03-.39-1.31-.72-3.02-.69-5.04.3-.02.6-.02.89,0Z"/>
            <path d="M72.31,88.32l.04,1.17c-.29-.03-.59-.03-.89,0,0-.41.03-.81.07-1.2.26,0,.53,0,.79.04Z"/>
            <path d="M72.2,84.86l.11,3.46c-.26-.03-.53-.04-.79-.04.12-1.36.4-2.52.67-3.42Z"/>
            <path class="cls-6" d="M72.14,94.52c-.7-.05-1.41-.11-2.11-.16l-.15-4.48c.44-.21.96-.35,1.58-.4-.03,2.02.3,3.73.69,5.04Z"/>
            <path d="M71.52,88.28c-.03.39-.06.79-.07,1.2-.62.05-1.14.19-1.58.4l-.05-1.35c.56-.16,1.13-.25,1.69-.25Z"/>
            <path d="M70.03,94.36l.02.56c-.07-.18-.14-.37-.21-.57.06,0,.13,0,.19.01Z"/>
            <path d="M69.88,89.88l.15,4.48c-.06,0-.13-.01-.19-.01-.34-1-.69-2.31-.83-3.88.25-.23.53-.43.87-.59Z"/>
            <path d="M69.83,88.53l.05,1.35c-.33.16-.61.36-.87.59-.05-.51-.08-1.05-.07-1.62.29-.13.59-.24.89-.31Z"/>
            <path d="M69.68,84.01l.15,4.52c-.3.07-.6.18-.89.31v-.21c.03-1.89.39-3.47.74-4.62Z"/>
            <path class="cls-6" d="M69.84,94.35c-.56-.05-1.12-.09-1.69-.13l-.5-1.82c.35-.71.76-1.4,1.35-1.93.15,1.57.49,2.88.83,3.88Z"/>
            <path d="M68.94,88.85c0,.57.02,1.11.07,1.62-.59.53-1,1.21-1.35,1.93l-.65-2.33c.6-.52,1.25-.93,1.93-1.22Z"/>
            <path d="M68.16,94.21l.14.51c-.11-.16-.23-.33-.35-.53.07,0,.14,0,.21.01Z"/>
            <path d="M67.66,92.39l.5,1.82c-.07,0-.14,0-.21-.01-.21-.32-.42-.69-.64-1.09.11-.24.23-.48.35-.71Z"/>
            <path class="cls-6" d="M67.95,94.2c-.37-.03-.75-.06-1.12-.09.17-.33.33-.67.48-1.01.22.41.43.77.64,1.09Z"/>
            <path d="M67.01,90.07l.65,2.33c-.12.23-.23.47-.35.71-.35-.67-.71-1.45-1.01-2.33.23-.26.46-.49.71-.71Z"/>
            <path d="M65.4,84.2l1.61,5.86c-.25.22-.49.45-.71.71-.21-.59-.4-1.23-.55-1.91-.41-1.85-.43-3.47-.35-4.67Z"/>
            <path d="M67.35,127.51c-.22-.19-.39-.33-.5-.43-.09-.09-.15-.15-.13-.16.03-.03.25.17.63.59Z"/>
          </g>
          <path class="cls-5" d="M69.71,125.76c-2.34-.14-5.82-.39-10.03-.82-12.02-1.22-18.1-1.88-21.7-4.23-7.2-4.68-9.35-13.03-10.42-17.14-1.32-5.13-3-11.62.64-17.4,3.78-5.99,10.79-7.28,12.99-7.68,3.35-.61,9.52-1.75,13.75,2.31,4.06,3.9,3.84,10.19,2.44,14.17-2.02,5.73-7.96,10.75-12.94,9.79-1.47-.28-2.42-1.01-4.09-2.27-2.11-1.6-6.46-4.9-6.2-9.6.19-3.4,2.67-5.56,3.02-5.87.4-.34,3.89-3.2,7.33-1.75,1.99.84,2.87,2.65,3.19,3.31.81,1.68,1.83,5.38-.31,7.16-2.28,1.9-6.67.35-6.87-.89-.1-.61.76-1.45,1.63-1.62,1.27-.24,2.06,1.08,2.83.72.8-.37.68-2.17.64-2.83-.07-1.04-.18-2.76-1.59-3.91-1.41-1.16-3.18-.95-3.62-.88-3.1.48-4.49,3.89-4.72,4.5-.16.43-.92,2.54-.23,5.01,1.25,4.45,6.56,7.78,11.32,7.02,2.74-.43,4.54-2.1,5.63-3.12.91-.85,3.72-3.45,4.21-7.74.08-.69.61-6.03-3.03-9.24-3.2-2.83-7.55-2.17-11.54-1.57-3.45.52-7.51,1.13-10.43,4.37-3.43,3.8-3.17,8.85-2.93,13.59.18,3.5.48,9.27,4.46,14.21,3.23,4,7.29,5.46,11.76,7.01,12.8,4.43,24.74,2.1,25.13,4.5.03.18,0,.47-.33.89Z"/>
        </g>
        <path class="cls-1" d="M73.65,98.37c.2.23.3,1.77.41,2.36.12.62-.36.6-.46.89-.4,1.1-3.14,1.32-3.49.63-.14-.27-.27-.56-.03-1.54.24-.99.75-2,1.05-2.34.48-.55,1.98-.61,2.52,0Z"/>
      </g>
      <g>
        <path class="cls-7" d="M46.91,20.78c1.47-2.17,1.73-4.98.8-7.39.13-.9-.41-1.57-1.07-1.86-.83-.76-2.53-.72-2.73.64-.1.7-.18,1.39-.23,2.07-1.53,1.63-2.14,4-1.43,6.22.3.95,1.21,1.32,2.01,1.09.71.46,1.89.28,2.45-.46.05-.06.08-.12.13-.18.03-.04.06-.08.08-.12Z"/>
        <path class="cls-5" d="M28.78,17.2c-.59-.93-1.74-1.02-2.54-.33-1.85,1.6-2.33,4.38-2.22,6.72.06,1.29.7,2.51,2.03,2.83,1.28.31,2.32-.49,2.75-1.65.02-.05.04-.11.06-.16,1.39-2.25,1.34-5.17-.08-7.42Z"/>
        <path class="cls-6" d="M56.28,34.7c.8-1.44.82-3.21.17-4.68,1.22-1.47-.91-3.57-2.33-2.23-.71-.07-1.4.35-1.7,1.16-.2.53-.38,1.09-.53,1.65-1.25,1.02-.84,3.27,0,4.87.28.71.72,1.37,1.38,1.95.91.8,2.35.5,2.71-.71.09-.3.16-.67.21-1.08.15-.3.17-.62.1-.92Z"/>
        <path class="cls-9" d="M62.78,7.02c-.18-.22-.39-.4-.62-.54-.48-.91-1.65-1.41-2.45-.4-.11.14-.22.29-.32.43-.42.19-.77.56-.97,1.04-.03.08-.07.17-.1.25-.26.49-.45,1.02-.61,1.54-.65,2.1-1.31,5.34.99,6.74,1.9,1.16,4.43-.03,4.54-2.26.02-.41-.09-.74-.28-.99.59-1.92,1.12-4.26-.19-5.83Z"/>
        <path class="cls-3" d="M29.21.13c-.94.31-1.71,1.34-2.1,2.37-.9,1.26-.68,2.95.35,4.06.56.61,1.26.61,1.81.3.64.06,1.28-.12,1.8-.47.47-.13.9-.4,1.22-.82,1.55-1.99-.28-6.38-3.09-5.45Z"/>
        <path class="cls-2" d="M17.56,29.82c-.1-.15-.2-.27-.31-.39.22-1.64-2.39-2.28-3.15-.65-.67.33-1.12.95-1.51,1.61-.68,1.12-1.17,2.51-.99,3.76-.09.74-.09,1.52.28,2.16.78,1.32,2.26,1.32,3.35.62.51-.07,1-.28,1.42-.63.04-.03.08-.06.12-.1.17-.16.33-.34.47-.54.22-.32.3-.64.28-.93.6-1.57.95-3.51.03-4.9Z"/>
        <path class="cls-8" d="M10.94,19.09c-.25-.76-.94-1.33-1.72-1.09-.51.03-.99.28-1.23.79-.05.1-.09.2-.14.3-.9,1.07-1.29,2.41-1.17,3.76-.16.96-.22,1.94-.16,2.94.1,1.63,2.11,2.16,3.02.82.34-.51.62-1.03.86-1.57,1.29-1.73,1.52-3.99.55-5.94Z"/>
      </g>
    </g>
  </g>
</svg>